<?xml version="1.0" encoding="utf-8"?>
<!-- Generator: Adobe Illustrator 23.0.1, SVG Export Plug-In . SVG Version: 6.00 Build 0)  -->
<svg version="1.1" id="Layer_1" xmlns="http://www.w3.org/2000/svg" xmlns:xlink="http://www.w3.org/1999/xlink" x="0px" y="0px"
	 viewBox="0 0 124.6 60.2" style="enable-background:new 0 0 124.6 60.2;" xml:space="preserve">
<style type="text/css">
	.st0{fill-rule:evenodd;clip-rule:evenodd;fill:#CC2131;}
	.st1{fill-rule:evenodd;clip-rule:evenodd;fill:#2F9C5C;}
	.st2{fill-rule:evenodd;clip-rule:evenodd;fill:#FFFFFF;}
</style>
<path class="st0" d="M28.2,23.7c0.5-0.2,1-0.5,1.2-0.7c-0.3-0.2-0.5-0.3-0.8-0.6c-0.3-0.3-1-1.6-3.5-1.6c-2.8,0-3.9,1.9-3.9,3.4
	c0,0.2,0,0.4,0,0.6c-3.6,1.7-6.8,3.6-10.4,8h9.1c-0.5,0.2-1.3,0.5-1.9,1.1l0.8,2.6c1.2-0.1,2.4-0.4,3.5-0.8c0.8-0.4,4.2-1.9,5.6-6.3
	c0.1-0.4,0.7-2.7,0.7-3.1c0.1-0.3,0.3-1.1,0.9-1.6c-0.2-0.2-0.7-0.6-1.2-0.8C28,23.8,28,23.8,28.2,23.7L28.2,23.7z"/>
<path class="st1" d="M25.3,22.3c-0.8,0-1.4,0.6-1.4,1.4c0,0.8,0.6,1.4,1.4,1.4c0.8,0,1.4-0.6,1.4-1.4C26.7,22.9,26.1,22.3,25.3,22.3
	z"/>
<path class="st0" d="M22.3,15.9h-13L5,28.4h6.8c0.2-0.2,0.5-0.4,0.9-0.7l3-9.6l2,6.6c0.4-0.2,0.8-0.4,1.2-0.6
	c0.2-2.6,2.1-4.1,4.7-4.4L22.3,15.9L22.3,15.9z M3.3,33.4L0,42.9h7.9l2.3-7.5H4.9c0.2-0.6,0.6-1.5,1-2H3.3z"/>
<path class="st1" d="M20.1,36.3l2,6.6h2.1L22,35.8C21.5,36,20.8,36.2,20.1,36.3z"/>
<path class="st0" d="M27.6,31.3c-0.7,1.4-2.1,3.4-4.9,4.8l2,6.8h6.9C31.6,42.9,27.6,31.3,27.6,31.3L27.6,31.3z"/>
<path class="st1" d="M32.7,23.6c-0.5-0.2-1.4-0.5-2.5-0.5c-0.3,0-0.6,0-0.8-0.1c-0.2,0.1-0.8,0.5-1.2,0.7c-0.2,0.1-0.2,0.1,0,0.2
	c0.6,0.3,1.1,0.7,1.2,0.8c0.8-0.6,1.5-0.1,3.3-0.9C32.9,23.8,32.9,23.7,32.7,23.6L32.7,23.6z M2.5,30.8C2.5,30.8,2.6,30.8,2.5,30.8
	L2.5,30.8c0.1,0.1,0,0.1,0,0.1l0,0c-1.2,0-2,0.9-2.1,1.9h6.8c-0.5,0.5-1.1,1.2-1.4,2h10.4l2.4,8h2.1l-1.9-6.4l-0.8-2.6
	c0.6-0.5,1.4-0.8,1.9-1.1h-9.1c3.6-4.4,6.8-6.3,10.4-8c0-0.2,0-0.5,0-0.6c0-1.5,1.2-3.4,3.9-3.4c0.9,0,1.9,0.2,2.7,0.7
	c-0.4-0.4-1.9-1.3-3.4-1.2c-3.1,0-5,2-4.8,4.2c-2,0.9-5.4,2.7-7.6,4.5H0.4C0.5,30,1.3,30.8,2.5,30.8L2.5,30.8z"/>
<path class="st2" d="M25.2,23.9l1.4-0.7c-0.2-0.4-0.5-0.7-0.9-0.8l-0.6,1.3C25,23.9,25.1,23.9,25.2,23.9z"/>
<path class="st0" d="M124.5,37.3c0,3,0.1,5.6,0.1,5.6h-6.6l0-8.4c0-2.9-0.9-3.9-2.4-3.9c-2.1,0-3.1,1.6-3.1,4.8l0,7.5H106
	c0.2-5,0-12.5-0.2-17.2h5.8c0,0,0.1,0.7,0.1,1.8l0,0.7c0.8-1.1,3.2-3,6.1-2.8c2.9,0.1,5,1.5,5.9,3.4c0.5,1.1,0.7,2.7,0.7,3.9V37.3z
	 M43.5,40.7c-1,1.1-3.3,2.7-5.8,2.5c-3.6-0.3-6.5-1.9-6.5-7.3l0-10.2h6.5l0,8.4c0,2.9,0.8,3.9,2.4,3.9c2.1,0,3.1-1.9,3.1-4.8l0-7.5
	h6.4c-0.2,5,0,12.5,0.2,17.2h-5.8C43.4,42.4,43.5,40.7,43.5,40.7L43.5,40.7z M98.3,40.7c0,1.5,0.1,2.2,0.1,2.2h5.6
	c0,0-0.2-2.9-0.2-8.7c0-0.1,0-3.6-0.4-4.6c-0.5-1-1.4-3.3-5.5-4.2c-4.1-0.8-8.5,0.7-9.1,1.2v4.2c0,0,2.8-1.5,5-1.5
	c1.7,0,4,0.1,4.1,2.5c0,0-0.9,0-2.1,0c-4,0-9,0.8-9.1,5.6c-0.1,3.8,3.3,5.6,6.2,5.5C92.9,43.1,96.3,43.2,98.3,40.7z"/>
<path class="st2" d="M92.8,37.4c-0.1-2.4,4.5-2.1,5.1-1.9C97.9,39.6,92.9,40.1,92.8,37.4L92.8,37.4z"/>
<path class="st0" d="M78.9,34.5c0-2.9-1-3.9-2.4-3.9c-2.1,0-3.1,1.5-3.1,4.8l0,7.5h-6.4l0-22.2h6.4l0,6.8c1.1-1,3-2.2,5.4-2.1
	c2.9,0.1,6.6,1.5,6.6,7.7v9.9h-6.5V34.5L78.9,34.5z M65.1,31.3c-2.3-1.9-7.9-1.7-7.9,2.8c0,5,6.1,4.8,8.4,3.1l0.2,4.9
	c-3.3,1.7-15.1,2.3-15.1-7.9c0-10.2,11.6-9.7,14.9-7.7L65.1,31.3z"/>
</svg>
