<?xml version="1.0" encoding="utf-8"?>
<!-- Generator: Adobe Illustrator 23.0.1, SVG Export Plug-In . SVG Version: 6.00 Build 0)  -->
<svg version="1.1" id="Layer_1" xmlns="http://www.w3.org/2000/svg" xmlns:xlink="http://www.w3.org/1999/xlink" x="0px" y="0px"
	 viewBox="0 0 391.2 118" style="enable-background:new 0 0 391.2 118;" xml:space="preserve">
<style type="text/css">
	.st0{fill:#005BBF;}
	.st1{fill:#231F20;}
</style>
<path class="st0" d="M222.3,35.8c-12.4,0-20.9,8.5-20.9,20.5V57c0,12,8.5,20.3,20.9,20.3s20.9-8.5,20.9-20.5v-0.7
	C243.2,44.1,234.7,35.8,222.3,35.8"/>
<g>
	<path class="st1" d="M263.9,39.9c-4.4,0-7.6,2.2-9.6,4.6V41c0-0.2-0.2-0.4-0.4-0.4h-8.7c-0.2,0-0.4,0.2-0.4,0.4v39.3
		c0,0.2,0.2,0.7,0.4,0.7h8.7c0.2,0,0.4-0.2,0.4-0.7V69.4c2.2,2.6,5.5,4.1,9.6,4.1c8.7,0,14.4-6.5,14.4-16.8v-0.4
		C278.1,46.5,272.4,39.9,263.9,39.9z M268.3,57.1c0,4.1-1.3,8.9-7,8.9c-4.6,0-7.2-3-7.2-8.9v-0.4c0-5.7,2.6-8.9,7.2-8.9
		c4.4,0,7,3.3,7,8.9V57.1z"/>
	<path class="st1" d="M53.2,39.9c-9.8,0-16.8,7-16.8,17v0.4c0,10,6.8,16.6,17,16.6c8.9,0,14.6-4.1,15.7-11.1c0-0.2,0-0.2-0.2-0.4
		c0-0.2-0.2-0.2-0.4-0.2h-8.3c-0.2,0-0.4,0.2-0.4,0.4c-0.4,2.6-2.6,3.9-6.1,3.9c-4.4,0-7-2.6-7.2-7.2h22.2c0.2,0,0.4-0.2,0.4-0.4
		v-2.4C69.1,44.3,60.8,39.9,53.2,39.9z M46,53c0.9-3.7,3-5.9,6.5-5.9c3.9,0,5.9,2,6.3,5.9H46z"/>
	<path class="st1" d="M152.5,40.1c-4.4,0-7.4,1.7-9.6,5V41c0-0.2-0.2-0.4-0.4-0.4h-8.7c-0.2,0-0.4,0.2-0.4,0.4v31.6
		c0,0.2,0.2,0.4,0.4,0.4h8.7c0.2,0,0.4-0.2,0.4-0.4V56.7c0-5.2,2.8-7.6,9.4-7.6h0.2c0.2,0,0.2,0,0.4-0.2c0,0,0.2-0.2,0.2-0.4v-8.1
		c0-0.2,0-0.2-0.2-0.4C152.9,40.1,152.7,40.1,152.5,40.1z"/>
	<path class="st1" d="M170.6,39.9c-8.9,0-14.2,4.1-14.8,11.3c0,0.2,0,0.2,0.2,0.4c0,0,0.2,0.2,0.4,0.2h8.3c0.2,0,0.4-0.2,0.4-0.4
		c0.4-2.6,2-3.9,4.8-3.9c3.3,0,4.6,1.3,4.6,5.2v0.7h-3.1c-7.6,0-17,2-17,10.7c0,6.3,4.1,10,11.1,10c3.9,0,6.8-1.1,8.9-3.5V73
		c0,0.2,0.2,0.4,0.4,0.4h8.5c0.2,0,0.4-0.2,0.4-0.4V52.6C184.3,44.1,179.7,39.9,170.6,39.9z M174.7,61.7c0,3-2.6,5-6.3,5
		c-2.6,0-4.1-1.1-4.1-3.3c0-2.8,2.2-3.9,7.4-3.9h2.8v2.2C174.5,61.7,174.7,61.7,174.7,61.7z"/>
	<path class="st1" d="M199.6,34.2h-8.7c-0.2,0-0.4,0.2-0.4,0.4v37.9c0,0.2,0.2,0.4,0.4,0.4h8.7c0.2,0,0.4-0.2,0.4-0.4V34.9
		C200,34.5,199.8,34.2,199.6,34.2z"/>
	<path class="st1" d="M299.3,39.9c-10,0-17.2,7-17.2,16.8v0.4c0,9.8,7,16.6,17.2,16.6c10,0,17.2-7,17.2-16.8v-0.4
		C316.5,46.7,309.3,39.9,299.3,39.9z M306.5,57.1c0,5.7-2.6,9.2-7.2,9.2s-7.2-3.3-7.2-9.2v-0.4c0-5.7,2.6-8.9,7.2-8.9
		s7.2,3.3,7.2,9.2V57.1z"/>
	<path class="st1" d="M325.2,29.7c-2.8,0-5,2.2-5,4.8s2.2,4.8,5,4.8s5-2,5-4.8S328,29.7,325.2,29.7z"/>
	<path class="st1" d="M329.6,40.6h-8.7c-0.2,0-0.4,0.2-0.4,0.4v31.6c0,0.2,0.2,0.4,0.4,0.4h8.7c0.2,0,0.4-0.2,0.4-0.4V41
		C330.2,40.8,329.8,40.6,329.6,40.6z"/>
	<path class="st1" d="M32.5,60.2h-7.9c-0.2,0-0.4,0.2-0.4,0.4c-0.4,3.5-2.6,5.7-6.3,5.7c-5.9,0-7.2-5-7.2-9.2v-0.4
		c0-5.5,2.6-8.9,7-8.9c3.5,0,5.2,1.5,5.9,5c0,0.2,0.2,0.4,0.4,0.4h8.3l0,0c0.2,0,0.4-0.2,0.4-0.4c0,0,0,0,0-0.2
		C32,44.5,26.4,40,17.4,40C7.6,40,0.6,47,0.6,57v0.4c0,10,6.5,16.6,16.8,16.6c9.2,0,15-5,15.7-13.1c0-0.2,0-0.2-0.2-0.4
		C32.7,60.2,32.5,60.2,32.5,60.2z"/>
	<path class="st1" d="M92.7,39.9c-4.1,0-7.6,1.5-9.8,4.4V41c0-0.2-0.2-0.4-0.4-0.4h-8.7c-0.2,0-0.4,0.2-0.4,0.4v31.6
		c0,0.2,0.2,0.4,0.4,0.4h8.7c0.2,0,0.4-0.2,0.4-0.4V54.3c0-3.9,2.2-6.3,6.1-6.3c3.5,0,5,1.7,5,5.9v18.8c0,0.2,0.2,0.4,0.4,0.4h8.7
		c0.2,0,0.4-0.2,0.4-0.4V52.6C103.8,44.5,99.7,39.9,92.7,39.9z"/>
	<path class="st1" d="M389.5,47.8c0.2,0,0.4-0.2,0.4-0.4V41c0-0.2-0.2-0.4-0.4-0.4h-6.3v-5.7c0-0.2-0.2-0.4-0.4-0.4h-8.7
		c-0.2,0-0.4,0.2-0.4,0.4v5.7H371c-0.2,0-0.4,0.2-0.4,0.4v6.1c0,0.2,0.2,0.4,0.4,0.4h2.6V63c0,6.8,3.7,10.5,10.7,10.5
		c2,0,3.9-0.2,5.5-0.9c0.2,0,0.4-0.2,0.4-0.4v-6.8c0-0.2,0-0.4-0.2-0.4s-0.4-0.2-0.4,0c-0.9,0.4-2,0.7-3,0.7c-2,0-3-1.1-3-3.3V47.8
		H389.5z"/>
	<path class="st1" d="M126.7,40.6h-6.3v-5.7c0-0.2-0.2-0.4-0.4-0.4h-8.7c-0.2,0-0.4,0.2-0.4,0.4v5.7h-2.8c-0.2,0-0.4,0.2-0.4,0.4
		v6.1c0,0.2,0.2,0.4,0.4,0.4h2.6V63c0,6.8,3.7,10.5,10.7,10.5c2,0,3.9-0.2,5.4-0.9c0.2,0,0.4-0.2,0.4-0.4v-6.8c0-0.2,0-0.4-0.2-0.4
		s-0.4-0.2-0.4,0c-0.9,0.4-2,0.7-3.1,0.7c-2,0-3.1-1.1-3.1-3.3V47.8h6.3c0.2,0,0.4-0.2,0.4-0.4V41C127.4,40.8,126.9,40.6,126.7,40.6
		z"/>
	<path class="st1" d="M355.7,39.9c-4.1,0-7.6,1.5-9.8,4.4V41c0-0.2-0.2-0.4-0.4-0.4h-8.7c-0.2,0-0.4,0.2-0.4,0.4v31.6
		c0,0.2,0.2,0.4,0.4,0.4h8.7c0.2,0,0.4-0.2,0.4-0.4V54.3c0-3.9,2.2-6.3,6.1-6.3c3.5,0,5,1.7,5,5.9v18.8c0,0.2,0.2,0.4,0.4,0.4h8.7
		c0.2,0,0.4-0.2,0.4-0.4V52.6C366.9,44.5,362.7,39.9,355.7,39.9z"/>
</g>
</svg>
