<?xml version="1.0" encoding="utf-8"?>
<!-- Generator: Adobe Illustrator 23.0.1, SVG Export Plug-In . SVG Version: 6.00 Build 0)  -->
<svg version="1.1" id="Layer_1" xmlns="http://www.w3.org/2000/svg" xmlns:xlink="http://www.w3.org/1999/xlink" x="0px" y="0px"
	 viewBox="0 0 70.22 59.89" style="enable-background:new 0 0 70.22 59.89;" xml:space="preserve">
<style type="text/css">
	.st0{fill:#0F3770;}
	.st1{fill:#FFFFF4;}
</style>
<g id="surface1">
	<path class="st0" d="M60.1,30.13c0,15.91-12.9,28.8-28.8,28.8c-15.91,0-28.8-12.89-28.8-28.8c0-15.91,12.89-28.8,28.8-28.8
		C47.2,1.33,60.1,14.22,60.1,30.13"/>
	<path class="st1" d="M43.03,37.17c-0.97,0.37-2.91,0.92-5.18,0.92c-2.54,0-4.63-0.65-6.27-2.22c-1.44-1.39-2.34-3.64-2.34-6.25
		c0-5.01,3.46-8.67,9.09-8.67c1.94,0,3.49,0.42,4.21,0.77l-0.55,1.77c-0.9-0.42-2.02-0.72-3.71-0.72c-4.09,0-6.75,2.54-6.75,6.75
		c0,4.26,2.54,6.77,6.47,6.77c1.42,0,2.39-0.2,2.89-0.45v-5.01H37.5V29.1h5.53V37.17"/>
	<path class="st1" d="M47.29,35.28c0.97,0.62,2.36,1.09,3.86,1.09c2.22,0,3.51-1.14,3.51-2.86c0-1.54-0.9-2.47-3.16-3.31
		c-2.74-1-4.43-2.44-4.43-4.78c0-2.61,2.17-4.56,5.43-4.56c1.69,0,2.96,0.4,3.68,0.82l-0.6,1.77c-0.52-0.32-1.64-0.8-3.16-0.8
		c-2.29,0-3.16,1.37-3.16,2.51c0,1.57,1.02,2.34,3.34,3.24c2.84,1.12,4.26,2.46,4.26,4.93c0,2.59-1.89,4.86-5.85,4.86
		c-1.62,0-3.39-0.5-4.28-1.1L47.29,35.28"/>
	<path class="st0" d="M65.06,23.77h-0.05l-2.81,1.52l-0.42-1.67l3.54-1.89h1.87v16.19h-2.12V23.77"/>
	<path class="st1" d="M8.48,29.99c0-12.79,10.36-23.15,23.15-23.15c0,0,0.01,0,0.01,0c-0.67-0.06-1.35-0.09-2.03-0.09
		c-12.85,0-23.26,10.42-23.26,23.26c0,12.85,10.41,23.26,23.26,23.26c0.86,0,1.71-0.05,2.54-0.14c-0.18,0.01-0.35,0.01-0.53,0.01
		C18.85,53.14,8.48,42.77,8.48,29.99"/>
	<path class="st1" d="M14.16,30.23c0-11.41,9.25-20.66,20.67-20.66c0,0,0.01,0,0.01,0c-0.6-0.05-1.2-0.08-1.81-0.08
		c-11.47,0-20.77,9.3-20.77,20.77c0,11.47,9.3,20.77,20.77,20.77c0.77,0,1.52-0.04,2.27-0.12c-0.16,0-0.31,0.01-0.47,0.01
		C23.41,50.89,14.16,41.64,14.16,30.23"/>
	<path class="st1" d="M19.62,29.84c0-9.6,7.78-17.37,17.37-17.37c0,0,0.01,0,0.01,0c-0.5-0.04-1.01-0.07-1.52-0.07
		c-9.64,0-17.46,7.82-17.46,17.46s7.81,17.46,17.46,17.46c0.64,0,1.28-0.04,1.91-0.11c-0.13,0-0.26,0.01-0.4,0.01
		C27.4,47.21,19.62,39.44,19.62,29.84"/>
	<path class="st1" d="M24.39,29.85c0-7.88,6.38-14.26,14.26-14.26l0.01,0c-0.41-0.04-0.83-0.06-1.25-0.06
		c-7.92,0-14.33,6.42-14.33,14.33c0,7.91,6.41,14.33,14.33,14.33c0.53,0,1.05-0.03,1.57-0.08c-0.11,0-0.22,0-0.33,0
		C30.77,44.1,24.39,37.72,24.39,29.85"/>
</g>
</svg>
