<?xml version="1.0" encoding="utf-8"?>
<!-- Generator: Adobe Illustrator 23.0.1, SVG Export Plug-In . SVG Version: 6.00 Build 0)  -->
<svg version="1.1" id="Layer_1" xmlns="http://www.w3.org/2000/svg" xmlns:xlink="http://www.w3.org/1999/xlink" x="0px" y="0px"
	 viewBox="0 0 60.08 60.08" style="enable-background:new 0 0 60.08 60.08;" xml:space="preserve">
<style type="text/css">
	.st0{display:none;fill:#FFFFFF;}
	.st1{fill:#015294;}
</style>
<path class="st0" d="M-2439.92-2439.92h2500v2500h-2500V-2439.92z"/>
<path class="st1" d="M30.41,1.04c0.88-0.01,1.76-0.2,2.63-0.02c3.86,0.34,7.67,1.4,11.11,3.21c4.45,2.28,8.27,5.74,11.05,9.89
	c2.83,4.22,4.51,9.19,4.89,14.26c-0.06,1.34-0.1,2.69,0.03,4.03c-0.28,3.85-1.24,7.67-2.96,11.14c-1.96,4.03-4.86,7.6-8.4,10.35
	c-4.4,3.45-9.81,5.61-15.38,6.12c-0.85,0.06-1.7,0.22-2.55,0.15c-0.57-0.04-1.14,0.14-1.69-0.09c2.08-5.86,4.16-11.72,6.26-17.57
	c2.29-0.04,4.57,0.02,6.86-0.03c1.46-0.05,2.9-0.94,3.38-2.36c1.93-5.44,3.92-10.87,5.79-16.34c0.31-0.83,0.48-1.75,0.23-2.61
	c-0.33-1.1-1.33-1.87-2.41-2.16c-0.94-0.29-1.92-0.18-2.89-0.2c-2.93-0.01-5.87,0.02-8.8-0.01c-0.05,0.1-0.14,0.29-0.19,0.39
	c-4.75,13.34-9.49,26.69-14.26,40.03c-4.9-1.27-9.46-3.82-13.1-7.34c-4.38-4.2-7.43-9.78-8.55-15.74c-0.35-1.79-0.48-3.61-0.58-5.43
	c0.08-3.79,0.7-7.59,2.13-11.11c3.48-8.9,11.53-15.9,20.89-17.9c-4.79,13.29-9.47,26.61-14.26,39.9c0.31,0.09,0.63,0.06,0.94,0.06
	c1.75-0.01,3.49,0,5.24,0c0.24,0,0.21-0.33,0.31-0.48c2.1-5.94,4.23-11.87,6.34-17.81c0.13-0.37,0.24-0.74,0.41-1.09
	c1.09,0.02,2.19-0.01,3.28,0.01c-2.29,6.43-4.57,12.88-6.9,19.3c0.24,0.1,0.51,0.07,0.76,0.07c1.83-0.02,3.67,0.01,5.5-0.01
	c2.07-5.85,4.17-11.68,6.25-17.53c0.44-1.2,0.48-2.61-0.22-3.71c-0.62-0.98-1.79-1.44-2.9-1.49c-1.53-0.05-3.05,0-4.58-0.02
	C26.16,12.95,28.33,7.01,30.41,1.04z"/>
<path class="st1" d="M42.57,22.36c0.18-0.21,0.51-0.08,0.75-0.12c0.85,0.02,1.69-0.01,2.54,0.01c-1.97,5.63-4.04,11.24-5.98,16.88
	c-1.1,0.08-2.2,0.03-3.3,0.02C38.59,33.56,40.57,27.96,42.57,22.36L42.57,22.36z"/>
</svg>
