<?xml version="1.0" encoding="utf-8"?>
<!-- Generator: Adobe Illustrator 23.0.1, SVG Export Plug-In . SVG Version: 6.00 Build 0)  -->
<svg version="1.1" id="Layer_1" xmlns="http://www.w3.org/2000/svg" xmlns:xlink="http://www.w3.org/1999/xlink" x="0px" y="0px"
	 viewBox="0 0 434.3 133" style="enable-background:new 0 0 434.3 133;" xml:space="preserve">
<style type="text/css">
	.st0{display:none;fill-rule:evenodd;clip-rule:evenodd;fill:#FFFFFF;}
	.st1{fill-rule:evenodd;clip-rule:evenodd;fill:#C6232D;}
</style>
<g>
	<path class="st0" d="M-2065.7-1344.8h2500v2500h-2500V-1344.8z"/>
	<path class="st1" d="M255.6,69.8c-0.4,1-0.6,2-1,3c-4.8-16.7-19.2-23.6-28-15.1c0,0,7.9-6.3,17.6,2c2,2,7.1,8.1,7.1,19.8
		c-1.6,2-3.2,4-5.4,5.7c4.4-17-4.6-30.1-16.5-27.2c-0.2,0,9.9-1.4,13.9,10.5c1,2.8,2.2,10.7-3.6,20.8c-2.4,1-4.8,1.8-7.5,2.2
		c12.3-12.5,11.1-28.5-0.6-32.1c-0.2,0,9.3,3.8,6.9,16.3c-0.6,2.8-3.4,10.1-13.7,15.9c-1.2-0.2-2.6-0.4-4-0.6
		c-1.2-0.4-2.2-0.8-3.4-1.2c16.9-4.6,23.8-19,15.3-28c0,0,6.3,7.9-2,17.5c-1.8,2-8.1,7.1-19.8,7.1c-2-1.6-4-3.2-5.6-5.2
		c16.9,4.2,30.3-4.6,27.2-16.8c0,0,1.6,9.9-10.5,14.1c-2.6,1-10.5,2.2-20.6-3.6c-1-2.3-1.8-4.8-2.2-7.3c12.5,12.1,28.2,10.9,31.9-1
		c0,0-3.6,9.5-16.1,7.1c-2.8-0.6-10.3-3.4-16.1-13.5c0.2-1.4,0.4-2.8,0.8-4.2c0.2-1,0.6-2,1-3c4.6,16.5,19,23.4,28,14.9
		c0,0-7.9,6.3-17.6-2c-2.2-2-7.1-7.9-7.1-19.6c1.4-2,3.2-4,5-5.4c-4,16.5,4.8,29.7,16.7,26.8c0.2,0-9.9,1.4-13.9-10.5
		c-1-2.8-2.2-10.5,3.4-20.4c2.2-1.2,4.6-1.8,7.3-2.4c-11.9,12.5-10.7,28,1,31.7c0.2,0-9.3-3.6-6.9-16.1c0.6-2.8,3.2-10.1,13.3-15.9
		c1.4,0.2,3,0.4,4.6,0.8c1,0.2,1.8,0.6,2.8,0.8c-16.5,4.8-23.4,19.2-14.9,28c0,0-6.3-7.9,2.2-17.5c1.8-2,7.9-7.1,19.4-7.1
		c2,1.4,4,3.2,5.6,5.2c-16.8-4-29.7,4.8-26.8,16.7c0,0-1.6-9.9,10.5-14.1c2.6-0.8,10.3-2.2,20.4,3.6c1.2,2.3,2,4.7,2.4,7.3
		c-12.5-11.9-28.2-10.7-31.9,1c0,0.2,3.6-9.3,16.1-6.9c2.8,0.6,10.3,3.2,15.9,13.3C256.2,66.7,256,68.3,255.6,69.8L255.6,69.8z
		 M87.9,78.5c3.6,0,4.4-0.2,6.5-1.6h9.9c-3.8,6.3-11.1,10.5-19.2,9.1c-5-1-9.5-5.4-10.7-10.3c-1.6-7.5,2-14.7,7.9-19
		c4.4-3.4,11.7-4.2,16.7-1.4c3.2,1.6,4.8,3.6,6.1,6c1.6,3.4,1.8,7.9,0.8,11.7H82.5C82.5,73,81.7,77.7,87.9,78.5L87.9,78.5z
		 M84.1,65.6h13.7c0,0-1.2-5.2-7.1-4.2C85.9,62.1,84.1,65.6,84.1,65.6z M413.3,54.3h-9.9l-11.1,11.1l4.2-22.8h-8.5l-8.3,43.2h8.5
		l2.6-13.3l9.3,13.1h9.7L398.4,69L413.3,54.3L413.3,54.3z M432.5,54.3h-4l2.2-11.7h-9.1l-2.2,11.7h-4.2l-1.4,7.5h4.2l-4.4,23.6h8.9
		l4.6-23.6h3.8L432.5,54.3z M44.3,68.2l25-30.3h9.1l-9.1,47.6h-9.1l6.3-31.3L40.7,85.5h-8.7l7.3-31.7L12.5,85.5H1.4l40.5-47.6h8.7
		L44.3,68.2L44.3,68.2z M296.5,68l24.8-30.3h9.3l-9.3,47.6h-9.1l6.3-31.3l-25.8,31.3H284l7.5-31.7l-27,31.7h-11.1l40.5-47.6h8.7
		L296.5,68L296.5,68z M383.3,53c-3.2,0-6.5,2.2-7.9,4.2l0.6-2.8v-0.2h-8.7l-5.9,31.3h8.7l3-17l0.2,0.2c0-1.8,2.2-5,4.4-6.7
		c1.4-0.8,2.8-1,4.4-1l1.6-8.1L383.3,53L383.3,53L383.3,53z M158.1,54.3l-6.1,31.3h-8.7l6.3-31.3C149.6,54.3,158.1,54.3,158.1,54.3z
		 M151.7,42.8l-1.2,5.6h8.7l1-5.6H151.7z M148.4,42.6l-8.7,43h-8.9l0.2-0.6c-2.2,0.8-5,1.2-8.1,1.2c-9.1,0-15.5-7.5-14.3-16.5
		c1-8.9,9.3-16.1,18.4-16.1c3.6,0,7.1,1.2,9.5,3.2l2.8-14.1H148.4L148.4,42.6z M124.4,78.7c5.2,0,9.9-3.6,10.1-9.1
		c0-4-2.2-7.7-7.5-8.3c-4.4-0.6-9.7,3.6-10.5,8.1C115.6,75.2,119.8,78.7,124.4,78.7z M194.6,54.3l-5.9,31.3h-8.7v-0.6
		c-2,0.8-4.6,1.2-7.5,1.2c-9.1,0-15.5-7.3-14.5-16.3c1.2-9.1,9.5-16.3,18.6-16.3c3.4,0,6.5,1,8.9,2.8l0.4-2L194.6,54.3L194.6,54.3z
		 M174.5,78.7c5.6-0.4,8.7-3.8,9.1-8.9c0.4-4.6-2-8.1-6.5-8.7c-5.4-0.6-10.5,3.8-10.9,8.7C165.4,76.3,170.8,78.9,174.5,78.7z
		 M363.7,54.7l-5.9,31.3h-8.7l0.2-0.6c-2.2,0.6-4.6,1-7.7,1c-8.9,0-15.3-7.3-14.3-16.3c1.2-8.9,9.5-16.1,18.6-16.1
		c3.4,0,6.5,1,8.9,2.6l0.4-1.8H363.7L363.7,54.7z M343.7,78.9c5.6-0.2,8.7-3.8,8.9-8.9c0.4-4.4-2-8.1-6.3-8.5
		c-5.6-0.6-10.5,3.6-11.1,8.5C334.6,76.4,340.1,79.1,343.7,78.9L343.7,78.9z"/>
</g>
</svg>
