<?xml version="1.0" encoding="utf-8"?>
<!-- Generator: Adobe Illustrator 23.0.1, SVG Export Plug-In . SVG Version: 6.00 Build 0)  -->
<svg version="1.1" id="Layer_1" xmlns="http://www.w3.org/2000/svg" xmlns:xlink="http://www.w3.org/1999/xlink" x="0px" y="0px"
	 viewBox="0 0 256.6 117" style="enable-background:new 0 0 256.6 117;" xml:space="preserve">
<style type="text/css">
	.st0{fill-rule:evenodd;clip-rule:evenodd;fill:#D26E30;stroke:#D26E30;stroke-width:1.051;stroke-miterlimit:2.613;}
	.st1{fill-rule:evenodd;clip-rule:evenodd;fill:#D26E30;}
	.st2{fill:none;stroke:#D26E30;stroke-width:1.051;stroke-miterlimit:2.613;}
</style>
<path class="st0" d="M136.1,54.9h5.3c5.8,0,8.4,0,8.4,4.9c0,15.1,0.4,1.8,0,15.1h12.9V58c-0.4-2.7,0.9-7.6-7.6-7.6
	c4.4,0,8.4-3.1,8.4-9.8c0-10.2-10.7-12-18.6-12h-21.8v46.2h12.9L136.1,54.9L136.1,54.9z M136.1,46.4v-8.9h5.3c4.4,0,8.9-0.4,8.9,4.4
	c0,4.9-4.4,4.4-8.9,4.4L136.1,46.4L136.1,46.4z M12.6,74.9V46.4l6.7,28.4h12.4l6.7-31.1v31.1h13.3V28.6H30.4l-3.5,21.8l-4.5-21.8
	H1.9v46.2H12.6L12.6,74.9z M57.9,39.3h13.3v35.6H57.9V39.3L57.9,39.3z M188.9,75.8c14.2,0,22.6-8.9,22.6-24
	c0-14.7-8.4-23.6-22.6-23.6c-14.2,0-22.6,8.9-22.6,24C166.3,66.9,174.7,75.8,188.9,75.8z M198.2,52.2c0,6.7-1.3,16.4-9.3,16.4
	c-8.4,0-9.3-9.8-9.3-16.4c0-7.1,0.9-16.4,9.3-16.4C196.9,35.8,198.2,45.1,198.2,52.2z"/>
<path class="st1" d="M105.9,58c0,9.8-8,9.3-8.4,9.3c-5.8,0-9.3-6.2-9.3-15.1c0-7.5,1.8-16.9,9.3-16.9c4,0,7.6,3.1,7.6,7.6h12.9
	c-1.3-10.7-9.3-14.7-21.8-14.7s-22.2,9.3-22.2,23.5c0,14.7,9.8,23.6,21.8,23.6c7.1,0,11.6-4,11.6-4v3.6h11.1v-28H96.5v8.4h9.3V58
	L105.9,58z"/>
<path class="st2" d="M105.9,58c0,9.8-8.4,9.3-8.4,9.3c-5.8,0-9.3-6.2-9.3-15.1c0-7.5,1.8-16.9,9.3-16.9c4,0,7.6,3.1,7.6,7.6h12.9
	c-1.3-10.7-9.3-14.7-21.8-14.7s-22.2,9.3-22.2,23.5c0,14.7,9.8,23.6,21.8,23.6c7.1,0,11.6-4,11.6-4v3.6h11.1v-28H96.5v8.4h9.3V58
	L105.9,58z"/>
<path class="st0" d="M57.9,28.6h13.3v8H57.9V28.6z M254.2,43.3c0.9-11.1-10.2-15.1-19.5-15.1c-9.8,0-20,3.1-20.4,14.2
	c0,4.9,2.7,9.3,7.1,11.6c10.2,4.4,20.4,3.5,20.4,8.9c0,4.9-4.4,5.3-7.1,5.3c-4.9,0-8-3.6-8-8h-12.9c0,12.4,9.8,15.6,20.4,15.6
	c10.7,0,21.8-4.4,21.8-14.2c0-12-12.4-13.3-20.4-15.5c-3.1-0.9-7.6-1.3-7.6-4.9c0-1.8,0.9-4.4,5.8-4.4c2.2,0,4.4,0.4,5.8,1.3
	c0.9,1.3,2.2,3.5,2.2,5.3L254.2,43.3L254.2,43.3z"/>
</svg>
