<?xml version="1.0" encoding="utf-8"?>
<!-- Generator: Adobe Illustrator 23.0.1, SVG Export Plug-In . SVG Version: 6.00 Build 0)  -->
<svg version="1.1" id="Layer_1" xmlns="http://www.w3.org/2000/svg" xmlns:xlink="http://www.w3.org/1999/xlink" x="0px" y="0px"
	 viewBox="0 0 545.3 152.2" style="enable-background:new 0 0 545.3 152.2;" xml:space="preserve">
<style type="text/css">
	.st0{display:none;fill-rule:evenodd;clip-rule:evenodd;fill:#FFFFFF;}
	.st1{fill-rule:evenodd;clip-rule:evenodd;fill:#CC2A2D;}
</style>
<g>
	<path class="st0" d="M546.6,1284.4h-2500v-2500h2500"/>
	<path class="st1" d="M541.6,99.8v1.1h0.4c0.2,0,0.4-0.2,0.4-0.2c0.2,0,0.2-0.2,0.2-0.2c0-0.2,0-0.4-0.2-0.4c0,0-0.2-0.2-0.4-0.2
		L541.6,99.8L541.6,99.8z M540.9,99.6h1.1c0.4,0,0.9,0,1.1,0.2c0,0,0.2,0.2,0.2,0.4c0,0.2,0,0.4-0.2,0.7c0,0-0.2,0.2-0.4,0.2
		l0.7,1.3h-0.7l-0.7-1.3h-0.4v1.3h-0.7V99.6L540.9,99.6z M542,98.7c0.2,0,0.7,0.2,0.9,0.2c0.2,0.2,0.4,0.2,0.7,0.4
		c0.2,0.2,0.4,0.4,0.4,0.9c0.2,0.2,0.2,0.4,0.2,0.9c0,0.2,0,0.4-0.2,0.7c0,0.4-0.2,0.7-0.4,0.9c-0.2,0-0.4,0.2-0.7,0.4h-1.7
		l-0.7-0.7c-0.2-0.2-0.4-0.4-0.4-0.7c-0.2-0.2-0.2-0.4-0.2-0.9c0-0.2,0-0.4,0.2-0.7c0-0.4,0.2-0.7,0.4-0.9c0.2-0.2,0.4-0.2,0.7-0.4
		C541.3,98.9,541.8,98.7,542,98.7L542,98.7z M542,98.5c0.4,0,0.7,0,1.1,0.2c0.2,0,0.4,0.2,0.7,0.4c0.4,0.2,0.4,0.7,0.7,0.9
		c0.2,0.2,0.2,0.7,0.2,0.9c0,0.4,0,0.9-0.2,1.1s-0.2,0.7-0.7,0.9c-0.2,0.2-0.4,0.4-0.7,0.4c-0.4,0.2-0.7,0.2-1.1,0.2
		c-0.2,0-0.7,0-0.9-0.2c-0.4,0-0.7-0.2-0.9-0.4c-0.2-0.2-0.4-0.7-0.7-0.9c0-0.4-0.2-0.7-0.2-1.1c0-0.2,0.2-0.7,0.2-0.9
		c0.2-0.4,0.4-0.7,0.7-0.9c0.2-0.2,0.4-0.4,0.9-0.4C541.3,98.5,541.6,98.5,542,98.5z"/>
	<path class="st1" d="M324.4,72.8h-6.3v23.5h6.3c3.3,0,6.1-1.1,8.1-3.3c2.2-2.3,3.5-5.3,3.5-8.5c0-3.3-1.3-6.1-3.5-8.3
		C330.5,74.1,327.7,72.8,324.4,72.8z M352.1,64.5h39v12h-13.1v-3.7H372v8.5h6.1v-2.2h9.4V90h-9.4v-2H372v8.3h6.1v-3.5h13.1v11.6
		h-39.9v-8.1h7.4V72.8h-7.4v-8.3L352.1,64.5L352.1,64.5z M420.1,72.8h-3.7v11.1h3.7c1.5,0,2.8-0.7,3.9-1.7c1.1-0.9,1.5-2.4,1.5-3.9
		c0-1.5-0.4-2.8-1.5-3.9C423,73.4,421.7,72.8,420.1,72.8L420.1,72.8z M396.4,64.5h27.3c1.1,0,2.2,0.2,3.5,0.2
		c1.1,0.2,2.2,0.4,3.3,0.9c5.5,1.5,10,5.4,10.2,12.4v0.2c0,4.6-2.2,7.8-5.5,10.3c-3,2.2-7.2,3.3-11.1,3.3h-7.6v4.6h7.6v8.1h-28.6
		v-8.1h7.6V72.8h-7.6v-8.3L396.4,64.5L396.4,64.5z M469.8,72.8h-0.2c-3,0-5.9,1.3-8.1,3.5c-2,2.2-3.3,5-3.3,8.3
		c0,3.3,1.3,6.3,3.3,8.5c2.2,2.2,5,3.3,8.1,3.3h0.2c3,0,5.9-1.1,8.1-3.3c2.1-2.3,3.3-5.4,3.3-8.5c0-3.3-1.3-6.1-3.3-8.3
		C475.7,74.1,472.9,72.8,469.8,72.8L469.8,72.8z M469,63.8h2.4c6.5,0,12.6,1.5,17,4.6c4.6,3.1,7.6,7.6,8.1,13.5v1.3
		c0,1.7-0.2,3.5-0.6,5c-0.4,1.6-1,3.2-2,4.6c-4.1,7.2-12.9,11.8-23.1,12.4c-0.6,0-1.1,0.2-1.5,0.2c-7,0.2-13.1-1.3-17.6-4.4
		c-4.8-3.3-7.9-7.6-8.3-13.7v-0.9c0-2,0.2-3.7,0.4-5.2c0.4-1.6,1-3.2,2-4.6C449.8,69.3,458.7,64.7,469,63.8L469,63.8z M498.6,64.5
		h46.7v12h-11.8v-3.7h-5.2v23.5h7v8.1h-27.7v-8.1h7.6V72.8h-5.9v3.7h-11.5v-12H498.6L498.6,64.5z M298.1,64.5H331c5,0,10,1.7,13.7,5
		c3.7,3.5,6.3,8.3,6.3,14.8c0,6.8-3.3,11.6-7.9,15c-4.6,3.3-10.5,5-15.5,5h-30.5v-8.1h7.9V72.8h-7.9v-8.3L298.1,64.5L298.1,64.5z
		 M256.4,78.7c0-1.5-0.9-3.3-2-4.6c-1.3-1.5-3.3-2.4-5.7-2.4h-1.1c-2.4,0-4.4,0.9-5.9,2c-1.4,1.3-2.2,3.1-2.4,5H256.4L256.4,78.7z
		 M31.9,48.8c0.9-0.2,1.5-0.2,2.4-0.2c8.3-0.2,15.7,2,21.6,6.1c5.7,4.4,9.6,10.5,10,18.5c0.2,0.4,0.2,0.9,0.2,1.5
		c0.2,12.4-6.8,22-17.4,27c-2.2,0.9-4.4,1.7-6.8,2.4c-2.4,0.5-4.8,0.8-7.2,1.1h-0.2c-0.4,0-1.1,0.2-1.5,0.2
		c-8.5,0.2-16.4-1.7-22-6.1C5.1,95.4,1.1,88.9,0.5,80.6v-1.1C-0.2,66.9,7,57.1,17.9,52.3c2-1.1,4.4-1.7,6.5-2.4
		C26.9,49.2,29.3,49,31.9,48.8z M33.6,59.3c-1.1,0-2.2,0.2-3,0.4c-1.3,0.2-2.4,0.4-3.5,0.9s-2.2,1.1-3.3,1.7
		c-4.6,3.3-7.9,8.5-7.9,14.6c0,1.1,0,2,0.2,3c0.6,3.7,2.2,7,4.8,9.4c2.4,2.6,5.5,4.4,8.9,5c1.1,0,2.2,0.2,3.3,0.2c0.9,0,2,0,2.8-0.2
		c1.3-0.2,2.4-0.7,3.5-1.1c1.3-0.4,2.4-1.1,3.3-1.7c4.8-3.1,7.8-8.5,7.8-14.6c0-0.9,0-2-0.2-2.8c-0.4-3.7-2.2-7-4.6-9.6
		c-2.6-2.4-5.7-4.1-9.2-4.8C35.6,59.5,34.7,59.3,33.6,59.3z M69.8,64.5h8.7v-5.7c0-3.5,1.5-6.8,4.1-9.4s6.5-4.4,11.1-4.4h13.7v8.3
		h-7c-2.2,0-4.1,0.2-5.4,1.1c-1.3,0.7-2.2,2-2.2,3.9v6.1h11.6v8.3H92.9v23.5h10v8.1h-34v-8.1h9.6V72.8h-9.6v-8.3L69.8,64.5
		L69.8,64.5z M109.7,64.5h8.5v-5.7c0-3.5,1.5-6.8,4.1-9.4c2.8-2.6,6.5-4.4,11.3-4.4h13.7v8.3h-7c-2.2,0-4.1,0.2-5.7,1.1
		c-1.1,0.7-2,2-2,3.9v6.1h11.3v8.3h-11.3v23.5h10v8.1h-34v-8.1h9.4V72.8h-9.4v-8.3L109.7,64.5L109.7,64.5z M164.9,44.9
		c2.4,0,4.8,0.9,6.5,2c1.7,1.3,2.8,3.3,2.8,5.2s-1.1,3.9-2.8,5.2c-1.7,1.1-4.1,2-6.5,2c-2.6,0-4.8-0.9-6.5-2
		c-1.7-1.3-2.8-3.3-2.8-5.2c0-2,1.1-3.9,2.8-5.2C160.1,45.7,162.2,44.9,164.9,44.9L164.9,44.9z M149.4,64.5h23.1v31.8h8.1v8.1h-32.1
		v-8.1h9.4V72.8h-9.4v-8.3C148.5,64.5,149.4,64.5,149.4,64.5z M220,65.4v12.4h-10.5v-5h-2.6c-1.5,0-3.1,0.2-4.4,0.7
		c-0.2,0-0.4,0-0.4,0.2c-1.1,0.2-2,0.9-2.8,1.3c0,0.2-0.2,0.4-0.4,0.4l-1.1,1.1c-0.2,0.2-0.4,0.7-0.6,1.1c-1.3,1.7-2,3.8-2,5.9v0.7
		c0.2,0.4,0.2,0.9,0.2,1.3c0.2,0.4,0.2,0.9,0.4,1.3c0.7,2.3,2.1,4.2,3.9,5.7c2.4,1.7,5.7,2.4,9.2,2.4c3.5,0.2,7.2-0.4,10-0.9
		l1.1-0.2v8.9l-0.6,0.2c-2.6,0.7-4.8,1.1-7.2,1.5c-2.4,0.2-4.8,0.4-7.4,0.4h-1.3c-1.7,0-3.3-0.2-4.8-0.4c-1.6-0.4-3.2-0.8-4.8-1.3
		c-7.4-2.6-12.9-8.3-12.9-19v-0.2c0-1.5,0.2-3.3,0.6-4.8c0.4-1.5,1.1-3,2-4.4c4.1-6.8,12.2-10.9,20.7-11.1h4.8c3.5,0.2,7,0.4,10,0.9
		l0.9,0.2L220,65.4L220,65.4L220,65.4z M251.6,95.9h4.4c3.9-0.2,7.9-0.9,10.7-2.2L268,93v9.6l-0.6,0.2c-0.6,0.2-1.5,0.4-2.2,0.7
		c-0.9,0.2-1.7,0.4-2.4,0.7c-4.5,0.9-9.1,1.3-13.7,1.3c-0.4,0-1.1,0-1.5-0.2c-1.7,0-3.5-0.2-5.2-0.4c-1.7-0.4-3.5-0.9-5-1.3
		c-8.1-2.8-13.5-8.3-13.7-19v-0.4c0.2-2,0.4-3.9,0.9-5.4c0.6-1.7,1.3-3.3,2.2-4.8c4.4-7.2,12.9-10.7,22-10.7h0.2
		c1.7,0,3.5,0.2,5,0.4c1.5,0.2,3.1,0.6,4.4,1.3c7.2,2.6,12,8.5,12,17.9v3.9h-31c0,0.7,0.2,1.3,0.4,2c0.2,0.9,0.4,1.5,0.9,2.2
		C242.5,94.3,246.6,95.7,251.6,95.9L251.6,95.9z"/>
</g>
</svg>
