<?xml version="1.0" encoding="utf-8"?>
<!-- Generator: Adobe Illustrator 23.0.1, SVG Export Plug-In . SVG Version: 6.00 Build 0)  -->
<svg version="1.1" id="Layer_1" xmlns="http://www.w3.org/2000/svg" xmlns:xlink="http://www.w3.org/1999/xlink" x="0px" y="0px"
	 viewBox="0 0 146.9 59.9" style="enable-background:new 0 0 146.9 59.9;" xml:space="preserve">
<style type="text/css">
	.st0{fill:#BF0000;}
	.st1{fill:#FFFFFF;}
</style>
<g id="Rakuten">
	<g>
		<g>
			<g>
				<path class="st0" d="M12.3,17.5c6.9,0,12.4,5.6,12.4,12.4s-5.6,12.4-12.4,12.4S-0.1,36.7-0.1,29.8S5.5,17.5,12.3,17.5z"/>
				<path class="st1" d="M10.8,36.5v-4.2h1.7l3.1,4.2h3.2l-3.7-5c1.2-0.9,2-2.2,2-3.7c0-2.5-2.1-4.6-4.6-4.6H8.1v13.3H10.8
					L10.8,36.5z M10.8,25.7h1.6c1.2,0,2.1,0.9,2.1,2.1s-0.9,2.1-2.1,2.1h-1.6V25.7L10.8,25.7z"/>
			</g>
			<path d="M108.4,36c-0.2,0.4-0.8,1.2-1.7,1.2c-0.7,0-2-0.4-2-2.1v-7.7h6.2v-4.3h-6.2v-4.4h-4.3v4.4h-3.1v4.3h3.1v7.7
				c0,3.9,3.2,6.3,6.1,6.3c3.1,0,5.1-2.1,5.9-4.3L108.4,36z"/>
			<path d="M56,23.2v0.8c-1.2-0.8-2.6-1.2-4.2-1.2c-4.6,0-8.3,4.3-8.3,9.4c0,5.2,3.7,9.4,8.3,9.4c1.4,0,2.8-0.4,4.2-1.2v0.8h4.3
				V23.2H56z M51.9,37.2c-2.3,0-4.2-2.3-4.2-5.1s1.9-5.1,4.2-5.1c2.3,0,4.2,2.3,4.2,5.1S54.2,37.2,51.9,37.2z"/>
			<path d="M91.7,23.2v10.5c0,2-1.6,3.6-3.6,3.6s-3.6-1.6-3.6-3.6V23.2h-4.3v10.5c0,4.3,3.5,7.9,7.9,7.9c1.3,0,2.5-0.3,3.6-0.9v0.4
				h4.3V23.2H91.7L91.7,23.2z"/>
			<path d="M139.1,22.7c-1.3,0-2.5,0.3-3.6,0.9v-0.5h-4.3v17.8h4.3V30.4c0-2,1.6-3.6,3.6-3.6c2,0,3.6,1.6,3.6,3.6v10.5h4.3V30.4
				C146.9,26.2,143.4,22.7,139.1,22.7z"/>
			<path d="M129.6,32.1c0-5.2-3.7-9.4-8.3-9.4c-4.7,0-8.3,4.2-8.3,9.4c0,5.5,4.7,9.4,9,9.4c2.1,0,5-0.7,7.3-3.9l-3.7-2.1
				c-3.2,3.8-7.5,1.2-8-2h11.9C129.6,32.9,129.6,32.5,129.6,32.1z M124.8,29.5h-7.1C118.4,26.1,124,25.4,124.8,29.5z"/>
			<polygon points="71.1,31.5 79.4,23.2 73.5,23.2 67.1,29.6 67.1,17.3 62.8,17.3 62.8,41 67.1,41 67.1,33.5 74.6,41 80.6,41 			"/>
			<path d="M31.4,41v-6.9h3.1l5.2,6.9h5.4l-6.3-8.3c2-1.4,3.2-3.6,3.2-6.2c0-4.3-3.5-7.7-7.7-7.7h-7v22.3h4.2V41z M31.4,23h2.7
				c2,0,3.5,1.5,3.5,3.5S36.1,30,34.2,30h-2.7V23z"/>
		</g>
	</g>
</g>
</svg>
