<svg id="Layer_1" xmlns="http://www.w3.org/2000/svg" viewBox="0 0 186.51 60.07"><style>.st0{fill-rule:evenodd;clip-rule:evenodd;fill:#f90}</style><path class="st0" d="M115.65 46.21C105 54.09 89.51 58.29 76.14 58.29c-18.72 0-35.51-6.91-48.29-18.4-.97-.9-.13-2.13 1.1-1.42 13.75 8.01 30.73 12.78 48.29 12.78 11.82 0 24.86-2.45 36.87-7.55 1.8-.72 3.29 1.22 1.54 2.51z"/><path class="st0" d="M120.11 41.11c-1.36-1.74-9.04-.84-12.46-.39-1.03.13-1.23-.77-.26-1.42 6.13-4.33 16.14-3.03 17.3-1.61 1.16 1.42-.32 11.49-6.07 16.27-.9.71-1.74.32-1.36-.65 1.3-3.22 4.21-10.39 2.85-12.2z"/><path d="M107.84 8.96v-4.2c0-.65.45-1.03 1.03-1.03h18.72c.58 0 1.1.45 1.1 1.03v3.55c0 .58-.52 1.36-1.42 2.65l-9.68 13.82c3.62-.06 7.42.45 10.65 2.26.71.39.9 1.03.97 1.61v4.45c0 .65-.65 1.36-1.36.97-5.75-3.03-13.43-3.36-19.76.06-.65.32-1.36-.32-1.36-.97V28.9c0-.65 0-1.81.71-2.84l11.23-16.08h-9.75c-.56.01-1.08-.44-1.08-1.02zM39.6 34.98h-5.68c-.52-.06-.97-.45-1.03-.97V4.83c0-.58.52-1.03 1.1-1.03h5.29c.58 0 .97.45 1.03.97v3.81h.13c1.36-3.68 4-5.42 7.49-5.42 3.55 0 5.81 1.74 7.36 5.42 1.36-3.68 4.52-5.42 7.88-5.42 2.39 0 4.97.97 6.59 3.23 1.81 2.45 1.42 6 1.42 9.17v18.47c0 .58-.52 1.03-1.1 1.03h-5.62c-.58-.06-1.03-.52-1.03-1.03v-15.5c0-1.23.13-4.33-.13-5.49-.45-1.94-1.68-2.52-3.36-2.52-1.36 0-2.84.9-3.42 2.39-.59 1.47-.52 3.93-.52 5.6v15.5c0 .58-.52 1.03-1.1 1.03h-5.68c-.58-.06-1.03-.52-1.03-1.03v-15.5c0-3.23.52-8.07-3.49-8.07-4.07 0-3.94 4.65-3.94 8.07v15.5c-.07.52-.52.97-1.16.97zM144.84 3.15c8.46 0 13.04 7.23 13.04 16.46 0 8.91-5.04 16.01-13.04 16.01-8.26 0-12.78-7.23-12.78-16.27-.07-9.1 4.51-16.2 12.78-16.2zm0 6c-4.2 0-4.45 5.75-4.45 9.3s-.06 11.17 4.39 11.17c4.39 0 4.65-6.13 4.65-9.88 0-2.45-.13-5.42-.84-7.75-.65-2.06-1.94-2.84-3.75-2.84zm23.95 25.83h-5.68c-.58-.06-1.03-.52-1.03-1.03V4.7c.06-.52.52-.97 1.1-.97h5.29c.52 0 .9.39 1.03.84v4.45h.13c1.61-4 3.81-5.88 7.75-5.88 2.52 0 5.04.9 6.65 3.42 1.48 2.32 1.48 6.26 1.48 9.1v18.4c-.06.52-.52.9-1.1.9h-5.68c-.52-.06-.97-.45-1.03-.9V18.19c0-3.23.39-7.88-3.55-7.88-1.36 0-2.65.9-3.29 2.32-.77 1.81-.9 3.55-.9 5.55v15.75c-.07.6-.59 1.05-1.17 1.05zM92.93 21.03c0 2.2.06 4.07-1.03 6.07-.9 1.61-2.32 2.58-3.94 2.58-2.2 0-3.49-1.68-3.49-4.13 0-4.84 4.33-5.75 8.46-5.75v1.23zm5.74 13.88c-.39.32-.9.39-1.36.13-1.87-1.55-2.26-2.32-3.29-3.81-3.1 3.16-5.36 4.13-9.36 4.13-4.78 0-8.52-2.97-8.52-8.85 0-4.65 2.52-7.75 6.07-9.3 3.1-1.36 7.42-1.61 10.72-2v-.71c0-1.36.13-2.97-.71-4.13-.71-1.03-2-1.48-3.16-1.48-2.2 0-4.13 1.1-4.58 3.42-.13.52-.45 1.03-.97 1.03l-5.49-.58c-.45-.13-.97-.45-.84-1.16 1.29-6.71 7.3-8.72 12.72-8.72 2.78 0 6.39.71 8.59 2.84 2.78 2.58 2.52 6.07 2.52 9.81v8.85c0 2.65 1.1 3.81 2.13 5.29.39.52.45 1.16 0 1.48-1.24.99-3.3 2.8-4.47 3.76zM18.36 21.03c0 2.2.06 4.07-1.03 6.07-.9 1.61-2.32 2.58-3.94 2.58-2.2 0-3.49-1.68-3.49-4.13 0-4.84 4.33-5.75 8.46-5.75v1.23zm5.68 13.88c-.39.32-.9.39-1.36.13-1.87-1.55-2.26-2.32-3.29-3.81-3.1 3.16-5.36 4.13-9.36 4.13-4.78 0-8.52-2.97-8.52-8.85 0-4.65 2.52-7.75 6.07-9.3 3.1-1.36 7.42-1.61 10.72-2v-.71c0-1.36.13-2.97-.71-4.13-.71-1.03-2-1.48-3.16-1.48-2.2 0-4.13 1.1-4.58 3.42-.13.52-.45 1.03-.97 1.03l-5.49-.58c-.45-.13-.97-.45-.84-1.16 1.29-6.71 7.3-8.72 12.72-8.72 2.78 0 6.39.71 8.59 2.84 2.78 2.58 2.52 6.07 2.52 9.81v8.85c0 2.65 1.1 3.81 2.13 5.29.39.52.45 1.16 0 1.48-1.24.99-3.31 2.8-4.47 3.76z" fill-rule="evenodd" clip-rule="evenodd"/></svg>