<svg id="svg4161" xmlns="http://www.w3.org/2000/svg" viewBox="0 0 295 60.1"><style>.st0{fill-rule:evenodd;clip-rule:evenodd;fill:#033a63}</style><g id="layer1" transform="translate(0 -848.65)"><path id="path4728" class="st0" d="M0 848.65h4.68v55.41h25.25l-2.21 4.68H0v-60.09z"/><path id="path4730" class="st0" d="M63.29 848.65h-4.68l-26.16 60.09h4.68l6.81-15.64c.81-1.54 2.69-2.94 5.2-4.16 3.98-1.93 9.55-3.12 15.74-3.12 5.48 0 13.18 1.07 18.15 4.51l2.9-3.67c-.97-.7-2.07-1.35-3.28-1.94-1.33-.65-2.81-1.22-4.41-1.71l-14.95-34.36zm-15.58 35.8l13.24-30.42 12.09 27.77c-2.56-.43-5.31-.67-8.16-.67-6.6 0-12.64 1.26-17.17 3.32zm28.9 5.56c1.06.35 2.04.74 2.93 1.16.44.21.81.41 1.12.59.32.18.64.39.96.61l1 .69 6.83 15.68h-4.68l-8.16-18.73z"/><path id="path4732" class="st0" d="M162.85 848.65h-4.68l-26.16 60.09h4.68l6.81-15.64c.81-1.54 2.69-2.94 5.2-4.16 3.98-1.93 9.55-3.12 15.74-3.12 5.48 0 13.18 1.07 18.15 4.51l2.9-3.67c-.97-.7-2.07-1.35-3.28-1.94-1.33-.65-2.81-1.22-4.41-1.71l-14.95-34.36zm-15.59 35.8l13.24-30.42 12.09 27.77c-2.57-.43-5.31-.67-8.16-.67-6.59 0-12.63 1.26-17.17 3.32zm28.91 5.56c1.06.35 2.04.74 2.93 1.16.44.21.81.41 1.12.59.32.18.64.39.96.61l1 .69 6.83 15.68h-4.68l-8.16-18.73z"/><path id="path4734" class="st0" d="M268.84 848.65h-4.68L238 908.74h4.68l6.81-15.64c.81-1.54 2.69-2.94 5.2-4.16 3.98-1.93 9.55-3.12 15.74-3.12 5.48 0 13.19 1.07 18.15 4.51l2.9-3.67c-.97-.7-2.07-1.35-3.28-1.94-1.33-.65-2.81-1.22-4.41-1.71l-14.95-34.36zm-15.58 35.8l13.24-30.42 12.09 27.77c-2.56-.43-5.31-.67-8.16-.67-6.6 0-12.64 1.26-17.17 3.32zm28.91 5.56c1.06.35 2.04.74 2.93 1.16.44.21.81.41 1.12.59.32.18.64.39.96.61l1 .69 6.83 15.68h-4.68l-8.16-18.73z"/><path id="polygon4736" class="st0" d="M95.41 853.33l-2.21-4.68h38.18v4.68L99.4 904.06h30.1l-2.21 4.68H94.55l-1.1-2.66 32.14-52.75z"/><path id="path4738" class="st0" d="M194 878.7v-30.05h12.21c8.79 0 15.19.73 19.16 2.16 5.71 2.05 10.17 5.58 13.38 10.63 3.09 4.85 4.7 10.6 4.81 17.26-.11 6.65-1.72 12.4-4.81 17.26-3.21 5.05-7.68 8.58-13.38 10.63-3.97 1.44-10.37 2.16-19.16 2.16H194V878.7zm4.6 25.64h7.17c8.57 0 14.5-.56 17.81-1.69 4.66-1.61 8.34-4.48 11.01-8.64 2.67-4.17 4.56-9.26 4.56-15.28 0-6.01-1.88-11.1-4.56-15.28-2.67-4.16-6.35-7.03-11.01-8.64-3.32-1.12-9.25-1.69-17.81-1.69h-7.17v51.22z"/></g></svg>