<?xml version="1.0" encoding="utf-8"?>
<!-- Generator: Adobe Illustrator 23.0.1, SVG Export Plug-In . SVG Version: 6.00 Build 0)  -->
<svg version="1.1" id="Layer_1" xmlns="http://www.w3.org/2000/svg" xmlns:xlink="http://www.w3.org/1999/xlink" x="0px" y="0px"
	 viewBox="0 0 186.51 60.07" style="enable-background:new 0 0 186.51 60.07;" xml:space="preserve">
<style type="text/css">
	.st0{fill-rule:evenodd;clip-rule:evenodd;fill:#FF9900;}
	.st1{fill-rule:evenodd;clip-rule:evenodd;}
</style>
<g>
	<path class="st0" d="M115.65,46.21C105,54.09,89.51,58.29,76.14,58.29c-18.72,0-35.51-6.91-48.29-18.4
		c-0.97-0.9-0.13-2.13,1.1-1.42c13.75,8.01,30.73,12.78,48.29,12.78c11.82,0,24.86-2.45,36.87-7.55
		C115.91,42.98,117.4,44.92,115.65,46.21L115.65,46.21z"/>
	<path class="st0" d="M120.11,41.11c-1.36-1.74-9.04-0.84-12.46-0.39c-1.03,0.13-1.23-0.77-0.26-1.42
		c6.13-4.33,16.14-3.03,17.3-1.61c1.16,1.42-0.32,11.49-6.07,16.27c-0.9,0.71-1.74,0.32-1.36-0.65
		C118.56,50.09,121.47,42.92,120.11,41.11z"/>
	<path class="st1" d="M107.84,8.96v-4.2c0-0.65,0.45-1.03,1.03-1.03h18.72c0.58,0,1.1,0.45,1.1,1.03v3.55
		c0,0.58-0.52,1.36-1.42,2.65l-9.68,13.82c3.62-0.06,7.42,0.45,10.65,2.26c0.71,0.39,0.9,1.03,0.97,1.61v4.45
		c0,0.65-0.65,1.36-1.36,0.97c-5.75-3.03-13.43-3.36-19.76,0.06c-0.65,0.32-1.36-0.32-1.36-0.97v-4.26c0-0.65,0-1.81,0.71-2.84
		l11.23-16.08h-9.75C108.36,9.99,107.84,9.54,107.84,8.96L107.84,8.96z M39.6,34.98h-5.68c-0.52-0.06-0.97-0.45-1.03-0.97V4.83
		c0-0.58,0.52-1.03,1.1-1.03h5.29c0.58,0,0.97,0.45,1.03,0.97v3.81h0.13c1.36-3.68,4-5.42,7.49-5.42c3.55,0,5.81,1.74,7.36,5.42
		c1.36-3.68,4.52-5.42,7.88-5.42c2.39,0,4.97,0.97,6.59,3.23c1.81,2.45,1.42,6,1.42,9.17v18.47c0,0.58-0.52,1.03-1.1,1.03h-5.62
		c-0.58-0.06-1.03-0.52-1.03-1.03v-15.5c0-1.23,0.13-4.33-0.13-5.49c-0.45-1.94-1.68-2.52-3.36-2.52c-1.36,0-2.84,0.9-3.42,2.39
		C55.93,14.38,56,16.84,56,18.51v15.5c0,0.58-0.52,1.03-1.1,1.03h-5.68c-0.58-0.06-1.03-0.52-1.03-1.03v-15.5
		c0-3.23,0.52-8.07-3.49-8.07c-4.07,0-3.94,4.65-3.94,8.07v15.5C40.69,34.53,40.24,34.98,39.6,34.98L39.6,34.98z M144.84,3.15
		c8.46,0,13.04,7.23,13.04,16.46c0,8.91-5.04,16.01-13.04,16.01c-8.26,0-12.78-7.23-12.78-16.27
		C131.99,10.25,136.57,3.15,144.84,3.15L144.84,3.15z M144.84,9.15c-4.2,0-4.45,5.75-4.45,9.3s-0.06,11.17,4.39,11.17
		c4.39,0,4.65-6.13,4.65-9.88c0-2.45-0.13-5.42-0.84-7.75C147.94,9.93,146.65,9.15,144.84,9.15L144.84,9.15z M168.79,34.98h-5.68
		c-0.58-0.06-1.03-0.52-1.03-1.03V4.7c0.06-0.52,0.52-0.97,1.1-0.97h5.29c0.52,0,0.9,0.39,1.03,0.84v4.45h0.13
		c1.61-4,3.81-5.88,7.75-5.88c2.52,0,5.04,0.9,6.65,3.42c1.48,2.32,1.48,6.26,1.48,9.1v18.4c-0.06,0.52-0.52,0.9-1.1,0.9h-5.68
		c-0.52-0.06-0.97-0.45-1.03-0.9V18.19c0-3.23,0.39-7.88-3.55-7.88c-1.36,0-2.65,0.9-3.29,2.32c-0.77,1.81-0.9,3.55-0.9,5.55v15.75
		C169.89,34.53,169.37,34.98,168.79,34.98L168.79,34.98z M92.93,21.03c0,2.2,0.06,4.07-1.03,6.07c-0.9,1.61-2.32,2.58-3.94,2.58
		c-2.2,0-3.49-1.68-3.49-4.13c0-4.84,4.33-5.75,8.46-5.75V21.03z M98.67,34.91c-0.39,0.32-0.9,0.39-1.36,0.13
		c-1.87-1.55-2.26-2.32-3.29-3.81c-3.1,3.16-5.36,4.13-9.36,4.13c-4.78,0-8.52-2.97-8.52-8.85c0-4.65,2.52-7.75,6.07-9.3
		c3.1-1.36,7.42-1.61,10.72-2v-0.71c0-1.36,0.13-2.97-0.71-4.13c-0.71-1.03-2-1.48-3.16-1.48c-2.2,0-4.13,1.1-4.58,3.42
		c-0.13,0.52-0.45,1.03-0.97,1.03l-5.49-0.58c-0.45-0.13-0.97-0.45-0.84-1.16c1.29-6.71,7.3-8.72,12.72-8.72
		c2.78,0,6.39,0.71,8.59,2.84c2.78,2.58,2.52,6.07,2.52,9.81v8.85c0,2.65,1.1,3.81,2.13,5.29c0.39,0.52,0.45,1.16,0,1.48
		C101.9,32.14,99.84,33.95,98.67,34.91L98.67,34.91z M18.36,21.03c0,2.2,0.06,4.07-1.03,6.07c-0.9,1.61-2.32,2.58-3.94,2.58
		c-2.2,0-3.49-1.68-3.49-4.13c0-4.84,4.33-5.75,8.46-5.75V21.03z M24.04,34.91c-0.39,0.32-0.9,0.39-1.36,0.13
		c-1.87-1.55-2.26-2.32-3.29-3.81c-3.1,3.16-5.36,4.13-9.36,4.13c-4.78,0-8.52-2.97-8.52-8.85c0-4.65,2.52-7.75,6.07-9.3
		c3.1-1.36,7.42-1.61,10.72-2v-0.71c0-1.36,0.13-2.97-0.71-4.13c-0.71-1.03-2-1.48-3.16-1.48c-2.2,0-4.13,1.1-4.58,3.42
		c-0.13,0.52-0.45,1.03-0.97,1.03l-5.49-0.58c-0.45-0.13-0.97-0.45-0.84-1.16c1.29-6.71,7.3-8.72,12.72-8.72
		c2.78,0,6.39,0.71,8.59,2.84c2.78,2.58,2.52,6.07,2.52,9.81v8.85c0,2.65,1.1,3.81,2.13,5.29c0.39,0.52,0.45,1.16,0,1.48
		C27.27,32.14,25.2,33.95,24.04,34.91L24.04,34.91z"/>
</g>
</svg>
