<?xml version="1.0" encoding="utf-8"?>
<!-- Generator: Adobe Illustrator 23.0.1, SVG Export Plug-In . SVG Version: 6.00 Build 0)  -->
<svg version="1.1"
	 id="svg4161" xmlns:cc="http://creativecommons.org/ns#" xmlns:dc="http://purl.org/dc/elements/1.1/" xmlns:inkscape="http://www.inkscape.org/namespaces/inkscape" xmlns:rdf="http://www.w3.org/1999/02/22-rdf-syntax-ns#" xmlns:sodipodi="http://sodipodi.sourceforge.net/DTD/sodipodi-0.dtd" xmlns:svg="http://www.w3.org/2000/svg"
	 xmlns="http://www.w3.org/2000/svg" xmlns:xlink="http://www.w3.org/1999/xlink" x="0px" y="0px" viewBox="0 0 295 60.1"
	 style="enable-background:new 0 0 295 60.1;" xml:space="preserve">
<style type="text/css">
	.st0{fill-rule:evenodd;clip-rule:evenodd;fill:#033A63;}
</style>
<sodipodi:namedview  bordercolor="#666666" borderopacity="1.0" id="base" inkscape:current-layer="layer1" inkscape:cx="303.44572" inkscape:cy="184.92373" inkscape:document-units="px" inkscape:pageopacity="0.0" inkscape:pageshadow="2" inkscape:window-height="705" inkscape:window-maximized="1" inkscape:window-width="1366" inkscape:window-x="-8" inkscape:window-y="-8" inkscape:zoom="0.49497475" pagecolor="#ffffff" showgrid="false" units="px">
	</sodipodi:namedview>
<g id="layer1" transform="translate(0,-848.64918)" inkscape:groupmode="layer" inkscape:label="Layer 1">
	<path id="path4728" inkscape:connector-curvature="0" class="st0" d="M0,848.65h4.68v55.41h25.25l-2.21,4.68
		c-9.24,0-18.48,0-27.72,0V848.65z"/>
	<path id="path4730" inkscape:connector-curvature="0" class="st0" d="M63.29,848.65h-4.68l-26.16,60.09h4.68l6.81-15.64
		c0.81-1.54,2.69-2.94,5.2-4.16c3.98-1.93,9.55-3.12,15.74-3.12c5.48,0,13.18,1.07,18.15,4.51l2.9-3.67
		c-0.97-0.7-2.07-1.35-3.28-1.94c-1.33-0.65-2.81-1.22-4.41-1.71L63.29,848.65L63.29,848.65L63.29,848.65z M47.71,884.45
		l13.24-30.42l12.09,27.77c-2.56-0.43-5.31-0.67-8.16-0.67C58.28,881.13,52.24,882.39,47.71,884.45L47.71,884.45L47.71,884.45z
		 M76.61,890.01c1.06,0.35,2.04,0.74,2.93,1.16c0.44,0.21,0.81,0.41,1.12,0.59c0.32,0.18,0.64,0.39,0.96,0.61l1,0.69l6.83,15.68
		h-4.68L76.61,890.01L76.61,890.01z"/>
	<path id="path4732" inkscape:connector-curvature="0" class="st0" d="M162.85,848.65h-4.68l-26.16,60.09h4.68l6.81-15.64
		c0.81-1.54,2.69-2.94,5.2-4.16c3.98-1.93,9.55-3.12,15.74-3.12c5.48,0,13.18,1.07,18.15,4.51l2.9-3.67
		c-0.97-0.7-2.07-1.35-3.28-1.94c-1.33-0.65-2.81-1.22-4.41-1.71L162.85,848.65L162.85,848.65L162.85,848.65z M147.26,884.45
		l13.24-30.42l12.09,27.77c-2.57-0.43-5.31-0.67-8.16-0.67C157.84,881.13,151.8,882.39,147.26,884.45L147.26,884.45L147.26,884.45z
		 M176.17,890.01c1.06,0.35,2.04,0.74,2.93,1.16c0.44,0.21,0.81,0.41,1.12,0.59c0.32,0.18,0.64,0.39,0.96,0.61l1,0.69l6.83,15.68
		h-4.68L176.17,890.01L176.17,890.01z"/>
	<path id="path4734" inkscape:connector-curvature="0" class="st0" d="M268.84,848.65h-4.68L238,908.74h4.68l6.81-15.64
		c0.81-1.54,2.69-2.94,5.2-4.16c3.98-1.93,9.55-3.12,15.74-3.12c5.48,0,13.19,1.07,18.15,4.51l2.9-3.67
		c-0.97-0.7-2.07-1.35-3.28-1.94c-1.33-0.65-2.81-1.22-4.41-1.71L268.84,848.65L268.84,848.65z M253.26,884.45l13.24-30.42
		l12.09,27.77c-2.56-0.43-5.31-0.67-8.16-0.67C263.83,881.13,257.79,882.39,253.26,884.45L253.26,884.45L253.26,884.45z
		 M282.17,890.01c1.06,0.35,2.04,0.74,2.93,1.16c0.44,0.21,0.81,0.41,1.12,0.59c0.32,0.18,0.64,0.39,0.96,0.61l1,0.69l6.83,15.68
		h-4.68L282.17,890.01z"/>
	<polygon id="polygon4736" class="st0" points="95.41,853.33 93.2,848.65 131.38,848.65 131.38,853.33 99.4,904.06 129.5,904.06 
		127.29,908.74 94.55,908.74 93.45,906.08 125.59,853.33 	"/>
	<path id="path4738" inkscape:connector-curvature="0" class="st0" d="M194,878.7v-30.05h12.21c8.79,0,15.19,0.73,19.16,2.16
		c5.71,2.05,10.17,5.58,13.38,10.63c3.09,4.85,4.7,10.6,4.81,17.26c-0.11,6.65-1.72,12.4-4.81,17.26
		c-3.21,5.05-7.68,8.58-13.38,10.63c-3.97,1.44-10.37,2.16-19.16,2.16H194V878.7L194,878.7L194,878.7z M198.6,904.34h7.17
		c8.57,0,14.5-0.56,17.81-1.69c4.66-1.61,8.34-4.48,11.01-8.64c2.67-4.17,4.56-9.26,4.56-15.28c0-6.01-1.88-11.1-4.56-15.28
		c-2.67-4.16-6.35-7.03-11.01-8.64c-3.32-1.12-9.25-1.69-17.81-1.69h-7.17V904.34L198.6,904.34z"/>
</g>
</svg>
