<?xml version="1.0" encoding="iso-8859-1"?>
<!-- Generator: Adobe Illustrator 23.0.1, SVG Export Plug-In . SVG Version: 6.00 Build 0)  -->
<svg version="1.1" id="Capa_1" xmlns="http://www.w3.org/2000/svg" xmlns:xlink="http://www.w3.org/1999/xlink" x="0px" y="0px"
	 viewBox="-49 141 512 512" style="enable-background:new -49 141 512 512;" xml:space="preserve">
<path d="M438.25,287.12c-2.367-4.986-8.332-7.108-13.319-4.74c-4.986,2.369-7.109,8.332-4.739,13.32
	c30.847,64.937,30.14,142.113-1.892,206.448c-2.46,4.942-0.449,10.943,4.494,13.405c1.432,0.713,2.951,1.051,4.448,1.051
	c3.673,0,7.209-2.032,8.957-5.543c17.15-34.448,26.399-73.102,26.744-111.783C463.287,360.632,454.748,321.849,438.25,287.12z"/>
<path d="M-10.915,511.608c4.986-2.369,7.108-8.333,4.738-13.32c-31.007-65.246-30.162-142.72,2.259-207.245
	c2.478-4.933,0.489-10.942-4.445-13.421c-4.931-2.478-10.94-0.489-13.421,4.445c-17.352,34.537-26.743,73.327-27.155,112.179
	c-0.412,38.806,8.13,77.751,24.703,112.625c1.711,3.602,5.297,5.708,9.036,5.708C-13.762,512.579-12.301,512.267-10.915,511.608z"/>
<path d="M103.847,183.628c1.408,0,2.839-0.299,4.2-0.931l0.244-0.113c5.008-2.323,7.186-8.267,4.861-13.276
	c-2.323-5.008-8.264-7.185-13.275-4.862l-0.244,0.113c-5.008,2.323-7.186,8.267-4.861,13.276
	C96.463,181.483,100.074,183.628,103.847,183.628z"/>
<path d="M143.168,169.773c54.942-15.378,113.505-10.437,164.9,13.914c1.383,0.655,2.839,0.965,4.273,0.965
	c3.743,0,7.332-2.112,9.041-5.719c2.363-4.989,0.235-10.95-4.754-13.315c-55.75-26.414-119.267-31.777-178.848-15.099
	c-5.316,1.489-8.42,7.005-6.933,12.322C132.333,168.158,137.854,171.261,143.168,169.773z"/>
<path d="M306.069,611.206l-0.125,0.057c-5.028,2.28-7.257,8.205-4.976,13.233c1.673,3.689,5.307,5.871,9.11,5.871
	c1.381,0,2.784-0.288,4.123-0.895c0.005-0.002,0.122-0.056,0.127-0.058c5.026-2.281,7.254-8.205,4.974-13.232
	C317.022,611.154,311.096,608.925,306.069,611.206z"/>
<path d="M274.707,623.064c-56.695,16.923-117.18,12.121-170.306-13.527c-4.971-2.397-10.948-0.315-13.35,4.657
	c-2.399,4.972-0.315,10.948,4.656,13.349c35.01,16.899,72.955,25.456,111.139,25.456c24.672,0,49.444-3.574,73.58-10.777
	c5.29-1.579,8.299-7.148,6.72-12.438C285.566,624.493,280.002,621.485,274.707,623.064z"/>
<path d="M206.999,235.032c-89.298,0-161.947,72.649-161.947,161.947s72.649,161.947,161.947,161.947s161.947-72.649,161.947-161.947
	S296.298,235.032,206.999,235.032z M324.306,476.824c-8.562-5.955-18.007-10.227-27.967-12.696v-57.152h52.256
	C346.794,432.748,338.085,456.645,324.306,476.824z M89.691,476.823c-13.777-20.178-22.487-44.075-24.288-69.847h52.256v57.151
	C107.699,466.596,98.254,470.867,89.691,476.823z M90.161,316.457c8.574,4.908,17.835,8.333,27.498,10.164v60.36H65.402
	C67.225,360.92,76.114,336.778,90.161,316.457z M216.996,255.793c28.148,4.083,50.86,25.132,57.419,52.41h-57.419V255.793z
	 M197.002,308.203h-57.419c6.559-27.278,29.27-48.326,57.419-52.41V308.203z M197.002,328.197v58.786h-59.351v-58.786H197.002z
	 M216.996,328.197h59.351v58.786h-59.351V328.197z M137.652,406.976h59.351v54.639H138.25c-0.2,0-0.398,0.01-0.598,0.011
	L137.652,406.976L137.652,406.976z M216.996,481.608h58.279c-5.157,29.271-28.721,52.268-58.279,56.555V481.608z M197.002,538.164
	c-29.558-4.288-53.122-27.284-58.279-56.555h58.279V538.164z M275.746,461.615h-58.751v-54.639h59.351v54.651
	C276.146,461.625,275.947,461.615,275.746,461.615z M296.341,386.982v-60.36c9.663-1.83,18.925-5.254,27.498-10.164
	c14.046,20.319,22.935,44.461,24.758,70.523h-52.256V386.982z M311.133,300.617c-5.259,2.697-10.822,4.692-16.584,5.958
	c-2.177-10.706-6.28-20.721-11.922-29.672C293.14,283.547,302.721,291.533,311.133,300.617z M131.371,276.902
	c-5.643,8.95-9.745,18.965-11.922,29.671c-5.76-1.266-11.322-3.261-16.582-5.958C111.279,291.532,120.86,283.546,131.371,276.902z
	 M102.119,492.539c5.232-3.495,10.879-6.182,16.801-8.016c1.997,11.784,6.309,22.79,12.451,32.532
	C120.549,510.214,110.709,501.958,102.119,492.539z M282.627,517.055c6.142-9.743,10.454-20.747,12.451-32.531
	c5.921,1.835,11.568,4.522,16.799,8.017C303.288,501.959,293.449,510.215,282.627,517.055z"/>
<path d="M33.083,277.043c29.765,0,53.982-24.216,53.982-53.982s-24.217-53.982-53.982-53.982s-53.982,24.216-53.982,53.982
	S3.317,277.043,33.083,277.043z M33.083,189.072c18.742,0,33.989,15.247,33.989,33.989S51.825,257.05,33.083,257.05
	s-33.989-15.247-33.989-33.989S14.341,189.072,33.083,189.072z"/>
<path d="M33.083,516.914c-29.765,0-53.982,24.216-53.982,53.982s24.217,53.982,53.982,53.982s53.982-24.216,53.982-53.982
	S62.848,516.914,33.083,516.914z M33.083,604.885c-18.742,0-33.989-15.247-33.989-33.989c0-18.742,15.247-33.989,33.989-33.989
	s33.989,15.247,33.989,33.989C67.072,589.638,51.825,604.885,33.083,604.885z"/>
<path d="M380.916,516.914c-29.765,0-53.982,24.216-53.982,53.982s24.217,53.982,53.982,53.982s53.982-24.216,53.982-53.982
	S410.681,516.914,380.916,516.914z M380.916,604.885c-18.742,0-33.989-15.247-33.989-33.989c0-18.742,15.247-33.989,33.989-33.989
	c18.742,0,33.989,15.247,33.989,33.989C414.905,589.638,399.658,604.885,380.916,604.885z"/>
<path d="M380.916,277.043c29.765,0,53.982-24.216,53.982-53.982s-24.217-53.982-53.982-53.982s-53.982,24.216-53.982,53.982
	S351.151,277.043,380.916,277.043z M380.916,189.072c18.742,0,33.989,15.247,33.989,33.989s-15.247,33.989-33.989,33.989
	c-18.742,0-33.989-15.247-33.989-33.989S362.174,189.072,380.916,189.072z"/>
</svg>
