<svg height="496pt" viewBox="0 0 496 496" width="496pt" xmlns="http://www.w3.org/2000/svg"><path d="m384 40.703125v-.703125c0-22.054688-17.945312-40-40-40h-240c-22.054688 0-40 17.945312-40 40v41.800781c-41.273438 45.65625-64 104.527344-64 166.199219 0 18.945312 2.265625 37.710938 6.488281 56h-6.488281v40c0 22.054688 17.945312 40 40 40h.703125c46.097656 70.175781 123.199219 112 207.296875 112 136.742188 0 248-111.257812 248-248 0-84.105469-41.824219-161.207031-112-207.296875zm-16-.703125v104h-48v-104c0-13.230469 10.769531-24 24-24s24 10.769531 24 24zm-264-24h208.207031c-5.078125 6.703125-8.207031 14.960938-8.207031 24v138.824219c-5.015625-1.785157-10.382812-2.824219-16-2.824219-26.472656 0-48 21.527344-48 48 0 .929688.089844 1.839844.136719 2.753906-18.992188 6.621094-32.136719 24.542969-32.136719 45.246094 0 3.816406.496094 7.511719 1.34375 11.078125-6.703125 5.570313-11.648438 12.824219-14.511719 20.921875h-114.832031v-264c0-13.230469 10.769531-24 24-24zm308.273438 226.511719c11.71875 4.863281 19.726562 16.320312 19.726562 29.488281 0 17.648438-14.351562 32-32 32v16c16.585938 0 31.222656-8.457031 39.847656-21.273438 4.96875 5.570313 7.929688 12.730469 8.136719 20.371094.289063 10.453125-5.519531 20.710938-15.550781 27.429688-9.800782 6.5625-17.664063 5.9375-23.402344 4.65625l-8.160156-1.816406-1.457032 8.234374c-1.839843 10.4375-8.8125 19.261719-18.644531 23.597657l-4.769531 2.105469v16.695312h-24v-64h8c13.230469 0 24-10.769531 24-24s-10.769531-24-24-24-24 10.769531-24 24v8h-16v-8c0-13.230469-10.769531-24-24-24s-24 10.769531-24 24 10.769531 24 24 24h8v64h-24v-16.695312l-4.769531-2.113282c-9.832031-4.335937-16.796875-13.160156-18.644531-23.597656l-1.457032-8.234375-8.160156 1.816406c-5.746094 1.28125-13.609375 1.894531-23.402344-4.65625-10.023437-6.71875-15.839844-16.976562-15.550781-27.429687.214844-7.640625 3.175781-14.800782 8.144531-20.371094 8.617188 12.824219 23.253906 21.28125 39.839844 21.28125v-16c-17.648438 0-32-14.351562-32-32 0-13.167969 8-24.625 19.71875-29.480469 7.265625 17.296875 24.371094 29.480469 44.28125 29.480469v-16c-17.648438 0-32-14.351562-32-32s14.351562-32 32-32 32 14.351562 32 32h16c0-17.648438 14.351562-32 32-32s32 14.351562 32 32-14.351562 32-32 32v16c19.902344 0 37.015625-12.183594 44.273438-29.488281zm-129.386719 205.488281h82.480469c-19.015626 11.207031-39.75 19.777344-61.726563 25.207031-9.710937-5.773437-17.023437-14.71875-20.753906-25.207031zm-18.886719-16c-4.40625 0-8-3.59375-8-8s3.59375-8 8-8h128c4.121094 0 7.40625 3.175781 7.832031 7.191406-3.503906 3.039063-7.078125 5.984375-10.761719 8.808594zm40-112h-8c-4.40625 0-8-3.59375-8-8s3.59375-8 8-8 8 3.59375 8 8zm32 80h-16v-64h16zm16-80v-8c0-4.40625 3.59375-8 8-8s8 3.59375 8 8-3.59375 8-8 8zm-336-72c0-51.496094 16.910156-100.921875 48-141.3125v197.3125h-41.070312c-4.523438-18.238281-6.929688-37.023438-6.929688-56zm0 96v-24h176.070312c.066407 15.488281 8.378907 30.296875 22.585938 39.816406 8.992188 6.023438 18.238281 8.71875 28.144531 8.078125.015625.042969.03125.074219.046875.105469h-202.847656c-13.230469 0-24-10.769531-24-24zm44.015625 40h192.542969c3.304687 3.648438 7.082031 6.886719 11.433594 9.40625v6.59375c-13.230469 0-24 10.769531-24 24s10.769531 24 24 24h2.128906c2.894531 11.183594 8.832031 21.28125 16.957031 29.34375-11.429687 1.746094-23.148437 2.65625-35.078125 2.65625-75.128906 0-144.34375-35.625-187.984375-96zm352.382813 27.519531c-4.222657-6.878906-11.75-11.519531-20.398438-11.519531v-6.59375c9.9375-5.757812 17.441406-14.804688 21.199219-25.511719 9.929687.648438 19.152343-2.054687 28.144531-8.078125 14.617188-9.792968 23.082031-25.183594 22.640625-41.160156-.382813-13.914062-6.761719-26.808594-17.320313-35.578125.839844-3.566406 1.335938-7.261719 1.335938-11.078125 0-20.703125-13.152344-38.632812-32.136719-45.246094.046875-.914062.136719-1.824218.136719-2.753906 0-26.472656-21.527344-48-48-48-16.671875 0-31.390625 8.542969-40 21.496094-2.265625-3.398438-4.96875-6.472656-8-9.191406v-28.304688h64v-99.984375c60.375 43.632813 96 112.855469 96 187.984375 0 63.734375-25.847656 121.542969-67.601562 163.519531zm0 0"/><path d="m288 32h-192v112h192zm-16 96h-160v-80h160zm0 0"/><path d="m96 160h96v16h-96zm0 0"/><path d="m96 192h96v16h-96zm0 0"/><path d="m96 224h96v16h-96zm0 0"/><path d="m176 256h16v16h-16zm0 0"/><path d="m96 256h64v16h-64zm0 0"/></svg>