<?xml version="1.0" encoding="utf-8"?>
<!-- Generator: Adobe Illustrator 23.0.3, SVG Export Plug-In . SVG Version: 6.00 Build 0)  -->
<svg version="1.1" id="Layer_1" xmlns="http://www.w3.org/2000/svg" xmlns:xlink="http://www.w3.org/1999/xlink" x="0px" y="0px"
	 viewBox="0 0 493 493" style="enable-background:new 0 0 493 493;" xml:space="preserve">
<path d="M379.6,11.8c-49.1,0-91.1,32.1-106.8,75H74.6c-4.4,0-8,4-8,8.3l-1.9,280.2H8.2c-4.4,0-8.2,3.2-8.2,7.6v35.6
	c0.1,33.5,26.5,61,59.9,62.5v0.2h246.6v-0.2c2,0.1,2.8,0.2,4.1,0.2h0.2c34.6-0.1,62.6-28.1,62.6-62.7V238.6c2,0.1,4.1,0.2,6.2,0.2
	c62.5,0,113.4-51,113.4-113.5C493,62.7,442.1,11.8,379.6,11.8z M62.9,465.2L62.9,465.2c-25.9,0-46.9-20.9-47-46.8v-27.1h231.6v27
	c0,16.7,6.7,32.6,18.5,44.4c0.8,0.8,1.9,1.5,2.8,2.5H62.9z M357.4,418.4c0,25.8-20.9,46.7-46.7,46.8h-0.2c-25.9,0-46.9-21-47-46.9
	v-35.4c0.1-2-0.7-4-2.2-5.5c-1.4-1.4-3.4-2.2-5.5-2.1H80.7l1.8-272.6h185.9c-1.4,7.3-2.1,14.7-2.2,22.2c0,15.7,3.3,31.3,9.6,45.7
	h-75.4c-4.4,0-8,3.6-8,8c0,4.4,3.6,8,8,8h84.1c16.5,25.9,42.8,44,72.9,50V418.4z M379.6,222.8c-53.8,0-97.4-43.6-97.4-97.4
	c0-53.8,43.6-97.4,97.4-97.4c53.8,0,97.4,43.6,97.4,97.4C477,179.2,433.4,222.8,379.6,222.8z"/>
<path d="M149.1,223.8c-14.1,0-25.6,11.1-25.6,24.8c0,13.7,11.5,24.8,25.6,24.8s25.6-11.1,25.6-24.8
	C174.7,234.9,163.2,223.8,149.1,223.8z M149.1,257.3c-5.3,0-9.6-3.9-9.6-8.8c0-4.8,4.3-8.8,9.6-8.8s9.6,3.9,9.6,8.8
	C158.7,253.4,154.4,257.3,149.1,257.3z"/>
<path d="M192.4,248.5c0,4.4,3.6,8,8,8h106.5c4.4,0,8-3.6,8-8s-3.6-8-8-8H200.4C196,240.5,192.4,244.1,192.4,248.5z"/>
<path d="M149.1,154.3c-14.1,0-25.6,11.1-25.6,24.8c0,13.7,11.5,24.8,25.6,24.8s25.6-11.1,25.6-24.8
	C174.7,165.5,163.2,154.3,149.1,154.3z M149.1,187.9c-5.3,0-9.6-3.9-9.6-8.8s4.3-8.8,9.6-8.8s9.6,3.9,9.6,8.8
	C158.7,183.9,154.4,187.9,149.1,187.9L149.1,187.9z"/>
<path d="M149.1,293.2c-14.1,0-25.6,11.1-25.6,24.8c0,13.7,11.5,24.8,25.6,24.8s25.6-11.1,25.6-24.8
	C174.7,304.3,163.2,293.2,149.1,293.2z M149.1,326.7c-5.3,0-9.6-3.9-9.6-8.8c0-4.8,4.3-8.8,9.6-8.8s9.6,3.9,9.6,8.8
	C158.7,322.8,154.4,326.7,149.1,326.7z"/>
<path d="M306.9,310.4H200.4c-4.4,0-8,3.6-8,8c0,4.4,3.6,8,8,8h106.5c4.4,0,8-3.6,8-8C314.9,314,311.3,310.4,306.9,310.4z"/>
<path d="M440.3,119.2h-51.4V57.4c0-5.2-4.2-9.4-9.4-9.4c-5.2,0-9.4,4.2-9.4,9.4v71.2c0,5.2,4.2,9.4,9.4,9.4h60.8
	c5.2,0,9.4-4.2,9.4-9.4C449.7,123.5,445.5,119.2,440.3,119.2z"/>
</svg>
