<?xml version="1.0" encoding="utf-8"?>
<!-- Generator: Adobe Illustrator 23.0.2, SVG Export Plug-In . SVG Version: 6.00 Build 0)  -->
<svg version="1.1" id="Capa_1" xmlns="http://www.w3.org/2000/svg" xmlns:xlink="http://www.w3.org/1999/xlink" x="0px" y="0px"
	 viewBox="0 0 480 480" style="enable-background:new 0 0 480 480;" xml:space="preserve">
<g>
	<g>
		<path d="M327.7,197.8c-0.1-0.2-0.2-0.5-0.3-0.7c-0.1-0.4-0.3-0.8-0.5-1.2c-0.2-0.3-0.4-0.5-0.6-0.7c-0.2-0.3-0.4-0.6-0.7-0.9
			c-0.2-0.2-0.5-0.4-0.7-0.6c-0.3-0.2-0.5-0.4-0.8-0.6l-80-48c-2.5-1.5-5.7-1.5-8.2,0l-80,48c-0.3,0.2-0.6,0.4-0.8,0.6
			c-0.3,0.2-0.5,0.4-0.8,0.6c-0.2,0.3-0.5,0.6-0.7,0.9c-0.2,0.2-0.4,0.5-0.6,0.7c-0.2,0.4-0.3,0.8-0.5,1.1c-0.1,0.2-0.2,0.5-0.3,0.8
			c-0.2,0.7-0.3,1.4-0.3,2.1v80c0,2.8,1.5,5.4,3.9,6.9l80,48l0.1,0l0.1,0.1c0.4,0.2,0.9,0.4,1.3,0.5c0.2,0.1,0.4,0.2,0.6,0.2
			c1.4,0.4,2.8,0.4,4.2,0c0.2-0.1,0.4-0.2,0.6-0.2c0.5-0.1,0.9-0.3,1.3-0.5l0.1-0.1l0.1,0l80-48c2.4-1.4,3.9-4,3.9-6.9v-80
			C328,199.2,327.9,198.5,327.7,197.8z M240,161.2l24.4,14.7L200,214.6l-24.4-14.7L240,161.2z M232,313.8l-64-38.4V214l64,38.4
			V313.8z M240,238.6l-24.4-14.7l64.4-38.7l24.4,14.7L240,238.6z M312,275.4l-64,38.4v-61.3l64-38.4V275.4z"/>
	</g>
</g>
<g>
	<g>
		<path d="M233.6,124.9c2.9,3.5,8.1,4,11.7,1.1c0.4-0.3,0.8-0.7,1.1-1.1l24-32l-12.8-9.6L248,96.1v-64h-16v64l-9.6-12.8l-12.8,9.6
			L233.6,124.9z"/>
	</g>
</g>
<g>
	<g>
		<path d="M222.4,396.7l9.6-12.8v64h16v-64l9.6,12.8l12.8-9.6l-24-32c-2.7-3.5-7.7-4.3-11.2-1.6c-0.6,0.5-1.1,1-1.6,1.6l-24,32
			L222.4,396.7z"/>
	</g>
</g>
<g>
	<g>
		<rect x="232" y="0.1" width="16" height="16"/>
	</g>
</g>
<g>
	<g>
		<rect x="232" y="463.9" width="16" height="16"/>
	</g>
</g>
<g>
	<g>
		<path d="M32,247.9h64l-12.8,9.6l9.6,12.8l32-24c3.5-2.7,4.3-7.7,1.6-11.2c-0.5-0.6-1-1.1-1.6-1.6l-32-24l-9.6,12.8l12.8,9.6H32
			V247.9z"/>
	</g>
</g>
<g>
	<g>
		<path d="M353.6,244.7c0.5,0.6,1,1.1,1.6,1.6l32,24l9.6-12.8l-12.8-9.6h64v-16h-64l12.8-9.6l-9.6-12.8l-32,24
			C351.7,236.2,350.9,241.2,353.6,244.7z"/>
	</g>
</g>
<g>
	<g>
		<rect x="0" y="231.9" width="16" height="16"/>
	</g>
</g>
<g>
	<g>
		<rect x="464" y="231.9" width="16" height="16"/>
	</g>
</g>
<g>
	<g>
		<path d="M90.5,101.8l45.2,45.2l-15.8-2.3l-2.3,15.8l39.6,5.7c4.4,0.6,8.4-2.4,9.1-6.7c0.1-0.8,0.1-1.6,0-2.3l-5.7-39.6l-15.8,2.3
			l2.3,15.8l-45.2-45.2L90.5,101.8z"/>
	</g>
</g>
<g>
	<g>
		<path d="M313.6,322.6l5.7,39.6l15.9-2.3l-2.3-15.8l45.2,45.2l11.3-11.3l-45.2-45.2L360,335l2.3-15.8l-39.6-5.7
			c-0.4-0.1-0.8-0.1-1.1-0.1c-4.4,0-8,3.6-8,8C313.5,321.8,313.6,322.2,313.6,322.6z"/>
	</g>
</g>
<g>
	<g>
		<rect x="71.2" y="71.1" transform="matrix(0.7071 -0.7071 0.7071 0.7071 -32.7532 79.2003)" width="16" height="16"/>
	</g>
</g>
<g>
	<g>
		<rect x="392.8" y="392.6" transform="matrix(0.7071 -0.7071 0.7071 0.7071 -165.9217 400.7204)" width="16" height="16"/>
	</g>
</g>
<g>
	<g>
		<path d="M135.8,332.8L90.6,378l11.3,11.3l45.2-45.2l-2.3,15.8l15.8,2.3l5.7-39.6c0.6-4.4-2.4-8.4-6.8-9.1
			c-0.4-0.1-0.8-0.1-1.1-0.1c-0.4,0-0.8,0-1.1,0.1l-39.6,5.7L120,335L135.8,332.8z"/>
	</g>
</g>
<g>
	<g>
		<path d="M315.9,164c1.8,1.8,4.3,2.6,6.8,2.3l39.6-5.7l-2.3-15.8l-15.8,2.3l45.2-45.2l-11.3-11.3l-45.2,45.2l2.3-15.8l-15.8-2.3
			l-5.7,39.6C313.3,159.7,314.1,162.2,315.9,164z"/>
	</g>
</g>
<g>
	<g>
		<rect x="71.2" y="392.6" transform="matrix(0.7071 -0.7071 0.7071 0.7071 -260.0927 173.3715)" width="16" height="16"/>
	</g>
</g>
<g>
	<g>
		<rect x="392.7" y="71.2" transform="matrix(0.7071 -0.7071 0.7071 0.7071 61.3905 306.5515)" width="16" height="16"/>
	</g>
</g>
</svg>
