<svg height="480pt" viewBox="0 0 480 480.02026" width="480pt" xmlns="http://www.w3.org/2000/svg"><path d="m344.011719 296.019531v-32c0-4.417969-3.582031-8-8-8s-8 3.582031-8 8v32c0 4.417969-3.582031 8-8 8h-8c-4.417969 0-8-3.582031-8-8v-88h32c4.417969 0 8-3.582031 8-8v-32c0-17.671875-14.328125-32-32-32h-32.890625c16.300781-15.90625 21.34375-40.097656 12.757812-61.191406-8.589844-21.09375-29.09375-34.886719-51.867187-34.886719-22.777344 0-43.28125 13.792969-51.867188 34.886719-8.589843 21.09375-3.546875 45.285156 12.753907 61.191406h-16.886719c-4.417969 0-8 3.582031-8 8s3.582031 8 8 8h24v16c0 2.121094.84375 4.15625 2.34375 5.65625l21.65625 21.65625v28.6875c0 4.417969 3.582031 8 8 8s8-3.582031 8-8v-28.6875l21.65625-21.65625c1.5-1.5 2.339843-3.535156 2.34375-5.65625v-16h40c8.835937 0 16 7.164063 16 16v24h-32c-4.417969 0-8 3.582031-8 8v224h-40v-96c0-4.417969-3.582031-8-8-8s-8 3.582031-8 8v96h-40v-128h64c4.417969 0 8-3.582031 8-8s-3.582031-8-8-8h-64v-80c0-4.417969-3.582031-8-8-8s-8 3.582031-8 8v96c0 4.417969-3.582031 8-8 8h-8c-4.417969 0-8-3.582031-8-8v-80c0-4.417969-3.582031-8-8-8s-8 3.582031-8 8v64h-32c-22.082031.027344-39.976563 17.921875-40 40v11.914063l-15.554688 11.199218-22.976562 3.703126c-3.410157.546874-6.082031 3.222656-6.628907 6.632812l-3.707031 22.976562-13.597656 18.871094c-2.015625 2.792969-2.015625 6.566406 0 9.359375l13.597656 18.871094 3.707031 22.976563c.546876 3.410156 3.21875 6.085937 6.628907 6.632812l22.976562 3.703125 18.875 13.601563c2.792969 2.015624 6.5625 2.015624 9.359375 0l18.871094-13.601563 22.976562-3.703125c3.410157-.546875 6.085938-3.222656 6.632813-6.632812l3.703125-22.976563 13.597656-18.871094c2.015625-2.792969 2.015625-6.566406 0-9.359375l-13.597656-18.871094-3.703125-22.976562c-.546875-3.410156-3.222656-6.085938-6.632813-6.632812l-22.976562-3.703126-15.550781-11.199218v-11.914063c0-13.253906 10.742187-24 24-24h32c0 13.253907 10.742187 24 24 24h8c2.730469-.027343 5.4375-.523437 8-1.472656v137.472656c0 13.253907 10.742187 24 24 24h24c5.921875-.019531 11.625-2.246093 16-6.238281 4.371093 3.992188 10.074219 6.21875 16 6.238281h24c13.253906 0 24-10.746093 24-24v-137.472656c2.558593.949219 5.265625 1.445313 8 1.472656h8c13.253906 0 24-10.746093 24-24zm-144-200c0-22.089843 17.90625-40 40-40 22.089843 0 40 17.910157 40 40 0 22.09375-17.910157 40-40 40-22.082031-.027343-39.976563-17.917969-40-40zm56 68.6875-16 16-16-16v-12.6875h32zm-164.867188 193.9375 19.144531 3.097657 3.097657 19.140624c.195312 1.234376.679687 2.402344 1.414062 3.410157l11.34375 15.726562-11.34375 15.730469c-.734375 1.007812-1.21875 2.175781-1.414062 3.40625l-3.097657 19.144531-19.144531 3.09375c-1.230469.199219-2.398437.683594-3.40625 1.417969l-15.726562 11.34375-15.730469-11.34375c-1.007812-.734375-2.175781-1.21875-3.40625-1.417969l-19.144531-3.09375-3.097657-19.144531c-.195312-1.230469-.679687-2.398438-1.414062-3.40625l-11.34375-15.730469 11.34375-15.726562c.734375-1.007813 1.21875-2.175781 1.414062-3.410157l3.097657-19.140624 19.144531-3.097657c1.230469-.195312 2.398438-.679687 3.40625-1.417969l15.730469-11.34375 15.726562 11.34375c1.007813.738282 2.175781 1.222657 3.40625 1.417969zm132.867188 105.375h-24c-4.417969 0-8-3.582031-8-8v-16h40v16c0 4.417969-3.582031 8-8 8zm64-8c0 4.417969-3.582031 8-8 8h-24c-4.417969 0-8-3.582031-8-8v-16h40zm0 0"/><path d="m400.011719 56.019531c4.417969 0 8 3.582031 8 8s3.582031 8 8 8 8-3.582031 8-8c-.042969-10.132812-6.445313-19.148437-16-22.527343v-9.472657c0-4.417969-3.582031-8-8-8s-8 3.582031-8 8v9.472657c-11.015625 3.878906-17.625 15.136718-15.644531 26.640624 1.976562 11.507813 11.96875 19.910157 23.644531 19.886719 4.417969 0 8 3.582031 8 8s-3.582031 8-8 8-8-3.582031-8-8-3.582031-8-8-8-8 3.582031-8 8c.039062 10.136719 6.445312 19.152344 16 22.527344v9.472656c0 4.417969 3.582031 8 8 8s8-3.582031 8-8v-9.472656c11.011719-3.878906 17.621093-15.132813 15.640625-26.640625-1.976563-11.507812-11.964844-19.90625-23.640625-19.886719-4.417969 0-8-3.582031-8-8s3.582031-8 8-8zm0 0"/><path d="m392.011719 159.613281v40.40625c0 13.253907-10.746094 24-24 24h-32c-4.417969 0-8 3.582031-8 8s3.582031 8 8 8h32c22.078125-.027343 39.972656-17.917969 40-40v-40.40625c40.851562-4.15625 71.945312-38.53125 72-79.59375 0-4.417969-3.582031-8-8-8s-8 3.582031-8 8c.097656 30.980469-21.9375 57.613281-52.390625 63.316407-30.453125 5.703124-60.632813-11.152344-71.75-40.070313-11.117188-28.914063 0-61.648437 26.425781-77.8125 26.429687-16.167969 60.632813-11.15625 81.3125 11.910156 1.894531 2.179688 4.820313 3.167969 7.648437 2.585938 2.828126-.582031 5.121094-2.644531 6.003907-5.394531.882812-2.75.214843-5.761719-1.746094-7.878907-23.855469-26.675781-62.523437-34.265625-94.691406-18.585937-32.167969 15.679687-50.007813 50.8125-43.691407 86.039062 6.320313 35.222656 35.265626 61.964844 70.878907 65.484375zm0 0"/><path d="m8.011719 184.476562h24v31.542969c.023437 22.082031 17.917969 39.972657 40 40h32c4.417969 0 8-3.582031 8-8s-3.582031-8-8-8h-32c-13.257813 0-24-10.746093-24-24v-31.542969h104c4.417969 0 8-3.582031 8-8v-128c0-4.417968-3.582031-8-8-8h-30.160157c8.917969-9.421874 8.734376-24.226562-.417968-33.425781-9.496094-9.0625-24.4375-9.0625-33.933594 0-2.886719 3.160157-5.398438 6.636719-7.488281 10.371094-2.085938-3.746094-4.59375-7.234375-7.480469-10.402344-9.5-9.0625-24.445312-9.0625-33.945312 0-9.171876 9.203125-9.355469 24.03125-.414063 33.457031h-30.160156c-4.417969 0-8.0000002 3.582032-8.0000002 8v55.542969c0 4.417969 3.5820312 8 8.0000002 8s8-3.582031 8-8v-47.542969h31.351562l-21.601562 27c-2.761719 3.449219-2.203125 8.484376 1.25 11.246094 3.449219 2.761719 8.484375 2.203125 11.246093-1.246094l17.753907-22.191406v97.191406h-13.753907c-.722656-.261718-1.480468-.414062-2.246093-.457031-.769531.042969-1.527344.195313-2.25.457031h-21.75v-16.457031c0-4.417969-3.582031-8-8-8s-8.0000002 3.582031-8.0000002 8v24.457031c0 4.417969 3.5820312 8 8.0000002 8zm136-16h-40v-97.191406l17.75 22.191406c2.761719 3.449219 7.796875 4.007813 11.25 1.246094 3.449219-2.761718 4.007812-7.796875 1.246093-11.246094l-21.601562-27h31.355469zm-39.546875-152.457031c3.238281 0 6.152344 1.949219 7.390625 4.941407 1.238281 2.988281.554687 6.425781-1.734375 8.714843-6.296875 5.351563-13.824219 9.0625-21.902344 10.800781h-.207031c1.695312-8.164062 5.421875-15.769531 10.839843-22.113281 1.480469-1.5 3.503907-2.34375 5.613282-2.34375zm-54.566406 2.34375c3.125-3.121093 8.1875-3.121093 11.3125 0 5.398437 6.347657 9.113281 13.953125 10.800781 22.113281h-.242188c-8.082031-1.738281-15.605469-5.449218-21.902343-10.800781-3.117188-3.132812-3.101563-8.195312.03125-11.3125zm22.113281 38.113281h16v112h-16zm0 0"/><path d="m456.011719 336.019531c-4.417969 0-8 3.582031-8 8s3.582031 8 8 8 8 3.582031 8 8v72c0 4.417969-3.582031 8-8 8h-96c-4.417969 0-8-3.582031-8-8v-72c0-4.417969 3.582031-8 8-8h8c4.417969 0 8-3.582031 8-8v-28.6875l34.34375 34.34375c3.136719 3.03125 8.128906 2.988281 11.214843-.097656 3.085938-3.085937 3.128907-8.074219.097657-11.214844l-48-48c-2.289063-2.285156-5.730469-2.96875-8.71875-1.734375-2.988281 1.238282-4.9375 4.15625-4.9375 7.390625v40c-13.257813 0-24 10.746094-24 24v72c0 13.253907 10.742187 24 24 24h96c13.253906 0 24-10.746093 24-24v-72c0-13.253906-10.746094-24-24-24zm0 0"/><path d="m376.011719 392.019531h16c4.417969 0 8-3.582031 8-8s-3.582031-8-8-8h-16c-4.417969 0-8 3.582031-8 8s3.582031 8 8 8zm0 0"/><path d="m448.011719 384.019531c0-4.417969-3.582031-8-8-8h-16c-4.417969 0-8 3.582031-8 8s3.582031 8 8 8h16c4.417969 0 8-3.582031 8-8zm0 0"/><path d="m376.011719 424.019531h48c4.417969 0 8-3.582031 8-8s-3.582031-8-8-8h-48c-4.417969 0-8 3.582031-8 8s3.582031 8 8 8zm0 0"/><path d="m50.355469 421.675781c3.121093 3.125 8.1875 3.125 11.3125 0l32-32c3.03125-3.136719 2.988281-8.128906-.097657-11.214843-3.085937-3.085938-8.078124-3.128907-11.214843-.097657l-32 32c-3.125 3.125-3.125 8.1875 0 11.3125zm0 0"/><path d="m64.011719 384.019531c0 4.417969-3.582031 8-8 8s-8-3.582031-8-8 3.582031-8 8-8 8 3.582031 8 8zm0 0"/><path d="m96.011719 416.019531c0 4.417969-3.582031 8-8 8s-8-3.582031-8-8 3.582031-8 8-8 8 3.582031 8 8zm0 0"/></svg>