<?xml version="1.0" encoding="utf-8"?>
<!-- Generator: Adobe Illustrator 23.0.1, SVG Export Plug-In . SVG Version: 6.00 Build 0)  -->
<svg version="1.1" id="Layer_1" xmlns="http://www.w3.org/2000/svg" xmlns:xlink="http://www.w3.org/1999/xlink" x="0px" y="0px"
	 viewBox="0 0 496 496" style="enable-background:new 0 0 496 496;" xml:space="preserve">
<g>
	<rect x="48" y="160" width="32" height="16"/>
	<path d="M472,128c13.2,0,24-10.8,24-24V24c0-13.2-10.8-24-24-24H360c-13.2,0-24,10.8-24,24v80c0,13.2,10.8,24,24,24h24v16h-16v16
		h40v80h-33c-6.4-6.2-14.2-11-23-13.6c0-0.8,0.1-1.6,0.1-2.4c0-35.3-28.7-64-64-64c-21.9,0-42.2,11.4-53.9,29.6
		c-8.2-3.7-17.1-5.6-26.1-5.6c-26.6,0-50.5,16.7-59.8,41.3c-6.1,1.3-11.7,3.6-16.9,6.7H72v-24h32c13.2,0,24-10.8,24-24V24
		c0-13.2-10.8-24-24-24H24C10.8,0,0,10.8,0,24v160c0,13.2,10.8,24,24,24h32v40h58.3c-3.4,4.9-6,10.2-7.8,16H72v88H40
		c-13.2,0-24,10.8-24,24v72H0v24c0,13.2,10.8,24,24,24h128c13.2,0,24-10.8,24-24v-24h-16v-72c0-13.2-10.8-24-24-24H88v-72h16
		c0,30.9,25.1,56,56,56h176c28.2,0,51.5-20.9,55.4-48H424v64h-56v144h128V352h-56v-80h-48.7c-0.8-5.6-2.6-11-5-16H424v-96h40v-16
		h-16v-16H472z M112,128H16V48h96V128z M24,16h80c4.4,0,8,3.6,8,8v8H16v-8C16,19.6,19.6,16,24,16L24,16z M16,184v-40h96v40
		c0,4.4-3.6,8-8,8H24C19.6,192,16,188.4,16,184L16,184z M160,472c0,4.4-3.6,8-8,8H24c-4.4,0-8-3.6-8-8v-8h144V472z M144,376v72H32
		v-72c0-4.4,3.6-8,8-8h96C140.4,368,144,371.6,144,376L144,376z M384,480v-48h96v48H384z M480,416h-96v-48h96V416z M336,320H160
		c-22.1,0-40-17.9-40-40c0-20.2,15.1-37.3,35.2-39.7l5.3-0.6l1.5-5.1c5.9-20.4,24.9-34.6,46.1-34.6c8.8,0,17.5,2.5,25.1,7.2l7.6,4.7
		l3.8-8.1c7.9-16.9,24.9-27.7,43.4-27.7c26.5,0,48,21.5,48,48c0,2.2-0.2,4.6-0.6,7.4l-1.2,7.9l7.9,1.2c19.3,3,33.9,19.9,33.9,39.5
		C376,302.1,358.1,320,336,320L336,320z M360,16h112c4.4,0,8,3.6,8,8v56H352V24C352,19.6,355.6,16,360,16L360,16z M352,104v-8h128v8
		c0,4.4-3.6,8-8,8H360C355.6,112,352,108.4,352,104L352,104z M432,144h-32v-16h32V144z M432,144"/>
	<rect x="400" y="384" width="16" height="16"/>
	<rect x="448" y="448" width="16" height="16"/>
	<rect x="432" y="384" width="32" height="16"/>
	<rect x="400" y="448" width="32" height="16"/>
</g>
</svg>
