<?xml version="1.0" encoding="iso-8859-1"?>
<!-- Generator: Adobe Illustrator 16.0.0, SVG Export Plug-In . SVG Version: 6.00 Build 0)  -->
<!DOCTYPE svg PUBLIC "-//W3C//DTD SVG 1.1//EN" "http://www.w3.org/Graphics/SVG/1.1/DTD/svg11.dtd">
<svg version="1.1" id="Capa_1" xmlns="http://www.w3.org/2000/svg" xmlns:xlink="http://www.w3.org/1999/xlink" x="0px" y="0px"
	 width="64.083px" height="64.083px" viewBox="0 0 64.083 64.083" style="enable-background:new 0 0 64.083 64.083;"
	 xml:space="preserve">
<g>
	<path d="M49.961,17.708c0-0.671,0.448-1.343,1.344-1.567c3.137-0.673,5.6-5.375,6.944-9.185l-0.672,0.448
		c-0.448,0.447-1.347,0.223-1.792-0.225c-0.448-0.674-0.225-1.346,0.224-1.794l3.808-3.136c0.226,0,0.226-0.225,0.449-0.225
		c0.225,0,0.225,0,0.447,0s0.225,0.225,0.448,0.225c0,0,0.224,0,0.224,0.227l2.465,4.479c0.447,0.672,0.226,1.568-0.449,1.792
		c-0.223,0.226-0.445,0.226-0.672,0.226c-0.445,0-0.895-0.226-1.119-0.674l-0.896-1.792c-1.121,4.257-4.032,10.978-9.185,12.097
		h-0.225C50.633,18.604,50.186,18.379,49.961,17.708z M13,16.363c-3.36-0.672-5.6-5.375-6.944-9.184l0.672,0.446
		C7.176,8.073,8.072,8.073,8.52,7.399c0.448-0.446,0.448-1.344-0.224-1.791L4.489,2.473c-0.224,0-0.224-0.225-0.448-0.225
		s-0.224,0-0.448,0c-0.224,0-0.224,0-0.448,0.225L2.92,2.698L0.457,7.177c-0.672,0.675-0.448,1.347,0.224,1.796
		c0.224,0,0.448,0.223,0.672,0.223c0.448,0,0.896-0.223,1.12-0.672l0.896-1.791c1.344,4.031,4.256,10.976,9.184,12.096h0.224
		c0.672,0,1.12-0.448,1.12-0.896C14.121,17.259,13.672,16.587,13,16.363z M12.553,45.482c-5.152,1.121-8.064,7.84-9.184,12.097
		l-0.896-1.791c-0.224-0.672-1.12-0.896-1.792-0.449c-0.672,0.449-0.896,1.121-0.448,1.793l2.464,4.479
		c0,0.224,0.224,0.224,0.224,0.224c0.224,0,0.224,0.225,0.448,0.225h0.224c0.224,0,0.672,0,0.896-0.225L8.297,58.7
		c0.448-0.449,0.672-1.121,0.224-1.793c-0.448-0.673-1.344-0.673-1.792-0.224l-0.672,0.444c1.343-3.81,3.808-8.51,6.943-9.185
		c0.672-0.226,1.12-0.896,0.896-1.565C13.896,45.708,13.225,45.258,12.553,45.482z M63.398,55.116
		c-0.672-0.226-1.344-0.226-1.791,0.446l-0.896,1.793c-1.344-4.033-4.256-10.979-9.185-12.099c-0.672-0.225-1.344,0.226-1.567,0.896
		c0,0.896,0.448,1.567,1.12,1.567c3.359,0.673,5.602,5.378,6.943,9.188l-0.672-0.226c-0.449-0.449-1.346-0.449-1.793,0.226
		c-0.447,0.446-0.447,1.344,0.226,1.79l3.808,3.138c0.225,0.225,0.448,0.225,0.896,0.225h0.224c0.226,0,0.226,0,0.448-0.225
		l0.224-0.226l2.466-4.479C64.297,56.234,64.073,55.563,63.398,55.116z M38.312,42.124c-7.167,4.03-16.352,1.567-20.607-5.601
		c-4.032-7.168-1.568-16.354,5.6-20.608c7.168-4.032,16.353-1.567,20.608,5.601S45.705,38.09,38.312,42.124z M37.193,40.107
		c6.049-3.584,8.062-11.2,4.703-17.248c-3.584-6.049-11.201-8.064-17.249-4.705c-6.048,3.584-8.288,11.201-4.704,17.248
		C23.305,41.452,31.145,43.467,37.193,40.107z M42.107,41.072l-6.399,3.699l5.044,8.728l6.4-3.699L42.107,41.072z M41.449,54.891
		c1.117,1.793,3.357,2.465,5.15,1.344c1.791-1.117,2.463-3.357,1.344-5.148L41.449,54.891z M24.201,35.627h2.912v-9.855h-2.912
		V35.627z M29.353,35.625h2.912v-6.271h-2.912V35.625z M34.505,35.627h2.912V22.859h-2.912V35.627z"/>
</g>
<g>
</g>
<g>
</g>
<g>
</g>
<g>
</g>
<g>
</g>
<g>
</g>
<g>
</g>
<g>
</g>
<g>
</g>
<g>
</g>
<g>
</g>
<g>
</g>
<g>
</g>
<g>
</g>
<g>
</g>
</svg>
