<?xml version="1.0" encoding="iso-8859-1"?>
<!-- Generator: Adobe Illustrator 23.0.1, SVG Export Plug-In . SVG Version: 6.00 Build 0)  -->
<svg version="1.1" id="Capa_1" xmlns="http://www.w3.org/2000/svg" xmlns:xlink="http://www.w3.org/1999/xlink" x="0px" y="0px"
	 viewBox="-41 149 496 496" style="enable-background:new -41 149 496 496;" xml:space="preserve">
<rect x="199" y="221" width="128" height="16"/>
<rect x="199" y="253" width="128" height="16"/>
<rect x="55" y="477" width="144" height="16"/>
<rect x="55" y="541" width="144" height="16"/>
<rect x="55" y="509" width="64" height="16"/>
<rect x="135" y="509" width="64" height="16"/>
<rect x="55" y="573" width="64" height="16"/>
<rect x="135" y="573" width="64" height="16"/>
<path d="M439,454.472V349c0-8.288-5.576-15.632-13.568-17.848L359,312.696V181H137.888c-0.456-0.504-0.856-1.048-1.344-1.536
	c-10.344-10.352-25.184-14.016-38.864-10.16C90.696,156.888,77.624,149,63,149s-27.696,7.888-34.672,20.296
	c-13.696-3.84-28.528-0.184-38.864,10.168c-10.344,10.344-14.008,25.168-10.16,38.864C-33.112,225.304-41,238.376-41,253
	s7.888,27.696,20.304,34.672c-3.848,13.704-0.184,28.52,10.16,38.864c5.008,5.008,11.064,8.456,17.536,10.24v109.312l16-13.336V645
	h235.32L359,544.312v-111.56l48-13.712v-47.064l16-4.448v86.952c-9.288,3.312-16,12.112-16,22.528v56h48v-56
	C455,466.584,448.288,457.784,439,454.472z M151,253c0,10.48-6.808,19.632-16.936,22.784l-3.184,0.992
	c2.624-7.456,4.12-15.44,4.12-23.776s-1.496-16.32-4.12-23.768l3.184,0.992C144.192,233.368,151,242.52,151,253z M23,411.92v-74.104
	c1.784-0.248,3.568-0.616,5.328-1.112C35.304,349.112,48.376,357,63,357s27.696-7.888,34.672-20.296
	c1.76,0.496,3.536,0.864,5.328,1.112v74.104l-40-33.336L23,411.92z M63,325c8.336,0,16.32-1.496,23.768-4.12l-0.992,3.184
	C82.632,334.192,73.48,341,63,341s-19.632-6.808-22.784-16.936l-0.992-3.184C46.68,323.504,54.664,325,63,325z M7,253
	c0-30.88,25.12-56,56-56s56,25.12,56,56s-25.12,56-56,56S7,283.88,7,253z M97.144,319.36l-2.968-1.56
	c14.664-7.08,26.536-18.96,33.624-33.624l1.56,2.968c4.936,9.384,3.28,20.672-4.136,28.08
	C117.824,322.632,106.536,324.296,97.144,319.36z M125.224,190.776c7.408,7.408,9.072,18.696,4.136,28.08l-1.56,2.968
	c-7.088-14.664-18.96-26.536-33.624-33.624l2.968-1.56C106.528,181.688,117.824,183.36,125.224,190.776z M63,165
	c10.48,0,19.632,6.808,22.784,16.936l0.992,3.184C79.32,182.496,71.336,181,63,181s-16.32,1.496-23.768,4.12l0.992-3.184
	C43.368,171.808,52.52,165,63,165z M0.776,190.776c7.408-7.408,18.696-9.08,28.08-4.136l2.968,1.56
	C17.16,195.288,5.288,207.16-1.8,221.824l-1.56-2.968C-8.296,209.472-6.64,198.184,0.776,190.776z M-25,253
	c0-10.48,6.808-19.632,16.936-22.784l3.184-0.992C-7.504,236.68-9,244.664-9,253s1.496,16.32,4.12,23.768l-3.184-0.992
	C-18.192,272.632-25,263.48-25,253z M0.776,315.224c-7.408-7.408-9.072-18.696-4.136-28.08l1.56-2.968
	c7.08,14.664,18.96,26.536,33.624,33.624l-2.968,1.56C19.464,324.288,8.176,322.632,0.776,315.224z M343,533h-96v80h16v-64h68.688
	l-80,80H39V419.416l24-20l56,46.664V336.776c6.472-1.784,12.528-5.224,17.536-10.232c10.344-10.344,14.008-25.168,10.16-38.864
	C159.112,280.696,167,267.624,167,253s-7.888-27.696-20.304-34.672c1.992-7.072,1.936-14.432,0.032-21.328H343v111.248l-56-15.56
	l-138.432,38.456C140.576,333.368,135,340.712,135,349s5.576,15.632,13.568,17.848l18.432,5.12v47.064l120,34.288l56-16V533z
	 M391,406.968L287,436.68l-104-29.712v-30.552l104,28.888l104-28.888V406.968z M421.152,351.432L287,388.696l-134.152-37.264
	C151.76,351.128,151,350.128,151,349s0.76-2.128,1.848-2.432L287,309.304l134.152,37.264C422.24,346.872,423,347.872,423,349
	S422.24,351.128,421.152,351.432z M439,517h-16v-40c0-4.408,3.592-8,8-8s8,3.592,8,8V517z"/>
</svg>
