<?xml version="1.0" encoding="iso-8859-1"?>
<!-- Generator: Adobe Illustrator 23.0.1, SVG Export Plug-In . SVG Version: 6.00 Build 0)  -->
<svg version="1.1" id="Capa_1" xmlns="http://www.w3.org/2000/svg" xmlns:xlink="http://www.w3.org/1999/xlink" x="0px" y="0px"
	 viewBox="-33 157.284 480 479.716" style="enable-background:new -33 157.284 480 479.716;" xml:space="preserve">
<path d="M213.93,161c-2.544-3.827-7.708-4.868-11.536-2.324c-0.921,0.612-1.711,1.402-2.324,2.324l-69.281,120
	c-2.209,3.826-0.898,8.719,2.928,10.928c1.217,0.702,2.597,1.072,4.001,1.072h138.563c4.418,0.001,8.001-3.58,8.001-7.999
	c0-1.405-0.369-2.785-1.072-4.001L213.93,161z M151.574,277L207,181l55.426,96H151.574z"/>
<path d="M439,493H311c-4.417-0.001-7.999,3.579-8,7.996c0,0.001,0,0.003,0,0.004v128c-0.001,4.417,3.579,7.999,7.996,8
	c0.001,0,0.003,0,0.004,0h128c4.417,0.001,7.999-3.579,8-7.996c0-0.001,0-0.003,0-0.004V501c0.001-4.417-3.579-7.999-7.996-8
	C439.003,493,439.001,493,439,493z M431,621H319V509h112V621z"/>
<path d="M39,493c-39.765,0-72,32.235-72,72c0,39.764,32.235,72,72,72s72-32.236,72-72C110.955,525.254,78.746,493.045,39,493z
	 M39,621c-30.928,0-56-25.072-56-56c0-30.928,25.072-56,56-56s56,25.072,56,56C94.964,595.913,69.913,620.964,39,621z"/>
<path d="M130.336,245.68l-6.672-14.547C29.627,274.331-16.009,382.062,18.383,479.664l15.086-5.328
	C1.834,384.538,43.822,285.426,130.336,245.68z"/>
<path d="M207,597c-25.347,0.054-50.428-5.166-73.648-15.328l-6.406,14.656c49.31,21.464,105.173,22.233,155.055,2.133l-6-14.828
	C254.079,592.502,230.647,597.041,207,597z"/>
<path d="M391,413c0.015,18.185-2.664,36.272-7.949,53.672l15.305,4.656c27.431-90.311-11.918-187.518-94.447-233.317l0.002-0.003
	c-1.734-0.961-3.488-1.906-5.254-2.813l-7.312,14.234c1.609,0.828,3.204,1.682,4.785,2.562L300.02,245l-3.883,6.992
	C354.648,284.455,390.96,346.087,391,413z"/>
</svg>
