<?xml version="1.0" encoding="utf-8"?>
<!-- Generator: Adobe Illustrator 23.0.1, SVG Export Plug-In . SVG Version: 6.00 Build 0)  -->
<svg version="1.1" id="Layer_1" xmlns="http://www.w3.org/2000/svg" xmlns:xlink="http://www.w3.org/1999/xlink" x="0px" y="0px"
	 viewBox="0 0 336 440" style="enable-background:new 0 0 336 440;" xml:space="preserve">
<path d="M0,104v8h16V96H8C3.6,96,0,99.6,0,104z"/>
<path d="M0,259.8h16v16.4H0V259.8z"/>
<path d="M0,226.9h16v16.4H0V226.9z"/>
<path d="M0,325.5h16v16.4H0V325.5z"/>
<path d="M0,292.6h16v16.4H0V292.6z"/>
<path d="M0,194.1h16v16.4H0V194.1z"/>
<path d="M0,391.2h16v16.4H0V391.2z"/>
<path d="M0,161.3h16v16.4H0V161.3z"/>
<path d="M0,358.3h16v16.4H0V358.3z"/>
<path d="M0,128.4h16v16.4H0V128.4z"/>
<path d="M0,432c0,4.4,3.6,8,8,8h8v-16H0V432z"/>
<path d="M64,424h16v16H64V424z"/>
<path d="M96,424h16v16H96V424z"/>
<path d="M160,424h16v16h-16V424z"/>
<path d="M192,424h16v16h-16V424z"/>
<path d="M128,424h16v16h-16V424z"/>
<path d="M32,424h16v16H32V424z"/>
<path d="M224,440h8c4.4,0,8-3.6,8-8v-8h-16V440z"/>
<path d="M224,400h16v16h-16V400z"/>
<path d="M24,96h16v16H24V96z"/>
<path d="M335.5,93.4c-0.1-0.3-0.2-0.5-0.3-0.8c-0.4-0.8-0.9-1.6-1.5-2.3l-88-88c-0.7-0.6-1.4-1.2-2.3-1.5c-0.2-0.1-0.4-0.2-0.7-0.2
	c-0.7-0.3-1.5-0.4-2.2-0.4C240.3,0.1,240.2,0,240,0H104c-4.4,0-8,3.6-8,8v40H56c-4.4,0-8,3.6-8,8v328c0,4.4,3.6,8,8,8h224
	c4.4,0,8-3.6,8-8v-40h40c4.4,0,8-3.6,8-8V96c0-0.2-0.1-0.3-0.1-0.5C335.9,94.8,335.7,94.1,335.5,93.4z M248,27.3L308.7,88H248V27.3z
	 M272,376H64V64h32v272c0,4.4,3.6,8,8,8h168V376z M320,328H112V16h120v80c0,4.4,3.6,8,8,8h80V328z"/>
<path d="M160,192c0,30.9,25.1,56,56,56s56-25.1,56-56s-25.1-56-56-56C185.1,136,160,161.1,160,192z M256,192c0,22.1-17.9,40-40,40
	s-40-17.9-40-40s17.9-40,40-40C238.1,152,256,169.9,256,192z"/>
<path d="M208,168v16h-16v16h16v16h16v-16h16v-16h-16v-16H208z"/>
</svg>
