<?xml version="1.0" encoding="iso-8859-1"?>
<!-- Generator: Adobe Illustrator 19.0.0, SVG Export Plug-In . SVG Version: 6.00 Build 0)  -->
<svg version="1.1" id="Capa_1" xmlns="http://www.w3.org/2000/svg" xmlns:xlink="http://www.w3.org/1999/xlink" x="0px" y="0px"
	 viewBox="0 0 480 480" style="enable-background:new 0 0 480 480;" xml:space="preserve">
<g>
	<g>
		<path d="M280,96H143.112C153.52,85.824,160,71.664,160,56c0-30.872-25.128-56-56-56S48,25.128,48,56
			c0,15.664,6.48,29.824,16.888,40H56c-30.872,0-56,25.128-56,56v128c0,4.424,3.576,8,8,8h32v140.688l-21.656,21.656
			c-2.44,2.44-3.04,6.16-1.504,9.232l8,16C26.2,478.288,28.968,480,32,480h72h72c3.032,0,5.8-1.712,7.16-4.424l8-16
			c1.536-3.08,0.936-6.8-1.504-9.232L168,428.688V152h112c4.424,0,8-3.576,8-8v-32h16V96H280z M64,56c0-22.056,17.944-40,40-40
			c22.056,0,40,17.944,40,40c0,5.56-1.152,10.856-3.216,15.672C133.504,70.184,128,63.72,128,56h-16
			c0,13.056,7.872,24.264,19.104,29.232C123.96,91.856,114.48,96,104,96C81.944,96,64,78.056,64,56z M117.776,112
			c-2.776,4.76-7.88,8-13.776,8s-11-3.24-13.776-8H117.776z M16,272v-80h24v80H16z M96,464H36.944l-3.208-6.424L51.312,440H96V464z
			 M96,296v128H56V280v-8v-8h96v160h-40V296H96z M174.264,457.576L171.056,464H112v-24h44.688L174.264,457.576z M184,136h-24
			c-4.424,0-8,3.576-8,8v104H56v-96H40v24H16v-24c0-22.056,17.944-40,40-40h17.136c3.576,13.768,15.992,24,30.864,24
			s27.288-10.232,30.864-24H184V136z M272,136h-72v-24h72V136z"/>
	</g>
</g>
<g>
	<g>
		<path d="M472,0H328c-4.424,0-8,3.576-8,8v160c0,4.424,3.576,8,8,8h144c4.424,0,8-3.576,8-8V8C480,3.576,476.424,0,472,0z M464,160
			H336V16h128V160z"/>
	</g>
</g>
<g>
	<g>
		<path d="M440,48h-24c-1.24,0-2.472,0.288-3.576,0.84L400,55.056l-12.424-6.208C386.472,48.288,385.24,48,384,48h-24
			c-4.424,0-8,3.576-8,8v32c0,4.424,3.576,8,8,8h8v32c0,4.424,3.576,8,8,8h48c4.424,0,8-3.576,8-8V96h8c4.424,0,8-3.576,8-8V56
			C448,51.576,444.424,48,440,48z M432,80h-8c-4.424,0-8,3.576-8,8v32h-32V88c0-4.424-3.576-8-8-8h-8V64h14.112l14.312,7.16
			c2.248,1.128,4.904,1.128,7.16,0L417.888,64H432V80z"/>
	</g>
</g>
<g>
	<g>
		<path d="M472,224H328c-4.424,0-8,3.576-8,8v160c0,4.424,3.576,8,8,8h144c4.424,0,8-3.576,8-8V232C480,227.576,476.424,224,472,224
			z M464,384H336V240h128V384z"/>
	</g>
</g>
<g>
	<g>
		<path d="M440,272h-24c-1.24,0-2.472,0.288-3.576,0.84L400,279.056l-12.424-6.208C386.472,272.288,385.24,272,384,272h-24
			c-4.424,0-8,3.576-8,8v32c0,4.424,3.576,8,8,8h8v32c0,4.424,3.576,8,8,8h48c4.424,0,8-3.576,8-8v-32h8c4.424,0,8-3.576,8-8v-32
			C448,275.576,444.424,272,440,272z M432,304h-8c-4.424,0-8,3.576-8,8v32h-32v-32c0-4.424-3.576-8-8-8h-8v-16h14.112l14.312,7.16
			c2.248,1.128,4.904,1.128,7.16,0l14.304-7.16H432V304z"/>
	</g>
</g>
<g>
	<g>
		<path d="M472,448H328c-4.424,0-8,3.576-8,8v24h16v-16h128v16h16v-24C480,451.576,476.424,448,472,448z"/>
	</g>
</g>
<g>
	<g>
		<rect x="392" y="192" width="16" height="16"/>
	</g>
</g>
<g>
	<g>
		<rect x="392" y="416" width="16" height="16"/>
	</g>
</g>
<g>
	<g>
		<rect x="120" y="152" width="16" height="16"/>
	</g>
</g>
<g>
</g>
<g>
</g>
<g>
</g>
<g>
</g>
<g>
</g>
<g>
</g>
<g>
</g>
<g>
</g>
<g>
</g>
<g>
</g>
<g>
</g>
<g>
</g>
<g>
</g>
<g>
</g>
<g>
</g>
</svg>
