<?xml version="1.0" encoding="iso-8859-1"?>
<!-- Generator: Adobe Illustrator 23.0.1, SVG Export Plug-In . SVG Version: 6.00 Build 0)  -->
<svg version="1.1" id="Layer_1" xmlns="http://www.w3.org/2000/svg" xmlns:xlink="http://www.w3.org/1999/xlink" x="0px" y="0px"
	 viewBox="0 0 388 388" style="enable-background:new 0 0 388 388;" xml:space="preserve">
<g>
	<path d="M331.18,56.82C294.535,20.18,245.82,0,194,0S93.465,20.18,56.82,56.82C20.18,93.465,0,142.18,0,194
		s20.18,100.535,56.82,137.18C93.465,367.82,142.18,388,194,388c26.184,0,51.594-5.133,75.52-15.25l-9.352-22.105
		C239.219,359.508,216.957,364,194,364c-93.738,0-170-76.262-170-170S100.262,24,194,24s170,76.262,170,170
		c0,41.059-25.227,59.758-48.668,59.758c-23.437,0-48.664-18.699-48.664-59.758c0-40.07-32.598-72.668-72.668-72.668
		S121.332,153.934,121.332,194S153.93,266.668,194,266.668c23.723,0,44.828-11.43,58.098-29.07
		c3.398,6.863,7.675,13.07,12.832,18.492c13.289,13.972,31.191,21.668,50.402,21.668c19.215,0,37.113-7.696,50.406-21.668
		C380.301,240.777,388,219.305,388,194C388,142.18,367.82,93.465,331.18,56.82L331.18,56.82z M194,242.668
		c-26.836,0-48.668-21.832-48.668-48.668s21.832-48.668,48.668-48.668s48.668,21.832,48.668,48.668S220.836,242.668,194,242.668
		L194,242.668z M194,242.668"/>
</g>
</svg>
