<svg height="512pt" viewBox="-1 0 512 512" width="512pt" xmlns="http://www.w3.org/2000/svg"><path d="m175.667969 192.800781h-80.332031c-8.285157 0-15 6.714844-15 15 0 8.285157 6.714843 15 15 15h80.332031c8.28125 0 15-6.714843 15-15 0-8.285156-6.71875-15-15-15zm0 0"/><path d="m95.335938 287.066406h64.265624c8.285157 0 15-6.714844 15-15s-6.714843-15-15-15h-64.265624c-8.285157 0-15 6.714844-15 15s6.714843 15 15 15zm0 0"/><path d="m95.335938 351.332031h64.265624c8.285157 0 15-6.714843 15-15 0-8.28125-6.714843-15-15-15h-64.265624c-8.285157 0-15 6.71875-15 15 0 8.285157 6.714843 15 15 15zm0 0"/><path d="m175.667969 385.601562h-80.332031c-8.285157 0-15 6.714844-15 15 0 8.28125 6.714843 15 15 15h80.332031c8.28125 0 15-6.71875 15-15 0-8.285156-6.71875-15-15-15zm0 0"/><path d="m499.574219 446.226562-40.167969-40.167968c-7.128906-7.125-16.601562-11.050782-26.671875-11.050782-4.832031 0-9.515625.910157-13.878906 2.636719l-26.03125-26.03125c14.28125-18.730469 22.777343-42.097656 22.777343-67.414062 0-30.4375-12.277343-58.0625-32.136718-78.191407v-178.875c0-26.359374-21.410156-47.132812-47.128906-47.132812h-224.9375c-3.976563 0-7.792969 1.578125-10.605469 4.394531l-96.398438 96.398438c-2.8125 2.8125-4.394531 6.628906-4.394531 10.605469v353.46875c0 25.988281 21.144531 47.132812 47.132812 47.132812h289.199219c25.988281 0 47.132813-21.144531 47.132813-47.132812v-60.1875l14.179687 14.175781c-1.726562 4.363281-2.636719 9.050781-2.636719 13.878906 0 10.070313 3.925782 19.542969 11.050782 26.671875l40.167968 40.167969c7.128907 7.128906 16.601563 11.054687 26.671876 11.054687 10.074218 0 19.546874-3.925781 26.675781-11.054687 7.125-7.128907 11.054687-16.601563 11.054687-26.675781-.003906-10.070313-3.929687-19.542969-11.054687-26.671876zm-195.375-60.625c-44.882813 0-81.398438-36.515624-81.398438-81.402343 0-44.882813 36.515625-81.398438 81.398438-81.398438 44.886719 0 81.402343 36.515625 81.402343 81.398438 0 44.886719-36.515624 81.402343-81.402343 81.402343zm-191.734375-350.457031v60.1875c0 9.449219-7.683594 17.132813-17.132813 17.132813h-60.1875zm223.871094 446.855469h-289.203126c-9.445312 0-17.132812-7.6875-17.132812-17.132812v-322.398438h65.332031c25.988281 0 47.132813-21.144531 47.132813-47.132812v-65.335938h193.867187c9.359375 0 17.132813 7.566406 17.132813 17.132812v157.171876c-14.863282-7.359376-31.585938-11.503907-49.265625-11.503907-61.425781 0-111.398438 49.972657-111.398438 111.398438s49.972657 111.402343 111.398438 111.402343c17.679687 0 34.402343-4.148437 49.265625-11.507812v60.773438c0 9.445312-7.683594 17.132812-17.128906 17.132812zm142.023437-3.640625c-1.460937 1.460937-3.398437 2.265625-5.460937 2.265625-2.058594 0-3.996094-.804688-5.457032-2.265625l-40.167968-40.167969c-1.460938-1.460937-2.265626-3.402344-2.265626-5.460937 0-2.058594.804688-3.996094 2.265626-5.457031 1.460937-1.460938 3.398437-2.265626 5.460937-2.265626 2.058594 0 3.996094.804688 5.457031 2.265626l40.167969 40.167968c1.460937 1.460938 2.269531 3.398438 2.269531 5.457032 0 2.0625-.808594 4-2.269531 5.460937zm0 0"/></svg>