<?xml version="1.0" encoding="utf-8"?>
<!-- Generator: Adobe Illustrator 23.0.1, SVG Export Plug-In . SVG Version: 6.00 Build 0)  -->
<svg version="1.1" id="Layer_1" xmlns="http://www.w3.org/2000/svg" xmlns:xlink="http://www.w3.org/1999/xlink" x="0px" y="0px"
	 viewBox="0 0 160 64" style="enable-background:new 0 0 160 64;" xml:space="preserve">
<style type="text/css">
	.st0{fill:#00B39E;}
</style>
<title>Page 1</title>
<desc>Created with Sketch.</desc>
<g id="Boostrap3-Grid">
	<g id="Desktop-_x28_-_x3E_1170px_x29_" transform="translate(-151.000000, -16.000000)">
		<g id="Page-1" transform="translate(151.000000, 16.000000)">
			<g id="Group-3" transform="translate(0.000000, 0.656209)">
				<path id="Fill-1" class="st0" d="M66.1,28.5c0.4-0.9,0.9-1.7,1.6-2.4c0.7-0.7,1.5-1.2,2.4-1.6c0.9-0.4,1.9-0.6,2.9-0.6
					c1,0,2,0.2,2.9,0.6c0.9,0.4,1.7,0.9,2.3,1.6c0.7,0.7,1.2,1.5,1.6,2.4c0.4,0.9,0.6,1.9,0.6,2.9c0,1-0.2,2-0.6,2.9
					c-0.4,0.9-0.9,1.7-1.6,2.4c-0.7,0.7-1.4,1.2-2.3,1.6C75,38.6,74,38.8,73,38.8c-1,0-2-0.2-2.9-0.6c-0.9-0.4-1.7-0.9-2.4-1.6
					c-0.7-0.7-1.2-1.5-1.6-2.4c-0.4-0.9-0.6-1.9-0.6-2.9C65.5,30.3,65.7,29.4,66.1,28.5L66.1,28.5z M65.5,60.8v-9.6c0,0,0,0,0,0
					V40.6c2.1,1.7,4.6,2.6,7.4,2.6c3.3,0,6.1-1.2,8.4-3.5c2.3-2.3,3.5-5.1,3.5-8.4c0-3.3-1.2-6.1-3.5-8.4c-2.3-2.3-5.1-3.5-8.4-3.5
					c-3.2,0-6,1.2-8.4,3.5c-2.3,2.3-3.5,5.1-3.5,8.4v14.7v5.2v9.6H65.5z M152.6,34.2c-0.4,0.9-0.9,1.7-1.6,2.4
					c-0.7,0.7-1.5,1.2-2.4,1.6c-0.9,0.4-1.9,0.6-2.9,0.6c-1,0-2-0.2-2.9-0.6c-0.9-0.4-1.7-0.9-2.3-1.6c-0.7-0.7-1.2-1.5-1.6-2.4
					c-0.4-0.9-0.6-1.9-0.6-2.9c0-1,0.2-2,0.6-2.9c0.4-0.9,0.9-1.7,1.6-2.4c0.7-0.7,1.4-1.2,2.3-1.6c0.9-0.4,1.9-0.6,2.9-0.6
					c1,0,2,0.2,2.9,0.6c0.9,0.4,1.7,0.9,2.4,1.6c0.7,0.7,1.2,1.5,1.6,2.4c0.4,0.9,0.6,1.9,0.6,2.9C153.2,32.4,153,33.3,152.6,34.2
					L152.6,34.2z M153.2,1.9v9.6c0,0,0,0,0,0v10.6c-2.1-1.7-4.6-2.6-7.4-2.6c-3.3,0-6.1,1.2-8.4,3.5c-2.3,2.3-3.5,5.1-3.5,8.4
					c0,3.3,1.2,6.1,3.5,8.4c2.3,2.3,5.1,3.5,8.4,3.5c3.2,0,6-1.2,8.4-3.5c2.3-2.3,3.5-5.1,3.5-8.4V16.6v-5.2V1.9H153.2z M120.3,21.7
					v0.4c1.1-0.8,2.2-1.5,3.4-2c1.2-0.5,2.6-0.7,4-0.7c0.6,0,1.3,0,2,0.1c0.7,0.1,1.4,0.2,2,0.5c0.6,0.2,1.1,0.5,1.5,0.9
					c0.4,0.4,0.6,0.9,0.6,1.5c0,0.3-0.1,0.6-0.2,0.9c-0.1,0.3-0.3,0.5-0.5,0.7c-0.2,0.2-0.4,0.4-0.7,0.5c-0.3,0.1-0.6,0.2-0.9,0.2
					c-0.3,0-0.6-0.1-0.9-0.2c-0.9-0.4-1.9-0.5-2.9-0.5c-1,0-2,0.2-2.9,0.6c-0.9,0.4-1.7,0.9-2.4,1.6c-0.7,0.7-1.2,1.5-1.6,2.4
					c-0.4,0.9-0.6,1.9-0.6,2.9V41c0,0.6-0.2,1.1-0.6,1.6c-0.4,0.4-0.9,0.6-1.6,0.6c-0.6,0-1.1-0.2-1.6-0.6c-0.4-0.4-0.6-1-0.6-1.6
					V21.7c0-0.6,0.2-1.1,0.6-1.6c0.4-0.4,1-0.6,1.6-0.6c0.6,0,1.1,0.2,1.6,0.6C120.1,20.5,120.3,21,120.3,21.7L120.3,21.7z
					 M106.6,34.2c-0.4,0.9-0.9,1.7-1.6,2.4c-0.7,0.7-1.5,1.2-2.4,1.6c-0.9,0.4-1.9,0.6-2.9,0.6c-1,0-2-0.2-2.9-0.6
					c-0.9-0.4-1.7-0.9-2.3-1.6c-0.7-0.7-1.2-1.5-1.6-2.4c-0.4-0.9-0.6-1.9-0.6-2.9c0-1,0.2-2,0.6-2.9c0.4-0.9,0.9-1.7,1.6-2.4
					c0.7-0.7,1.4-1.2,2.3-1.6c0.9-0.4,1.9-0.6,2.9-0.6c1,0,2,0.2,2.9,0.6c0.9,0.4,1.7,0.9,2.4,1.6c0.7,0.7,1.2,1.5,1.6,2.4
					c0.4,0.9,0.6,1.9,0.6,2.9C107.2,32.4,107,33.3,106.6,34.2L106.6,34.2z M108.1,22.9c-2.3-2.3-5.1-3.5-8.4-3.5
					c-3.3,0-6.1,1.2-8.4,3.5c-2.3,2.3-3.5,5.1-3.5,8.4c0,3.3,1.2,6.1,3.5,8.4c2.3,2.3,5.1,3.5,8.4,3.5c1.4,0,2.7-0.2,4-0.7
					c1.2-0.5,2.4-1.1,3.4-2V41c0,0.6,0.2,1.1,0.6,1.6c0.4,0.4,1,0.6,1.6,0.6c0.6,0,1.1-0.2,1.6-0.6c0.4-0.4,0.6-1,0.6-1.6v-9.7
					C111.6,28.1,110.4,25.3,108.1,22.9L108.1,22.9z M38.9,29.1c0.2-0.8,0.6-1.5,1-2.1c0.5-0.6,1-1.2,1.7-1.7
					c0.6-0.5,1.3-0.8,2.1-1.1c0.8-0.3,1.5-0.4,2.3-0.4c0.8,0,1.6,0.1,2.3,0.4c0.8,0.3,1.4,0.6,2.1,1.1c0.6,0.5,1.2,1,1.6,1.7
					c0.5,0.6,0.8,1.4,1.1,2.1H38.9z M57.1,26.8c-0.6-1.4-1.4-2.7-2.6-3.8c-2.3-2.3-5.1-3.5-8.4-3.5c-3.3,0-6.1,1.2-8.4,3.5
					c-2.3,2.3-3.5,5.1-3.5,8.4c0,3.3,1.2,6.1,3.5,8.4c2.3,2.3,5.1,3.5,8.4,3.5c3,0,5.6-1,7.7-2.9c0.4-0.4,0.6-1,0.6-1.6
					c0-0.6-0.2-1.2-0.6-1.6c-0.4-0.4-0.9-0.6-1.6-0.6c-0.5,0-1,0.2-1.5,0.6c-0.7,0.6-1.4,1-2.2,1.3c-0.8,0.3-1.6,0.4-2.6,0.4
					c-0.8,0-1.6-0.1-2.4-0.4c-0.8-0.3-1.4-0.6-2.1-1.1c-0.6-0.5-1.2-1-1.6-1.7c-0.5-0.6-0.8-1.4-1.1-2.1h16.8c0.6,0,1.1-0.2,1.6-0.6
					c0.4-0.4,0.6-0.9,0.6-1.6C57.9,29.7,57.6,28.2,57.1,26.8L57.1,26.8z M30.6,37.8c0,0.6-0.2,1.1-0.7,1.6
					c-3.1,2.5-6.7,3.8-10.6,3.8c-4.7,0-8.7-1.7-12-5c-3.3-3.3-5-7.3-5-12c0-4.7,1.7-8.7,5-12c3.3-3.3,7.3-5,12-5c4,0,7.6,1.3,10.9,4
					c0.4,0.4,0.6,0.9,0.6,1.6c0,0.3-0.1,0.6-0.2,0.9c-0.1,0.3-0.3,0.5-0.5,0.7c-0.2,0.2-0.4,0.4-0.7,0.5C29.1,17,28.8,17,28.5,17
					c-0.6,0-1.1-0.2-1.5-0.6c-1.1-0.9-2.3-1.5-3.5-2c-1.3-0.5-2.7-0.7-4.1-0.7c-3.4,0-6.4,1.2-8.8,3.7c-2.4,2.4-3.6,5.4-3.6,8.8
					c0,3.5,1.2,6.4,3.6,8.8c2.4,2.4,5.4,3.7,8.8,3.7c2.6,0,4.8-0.7,6.9-2v-6.6h-5.8c-0.6,0-1.2-0.2-1.6-0.6c-0.4-0.4-0.6-1-0.6-1.6
					c0-0.3,0.1-0.6,0.2-0.9c0.1-0.3,0.3-0.5,0.5-0.7c0.2-0.2,0.4-0.4,0.7-0.5c0.3-0.1,0.6-0.2,0.9-0.2h8.1c0.3,0,0.6,0.1,0.8,0.2
					c0.3,0.1,0.5,0.3,0.7,0.5c0.2,0.2,0.4,0.4,0.5,0.7c0.1,0.3,0.2,0.6,0.2,0.9V37.8z"/>
			</g>
		</g>
	</g>
</g>
</svg>
