<svg height="496pt" viewBox="0 0 496 496" width="496pt" xmlns="http://www.w3.org/2000/svg"><path d="m224 176c13.230469 0 24-10.769531 24-24s-10.769531-24-24-24-24 10.769531-24 24 10.769531 24 24 24zm0-32c4.414062 0 8 3.585938 8 8s-3.585938 8-8 8-8-3.585938-8-8 3.585938-8 8-8zm0 0"/><path d="m488 240h-40v-40c0-4.425781-3.574219-8-8-8h-40v-40c0-4.425781-3.574219-8-8-8h-40v-40c0-4.425781-3.574219-8-8-8h-185.617188c1.058594-5.167969 1.617188-10.519531 1.617188-16 0-44.113281-35.886719-80-80-80s-80 35.886719-80 80 35.886719 80 80 80c5.480469 0 10.832031-.558594 16-1.617188v185.617188c0 4.425781 3.574219 8 8 8h40v40c0 4.425781 3.574219 8 8 8h40v40c0 4.425781 3.574219 8 8 8h40v40c0 4.425781 3.574219 8 8 8h240c4.425781 0 8-3.574219 8-8v-240c0-4.425781-3.574219-8-8-8zm-293.625 16h-68.75l34.375-29.464844zm-5.382812-25.679688 19.007812-19.007812 21.9375 21.933594-18.21875 16.5625zm106.742187-35.273437 40.265625 40.265625v20.6875h-107.304688zm-279.734375-115.046875c0-35.289062 28.710938-64 64-64s64 28.710938 64 64-28.710938 64-64 64-64-28.710938-64-64zm137.273438 32h182.726562v100.6875l-34.34375-34.34375c-3.015625-3.023438-7.878906-3.136719-11.039062-.265625l-48.832032 44.394531-28.128906-28.128906c-3.128906-3.128906-8.183594-3.128906-11.3125 0l-25.535156 25.535156-11.609375-9.949218c-2.984375-2.578126-7.421875-2.578126-10.40625 0l-42.792969 36.6875v-93.34375c18.40625-8.074219 33.199219-22.867188 41.273438-41.273438zm-41.273438 160h224v64h-224zm48 80h184c4.425781 0 8-3.574219 8-8v-184h32v224h-224zm48 48h184c4.425781 0 8-3.574219 8-8v-184h32v224h-224zm272 80h-224v-32h184c4.425781 0 8-3.574219 8-8v-184h32zm0 0"/><path d="m128 88v-16h-40v-40h-16v40h-40v16h40v40h16v-40zm0 0"/></svg>