<svg height="480.59161pt" viewBox="0 0 480.59161 480.59161" width="480.59161pt" xmlns="http://www.w3.org/2000/svg"><path d="m208.589844 112.589844h-35.40625c11.074218-38.6875-5.414063-79.96875-40.09375-100.382813-34.675782-20.417969-78.773438-14.800781-107.230469 13.652344-28.453125 28.457031-34.070313 72.554687-13.652344 107.230469 20.414063 34.679687 61.695313 51.167968 100.382813 40.09375v35.40625h-112v272h272v-96h112v-112h96v-272h-272zm-120 48c-39.761719 0-72-32.234375-72-72 0-39.761719 32.238281-72 72-72 39.765625 0 72 32.238281 72 72-.042969 39.746094-32.253906 71.957031-72 72zm168 304h-240v-240h96v160h144zm112-96h-240v-201.710938c16.449218-8.449218 29.839844-21.839844 38.289062-38.289062h41.710938v144h160zm-144-352h240v240h-240zm0 0"/><path d="m48.589844 408.589844h-16v40h32v-16h-16zm0 0"/><path d="m32.589844 376.589844h16v16h-16zm0 0"/><path d="m416.589844 48.589844h16v32h16v-48h-32zm0 0"/><path d="m432.589844 96.589844h16v16h-16zm0 0"/><path d="m32.589844 240.589844h16v16h-16zm0 0"/><path d="m64.589844 264.589844h16v16h-16zm0 0"/><path d="m144.589844 80.589844h-48v-48h-16v48h-48v16h48v48h16v-48h48zm0 0"/></svg>