<svg height="511pt" viewBox="1 -23 511.999 511" width="511pt" xmlns="http://www.w3.org/2000/svg"><path d="m483.167969 204.714844-30.742188-2.347656c-1-.074219-1.855469-.753907-2.121093-1.691407-3.890626-13.539062-9.25-26.746093-15.933594-39.246093-.460938-.863282-.320313-1.949219.34375-2.703126l20.703125-23.386718c10.917969-12.328125 10.347656-31.109375-1.296875-42.753906l-31.722656-31.726563c-11.46875-11.460937-30.085938-12.171875-42.390626-1.613281l-23.402343 20.078125c-.761719.65625-1.851563.777343-2.703125.304687-12.359375-6.855468-25.484375-12.414062-39.015625-16.527344-.933594-.28125-1.597657-1.144531-1.660157-2.148437l-1.890624-31.140625c-1.003907-16.4375-14.6875-29.3125-31.152344-29.3125h-44.863282c-16.210937 0-29.882812 12.664062-31.117187 28.832031l-2.347656 30.742188c-.074219 1.003906-.746094 1.855469-1.667969 2.117187-14.628906 4.195313-28.796875 10.0625-42.113281 17.449219-.84375.46875-1.921875.339844-2.683594-.3125l-23.398437-20.082031c-12.304688-10.5625-30.925782-9.851563-42.390626 1.617187l-31.722656 31.722657c-11.644531 11.648437-12.214844 30.425781-1.300781 42.757812l20.703125 23.382812c.667969.753907.804688 1.839844.34375 2.703126-6.679688 12.5-12.039062 25.703124-15.929688 39.246093-.269531.9375-1.121093 1.617188-2.121093 1.691407l-30.746094 2.351562c-16.164063 1.230469-28.828125 14.902344-28.828125 31.117188v44.863281c0 16.46875 12.875 30.152343 29.3125 31.152343l31.136719 1.894532c1.003906.0625 1.867187.726562 2.148437 1.660156 4.113282 13.53125 9.675782 26.65625 16.523438 39.015625.476562.855469.355468 1.941406-.300782 2.707031l-20.078124 23.402344c-10.558594 12.304688-9.847657 30.925781 1.613281 42.390625l31.722656 31.726563c2.832031 2.828124 6.121094 5.058593 9.78125 6.625 3.8125 1.628906 8.214844-.136719 9.84375-3.945313.59375-1.378906.730469-2.832031.496094-4.207031v-39.34375c0-17.703125 11.246093-33.386719 27.980469-39.023438l15.757812-5.296875c3.03125-1.019531 5.855469-2.453125 8.445312-4.265625 5.75 1.785156 11.628907 2.96875 17.585938 3.558594l-16.757812 59.246094c-.703126 2.476562-.085938 5.136718 1.632812 7.050781l19.292969 21.515625c1.378906 1.539062 3.332031 2.4375 5.398437 2.492188h.1875c1.996094 0 3.914063-.796876 5.324219-2.21875l21.339844-21.515626c1.957031-1.976562 2.664062-4.867187 1.832031-7.523437l-18.542969-59.273437c6.191407-.761719 12.292969-2.164063 18.238281-4.214844 2.902344 2.222656 6.160157 3.980468 9.636719 5.144531l15.75 5.296875c10.703125 3.605469 19.542969 11.578125 24.257813 21.878906 2.375 5.1875 3.625 10.707032 3.71875 16.40625 0 .136719.007812.257813.015625.394532.007812.117187.003906.230468.003906.347656v43.875c0 4.144531 3.355469 7.5 7.5 7.5s7.5-3.355469 7.5-7.5v-43.875c0-.390625-.003906-.769532-.023437-1.152344-.109376-5.773438-1.09375-11.40625-2.921876-16.820312 2.496094-1.757813 5.234376-3.152344 8.1875-4.148438l12.808594-4.308594c2.371094-.800781 4.59375-1.890625 6.648438-3.257812 4.011718 1.203125 8.09375 2.0625 12.226562 2.570312l-13.160156 46.523438c-.699219 2.472656-.082031 5.132812 1.632812 7.050781l15.675782 17.476563c1.378906 1.535156 3.332031 2.4375 5.394531 2.488281.0625.003906.128906.003906.1875.003906 2 0 3.917969-.796875 5.328125-2.21875l17.332031-17.480469c1.957031-1.972656 2.664063-4.867187 1.832031-7.519531l-14.5625-46.558594c4.304688-.628906 8.546876-1.636719 12.703126-3.023437 2.324218 1.695312 4.882812 3.023437 7.644531 3.945312l12.792969 4.308594c13.027343 4.386719 21.777343 16.585938 21.777343 30.355469v30.691406c0 .027344.003907.054687.003907.082031-.328126 1.472656-.222657 3.054688.414062 4.550782 1.210938 2.855468 3.984375 4.570312 6.90625 4.570312.976562 0 1.972656-.191406 2.925781-.597656 3.695313-1.570313 7.015625-3.8125 9.867188-6.664063l31.722656-31.726562c11.464844-11.464844 12.175781-30.085938 1.617187-42.390625l-20.078124-23.402344c-.65625-.761719-.777344-1.851562-.304688-2.707031 6.851562-12.355469 12.410156-25.484375 16.523438-39.015625.285156-.933594 1.148437-1.597656 2.152343-1.660156l31.136719-1.894532c16.4375-1 29.3125-14.683594 29.3125-31.148437v-44.867188c0-16.210937-12.664062-29.882812-28.832031-31.117187zm-255.730469 47.3125-46.167969-14.859375c-1.90625-.613281-3.988281-.4375-5.769531.492187l-17.449219 9.109375v-8.796875c0-10.257812 8.328125-18.601562 18.5625-18.601562h32.261719c10.234375 0 18.5625 8.34375 18.5625 18.601562zm-69.386719 11.664062 21.609375-11.285156 47.777344 15.378906v22.605469c0 5.257813-2.785156 10.21875-7.265625 12.949219l-19.570313 11.933594c-4.84375 2.953124-10.867187 2.953124-15.714843 0l-19.574219-11.933594c-4.480469-2.730469-7.261719-7.691406-7.261719-12.949219zm34.359375 90.496094c-5.800781.125-11.554687-.429688-17.191406-1.644531 2.230469-4.546875 3.4375-9.589844 3.4375-14.738281v-8.832032c4.417969 2.34375 9.25 3.527344 14.085938 3.527344 4.835937 0 9.667968-1.183594 14.085937-3.53125v8.835938c0 4.867187 1.042969 9.589843 3.011719 13.902343-5.695313 1.511719-11.527344 2.351563-17.429688 2.480469zm-.414062 86.441406-11.226563-12.523437 11.316407-40.003907 12.472656 39.863282zm170.558594-151.929687-35.660157-11.480469c-1.910156-.613281-3.988281-.4375-5.769531.492188l-12.113281 6.328124v-4.824218c0-7.554688 6.128906-13.703125 13.667969-13.703125h26.207031c7.535156 0 13.667969 6.148437 13.667969 13.703125zm-53.542969 12.261719 16.273437-8.5 37.269532 11.996093v17.335938c0 3.78125-2 7.351562-5.226563 9.316406l-15.894531 9.691406c-3.488282 2.125-7.816406 2.125-11.300782 0l-15.898437-9.691406c-3.222656-1.964844-5.222656-5.535156-5.222656-9.316406zm26.46875 71.242187c-4.019531.082031-8-.253906-11.921875-.976563 1.421875-3.433593 2.1875-7.140624 2.1875-10.917968v-4.949219c3.214844 1.359375 6.621094 2.046875 10.035156 2.046875 3.410156 0 6.820312-.6875 10.035156-2.046875v4.949219c0 3.578125.664063 7.0625 1.925782 10.316406-4.019532.953125-8.121094 1.488281-12.261719 1.578125zm-.25 69.570313-7.609375-8.480469 7.695312-27.203125 8.464844 27.0625zm161.769531-161.074219c0 8.554687-6.6875 15.660156-15.222656 16.179687l-31.136719 1.894532c-7.230469.4375-13.496094 5.371093-15.59375 12.269531-3.804687 12.523437-8.949219 24.671875-15.289063 36.109375-3.5 6.308594-2.683593 14.246094 2.035157 19.742187l20.078125 23.402344c5.484375 6.394531 5.117187 16.066406-.839844 22.019531l-26.230469 26.234375v-16.539062c0-20.214844-12.855469-38.128907-31.988281-44.570313l-10.113281-3.40625c29.15625-29.015625 46.84375-68.132812 48.90625-108.898437.207031-4.136719-2.976563-7.660157-7.113281-7.867188-4.148438-.21875-7.660157 2.976563-7.867188 7.109375-1.894531 37.402344-18.273438 73.296875-45.257812 99.773438-.363282-1.234375-.550782-2.527344-.550782-3.84375v-13.757813l4.324219-2.636719c7.65625-4.667968 12.414063-13.144531 12.414063-22.121093v-22.699219c0-.027344 0-.050781 0-.078125v-19.800781c0-15.828125-12.859376-28.703125-28.667969-28.703125h-26.207031c-15.808594 0-28.667969 12.875-28.667969 28.703125v17.074218.03125 25.472657c0 8.976562 4.757812 17.453125 12.414062 22.125l4.324219 2.632812v13.757813c0 3.75-1.574219 7.363281-4.320312 9.917968-1.414063 1.316407-3.050782 2.292969-4.867188 2.90625l-12.808594 4.308594c-3.605468 1.214844-6.988281 2.839844-10.136718 4.835938-6.847657-10.09375-16.875-17.816406-28.53125-21.742188l-15.757813-5.300781c-2.847656-.953125-5.332031-2.53125-7.398437-4.699219-3.289063-3.4375-5.101563-7.957031-5.101563-12.730468v-17.902344l6.152344-3.75c8.914062-5.4375 14.453125-15.308594 14.453125-25.757813v-27.96875c0-.027343 0-.050781 0-.078125v-24.375c0-18.527344-15.054688-33.601562-33.5625-33.601562h-32.261719c-18.503906 0-33.5625 15.074218-33.5625 33.601562v21.050782.03125 31.339843c0 10.453125 5.539063 20.320313 14.457031 25.757813l6.152344 3.75v17.902344c0 5.101562-2.140625 10.015624-5.878906 13.492187-1.917969 1.785156-4.140625 3.109375-6.617188 3.941406l-15.765625 5.300781c-22.84375 7.695313-38.195312 29.089844-38.195312 53.238282v24.773437l-26.234375-26.234375c-5.953125-5.957031-6.320313-15.625-.835938-22.019531l20.078125-23.402344c4.71875-5.496093 5.535157-13.433593 2.035157-19.746093-6.339844-11.4375-11.484376-23.582032-15.292969-36.105469-2.09375-6.898438-8.359375-11.832031-15.589844-12.269531l-31.136719-1.894532c-8.535156-.519531-15.222656-7.625-15.222656-16.179687v-44.863281c0-8.421876 6.578125-15.523438 14.972656-16.164063l30.746094-2.347656c7.21875-.550781 13.40625-5.578125 15.394531-12.507813 3.601563-12.53125 8.558594-24.75 14.742188-36.316406 3.402343-6.367188 2.460937-14.289062-2.339844-19.714844l-20.703125-23.386718c-5.671875-6.402344-5.375-16.15625.671875-22.207032l31.726563-31.722656c5.949218-5.957031 15.621093-6.328125 22.011718-.84375l23.402344 20.082031c5.5 4.71875 13.429688 5.542969 19.726562 2.046875 12.320313-6.832031 25.433594-12.261718 38.972657-16.144531 6.917969-1.980469 11.9375-8.167969 12.488281-15.394531l2.347656-30.742188c.644532-8.394531 7.742188-14.976562 16.164063-14.976562h44.859375c8.554687 0 15.660156 6.6875 16.179687 15.226562l1.894531 31.140625c.4375 7.230469 5.371094 13.496094 12.269532 15.589844 12.519531 3.804687 24.667968 8.953125 36.101562 15.292969 6.3125 3.5 14.246094 2.683594 19.746094-2.035156l23.402344-20.082032c6.390625-5.484375 16.0625-5.113281 22.015625.839844l31.722656 31.726562c6.046875 6.046876 6.34375 15.800782.675781 22.203126l-20.707031 23.386718c-4.800781 5.425782-5.742187 13.347656-2.339844 19.714844 6.1875 11.570312 11.144531 23.789062 14.742188 36.316406 1.988281 6.929688 8.179687 11.957032 15.398437 12.507813l30.742188 2.351562c8.394531.640625 14.972656 7.738281 14.972656 16.160157zm0 0"/><path d="m247.386719 90.902344c-40.765625 2.058594-79.300781 19.277344-108.503907 48.484375-29.207031 29.207031-46.425781 67.742187-48.484374 108.511719-1.785157 35.199218 7.324218 69.320312 26.339843 98.675781 1.433594 2.21875 3.84375 3.425781 6.300781 3.425781 1.398438 0 2.8125-.390625 4.070313-1.207031 3.476563-2.253907 4.46875-6.894531 2.21875-10.371094-17.292969-26.695313-25.574219-57.734375-23.949219-89.765625 1.871094-37.050781 17.539063-72.089844 44.109375-98.660156 26.570313-26.574219 61.609375-42.242188 98.65625-44.113282 76.816407-3.898437 144.121094 50.175782 156.644531 125.785157.675782 4.085937 4.539063 6.84375 8.625 6.171875 4.085938-.675782 6.851563-4.539063 6.175782-8.625-13.773438-83.136719-87.820313-142.601563-172.203125-138.3125zm0 0"/></svg>