<?xml version="1.0" encoding="utf-8"?>
<!-- Generator: Adobe Illustrator 23.0.1, SVG Export Plug-In . SVG Version: 6.00 Build 0)  -->
<svg version="1.1" id="Layer_1" xmlns="http://www.w3.org/2000/svg" xmlns:xlink="http://www.w3.org/1999/xlink" x="0px" y="0px"
	 viewBox="0 0 480 480" xml:space="preserve" fill="currentColor">
<g>
	<path d="M112,80v16h16V80c0-4.4,3.6-8,8-8h32c13.3,0,24-10.7,24-24V32h-16v16c0,4.4-3.6,8-8,8h-32C122.7,56,112,66.7,112,80L112,80
		z M112,80"/>
	<path d="M88,48c0-4.4,3.6-8,8-8h32c13.3,0,24-10.7,24-24V0h-16v16c0,4.4-3.6,8-8,8H96c-13.3,0-24,10.7-24,24v16h16V48z M88,48"/>
	<path d="M216,152v16h16v-16c0-4.4,3.6-8,8-8h32c13.3,0,24-10.7,24-24v-16h-16v16c0,4.4-3.6,8-8,8h-32C226.7,128,216,138.7,216,152
		L216,152z M216,152"/>
	<path d="M176,120v16h16v-16c0-4.4,3.6-8,8-8h32c13.3,0,24-10.7,24-24V72h-16v16c0,4.4-3.6,8-8,8h-32C186.7,96,176,106.7,176,120
		L176,120z M176,120"/>
	<path d="M472,304h-74.2l-14.2-42.5c-1.1-3.3-4.1-5.5-7.6-5.5h-48c-4.4,0-8,3.6-8,8v40h-18.2l-14.2-42.5c-1.1-3.3-4.1-5.5-7.6-5.5
		h-16v-64c0-4.4-3.6-8-8-8h-96v-64c0-4.4-3.6-8-8-8H40c-4.4,0-8,3.6-8,8v79.5L0.1,438.9c0,0.3-0.1,0.7-0.1,1.1v32c0,4.4,3.6,8,8,8
		h464c4.4,0,8-3.6,8-8V312C480,307.6,476.4,304,472,304L472,304z M16,440.5l31.9-239.5c0-0.3,0.1-0.7,0.1-1.1v-72h96v72
		c0,0.4,0,0.7,0.1,1.1L176,440.5V464H16V440.5z M224,264v200h-32v-24c0-0.4,0-0.7-0.1-1.1L160.1,200H248v56h-16
		C227.6,256,224,259.6,224,264L224,264z M464,464H240V272h34.2l14.2,42.5c1.1,3.3,4.1,5.5,7.6,5.5h32c4.4,0,8-3.6,8-8v-40h34.2
		l14.2,42.5c1.1,3.3,4.1,5.5,7.6,5.5h72V464z M464,464"/>
	<path d="M296,336h-32c-4.4,0-8,3.6-8,8v48c0,4.4,3.6,8,8,8h32c4.4,0,8-3.6,8-8v-48C304,339.6,300.4,336,296,336L296,336z M288,384
		h-16v-32h16V384z M288,384"/>
	<path d="M368,336h-32c-4.4,0-8,3.6-8,8v48c0,4.4,3.6,8,8,8h32c4.4,0,8-3.6,8-8v-48C376,339.6,372.4,336,368,336L368,336z M360,384
		h-16v-32h16V384z M360,384"/>
	<path d="M408,400h32c4.4,0,8-3.6,8-8v-48c0-4.4-3.6-8-8-8h-32c-4.4,0-8,3.6-8,8v48C400,396.4,403.6,400,408,400L408,400z M416,352
		h16v32h-16V352z M416,352"/>
	<rect x="280" y="72" width="16" height="16"/>
</g>
</svg>
