<?xml version="1.0" encoding="utf-8"?>
<!-- Generator: Adobe Illustrator 23.0.1, SVG Export Plug-In . SVG Version: 6.00 Build 0)  -->
<svg version="1.1" id="Layer_1" xmlns="http://www.w3.org/2000/svg" xmlns:xlink="http://www.w3.org/1999/xlink" x="0px" y="0px"
	 viewBox="0 0 496 496" style="enable-background:new 0 0 496 496;" xml:space="preserve">
<g>
	<path d="M496,119c0-5.8-1.2-11.4-3.5-16.7l-28.5-64V32c0-17.6-14.4-32-32-32H64C46.4,0,32,14.4,32,32v6.3L3.5,102.4
		C1.2,107.6,0,113.2,0,119c0,19.5,13.7,35.8,32,39.9V352h64v104c0,22.1,17.9,40,40,40h224c22.1,0,40-17.9,40-40V352h64V158.9
		C482.3,154.8,496,138.5,496,119L496,119z M64,16h368c8.8,0,16,7.2,16,16H48C48,23.2,55.2,16,64,16L64,16z M336,120.6
		c0,12.9-10.5,23.4-23.4,23.4c-10.8,0-20.1-7.3-22.8-17.8L288,119V48h40.8L336,120.6z M208,119l-1.8,7.2
		c-2.6,10.5-12,17.8-22.7,17.8c-12.9,0-23.4-10.5-23.5-23.2l7.3-72.8H208V119z M144.2,117.7l-6.5,13c-4.1,8.2-12.3,13.3-21.5,13.3
		H112c-13.2,0-24-10.8-24-24h-0.2l14.7-72h48.6L144.2,117.7z M224,48h48v72c0,13.2-10.8,24-24,24c-13.2,0-24-10.8-24-24V48z
		 M351.7,117.5L344.8,48h48.6l14.6,72.7c-0.4,12.9-11,23.3-24,23.3h-4.2c-9.2,0-17.4-5.1-21.5-13.3L351.7,117.5z M16,119
		c0-3.5,0.7-6.9,2.2-10.2l27-60.8h41l-14,70.1l-1.8,7C67.7,136.2,57.7,144,46.2,144H41C27.2,144,16,132.8,16,119L16,119z M384,265.1
		L358.4,248l25.6-17.1V265.1z M329.6,248l36,24H130.4l36-24l-36-24h235.2L329.6,248z M112,230.9l25.6,17.1L112,265.1V230.9z
		 M360,480H136c-13.2,0-24-10.8-24-24V288h272v168C384,469.2,373.2,480,360,480L360,480z M400,336V208H96v128H48V159.8
		c12.8-0.6,24.2-6.9,31.4-16.9c7.3,10.3,19.1,17,32.6,17h4.2c13.9,0,26.5-7.1,33.8-18.8c7,11.2,19.3,18.8,33.4,18.8
		c13.1,0,24.9-6.5,32.2-16.7c7.3,10.1,19,16.7,32.4,16.7s25.1-6.6,32.4-16.7c7.2,10.2,19,16.7,32.2,16.7c14.1,0,26.5-7.5,33.4-18.8
		c7.3,11.6,19.9,18.8,33.8,18.8h4.2c13.5,0,25.4-6.8,32.6-17c7.2,9.9,18.6,16.3,31.4,16.9V336H400z M455,144h-5.2
		c-11.5,0-21.5-7.8-24.3-18.9L409.8,48h41l27,60.8c1.4,3.2,2.2,6.6,2.2,10.2C480,132.8,468.8,144,455,144L455,144z M455,144"/>
	<path d="M272,320h16v40c0,22.1-17.9,40-40,40c-22.1,0-40-17.9-40-40v-40h16v-16h-48v16h16v40c0,30.9,25.1,56,56,56
		c30.9,0,56-25.1,56-56v-40h16v-16h-48V320z M272,320"/>
</g>
</svg>
