<?xml version="1.0" encoding="utf-8"?>
<!-- Generator: Adobe Illustrator 23.0.3, SVG Export Plug-In . SVG Version: 6.00 Build 0)  -->
<svg version="1.1" id="Layer_1" xmlns="http://www.w3.org/2000/svg" xmlns:xlink="http://www.w3.org/1999/xlink" x="0px" y="0px"
	 viewBox="0 0 484 484" style="enable-background:new 0 0 484 484;" xml:space="preserve">
<path d="M179.4,53h67.5c4.4,0,8-3.6,8-8s-3.6-8-8-8h-67.5c-4.4,0-8,3.6-8,8S175,53,179.4,53z"/>
<path d="M213.1,400.2c-15.9,0-28.8,12.9-28.8,28.8c0,15.9,12.9,28.8,28.8,28.8c15.9,0,28.8-12.9,28.8-28.8
	C241.9,413.1,229,400.2,213.1,400.2z M213.1,441.7c-7.1,0-12.8-5.7-12.8-12.8c0-7.1,5.7-12.8,12.8-12.8c7.1,0,12.8,5.7,12.8,12.8
	C225.9,436,220.2,441.7,213.1,441.7z"/>
<path d="M340.1,321.4V374h-254V202.1c10,9.4,22.7,15.3,37.1,15.3c18.3-0.1,35.3-9.7,44.9-25.3c9.6,15.8,26.8,25.3,45.2,25.3
	c18.5-0.1,35.5-9.8,45-25.6c9.6,15.8,26.8,25.5,45.3,25.6c14.1-0.1,26.5-5.7,36.5-14.9v61h16v-74.2c7.3,6.1,16.6,9.5,26.1,9.6h0.7
	c23-1,41.2-19.4,41.2-42.3v-16.3c0-0.1,0.1-0.1,0.1-0.2c0-0.2,0.1-0.4,0.1-0.6c0-0.1,0-0.2,0-0.3c0-0.2,0-0.3-0.1-0.4
	c0-0.1-0.1-0.2-0.1-0.4s-0.1-0.3-0.1-0.4c0-0.1-0.1-0.3-0.1-0.4c0-0.1-0.1-0.2-0.1-0.4c0-0.1-0.1-0.3-0.2-0.4
	c-0.1-0.1-0.1-0.2-0.2-0.3c-0.1-0.1-0.2-0.3-0.2-0.4c-0.1-0.1-0.1-0.2-0.2-0.3c-0.1-0.2-0.2-0.3-0.4-0.5c0,0-0.1-0.1-0.1-0.1l0,0
	l0,0l-44-54.2c-1.5-1.9-3.8-3.1-6.2-3.2h-16.1V39.5C356.1,17.9,338.6,0,317,0H109.3C87.7,0,70.1,17.9,70.1,39.5V78h-7.4
	c-2.2,0.1-4.2,1-5.7,2.6L4.2,134.7c-0.1,0.1-0.1,0.2-0.2,0.3c-0.1,0.1-0.2,0.3-0.3,0.4c-0.1,0.1-0.2,0.2-0.2,0.3
	c-0.1,0.1-0.2,0.2-0.2,0.3c-0.1,0.1-0.1,0.2-0.2,0.3c-0.1,0.1-0.1,0.2-0.2,0.3s-0.1,0.2-0.2,0.4c-0.1,0.1-0.1,0.2-0.2,0.4
	c-0.1,0.1-0.1,0.2-0.1,0.4s-0.1,0.3-0.1,0.4s-0.1,0.2-0.1,0.4c0,0.1-0.1,0.3-0.1,0.4c0,0.1,0,0.3-0.1,0.4c0,0.1,0,0.3-0.1,0.4
	c0,0.2,0.1,0.3,0.1,0.5c0,0.1,0.1,0.2,0.1,0.3v16.8c0,22.9,18.6,41.8,41.5,41.8h0.7c9.5-0.2,18.6-3.6,25.8-9.6v255.1
	c0,21.6,17.6,39.5,39.1,39.5H317c21.6,0,39.1-17.9,39.1-39.5V321.4H340.1z M160.1,164.4c0,20.4-16.5,37-37,37s-37-16.5-37-37V148h74
	V164.4z M162.8,132H94.9l32-38h51.6L162.8,132z M250.1,164.4c0,20.4-16.5,37-37,37s-37-16.5-37-37V148h74V164.4z M180.1,132l15.7-38
	h34.8l15.7,38H180.1z M247.8,94h58.9l26.6,38h-69.8L247.8,94z M340.1,164.4c-0.1,20.4-16.6,36.9-37,37c-20.3-0.1-36-16.7-37-37V148
	h74V164.4z M408.1,156.8c0,14.1-11.2,26.2-25.3,26.2h-0.4c-6.9,0-13.5-2.8-18.4-7.6c-4.9-4.8-7.8-11.4-7.8-18.3V148h52V156.8z
	 M368.5,94l31,38h-46.7l-26.6-38H368.5z M86.1,39.5c0-12.8,10.4-23.5,23.1-23.5H317c12.8,0,23.1,10.7,23.1,23.5V78h-254V39.5z
	 M70.1,156.8c0,14.1-11.8,26.2-25.9,26.2h-0.4c-0.1,0-0.1-0.2-0.1-0.2c-14.1-0.1-25.6-11.6-25.6-25.7V148h52V156.8z M74,132H29
	l37.1-38H106L74,132z M340.1,444.5c0,12.8-10.4,23.5-23.1,23.5H109.3c-12.8,0-23.1-10.7-23.1-23.5V390h254V444.5z"/>
<g>
	<path d="M478.6,282.9l-50.1-50.1c-3.7-3.7-9.7-3.7-13.4,0c-3.7,3.7-3.7,9.7-0.1,13.4l33.4,34H314c-5.2,0-9.5,4.2-9.5,9.4
		s4.2,9.4,9.5,9.4h135.1L415.2,333c-3.7,3.7-3.7,9.7,0,13.4c1.8,1.8,4.3,2.8,6.7,2.8s4.8-0.9,6.7-2.8l50.1-50.1
		c1.8-1.8,2.8-4.2,2.8-6.7C481.4,287.1,480.4,284.7,478.6,282.9z"/>
</g>
</svg>
