<?xml version="1.0" encoding="iso-8859-1"?>
<!-- Generator: Adobe Illustrator 19.0.0, SVG Export Plug-In . SVG Version: 6.00 Build 0)  -->
<svg version="1.1" id="Capa_1" xmlns="http://www.w3.org/2000/svg" xmlns:xlink="http://www.w3.org/1999/xlink" x="0px" y="0px"
	 viewBox="0 0 480 480" style="enable-background:new 0 0 480 480;" xml:space="preserve">
<g>
	<g>
		<g>
			<path d="M224.002,448h32c4.418,0,8-3.582,8-8s-3.582-8-8-8h-32c-4.418,0-8,3.582-8,8S219.584,448,224.002,448z"/>
			<path d="M104.002,120c4.418,0,8-3.582,8-8V64h256v64c0,4.418,3.582,8,8,8s8-3.582,8-8V32c0-14.4-18.464-32-40-32h-208
				c-22.08,0.026-39.974,17.92-40,40v72C96.002,116.418,99.584,120,104.002,120z M112.002,40c0-13.255,10.745-24,24-24h208
				c13.864,0,24,11.2,24,16v16h-256V40z"/>
			<path d="M376.002,352c-4.418,0-8,3.582-8,8v40h-256v-32c0-4.418-3.582-8-8-8s-8,3.582-8,8v72c0.026,22.08,17.92,39.974,40,40h208
				c22.08-0.026,39.974-17.92,40-40v-80C384.002,355.582,380.42,352,376.002,352z M368.002,440c0,13.255-10.745,24-24,24h-208
				c-13.255,0-24-10.745-24-24v-24h256V440z"/>
			<path d="M224.002,24h-16c-4.418,0-8,3.582-8,8s3.582,8,8,8h16c4.418,0,8-3.582,8-8S228.42,24,224.002,24z"/>
			<path d="M272.002,24h-16c-4.418,0-8,3.582-8,8s3.582,8,8,8h16c4.418,0,8-3.582,8-8S276.42,24,272.002,24z"/>
			<path d="M478.162,154.888L478.162,154.888c-1.521-1.831-3.779-2.89-6.16-2.888H262.018l-4.08-27.512
				c-1.801-11.738-11.869-20.425-23.744-20.488h-34.192v16h34.192c3.969-0.003,7.34,2.905,7.92,6.832l27.952,188.68
				c1.801,11.738,11.869,20.425,23.744,20.488h19.664c4.335,12.442,17.935,19.014,30.376,14.68
				c6.877-2.396,12.284-7.802,14.68-14.68h34.944c4.418,12.497,18.131,19.046,30.627,14.627s19.046-18.131,14.627-30.627
				c-4.418-12.497-18.131-19.046-30.627-14.627c-6.835,2.416-12.211,7.793-14.627,14.627H358.53
				c-4.335-12.442-17.935-19.014-30.376-14.68c-6.877,2.396-12.284,7.802-14.68,14.68H293.81c-3.96-0.021-7.318-2.917-7.92-6.832
				L283.346,296h164.656c3.845-0.003,7.145-2.741,7.856-6.52l24-128C480.302,159.14,479.68,156.723,478.162,154.888z M416.002,320
				c4.418,0,8,3.582,8,8s-3.582,8-8,8s-8-3.582-8-8S411.584,320,416.002,320z M336.002,320c4.418,0,8,3.582,8,8s-3.582,8-8,8
				s-8-3.582-8-8S331.584,320,336.002,320z M441.362,280H280.978l-16.584-112h198.008L441.362,280z"/>
			<path d="M208.002,240c0-57.438-46.562-104-104-104s-104,46.562-104,104s46.562,104,104,104
				C161.412,343.934,207.936,297.41,208.002,240z M16.002,240c0-48.601,39.399-88,88-88s88,39.399,88,88c0,48.601-39.399,88-88,88
				C55.425,327.943,16.059,288.577,16.002,240z"/>
			<path d="M112.002,304v-9.136c17.081-4.396,27.364-21.807,22.968-38.888c-3.636-14.126-16.381-23.994-30.968-23.976
				c-8.837,0-16-7.163-16-16s7.163-16,16-16s16,7.163,16,16c0,4.418,3.582,8,8,8c4.418,0,8-3.582,8-8
				c-0.055-14.547-9.914-27.227-24-30.864V176c0-4.418-3.582-8-8-8s-8,3.582-8,8v9.136c-17.081,4.396-27.364,21.807-22.968,38.888
				c3.636,14.126,16.381,23.994,30.968,23.976c8.837,0,16,7.163,16,16s-7.163,16-16,16s-16-7.163-16-16c0-4.418-3.582-8-8-8
				s-8,3.582-8,8c0.055,14.547,9.914,27.227,24,30.864V304c0,4.418,3.582,8,8,8S112.002,308.418,112.002,304z"/>
			<path d="M288.002,192h112c4.418,0,8-3.582,8-8s-3.582-8-8-8h-112c-4.418,0-8,3.582-8,8S283.584,192,288.002,192z"/>
			<path d="M424.002,192h16c4.418,0,8-3.582,8-8s-3.582-8-8-8h-16c-4.418,0-8,3.582-8,8S419.584,192,424.002,192z"/>
		</g>
	</g>
</g>
<g>
</g>
<g>
</g>
<g>
</g>
<g>
</g>
<g>
</g>
<g>
</g>
<g>
</g>
<g>
</g>
<g>
</g>
<g>
</g>
<g>
</g>
<g>
</g>
<g>
</g>
<g>
</g>
<g>
</g>
</svg>
