<?xml version="1.0" encoding="utf-8"?>
<!-- Generator: Adobe Illustrator 23.0.1, SVG Export Plug-In . SVG Version: 6.00 Build 0)  -->
<svg version="1.1" id="Capa_1" xmlns="http://www.w3.org/2000/svg" xmlns:xlink="http://www.w3.org/1999/xlink" x="0px" y="0px"
	 viewBox="-49 181.1 512 431.8" style="enable-background:new -49 181.1 512 431.8;" xml:space="preserve">
<path d="M431.5,181.1H-17.5c-17.4,0-31.5,14.2-31.5,31.5v304.6c0,17.4,14.2,31.5,31.5,31.5h151.8l-6.1,49.1h-25.4
	c-4.1,0-7.5,3.4-7.5,7.5c0,4.1,3.4,7.5,7.5,7.5h208.4c4.1,0,7.5-3.4,7.5-7.5c0-4.1-3.4-7.5-7.5-7.5h-25.4l-6.1-49.1h151.8
	c17.4,0,31.5-14.2,31.5-31.5V212.6C463,195.2,448.8,181.1,431.5,181.1z M270.6,597.9H143.4l6.1-49.1h27.6l2.7,10.8
	c3.1,12.5,14.3,21.2,27.2,21.2s24.1-8.7,27.2-21.2l2.7-10.8h27.6L270.6,597.9z M192.6,548.8h28.9l-1.8,7.2
	c-1.5,5.8-6.7,9.9-12.6,9.9s-11.2-4.1-12.6-9.9L192.6,548.8z M448,517.2c0,9.1-7.4,16.5-16.5,16.5H-17.5c-9.1,0-16.5-7.4-16.5-16.5
	V212.6c0-9.1,7.4-16.5,16.5-16.5h448.9c9.1,0,16.5,7.4,16.5,16.5L448,517.2L448,517.2z"/>
<path d="M6.6,501.7h-8.5V228.1h377.3c4.1,0,7.5-3.4,7.5-7.5c0-4.1-3.4-7.5-7.5-7.5H-9.4c-4.1,0-7.5,3.4-7.5,7.5v288.6
	c0,4.1,3.4,7.5,7.5,7.5h16c4.1,0,7.5-3.4,7.5-7.5C14.1,505.1,10.7,501.7,6.6,501.7z"/>
<path d="M423.4,213.1h-16c-4.1,0-7.5,3.4-7.5,7.5c0,4.1,3.4,7.5,7.5,7.5h8.5v273.6H38.7c-4.1,0-7.5,3.4-7.5,7.5
	c0,4.1,3.4,7.5,7.5,7.5h384.8c4.1,0,7.5-3.4,7.5-7.5V220.6C430.9,216.5,427.6,213.1,423.4,213.1z"/>
<path d="M156.6,402.3c1.9,0.5,3.9,0.7,5.9,0.7c0.9,0,1.9-0.1,2.8-0.2l105.4-12.4c13.6-1.6,24.6-11.7,27.3-25.1l12.6-63
	c0.4-2.1-0.1-4.4-1.4-6.1c-1.3-1.7-3.4-2.8-5.6-2.9l-176.4-8c-0.1,0-0.3,0-0.4,0c-1-3.4-3.3-6.4-6.2-8.4l-21.6-14.4
	c-3.4-2.3-8.1-1.4-10.4,2.1s-1.4,8.1,2.1,10.4l21.6,14.4c0.1,0.1,0.2,0.2,0.2,0.3l27.5,96.3c0.9,3,2.3,5.7,4.1,8L134,414.1
	c-2.4,4.8-2.2,10.5,0.7,15.1c1,1.7,2.3,3.1,3.8,4.2c-2,3.4-3.1,7.4-3.1,11.7c0,13,10.6,23.5,23.5,23.5s23.5-10.6,23.5-23.5
	c0-3-0.6-5.9-1.6-8.5h68.4c-1,2.6-1.6,5.5-1.6,8.5c0,13,10.6,23.5,23.5,23.5s23.5-10.6,23.5-23.5c0-3.8-0.9-7.3-2.5-10.5
	c1.5-1.4,2.5-3.3,2.5-5.6c0-4.1-3.4-7.5-7.5-7.5H147.8c-0.1,0-0.3,0-0.4-0.2c-0.2-0.2-0.1-0.4,0-0.5L156.6,402.3z M163.6,388
	c-4.2,0.5-8-2.1-9.2-6.1l-9.6-33.4h24l6.3,38.2L163.6,388z M222.5,381v-32.6h25.7l-2.7,29.9L222.5,381z M222.5,333.4v-28.7L252,306
	l-2.5,27.4L222.5,333.4L222.5,333.4z M207.5,333.4h-26l-5.1-30.8l31.1,1.4V333.4z M207.5,348.4v34.4l-17.5,2.1l-6-36.5L207.5,348.4
	L207.5,348.4z M268.9,375.6l-8.2,1l2.5-28.1H286l-2.8,14C281.8,369.4,276.1,374.7,268.9,375.6z M289,333.4h-24.4l2.4-26.7l27.1,1.2
	L289,333.4z M161.1,301.9l5.2,31.5h-25.8l-9.4-32.9L161.1,301.9z M167.4,445.1c0,4.7-3.8,8.5-8.5,8.5s-8.5-3.8-8.5-8.5
	c0-4.7,3.8-8.5,8.5-8.5S167.4,440.4,167.4,445.1z M271.1,453.6c-4.7,0-8.5-3.8-8.5-8.5c0-4.7,3.8-8.5,8.5-8.5s8.5,3.8,8.5,8.5
	C279.7,449.8,275.8,453.6,271.1,453.6z"/>
</svg>
