<svg height="512pt" viewBox="-16 0 511 512" width="512pt" xmlns="http://www.w3.org/2000/svg"><path d="m151.839844 135.78125h-15.089844c0-21.882812 6.730469-42.804688 19.46875-60.511719l12.25 8.8125c-10.878906 15.125-16.628906 33-16.628906 51.699219zm0 0"/><path d="m176.820312 175.851562c0 13.699219 6.605469 39.605469 31.589844 39.605469h64.117188c24.988281 0 31.589844-25.90625 31.589844-39.605469 0-25.90625-15.570313-48.238281-37.839844-58.15625 8.4375-7.269531 13.796875-18.019531 13.796875-30.003906 0-21.835937-17.765625-39.601562-39.605469-39.601562-21.835938 0-39.601562 17.765625-39.601562 39.601562 0 11.984375 5.355468 22.734375 13.792968 30.003906-22.265625 9.917969-37.839844 32.25-37.839844 58.15625zm63.648438-48.554687c4.238281 0 8.351562.546875 12.269531 1.574219l-12.269531 12.269531-12.269531-12.269531c3.921875-1.027344 8.03125-1.574219 12.269531-1.574219zm-24.511719-39.605469c0-13.515625 10.996094-24.511718 24.511719-24.511718 13.519531 0 24.515625 10.996093 24.515625 24.511718 0 13.519532-10.996094 24.515625-24.515625 24.515625-13.515625 0-24.511719-10.996093-24.511719-24.515625zm-2.464843 47.8125 26.976562 26.976563 26.980469-26.980469c13 8.722656 21.578125 23.546875 21.578125 40.332031 0 .070313-.070313 7.058594-2.636719 13.699219-3.757813 9.714844-9.710937 10.835938-13.859375 10.835938h-64.121094c-4.148437 0-10.101562-1.121094-13.859375-10.835938-2.566406-6.640625-2.636719-13.628906-2.636719-13.675781 0-16.800781 8.574219-31.632813 21.578126-40.351563zm0 0"/><path d="m416.324219 376.691406v-64.117187h-168.308594v-41.226563c71.371094-3.929687 128.234375-63.230468 128.234375-135.566406 0-74.871094-60.910156-135.78125-135.78125-135.78125-27.40625 0-53.816406 8.128906-76.378906 23.507812l8.496094 12.46875c20.046874-13.664062 43.523437-20.886718 67.882812-20.886718 66.550781 0 120.691406 54.140625 120.691406 120.691406 0 66.546875-54.140625 120.6875-120.691406 120.6875-66.546875 0-120.6875-54.140625-120.6875-120.6875 0-33.484375 13.394531-64.609375 37.714844-87.644531l-10.378906-10.957031c-27.359376 25.914062-42.425782 60.929687-42.425782 98.601562 0 72.335938 56.859375 131.636719 128.234375 135.566406v41.226563h-168.308593v64.117187h-64.117188v135.308594h63.648438v-15.089844h-48.558594v-105.128906h113.144531v105.128906h-40.542969v15.089844h55.632813v-135.308594h-64.117188v-49.027344h153.21875v49.027344h-64.117187v135.308594h143.324218v-135.308594h-64.117187v-49.027344h153.21875v49.027344h-64.117187v39.601563h15.089843v-24.511719h113.144531v105.128906h-113.144531v-56.574218h-15.089843v71.664062h143.324218v-135.308594zm-119.28125 120.21875h-113.144531v-105.128906h113.144531zm0 0"/><path d="m64.617188 464.382812h15.089843v16.027344h-15.089843zm0 0"/><path d="m96.675781 464.382812h15.089844v16.027344h-15.089844zm0 0"/><path d="m232.925781 464.382812h15.089844v16.027344h-15.089844zm0 0"/><path d="m264.984375 464.382812h15.089844v16.027344h-15.089844zm0 0"/><path d="m401.234375 464.382812h15.089844v16.027344h-15.089844zm0 0"/><path d="m433.292969 464.382812h15.089843v16.027344h-15.089843zm0 0"/></svg>