<?xml version="1.0" encoding="iso-8859-1"?>
<!-- Generator: Adobe Illustrator 23.0.1, SVG Export Plug-In . SVG Version: 6.00 Build 0)  -->
<svg version="1.1" id="Capa_1" xmlns="http://www.w3.org/2000/svg" xmlns:xlink="http://www.w3.org/1999/xlink" x="0px" y="0px"
	 viewBox="-31.789 158.211 477.578 477.578" style="enable-background:new -31.789 158.211 477.578 477.578;" xml:space="preserve">
<path d="M-25.953,365.492c-3.452,0.969-5.837,4.117-5.836,7.703v47.602c-0.001,3.586,2.384,6.734,5.836,7.703l28.773,8.078
	c1.842,9.615,4.367,19.087,7.555,28.344l-20.82,21.32c-2.291,2.351-2.914,5.864-1.57,8.859C-5.29,510.1,2.959,524.368,12.602,537.68
	c1.924,2.661,5.281,3.873,8.461,3.055l28.859-7.391c6.416,7.385,13.342,14.311,20.727,20.727l-7.391,28.859
	c-0.813,3.18,0.398,6.534,3.055,8.461c13.312,9.645,27.579,17.897,42.578,24.625c2.996,1.34,6.506,0.718,8.859-1.57l21.32-20.82
	c9.257,3.187,18.729,5.711,28.344,7.555l8.078,28.773c0.969,3.452,4.118,5.837,7.703,5.836h47.602
	c3.586,0.001,6.734-2.384,7.703-5.836l8.078-28.766c9.615-1.848,19.087-4.375,28.344-7.562l21.32,20.82
	c2.351,2.291,5.864,2.914,8.859,1.57c14.998-6.727,29.266-14.976,42.578-24.618c2.657-1.927,3.868-5.281,3.055-8.461l-7.391-28.859
	c7.385-6.416,14.31-13.342,20.726-20.726l28.859,7.391c3.18,0.818,6.537-0.394,8.461-3.055
	c9.646-13.312,17.897-27.579,24.625-42.579c1.344-2.996,0.721-6.508-1.57-8.859l-20.82-21.32c3.187-9.257,5.711-18.729,7.555-28.344
	l28.773-8.078c3.452-0.969,5.837-4.117,5.836-7.703v-47.609c0.001-3.586-2.384-6.734-5.836-7.703l-28.773-8.078
	c-1.842-9.613-4.367-19.082-7.555-28.336l20.82-21.32c2.291-2.351,2.914-5.864,1.57-8.86c-6.727-14.998-14.976-29.266-24.618-42.578
	c-1.918-2.668-5.28-3.882-8.461-3.055l-28.859,7.391c-6.416-7.385-13.342-14.31-20.726-20.726l7.391-28.859
	c0.813-3.18-0.398-6.534-3.055-8.461c-13.312-9.645-27.579-17.897-42.578-24.625c-2.994-1.357-6.514-0.733-8.859,1.57l-21.32,20.82
	c-9.257-3.187-18.729-5.712-28.344-7.555l-8.079-28.773c-0.969-3.452-4.117-5.837-7.703-5.836h-47.609
	c-3.586-0.001-6.734,2.384-7.703,5.836l-8.078,28.773c-9.613,1.842-19.082,4.367-28.336,7.555l-21.32-20.82
	c-2.346-2.303-5.865-2.926-8.859-1.57C93.9,184.71,79.632,192.959,66.32,202.602c-2.657,1.927-3.868,5.281-3.055,8.461l7.391,28.859
	c-7.385,6.416-14.311,13.342-20.727,20.727l-28.859-7.391c-3.181-0.834-6.546,0.381-8.461,3.055
	c-9.645,13.312-17.897,27.579-24.625,42.578c-1.344,2.996-0.721,6.508,1.57,8.859l20.82,21.32
	c-3.187,9.257-5.712,18.729-7.555,28.344L-25.953,365.492z M25.32,321.477L4.859,300.523c5.058-10.575,10.935-20.739,17.578-30.398
	l28.375,7.266c3.001,0.769,6.177-0.266,8.148-2.656c7.76-9.386,16.392-18.016,25.781-25.773c2.388-1.976,3.423-5.153,2.656-8.156
	l-7.266-28.375c9.659-6.641,19.823-12.516,30.398-17.57l20.953,20.46c2.211,2.172,5.483,2.861,8.383,1.766
	c11.412-4.243,23.202-7.388,35.211-9.391c3.058-0.51,5.545-2.742,6.383-5.727l7.797-27.758h35.484l7.797,27.758
	c0.837,2.985,3.325,5.217,6.383,5.727c12.012,2.001,23.805,5.146,35.219,9.391c2.9,1.096,6.172,0.407,8.383-1.766l20.953-20.461
	c10.575,5.058,20.739,10.935,30.398,17.578l-7.266,28.375c-0.768,3.001,0.267,6.176,2.656,8.148
	c9.386,7.76,18.016,16.392,25.773,25.781c1.97,2.397,5.152,3.433,8.156,2.656l28.375-7.266c6.644,9.657,12.518,19.821,17.57,30.398
	l-20.46,20.954c-2.164,2.216-2.852,5.483-1.766,8.383c4.243,11.412,7.388,23.202,9.391,35.211c0.51,3.058,2.742,5.545,5.727,6.383
	l27.758,7.797v35.484l-27.758,7.797c-2.985,0.837-5.217,3.325-5.727,6.383c-2.001,12.012-5.146,23.805-9.391,35.219
	c-1.087,2.9-0.399,6.168,1.766,8.383l20.461,20.953c-5.058,10.575-10.935,20.739-17.578,30.398l-28.375-7.266
	c-3.002-0.781-6.183,0.256-8.148,2.656c-7.76,9.386-16.392,18.016-25.781,25.773c-2.388,1.976-3.423,5.153-2.656,8.156l7.266,28.375
	c-9.657,6.644-19.821,12.518-30.398,17.57l-20.954-20.46c-2.212-2.171-5.483-2.86-8.383-1.766
	c-11.414,4.245-23.207,7.392-35.219,9.398c-3.057,0.513-5.543,2.743-6.383,5.727l-7.797,27.75h-35.477l-7.797-27.758
	c-0.837-2.985-3.325-5.217-6.383-5.727c-12.012-2.001-23.805-5.146-35.219-9.391c-2.9-1.096-6.172-0.407-8.383,1.766l-20.953,20.461
	c-10.575-5.058-20.739-10.935-30.398-17.578l7.266-28.375c0.768-3.001-0.267-6.176-2.656-8.148
	c-9.386-7.76-18.016-16.392-25.773-25.781c-1.978-2.386-5.153-3.42-8.156-2.656l-28.375,7.266
	c-6.641-9.659-12.516-19.823-17.57-30.398l20.46-20.954c2.164-2.216,2.852-5.483,1.766-8.383
	c-4.247-11.413-7.391-23.206-9.391-35.219c-0.51-3.058-2.742-5.545-5.727-6.383l-27.757-7.797v-35.477l27.758-7.797
	c2.985-0.837,5.217-3.325,5.727-6.383c2.001-12.012,5.146-23.805,9.391-35.219C28.173,326.959,27.485,323.692,25.32,321.477z"/>
<path d="M207,557c88.366,0,160-71.634,160-160s-71.634-160-160-160S47,308.634,47,397C47.098,485.325,118.675,556.902,207,557z
	 M63.405,389c1.782-32.578,14.636-63.571,36.434-87.849l16.653,16.653l11.313-11.313l-16.653-16.653
	c24.277-21.798,55.27-34.652,87.849-36.434V277h16v-23.595c32.578,1.782,63.571,14.636,87.849,36.434l-16.653,16.653l11.313,11.313
	l16.653-16.653c21.798,24.277,34.652,55.27,36.434,87.849H327v16h23.595c-1.782,32.578-14.636,63.571-36.434,87.849l-16.653-16.653
	l-11.313,11.313l16.653,16.653c-24.277,21.798-55.27,34.651-87.849,36.434V517h-16v23.595
	c-32.578-1.782-63.571-14.636-87.849-36.434l16.653-16.653l-11.313-11.313l-16.653,16.653C78.041,468.571,65.187,437.578,63.405,405
	H87v-16H63.405z"/>
<path d="M207,429c17.666-0.018,31.982-14.334,32-32c0-0.5-0.023-1-0.055-1.492l38.711-58.07c2.45-3.677,1.456-8.643-2.221-11.094
	c-2.687-1.79-6.186-1.79-8.872,0L208.5,365.055C208,365.023,207.508,365,207,365c-17.673,0-32,14.327-32,32S189.327,429,207,429z
	 M207,381c0.769,0.03,1.534,0.119,2.289,0.266c1.966,0.287,3.969-0.161,5.625-1.258l27.234-18.156l-18.156,27.234
	c-1.094,1.716-1.532,3.768-1.234,5.781c0.136,0.704,0.217,1.417,0.242,2.133c0,8.837-7.163,16-16,16c-8.837,0-16-7.163-16-16
	C191,388.163,198.163,381,207,381z"/>
</svg>
