<?xml version="1.0" encoding="utf-8"?>
<!-- Generator: Adobe Illustrator 23.0.1, SVG Export Plug-In . SVG Version: 6.00 Build 0)  -->
<svg version="1.1" id="Capa_1" xmlns="http://www.w3.org/2000/svg" xmlns:xlink="http://www.w3.org/1999/xlink" x="0px" y="0px"
	 viewBox="-49 141 512 512" style="enable-background:new -49 141 512 512;" xml:space="preserve">
<path d="M206.9,521c-3.1,0-6-1.4-7.9-3.8L93.2,381.5c-0.2-0.2-0.4-0.5-0.5-0.7c-21.2-26.1-32.9-59-32.9-92.7
	c0-81.1,66-147.1,147.1-147.1S354,207,354,288.1c0,33.6-11.6,66.5-32.8,92.6c0,0-0.1,0.1-0.1,0.1L214.8,517.1
	C212.9,519.5,210,521,206.9,521z M109.6,370.1l97.2,124.6l98.2-125.9c0.1-0.2,0.2-0.3,0.4-0.5c18.4-22.6,28.5-51.1,28.5-80.2
	C334,218,277,161,206.9,161S79.8,218,79.8,288.1c0,29.5,10.3,58.2,29.1,80.9C109.1,369.4,109.4,369.8,109.6,370.1z"/>
<path d="M206.9,380.3c-24,0-46.6-9.4-63.6-26.4s-26.4-39.6-26.4-63.6c0-24,9.4-46.6,26.4-63.6c23.4-23.4,57.5-32,89.2-22.7
	c5.3,1.6,8.3,7.1,6.7,12.4c-1.6,5.3-7.1,8.3-12.4,6.7c-24.7-7.3-51.3-0.5-69.4,17.6c-13.2,13.2-20.5,30.8-20.5,49.5
	s7.3,36.3,20.5,49.5c13.2,13.2,30.8,20.5,49.5,20.5s36.3-7.3,49.5-20.5c18.1-18.1,24.9-44.7,17.6-69.4c-1.6-5.3,1.5-10.9,6.8-12.4
	c5.3-1.6,10.9,1.5,12.4,6.8c9.3,31.7,0.7,65.8-22.7,89.2C253.5,370.9,230.9,380.3,206.9,380.3z"/>
<path d="M263.6,243.9c-2.6,0-5.1-1-7.1-2.9l-0.2-0.2c-3.9-3.9-3.9-10.2,0-14.1c3.9-3.9,10.2-3.9,14.1,0l0.2,0.2
	c3.9,3.9,3.9,10.2,0,14.1C268.7,242.9,266.2,243.9,263.6,243.9z"/>
<path d="M207,653c-67,0-130.2-11.2-177.8-31.4C-21.2,600.2-49,570.7-49,538.5c0-27.6,20-53,57.9-73.4c34.5-18.6,82.9-32,136.1-37.8
	c5.5-0.6,10.4,3.4,11,8.9c0.6,5.5-3.4,10.4-8.9,11c-50.8,5.5-96.5,18.1-128.8,35.5C-12.1,499.1-29,519-29,538.5
	c0,23.3,24,46.9,66,64.7C82.2,622.4,142.6,633,207,633s124.8-10.6,170-29.8c41.9-17.8,66-41.4,66-64.7c0-27.6-33.1-54.9-88.6-73.2
	c-5.2-1.7-8.1-7.4-6.4-12.6c1.7-5.2,7.4-8.1,12.6-6.4c65.1,21.4,102.4,55,102.4,92.2c0,32.2-27.7,61.7-78.1,83.1
	C337.2,641.8,274,653,207,653z"/>
<path d="M312.9,454.1c-0.7,0-1.3-0.1-2-0.2l-0.3-0.1c-5.4-1.1-8.9-6.4-7.8-11.8c1.1-5.4,6.4-8.9,11.8-7.8l0.3,0.1
	c5.4,1.1,8.9,6.4,7.8,11.8C321.7,450.8,317.6,454.1,312.9,454.1z"/>
<path d="M121.6,490c-4.4,0-8.4-2.9-9.6-7.4c-1.5-5.3,1.7-10.8,7-12.3c0.2-0.1,0.5-0.1,0.7-0.2c5.4-1.1,10.7,2.4,11.8,7.8
	c1.1,5.3-2.3,10.4-7.4,11.7C123.2,489.9,122.4,490,121.6,490z"/>
<path d="M207,575c-75.5,0-151.9-19.7-151.9-57.2c0-9.5,5.2-23.4,30.1-35.5c5-2.4,10.9-0.4,13.4,4.6c2.4,5,0.4,10.9-4.6,13.4
	c-11.8,5.8-18.9,12.4-18.9,17.6c0,5.7,9.1,15.4,34.7,23.9c25.8,8.6,60.3,13.3,97.1,13.3s71.3-4.7,97.1-13.3
	c25.6-8.5,34.7-18.2,34.7-23.9c0-11.8-34.8-30.9-100.1-36c-5.5-0.4-9.6-5.2-9.2-10.7s5.2-9.6,10.7-9.2c54.7,4.3,118.5,21.5,118.5,56
	C358.9,555.3,282.5,575,207,575z"/>
</svg>
