<?xml version="1.0" encoding="utf-8"?>
<!-- Generator: Adobe Illustrator 23.0.1, SVG Export Plug-In . SVG Version: 6.00 Build 0)  -->
<svg version="1.1" id="Capa_1" xmlns="http://www.w3.org/2000/svg" xmlns:xlink="http://www.w3.org/1999/xlink" x="0px" y="0px"
	 viewBox="0 0 486.5 444.7" style="enable-background:new 0 0 486.5 444.7;" xml:space="preserve">
<g>
	<g>
		<path d="M243.2,312.5c-13.6,0-25,11.4-25,25s11.4,25,25,25c13.1,0,25-11.4,24.4-24.4C268.2,323.8,256.9,312.5,243.2,312.5z"/>
		<path d="M474.6,401.1c15.7-27.1,15.8-59.4,0.2-86.4L318.2,43.5C302.7,16.2,274.7,0,243.3,0s-59.4,16.3-74.9,43.4L11.6,314.9
			c-15.6,27.3-15.5,59.8,0.3,86.9c15.6,26.8,43.5,42.9,74.7,42.9h312.8C430.7,444.7,458.8,428.4,474.6,401.1z M440.6,381.5
			c-8.7,15-24.1,23.9-41.3,23.9H86.5c-17,0-32.3-8.7-40.8-23.4c-8.6-14.9-8.7-32.7-0.1-47.7L202.4,62.9
			c8.5-14.9,23.7-23.7,40.9-23.7c17.1,0,32.4,8.9,40.9,23.8l156.7,271.4C449.3,349,449.2,366.6,440.6,381.5z"/>
		<path d="M237,137c-11.9,3.4-19.3,14.2-19.3,27.3c0.6,7.9,1.1,15.9,1.7,23.8c1.7,30.1,3.4,59.6,5.1,89.7
			c0.6,10.2,8.5,17.6,18.7,17.6s18.2-7.9,18.7-18.2c0-6.2,0-11.9,0.6-18.2c1.1-19.3,2.3-38.6,3.4-57.9c0.6-12.5,1.7-25,2.3-37.5
			c0-4.5-0.6-8.5-2.3-12.5C260.8,139.9,248.9,134.2,237,137z"/>
	</g>
</g>
</svg>
