<?xml version="1.0" encoding="iso-8859-1"?>
<!-- Generator: Adobe Illustrator 23.0.1, SVG Export Plug-In . SVG Version: 6.00 Build 0)  -->
<svg version="1.1" id="Layer_1" xmlns="http://www.w3.org/2000/svg" xmlns:xlink="http://www.w3.org/1999/xlink" x="0px" y="0px"
	 viewBox="0 0 139.391 138.604" style="enable-background:new 0 0 139.391 138.604;" xml:space="preserve">
<g>
	<path d="M69.695-0.787C31.266-0.787,0,30.479,0,68.908c0,38.43,31.266,69.696,69.695,69.696c38.43,0,69.696-31.266,69.696-69.696
		C139.391,30.479,108.125-0.787,69.695-0.787L69.695-0.787z M69.695,126.658c-31.84,0-57.746-25.906-57.746-57.75
		c0-31.84,25.906-57.746,57.746-57.746c31.844,0,57.75,25.906,57.75,57.746C127.445,100.752,101.535,126.658,69.695,126.658
		L69.695,126.658z M69.695,126.658"/>
	<path d="M96.664,41.943c-2.332-2.332-6.117-2.332-8.445,0L69.695,60.467L51.176,41.943c-2.336-2.332-6.114-2.332-8.449,0
		c-2.332,2.336-2.332,6.114,0,8.45L61.25,68.912L42.727,87.436c-2.332,2.336-2.332,6.113,0,8.449c1.168,1.164,2.695,1.75,4.226,1.75
		c1.527,0,3.059-0.582,4.223-1.75l18.519-18.524l18.524,18.524c1.164,1.164,2.691,1.75,4.222,1.75c1.528,0,3.055-0.582,4.223-1.75
		c2.336-2.336,2.336-6.113,0-8.449l-18.519-18.52l18.519-18.523C98.996,48.057,98.996,44.279,96.664,41.943L96.664,41.943z
		 M96.664,41.943"/>
</g>
</svg>
