<?xml version="1.0" encoding="iso-8859-1"?>
<!-- Generator: Adobe Illustrator 23.0.1, SVG Export Plug-In . SVG Version: 6.00 Build 0)  -->
<svg version="1.1" id="Layer_1" xmlns="http://www.w3.org/2000/svg" xmlns:xlink="http://www.w3.org/1999/xlink" x="0px" y="0px"
	 viewBox="0 0 16 16" style="enable-background:new 0 0 16 16;" xml:space="preserve">
<g>
	<path d="M4.719,6.48L3.602,7.602l3.597,3.597l8-8l-1.121-1.121L7.199,8.961L4.719,6.48z M14.398,8c0,3.52-2.878,6.398-6.398,6.398
		c-3.52,0-6.398-2.878-6.398-6.398C1.602,4.48,4.48,1.602,8,1.602c0.641,0,1.199,0.078,1.762,0.238l1.277-1.281
		C10.078,0.238,9.039,0,8,0C3.602,0,0,3.602,0,8c0,4.398,3.602,8,8,8c4.398,0,8-3.602,8-8H14.398z M14.398,8"/>
</g>
</svg>
