<svg height="496pt" viewBox="0 0 496 496" width="496pt" xmlns="http://www.w3.org/2000/svg"><path d="m416 248h-16c0 13.230469-10.769531 24-24 24s-24-10.769531-24-24h-16c0 22.054688 17.945312 40 40 40s40-17.945312 40-40zm0 0"/><path d="m368 228.6875-18.34375-18.34375-11.3125 11.3125 37.65625 37.65625 37.65625-37.65625-11.3125-11.3125-18.34375 18.34375v-127.742188l32-16v-84.945312l-40 30-40-30v84.945312l32 16zm32-153.632812-16 8v-39.054688l16-12zm-48 0v-43.054688l16 12v39.054688zm0 0"/><path d="m354.71875 179.199219-4.71875-15.289063c-37.089844 11.457032-62 45.25-62 84.089844 0 48.519531 39.480469 88 88 88s88-39.480469 88-88c0-38.839844-24.910156-72.632812-62-84.089844l-4.71875 15.289063c30.335938 9.375 50.71875 37.015625 50.71875 68.800781 0 39.695312-32.304688 72-72 72s-72-32.304688-72-72c0-31.785156 20.382812-59.425781 50.71875-68.800781zm0 0"/><path d="m401.433594 130.753906-3.386719 15.636719c47.488281 10.265625 81.953125 52.992187 81.953125 101.609375 0 57.34375-46.65625 104-104 104s-104-46.65625-104-104c0-48.617188 34.464844-91.34375 81.953125-101.609375l-3.386719-15.636719c-52.167968 11.269532-90.636718 56.527344-94.214844 109.246094h-48.351562v-192h-80v-48h-128v112h128v-48h64v176h-64v-48h-128v112h128v-48h64v176h-64v-48h-128v112h128v-48h80v-192h48.40625c4.144531 62.441406 56.128906 112 119.59375 112 66.167969 0 120-53.832031 120-120 0-56.097656-39.777344-105.40625-94.566406-117.246094zm-289.433594-34.753906h-96v-80h96zm0 192h-96v-80h96zm0 192h-96v-80h96zm0 0"/><path d="m32 224h64v16h-64zm0 0"/><path d="m72 256h16v16h-16zm0 0"/><path d="m40 256h16v16h-16zm0 0"/><path d="m32 32h64v16h-64zm0 0"/><path d="m72 64h16v16h-16zm0 0"/><path d="m40 64h16v16h-16zm0 0"/><path d="m32 416h64v16h-64zm0 0"/><path d="m72 448h16v16h-16zm0 0"/><path d="m40 448h16v16h-16zm0 0"/></svg>