<?xml version="1.0" encoding="iso-8859-1"?>
<!-- Generator: Adobe Illustrator 23.0.1, SVG Export Plug-In . SVG Version: 6.00 Build 0)  -->
<svg version="1.1" id="Layer_1" xmlns="http://www.w3.org/2000/svg" xmlns:xlink="http://www.w3.org/1999/xlink" x="0px" y="0px"
	 viewBox="-41 149 496 496" style="enable-background:new -41 149 496 496;" xml:space="preserve">
<g>
	<path d="M42.504,556.28C54.88,547.584,63,533.232,63,517c0-26.472-21.528-48-48-48s-48,21.528-48,48
		c0,16.232,8.12,30.584,20.496,39.28C-29.488,565.904-41,584.12-41,605v40H71v-40C71,584.12,59.488,565.904,42.504,556.28z M-17,517
		c0-17.648,14.352-32,32-32s32,14.352,32,32s-14.352,32-32,32S-17,534.648-17,517z M55,629h-80v-24c0-22.056,17.944-40,40-40
		s40,17.944,40,40V629z"/>
	<path d="M170.504,556.28C182.88,547.584,191,533.232,191,517c0-26.472-21.528-48-48-48s-48,21.528-48,48
		c0,16.232,8.12,30.584,20.496,39.28C98.512,565.904,87,584.12,87,605v40h112v-40C199,584.12,187.488,565.904,170.504,556.28z
		 M111,517c0-17.648,14.352-32,32-32s32,14.352,32,32s-14.352,32-32,32S111,534.648,111,517z M183,629h-80v-24
		c0-22.056,17.944-40,40-40s40,17.944,40,40V629z"/>
	<path d="M298.504,556.28C310.88,547.584,319,533.232,319,517c0-26.472-21.528-48-48-48s-48,21.528-48,48
		c0,16.232,8.12,30.584,20.496,39.28C226.512,565.904,215,584.12,215,605v40h112v-40C327,584.12,315.488,565.904,298.504,556.28z
		 M239,517c0-17.648,14.352-32,32-32s32,14.352,32,32s-14.352,32-32,32S239,534.648,239,517z M311,629h-80v-24
		c0-22.056,17.944-40,40-40s40,17.944,40,40V629z"/>
	<path d="M426.504,556.28C438.88,547.584,447,533.232,447,517c0-26.472-21.528-48-48-48s-48,21.528-48,48
		c0,16.232,8.12,30.584,20.496,39.28C354.512,565.904,343,584.12,343,605v40h112v-40C455,584.12,443.488,565.904,426.504,556.28z
		 M367,517c0-17.648,14.352-32,32-32s32,14.352,32,32s-14.352,32-32,32S367,534.648,367,517z M439,629h-80v-24
		c0-22.056,17.944-40,40-40s40,17.944,40,40V629z"/>
	<path d="M359,421c17.648,0,32,14.352,32,32h16c0-20.416-12.832-37.84-30.832-44.768C422.64,386.584,455,339.552,455,285
		c0-74.992-61.008-136-136-136H95c-74.992,0-136,61.008-136,136c0,54.552,32.36,101.584,78.832,123.232
		C19.832,415.16,7,432.584,7,453h16c0-17.648,14.352-32,32-32h32v-0.408c2.664,0.16,5.296,0.408,8,0.408h40v32h16v-32h112v32h16v-32
		h40c2.704,0,5.336-0.248,8-0.408V421H359z M95,405c-66.168,0-120-53.832-120-120S28.832,165,95,165h224
		c66.168,0,120,53.832,120,120s-53.832,120-120,120H95z"/>
	<rect x="135" y="213" width="144" height="16"/>
	<rect x="135" y="245" width="144" height="16"/>
	<rect x="135" y="277" width="144" height="16"/>
	<rect x="135" y="309" width="144" height="16"/>
	<rect x="135" y="341" width="112" height="16"/>
	<rect x="263" y="341" width="16" height="16"/>
	<path d="M391,269c13.232,0,24-10.768,24-24s-10.768-24-24-24s-24,10.768-24,24c0,6.64,2.712,12.648,7.08,17l-20.712,55.24
		c-0.792-0.08-1.56-0.24-2.368-0.24c-6.84,0-12.984,2.912-17.36,7.52L311,319.56V181H103v93.064l-16.152-3.536
		C86.88,270.016,87,269.52,87,269c0-13.232-10.768-24-24-24s-24,10.768-24,24c0,4.288,1.224,8.256,3.2,11.744l-15.48,20.632
		C25.504,301.184,24.272,301,23,301c-13.232,0-24,10.768-24,24s10.768,24,24,24s24-10.768,24-24c0-6.096-2.36-11.608-6.12-15.848
		l13.392-17.856C56.984,292.368,59.912,293,63,293c6.84,0,12.984-2.912,17.36-7.52l22.64,4.96V389h208v-53.064l16.152,3.536
		C327.12,339.984,327,340.48,327,341c0,13.232,10.768,24,24,24s24-10.768,24-24c0-6.64-2.712-12.648-7.08-17l20.712-55.24
		C389.424,268.84,390.192,269,391,269z M23,333c-4.416,0-8-3.584-8-8s3.584-8,8-8s8,3.584,8,8S27.416,333,23,333z M63,277
		c-4.416,0-8-3.584-8-8s3.584-8,8-8s8,3.584,8,8S67.416,277,63,277z M295,373H119V197h176V373z M351,349c-4.416,0-8-3.584-8-8
		s3.584-8,8-8s8,3.584,8,8S355.416,349,351,349z M391,237c4.416,0,8,3.584,8,8s-3.584,8-8,8s-8-3.584-8-8S386.584,237,391,237z"/>
</g>
</svg>
