<svg height="480pt" viewBox="-48 0 480 480" width="480pt" xmlns="http://www.w3.org/2000/svg"><path d="m383.894531 103.496094c-.039062-.699219-.175781-1.394532-.40625-2.054688-.089843-.257812-.152343-.503906-.265625-.753906-.386718-.871094-.925781-1.664062-1.597656-2.34375l-96-96c-.695312-.679688-1.507812-1.222656-2.402344-1.601562-.230468-.101563-.453125-.167969-.6875-.246094-.699218-.246094-1.425781-.394532-2.167968-.433594-.078126.015625-.214844-.0625-.367188-.0625h-240c-22.082031.0273438-39.9726562 17.917969-40 40v400c.0273438 22.082031 17.917969 39.972656 40 40h304c22.082031-.027344 39.972656-17.917969 40-40v-336c0-.175781-.089844-.328125-.105469-.503906zm-27.207031-7.496094h-60.6875c-4.417969 0-8-3.582031-8-8v-60.6875zm-12.6875 368h-304c-13.253906 0-24-10.746094-24-24v-400c0-13.253906 10.746094-24 24-24h232v72c0 13.253906 10.746094 24 24 24h72v328c0 13.253906-10.746094 24-24 24zm0 0"/><path d="m192 144c-79.527344 0-144 64.472656-144 144s64.472656 144 144 144 144-64.472656 144-144c-.09375-79.492188-64.507812-143.90625-144-144zm0 272c-70.691406 0-128-57.308594-128-128s57.308594-128 128-128 128 57.308594 128 128c-.082031 70.65625-57.34375 127.917969-128 128zm0 0"/><path d="m204.679688 232-8.96875 8.96875c-2.078126 2.007812-2.914063 4.980469-2.179688 7.78125.730469 2.796875 2.914062 4.980469 5.710938 5.710938 2.796874.734374 5.773437-.101563 7.78125-2.179688l22.625-22.617188c.738281-.738281 1.324218-1.617187 1.726562-2.585937.832031-1.96875.832031-4.1875 0-6.15625-.402344-.96875-.988281-1.847656-1.726562-2.585937l-22.625-22.617188c-3.136719-3.03125-8.128907-2.988281-11.214844.097656-3.085938 3.085938-3.128906 8.078125-.097656 11.214844l8.96875 8.96875h-28.679688c-39.746094.042969-71.957031 32.253906-72 72v32c0 4.417969 3.582031 8 8 8s8-3.582031 8-8v-32c.035156-30.914062 25.085938-55.964844 56-56zm0 0"/><path d="m272 248c-4.417969 0-8 3.582031-8 8v32c-.035156 30.914062-25.085938 55.964844-56 56h-28.679688l8.96875-8.96875c2.078126-2.007812 2.914063-4.980469 2.179688-7.78125-.730469-2.796875-2.914062-4.980469-5.710938-5.710938-2.796874-.734374-5.773437.101563-7.78125 2.179688l-22.625 22.617188c-.738281.738281-1.324218 1.617187-1.726562 2.585937-.832031 1.96875-.832031 4.1875 0 6.15625.402344.96875.988281 1.847656 1.726562 2.585937l22.625 22.617188c2.007813 2.078125 4.984376 2.914062 7.78125 2.179688 2.796876-.730469 4.980469-2.914063 5.710938-5.710938.734375-2.800781-.101562-5.773438-2.179688-7.78125l-8.96875-8.96875h28.679688c39.746094-.042969 71.957031-32.253906 72-72v-32c0-4.417969-3.582031-8-8-8zm0 0"/><path d="m48 56c0-4.417969 3.582031-8 8-8h48c4.417969 0 8-3.582031 8-8s-3.582031-8-8-8h-48c-13.253906 0-24 10.746094-24 24v48c0 4.417969 3.582031 8 8 8s8-3.582031 8-8zm0 0"/></svg>