<svg height="496pt" viewBox="0 0 496 496" width="496pt" xmlns="http://www.w3.org/2000/svg"><path d="m424.910156 421.601562c45.867188-46.648437 71.089844-107.945312 71.089844-173.601562 0-136.742188-111.257812-248-248-248-53.214844 0-103.808594 16.640625-146.535156 48h-53.464844v53.496094c-31.359375 42.71875-48 93.28125-48 146.503906 0 136.753906 111.257812 248 248 248 37.816406 0 74.054688-8.40625 107.863281-24.816406l12.535157 12.535156c7.9375 7.921875 18.464843 12.28125 29.65625 12.28125 23.128906 0 41.945312-18.816406 41.945312-41.9375 0-11.207031-4.359375-21.742188-12.289062-29.65625zm-53.597656-53.601562h75.289062c-9.210937 15.144531-20.257812 29.320312-33 42.289062zm-168-72 12.6875-12.6875 140.6875 140.6875-12.6875 12.6875zm-139.3125-168h368v224h-76.6875l-16-16h76.6875v-192h-336v192h140.679688l16 16h-172.679688zm132.335938 152.351562-9.335938-37.359374 37.359375 9.335937zm-100.335938 39.648438v-160h48v160zm64-160h48v71.753906l-43-10.753906 19.777344 79.089844 19.902344 19.910156h-44.679688zm84.089844 80.777344-20.089844-5.023438v-75.753906h48v108.6875zm43.910156-80.777344h48v160h-12.6875l-35.3125-35.3125zm112 0v160h-48v-160zm-32 252.6875-140.6875-140.6875 12.6875-12.6875 140.6875 140.6875zm80-47.070312v-234.984376c20.304688 34.457032 32 74.558594 32 117.367188 0 42.167969-11.160156 82.398438-32 117.617188zm-200-349.617188c42.808594 0 82.910156 11.695312 117.367188 32h-234.710938c35.464844-20.902344 75.511719-32 117.34375-32zm141.070312 48c16.113282 12.375 30.546876 26.816406 42.929688 42.929688v5.070312h-368v-48zm-341.070312 66.664062v234.703126c-20.304688-34.457032-32-74.558594-32-117.367188 0-41.847656 11.105469-81.886719 32-117.335938zm200 349.335938c-84.039062 0-157.777344-44.921875-198.488281-112h203.167969l91.191406 91.191406c-30.183594 13.769532-62.367188 20.808594-95.871094 20.808594zm150.054688 0c-6.925782 0-13.4375-2.695312-18.34375-7.59375l-24.398438-24.40625 36.6875-36.6875 24.40625 24.40625c4.898438 4.898438 7.59375 11.410156 7.59375 18.34375 0 14.304688-11.640625 25.9375-25.945312 25.9375zm0 0"/><path d="m80 80h16v16h-16zm0 0"/><path d="m112 80h16v16h-16zm0 0"/><path d="m144 80h16v16h-16zm0 0"/></svg>