<?xml version="1.0" encoding="utf-8"?>
<!-- Generator: Adobe Illustrator 23.0.3, SVG Export Plug-In . SVG Version: 6.00 Build 0)  -->
<svg version="1.1" id="Layer_1" xmlns="http://www.w3.org/2000/svg" xmlns:xlink="http://www.w3.org/1999/xlink" x="0px" y="0px"
	 viewBox="0 0 419 419" style="enable-background:new 0 0 419 419;" xml:space="preserve">
<style type="text/css">
	.st0{fill:none;stroke:#000000;stroke-width:18;stroke-miterlimit:10;}
</style>
<path d="M158,235.9c-14.6,0-26.5,11.9-26.5,26.5c0,14.6,11.9,26.5,26.5,26.5s26.5-11.9,26.5-26.5C184.5,247.8,172.7,235.9,158,235.9
	z M158,268.9c-3.6,0-6.5-2.9-6.5-6.5c0-3.6,2.9-6.5,6.5-6.5s6.5,2.9,6.5,6.5c0,1.7-0.7,3.4-1.9,4.6
	C161.4,268.2,159.8,268.9,158,268.9z"/>
<path d="M244.4,235.9c-14.6,0-26.5,11.9-26.5,26.5c0,14.6,11.9,26.5,26.5,26.5c14.6,0,26.5-11.9,26.5-26.5
	C270.9,247.8,259,235.9,244.4,235.9z M244.4,268.9c-3.6,0-6.5-2.9-6.5-6.5c0-3.6,2.9-6.5,6.5-6.5s6.5,2.9,6.5,6.5
	c0,1.7-0.7,3.4-1.9,4.6C247.8,268.2,246.1,268.9,244.4,268.9z"/>
<path d="M272.3,122.7H140.5l-2.1-12.7c-2.4-14.5-15.1-25.2-29.8-25.1h-6.9c-5.5,0-10,4.5-10,10c0,5.5,4.5,10,10,10h6.9
	c5,0,9.2,3.6,10.1,8.5l16.2,95.5c2.4,14.5,15.1,25.2,29.8,25.1h92.2c5.5,0,10-4.5,10-10c0-5.5-4.5-10-10-10h-92.2
	c-5,0-9.2-3.6-10.1-8.5l-0.1-0.8H238c13.2,0,24.8-8.5,28.8-21.1l15.1-47.9c1-3,0.4-6.4-1.5-8.9C278.5,124.3,275.5,122.8,272.3,122.7
	z M247.7,177.6c-1.3,4.2-5.3,7.1-9.7,7.1h-86.9l-7.1-42h114.7L247.7,177.6z"/>
<path d="M326.1,311.9c66.4-73.9,63.4-186.9-6.9-257.1c-72.9-72.9-191.5-72.9-264.4,0c-71.6,71.6-73.2,187.3-3.5,260.8
	c69.7,73.5,185.3,78.1,260.6,10.4l90,90c1.9,1.9,4.4,2.9,7.1,2.9c2.7,0,5.2-1.1,7.1-2.9c1.9-1.9,2.9-4.4,2.9-7c0-2.6-1.1-5.2-2.9-7
	L326.1,311.9z M187,353.9c-79.6,0-148.2-56.3-163.7-134.4C7.8,141.4,49.6,63.2,123.2,32.7C196.8,2.3,281.6,28,325.9,94.2
	c44.2,66.2,35.5,154.5-20.8,210.8C273.8,336.4,231.3,354,187,353.9z"/>
<line class="st0" x1="318" y1="61" x2="64" y2="315"/>
</svg>
