<?xml version="1.0" encoding="iso-8859-1"?>
<!-- Generator: Adobe Illustrator 19.0.0, SVG Export Plug-In . SVG Version: 6.00 Build 0)  -->
<svg version="1.1" id="Layer_1" xmlns="http://www.w3.org/2000/svg" xmlns:xlink="http://www.w3.org/1999/xlink" x="0px" y="0px"
	 viewBox="0 0 449.978 449.978" style="enable-background:new 0 0 449.978 449.978;" xml:space="preserve">
<g>
	<g>
		<g>
			<path d="M85.213,224.989c0-23.493-19.113-42.606-42.606-42.606S0,201.496,0,224.989c0,23.493,19.113,42.606,42.606,42.606
				C66.099,267.595,85.213,248.482,85.213,224.989z M42.606,252.596C27.384,252.596,15,240.211,15,224.989
				c0-15.222,12.384-27.606,27.606-27.606c15.222,0,27.606,12.384,27.606,27.606C70.212,240.211,57.829,252.596,42.606,252.596z"/>
			<path d="M407.372,182.383c-23.494,0-42.607,19.113-42.607,42.606c0,23.493,19.113,42.606,42.607,42.606
				c23.493,0,42.606-19.113,42.606-42.606C449.978,201.496,430.865,182.383,407.372,182.383z M407.372,252.596
				c-15.223,0-27.607-12.384-27.607-27.606s12.385-27.606,27.607-27.606s27.606,12.384,27.606,27.606
				S422.595,252.596,407.372,252.596z"/>
			<path d="M65.897,323.826c-16.612,16.612-16.612,43.642,0,60.254c8.307,8.306,19.217,12.459,30.128,12.459
				c10.91,0,21.82-4.153,30.127-12.459c16.612-16.612,16.612-43.642,0-60.254C109.539,307.214,82.511,307.215,65.897,323.826z
				 M115.545,373.474c-10.765,10.765-28.277,10.763-39.04,0c-10.764-10.764-10.764-28.278,0-39.042
				c5.382-5.382,12.451-8.073,19.521-8.073c7.068,0,14.138,2.691,19.52,8.073C126.309,345.196,126.309,362.71,115.545,373.474z"/>
			<path d="M224.989,364.766c-23.493,0-42.606,19.113-42.606,42.606s19.113,42.606,42.606,42.606s42.606-19.113,42.606-42.606
				S248.482,364.766,224.989,364.766z M224.989,434.979c-15.223,0-27.606-12.384-27.606-27.606s12.384-27.606,27.606-27.606
				s27.606,12.384,27.606,27.606S240.212,434.979,224.989,434.979z"/>
			<path d="M323.825,323.826c-16.612,16.612-16.612,43.642,0,60.254c8.307,8.306,19.217,12.459,30.128,12.459
				c10.911,0,21.821-4.153,30.128-12.459c16.612-16.612,16.612-43.642,0-60.254C367.468,307.214,340.438,307.214,323.825,323.826z
				 M373.474,373.474c-10.764,10.764-28.277,10.764-39.041,0c-10.764-10.764-10.764-28.278,0-39.042
				c5.382-5.382,12.451-8.073,19.521-8.073s14.139,2.691,19.521,8.073C384.237,345.196,384.237,362.71,373.474,373.474z"/>
			<path d="M353.953,138.612c10.911,0,21.821-4.153,30.128-12.459c16.612-16.612,16.612-43.643,0-60.255
				c-16.613-16.612-43.643-16.612-60.256,0c-16.612,16.612-16.612,43.643,0,60.255C332.132,134.459,343.042,138.612,353.953,138.612
				z M334.433,76.504c5.382-5.382,12.451-8.073,19.521-8.073s14.139,2.691,19.521,8.073c10.765,10.764,10.765,28.278,0,39.042
				c-10.764,10.764-28.277,10.764-39.041,0C323.668,104.782,323.668,87.269,334.433,76.504z"/>
			<path d="M224.989,85.213c23.493,0,42.606-19.113,42.606-42.606C267.596,19.113,248.482,0,224.989,0s-42.606,19.113-42.606,42.607
				C182.383,66.1,201.496,85.213,224.989,85.213z M224.989,15c15.223,0,27.606,12.384,27.606,27.607
				c0,15.222-12.384,27.606-27.606,27.606s-27.606-12.384-27.606-27.606C197.383,27.384,209.767,15,224.989,15z"/>
			<path d="M96.025,138.612c10.91,0,21.82-4.153,30.127-12.459c16.612-16.612,16.612-43.643,0-60.255
				c-16.613-16.613-43.642-16.611-60.255,0c-16.612,16.612-16.612,43.643,0,60.255C74.204,134.459,85.114,138.612,96.025,138.612z
				 M76.505,76.504c5.382-5.382,12.451-8.073,19.521-8.073c7.068,0,14.138,2.691,19.52,8.073c10.765,10.764,10.765,28.278,0,39.042
				c-10.765,10.764-28.277,10.763-39.04,0C65.74,104.782,65.74,87.269,76.505,76.504z"/>
			<path d="M261.937,162.689h-73.896c-4.143,0-7.5,3.358-7.5,7.5V279.79c0,4.142,3.357,7.5,7.5,7.5h73.896
				c4.143,0,7.5-3.358,7.5-7.5V170.189C269.437,166.047,266.079,162.689,261.937,162.689z M254.437,272.29h-58.896v-22.675h58.896
				V272.29z M254.437,234.614h-58.896v-19.25h58.896V234.614z M254.437,200.364h-58.896v-22.675h58.896V200.364z"/>
			<path d="M217.489,102.544v35.963c0,4.142,3.357,7.5,7.5,7.5s7.5-3.358,7.5-7.5v-35.963c0-4.142-3.357-7.5-7.5-7.5
				S217.489,98.402,217.489,102.544z"/>
			<path d="M232.489,347.434v-35.963c0-4.142-3.357-7.5-7.5-7.5s-7.5,3.358-7.5,7.5v35.963c0,4.142,3.357,7.5,7.5,7.5
				S232.489,351.576,232.489,347.434z"/>
			<path d="M143.711,133.104c-2.93-2.929-7.678-2.929-10.607,0s-2.929,7.678,0,10.606l25.43,25.43
				c1.465,1.464,3.385,2.197,5.304,2.197s3.839-0.732,5.304-2.197c2.929-2.929,2.929-7.678,0-10.606L143.711,133.104z"/>
			<path d="M316.874,316.874c2.929-2.929,2.929-7.678,0-10.606l-25.43-25.43c-2.93-2.929-7.678-2.929-10.607,0
				c-2.929,2.929-2.929,7.678,0,10.606l25.43,25.43c1.465,1.464,3.385,2.197,5.304,2.197
				C313.49,319.071,315.409,318.338,316.874,316.874z"/>
			<path d="M95.044,224.989c0,4.142,3.357,7.5,7.5,7.5h35.963c4.143,0,7.5-3.358,7.5-7.5c0-4.142-3.357-7.5-7.5-7.5h-35.963
				C98.401,217.489,95.044,220.847,95.044,224.989z"/>
			<path d="M347.434,217.489h-35.963c-4.143,0-7.5,3.358-7.5,7.5c0,4.142,3.357,7.5,7.5,7.5h35.963c4.143,0,7.5-3.358,7.5-7.5
				C354.934,220.847,351.576,217.489,347.434,217.489z"/>
			<path d="M158.533,280.838l-25.43,25.43c-2.929,2.929-2.929,7.678,0,10.606c1.465,1.464,3.385,2.197,5.304,2.197
				s3.839-0.732,5.304-2.197l25.43-25.43c2.929-2.929,2.929-7.678,0-10.606C166.211,277.909,161.463,277.909,158.533,280.838z"/>
			<path d="M286.141,171.337c1.919,0,3.839-0.732,5.304-2.197l25.43-25.43c2.929-2.929,2.929-7.678,0-10.606
				c-2.93-2.929-7.678-2.929-10.607,0l-25.43,25.43c-2.929,2.929-2.929,7.678,0,10.606
				C282.302,170.605,284.222,171.337,286.141,171.337z"/>
		</g>
	</g>
</g>
<g>
</g>
<g>
</g>
<g>
</g>
<g>
</g>
<g>
</g>
<g>
</g>
<g>
</g>
<g>
</g>
<g>
</g>
<g>
</g>
<g>
</g>
<g>
</g>
<g>
</g>
<g>
</g>
<g>
</g>
</svg>
