<?xml version="1.0" encoding="iso-8859-1"?>
<!-- Generator: Adobe Illustrator 19.0.0, SVG Export Plug-In . SVG Version: 6.00 Build 0)  -->
<svg version="1.1" id="Capa_1" xmlns="http://www.w3.org/2000/svg" xmlns:xlink="http://www.w3.org/1999/xlink" x="0px" y="0px"
	 viewBox="0 0 512 512" style="enable-background:new 0 0 512 512;" xml:space="preserve">
<g>
	<g>
		<path d="M339.03,98.93c-1.86-1.86-4.44-2.92-7.07-2.92s-5.21,1.06-7.07,2.92c-1.86,1.87-2.93,4.44-2.93,7.08
			c0,2.63,1.07,5.21,2.93,7.07c1.86,1.86,4.44,2.93,7.07,2.93s5.21-1.07,7.07-2.93c1.86-1.86,2.93-4.44,2.93-7.07
			C341.96,103.37,340.89,100.8,339.03,98.93z"/>
	</g>
</g>
<g>
	<g>
		<path d="M186.53,252.6c-1.86-1.86-4.44-2.93-7.07-2.93s-5.21,1.07-7.07,2.93s-2.93,4.44-2.93,7.07s1.07,5.21,2.93,7.07
			c1.86,1.86,4.44,2.93,7.07,2.93s5.21-1.07,7.07-2.93s2.93-4.44,2.93-7.07S188.39,254.46,186.53,252.6z"/>
	</g>
</g>
<g>
	<g>
		<path d="M438,0.457c-40.804,0-74,33.196-74,74c0,40.804,33.196,74,74,74s74-33.196,74-74C512,33.653,478.804,0.457,438,0.457z
			 M473.577,115.03c-9.509,8.349-21.957,13.427-35.576,13.427c-13.622,0-26.071-5.08-35.581-13.43v-0.046
			c0-4.767,3.401-8.86,8.087-9.734l6.774-1.263c5.561,4.813,12.802,7.736,20.717,7.736c7.915,0,15.156-2.922,20.717-7.736
			l6.775,1.263c4.686,0.874,8.087,4.968,8.087,9.734V115.03z M426.294,80.015v-6.79c0-6.454,5.25-11.704,11.704-11.704
			c6.454,0,11.704,5.25,11.704,11.704v6.79c0,6.454-5.25,11.704-11.704,11.704C431.544,91.719,426.294,86.468,426.294,80.015z
			 M487.238,96.586c-4.355-5.577-10.666-9.605-18.038-10.992c0.323-1.813,0.502-3.675,0.502-5.58v-6.79
			c0-17.482-14.222-31.704-31.704-31.704c-17.482,0-31.704,14.222-31.704,31.704v6.79c0,1.904,0.178,3.767,0.502,5.58
			c-7.37,1.386-13.681,5.414-18.035,10.988C385.712,89.825,384,82.339,384,74.457c0-29.776,24.224-54,54-54s54,24.224,54,54
			C492,82.341,490.288,89.828,487.238,96.586z"/>
	</g>
</g>
<g>
	<g>
		<path d="M337.837,323.543c-22.289,0-42.786,7.803-58.916,20.814l-67.833-67.37c-3.919-3.893-10.25-3.871-14.142,0.048
			c-3.892,3.918-3.87,10.25,0.048,14.142l67.77,67.308c-13.079,16.152-20.928,36.704-20.928,59.058c0,51.832,42.168,94,94,94
			s94-42.168,94-94C431.836,365.711,389.669,323.543,337.837,323.543z M387.657,472.212c-13.158,12.002-30.648,19.331-49.819,19.331
			c-19.174,0-36.665-7.332-49.824-19.336v-1.476c0-7.761,5.537-14.426,13.166-15.849l10.402-1.94
			c6.882,6.433,16.113,10.382,26.254,10.382s19.372-3.949,26.253-10.382l10.401,1.94c7.629,1.423,13.167,8.088,13.167,15.849
			V472.212z M319.349,424.837v-8.912c0-10.193,8.293-18.486,18.486-18.486s18.486,8.293,18.486,18.486v8.912
			c0,10.193-8.293,18.486-18.486,18.486S319.349,435.03,319.349,424.837z M402.886,452.798c-5.128-8.952-14.005-15.577-24.73-17.578
			l-3.105-0.579c0.826-3.132,1.27-6.417,1.27-9.804v-8.912c0-21.222-17.265-38.486-38.486-38.486s-38.486,17.265-38.486,38.486
			v8.912c0,3.387,0.444,6.672,1.27,9.804l-3.106,0.579c-10.722,2-19.598,8.623-24.727,17.573
			c-5.705-10.486-8.949-22.497-8.949-35.251c0-40.804,33.196-74,74-74s74,33.196,74,74
			C411.837,430.299,408.593,442.311,402.886,452.798z"/>
	</g>
</g>
<g>
	<g>
		<path d="M305.376,113.373c-1.474-5.322-6.984-8.442-12.307-6.966l-111.667,30.945C167.593,102.591,133.621,77.95,94,77.95
			c-51.832,0-94,42.168-94,94c0,51.832,42.168,94,94,94c51.832,0,94-42.168,94-94c0-5.218-0.434-10.336-1.256-15.325L298.41,125.68
			C303.732,124.205,306.851,118.695,305.376,113.373z M143.819,226.619C130.66,238.62,113.171,245.95,94,245.95
			c-19.173,0-36.665-7.332-49.824-19.336v-1.476c0-7.761,5.537-14.426,13.166-15.849l10.402-1.94
			c6.882,6.433,16.113,10.381,26.254,10.381s19.372-3.949,26.253-10.381l10.402,1.94c7.629,1.423,13.166,8.088,13.166,15.849
			V226.619z M75.512,179.245v-8.912c0-10.193,8.293-18.486,18.486-18.486s18.486,8.293,18.486,18.486v8.912
			c0,10.193-8.293,18.486-18.486,18.486S75.512,189.439,75.512,179.245z M159.049,207.205c-5.128-8.952-14.005-15.577-24.73-17.577
			l-3.105-0.579c0.826-3.132,1.27-6.417,1.27-9.804v-8.912c0-21.221-17.265-38.486-38.486-38.486
			c-21.221,0-38.486,17.265-38.486,38.486v8.912c0,3.387,0.444,6.672,1.27,9.804l-3.106,0.579c-10.722,2-19.598,8.622-24.727,17.573
			C23.243,196.714,20,184.704,20,171.95c0-40.804,33.196-74,74-74s74,33.196,74,74C168,184.706,164.755,196.718,159.049,207.205z"/>
	</g>
</g>
<g>
</g>
<g>
</g>
<g>
</g>
<g>
</g>
<g>
</g>
<g>
</g>
<g>
</g>
<g>
</g>
<g>
</g>
<g>
</g>
<g>
</g>
<g>
</g>
<g>
</g>
<g>
</g>
<g>
</g>
</svg>
