<svg height="511pt" viewBox="0 0 511.99799 511" width="511pt" xmlns="http://www.w3.org/2000/svg"><path d="m461.753906.5h-411.507812c-27.707032 0-50.246094 22.542969-50.246094 50.257812v267.648438c0 27.957031 22.746094 50.703125 50.703125 50.703125h109.183594l-10.097657 42.296875h-21.027343c-21.847657 0-39.621094 17.773438-39.621094 39.621094v13.65625c0 4.199218 3.402344 7.605468 7.601563 7.605468h74.394531l-3.320313 31.128907c-.230468 2.144531.464844 4.289062 1.90625 5.890625 1.441406 1.605468 3.496094 2.523437 5.652344 2.523437l303.917969-.003906c2.152343 0 4.207031-.910156 5.648437-2.511719 1.441406-1.597656 2.136719-3.734375 1.914063-5.875l-5.796875-55.785156c-.433594-4.175781-4.160156-7.214844-8.347656-6.777344-4.175782.433594-7.210938 4.171875-6.777344 8.347656l4.925781 47.394532h-111.652344l-17.246093-161.566406c-.410157-3.867188-3.671876-6.796876-7.558594-6.796876h-83.816406l6.78125-65.238281h32.257812v16.722657c0 4.199218 3.40625 7.605468 7.605469 7.605468s7.605469-3.40625 7.605469-7.605468v-16.722657h94.28125v16.722657c0 4.199218 3.402343 7.605468 7.605468 7.605468 4.199219 0 7.601563-3.40625 7.601563-7.605468v-16.722657h32.257812l16.675781 160.476563c.40625 3.910156 3.707032 6.816406 7.554688 6.816406.261719 0 .527344-.011719.792969-.039062 4.179687-.433594 7.210937-4.171876 6.777343-8.351563l-5.625-54.132813c22.535157-5.25 39.238282-25.601562 39.238282-49.382812v-267.648438c.003906-27.714843-22.539063-50.257812-50.242188-50.257812zm-286.234375 368.609375h6.628907l-4.511719 42.296875h-12.214844zm-71.171875 87.972656v-6.054687c0-13.460938 10.949219-24.414063 24.414063-24.414063h47.25l-3.25 30.46875zm239.5625 39.539063h-160.074218l16.347656-153.15625h127.378906zm-39.074218-248.8125v-18.246094c0-25.992188 21.144531-47.140625 47.140624-47.140625 25.992188 0 47.140626 21.148437 47.140626 47.140625v18.246094zm109.492187 0v-18.246094c0-34.378906-27.972656-62.347656-62.351563-62.347656-34.378906 0-62.347656 27.96875-62.347656 62.347656v18.246094h-39.113281c-3.894531 0-7.160156 2.945312-7.5625 6.820312l-5.3125 51.09375h-131.054687c-4.199219 0-7.601563 3.402344-7.601563 7.601563s3.402344 7.605469 7.601563 7.605469h129.472656l-.761719 7.328124h-41.949219c-3.886718 0-7.148437 2.929688-7.5625 6.796876l-2.011718 18.847656h-133.070313c-18.71875 0-34.09375-14.574219-35.394531-32.96875h65.929687c4.199219 0 7.601563-3.402344 7.601563-7.601563s-3.402344-7.605469-7.601563-7.605469h-66.03125v-254.96875c0-19.328124 15.71875-35.050781 35.039063-35.050781h411.507812c19.320313 0 35.039063 15.722657 35.039063 35.050781v254.964844h-30.480469l-5.308594-51.09375c-.402344-3.875-3.667968-6.820312-7.5625-6.820312zm56.84375 104.6875-3.28125-31.566406h28.800781c-1.066406 14.90625-11.476562 27.476562-25.519531 31.566406zm0 0"/><path d="m241.007812 94.835938h-61.460937v-22.8125c0-13.695313-11.144531-24.839844-24.839844-24.839844-13.695312 0-24.839843 11.144531-24.839843 24.839844v22.8125h-61.460938c-9.996094 0-18.128906 8.132812-18.128906 18.125v12.410156c0 8.019531 5.242187 14.828125 12.472656 17.214844l10.414062 79.355468c2.019532 15.394532 15.25 27 30.773438 27h101.539062c15.523438 0 28.75-11.605468 30.773438-27l10.414062-79.355468c7.230469-2.382813 12.472657-9.195313 12.472657-17.214844v-12.410156c-.003907-9.992188-8.136719-18.125-18.128907-18.125zm0 15.207031c1.609376 0 2.917969 1.308593 2.917969 2.917969v12.410156c0 1.609375-1.308593 2.921875-2.917969 2.921875h-61.460937v-18.25zm-95.933593-38.019531c0-5.3125 4.320312-9.632813 9.632812-9.632813 5.308594 0 9.628907 4.320313 9.628907 9.632813v82.121093c0 5.3125-4.320313 9.632813-9.628907 9.632813-5.3125 0-9.632812-4.320313-9.632812-9.632813zm-79.589844 40.9375c0-1.609376 1.3125-2.917969 2.921875-2.917969h61.460938v18.25h-61.460938c-1.609375 0-2.921875-1.3125-2.921875-2.921875zm155.683594 107.003906c-1.027344 7.847656-7.777344 13.769531-15.691407 13.769531h-101.539062c-7.917969 0-14.664062-5.921875-15.695312-13.769531l-10.03125-76.464844h51.65625v10.644531c0 13.699219 11.144531 24.839844 24.839843 24.839844 13.699219 0 24.839844-11.140625 24.839844-24.839844v-10.644531h51.660156zm0 0"/><path d="m238.78125 399.257812v-32.695312c0-4.199219-3.402344-7.601562-7.601562-7.601562-4.199219 0-7.605469 3.402343-7.605469 7.601562v32.695312c0 22.222657 18.078125 40.300782 40.300781 40.300782 22.21875 0 40.296875-18.078125 40.296875-40.300782v-32.695312c0-4.199219-3.402344-7.601562-7.601563-7.601562-4.199218 0-7.605468 3.402343-7.605468 7.601562v32.695312c0 13.835938-11.253906 25.09375-25.089844 25.09375s-25.09375-11.257812-25.09375-25.09375zm0 0"/><path d="m327.878906 77.742188h-32.445312c-4.199219 0-7.601563 3.40625-7.601563 7.605468 0 4.199219 3.402344 7.601563 7.601563 7.601563h32.445312c4.199219 0 7.601563-3.402344 7.601563-7.601563 0-4.199218-3.402344-7.605468-7.601563-7.605468zm0 0"/><path d="m361.335938 92.949219h105.441406c4.199218 0 7.601562-3.402344 7.601562-7.601563 0-4.199218-3.402344-7.605468-7.601562-7.605468h-105.441406c-4.203126 0-7.605469 3.40625-7.605469 7.605468 0 4.199219 3.402343 7.601563 7.605469 7.601563zm0 0"/><path d="m327.878906 113.230469h-32.445312c-4.199219 0-7.601563 3.402343-7.601563 7.601562s3.402344 7.605469 7.601563 7.605469h32.445312c4.199219 0 7.601563-3.40625 7.601563-7.605469s-3.402344-7.601562-7.601563-7.601562zm0 0"/><path d="m474.378906 120.832031c0-4.199219-3.402344-7.601562-7.601562-7.601562h-105.441406c-4.203126 0-7.605469 3.402343-7.605469 7.601562s3.402343 7.605469 7.605469 7.605469h105.441406c4.199218 0 7.601562-3.40625 7.601562-7.605469zm0 0"/></svg>