<svg height="511pt" viewBox="1 -39 511.99998 511" width="511pt" xmlns="http://www.w3.org/2000/svg"><path d="m50.027344 36.5625c-1.210938-2.863281-4.074219-4.761719-7.195313-4.679688-3.113281.078126-5.90625 2.101563-6.957031 5.027344-2.378906 6.605469 5.132812 12.6875 11.105469 9.035156 3.132812-1.917968 4.476562-5.988281 3.046875-9.382812zm0 0"/><path d="m101.648438 36.5625c-1.210938-2.863281-4.074219-4.761719-7.195313-4.679688-3.113281.078126-5.90625 2.101563-6.960937 5.027344-2.375 6.609375 5.132812 12.675782 11.109374 9.035156 3.128907-1.910156 4.472657-5.996093 3.046876-9.382812zm0 0"/><path d="m75.835938 36.5625c-1.207032-2.863281-4.074219-4.761719-7.195313-4.679688-3.109375.078126-5.90625 2.101563-6.957031 5.027344-2.375 6.605469 5.132812 12.6875 11.109375 9.035156 3.132812-1.917968 4.476562-5.988281 3.042969-9.382812zm0 0"/><path d="m378.421875 149.882812-49.917969-26.964843c-1.109375-.597657-2.347656-.910157-3.609375-.910157h-137.789062c-1.261719 0-2.5.3125-3.605469.910157l-49.921875 26.964843c-1.769531.957032-3.089844 2.578126-3.664063 4.507813-.578124 1.929687-.363281 4.007813.59375 5.78125l26.964844 49.917969c1.992188 3.6875 6.597656 5.066406 10.289063 3.070312l11.753906-6.347656v84.890625c0 4.191406 3.398437 7.589844 7.589844 7.589844h137.789062c4.191407 0 7.589844-3.398438 7.589844-7.589844v-44.625c0-4.191406-3.398437-7.589844-7.589844-7.589844-4.191406 0-7.589843 3.398438-7.589843 7.589844v37.03125h-122.609376v-90.027344c0-2.671875-1.40625-5.148437-3.699218-6.519531-2.300782-1.367188-5.148438-1.425781-7.496094-.160156l-16.277344 8.792968-19.75-36.5625 41.550782-22.441406h12.640624c3.707032 26.675782 26.652344 47.285156 54.335938 47.285156s50.628906-20.609374 54.335938-47.285156h12.640624l41.550782 22.441406-19.75 36.5625-16.277344-8.792968c-2.351562-1.269532-5.199219-1.207032-7.496094.160156-2.296875 1.371094-3.699218 3.847656-3.699218 6.519531v27.691407c0 4.191406 3.398437 7.589843 7.589843 7.589843 4.191407 0 7.589844-3.398437 7.589844-7.589843v-14.960938l11.757813 6.347656c3.6875 1.992188 8.292968.621094 10.285156-3.070312l26.964844-49.917969c.957031-1.773437 1.171874-3.851563.597656-5.78125-.578125-1.929687-1.898438-3.550781-3.667969-4.507813zm-122.421875 19.414063c-19.292969 0-35.40625-13.839844-38.957031-32.105469h77.914062c-3.550781 18.265625-19.664062 32.105469-38.957031 32.105469zm0 0"/><path d="m477.65625.5h-443.3125c-18.9375 0-34.34375 15.40625-34.34375 34.34375v364.523438c0 18.9375 15.40625 34.34375 34.34375 34.34375h18.765625c4.191406 0 7.589844-3.398438 7.589844-7.589844 0-4.195313-3.398438-7.59375-7.589844-7.59375h-18.765625c-10.566406 0-19.160156-8.59375-19.160156-19.160156v-100.074219h46.539062c4.191406 0 7.589844-3.398438 7.589844-7.589844v-84.894531l11.757812 6.347656c3.691407 1.992188 8.296876.617188 10.289063-3.070312l26.964844-49.921876c.953125-1.769531 1.167969-3.847656.59375-5.777343-.578125-1.929688-1.894531-3.550781-3.667969-4.507813l-49.917969-26.964844c-1.109375-.597656-2.351562-.914062-3.609375-.914062h-46.539062v-47.613281h481.632812v47.613281h-46.542968c-1.257813 0-2.496094.316406-3.605469.914062l-49.921875 26.964844c-3.6875 1.992188-5.0625 6.597656-3.070313 10.285156l26.964844 49.921876c1.992187 3.6875 6.597656 5.0625 10.289063 3.070312l11.753906-6.347656v84.894531c0 4.191406 3.398437 7.589844 7.59375 7.589844h46.542968v100.074219c0 10.566406-8.597656 19.160156-19.164062 19.160156h-399.242188c-4.191406 0-7.589843 3.398437-7.589843 7.59375 0 4.191406 3.398437 7.589844 7.589843 7.589844h399.242188c18.9375 0 34.34375-15.40625 34.34375-34.34375v-364.523438c0-18.9375-15.40625-34.34375-34.34375-34.34375zm-376.300781 159.128906-19.75 36.5625-16.277344-8.792968c-2.351563-1.269532-5.199219-1.207032-7.496094.160156-2.296875 1.371094-3.703125 3.847656-3.703125 6.519531v90.035156h-38.945312v-104.390625c17.355468-7.71875 29.402344-23.8125 31.988281-42.539062h12.632813zm-69.5625-22.445312c-1.992188 10.328125-7.992188 19.386718-16.609375 25.242187v-25.242187zm-16.609375-77.976563v-24.363281c0-10.566406 8.59375-19.160156 19.160156-19.160156h443.3125c10.566406 0 19.160156 8.59375 19.160156 19.160156v24.363281zm481.632812 103.222657c-8.617187-5.859376-14.617187-14.917969-16.613281-25.246094h16.613281zm-38.949218 121.683593v-90.035156c0-2.671875-1.40625-5.148437-3.703126-6.519531-2.296874-1.367188-5.144531-1.429688-7.496093-.160156l-16.277344 8.792968-19.75-36.5625 41.554687-22.445312h12.628907c2.585937 18.726562 14.636719 34.824218 31.992187 42.539062v104.390625zm0 0"/><path d="m283.832031 356.390625c0 4.195313 3.402344 7.59375 7.59375 7.59375h145.644531l-11.054687 11.054687c-2.964844 2.964844-2.964844 7.769532 0 10.734376 1.480469 1.484374 3.425781 2.222656 5.367187 2.222656 1.941407 0 3.886719-.738282 5.367188-2.222656l24.015625-24.015626c1.425781-1.421874 2.222656-3.351562 2.222656-5.367187 0-2.011719-.796875-3.941406-2.222656-5.367187l-24.015625-24.011719c-2.964844-2.964844-7.769531-2.964844-10.734375 0-2.964844 2.964843-2.964844 7.769531 0 10.734375l11.054687 11.054687h-145.644531c-4.191406 0-7.59375 3.398438-7.59375 7.589844zm0 0"/><path d="m85.984375 327.011719c-2.964844-2.964844-7.769531-2.964844-10.734375 0l-24.015625 24.015625c-1.421875 1.421875-2.222656 3.351562-2.222656 5.367187 0 2.011719.800781 3.941407 2.222656 5.367188l24.015625 24.011719c1.480469 1.484374 3.425781 2.226562 5.367188 2.226562 1.941406 0 3.886718-.742188 5.367187-2.226562 2.964844-2.964844 2.964844-7.769532 0-10.734376l-11.054687-11.054687h145.644531c4.191406 0 7.589843-3.398437 7.589843-7.589844 0-4.195312-3.398437-7.59375-7.589843-7.59375h-145.644531l11.054687-11.054687c2.964844-2.964844 2.964844-7.773438 0-10.734375zm0 0"/><path d="m204.835938 382.203125c-4.191407 0-7.589844 3.398437-7.589844 7.589844 0 4.191406 3.398437 7.59375 7.589844 7.59375h102.328124c4.191407 0 7.589844-3.402344 7.589844-7.59375 0-4.191407-3.398437-7.589844-7.589844-7.589844zm0 0"/></svg>