<?xml version="1.0" encoding="utf-8"?>
<!-- Generator: Adobe Illustrator 23.0.1, SVG Export Plug-In . SVG Version: 6.00 Build 0)  -->
<svg version="1.1" id="Layer_1" xmlns="http://www.w3.org/2000/svg" xmlns:xlink="http://www.w3.org/1999/xlink" x="0px" y="0px"
	 viewBox="0 0 233.8 235.9" style="enable-background:new 0 0 233.8 235.9;" xml:space="preserve">
<g>
	<path d="M25.6,0C11.5,0,0,11.5,0,25.6c0,2.6,2.1,4.8,4.8,4.8c2.6,0,4.8-2.1,4.8-4.8c0-8.8,7.2-16,16-16c8.8,0,16,7.2,16,16
		c0,8.8-7.2,16-16,16c-2.7,0-4.8,2.1-4.8,4.8c0,2.6,2.1,4.8,4.8,4.8c14.1,0,25.6-11.5,25.6-25.6C51.2,11.5,39.7,0,25.6,0L25.6,0z
		 M25.6,0"/>
	<path d="M116.9,0c-14.1,0-25.6,11.5-25.6,25.6c0,14.1,11.5,25.6,25.6,25.6c14.1,0,25.6-11.5,25.6-25.6C142.5,11.5,131,0,116.9,0
		L116.9,0z M116.9,41.6c-8.8,0-16-7.2-16-16c0-8.8,7.2-16,16-16c8.8,0,16,7.2,16,16C132.9,34.4,125.7,41.6,116.9,41.6L116.9,41.6z
		 M116.9,41.6"/>
	<path d="M208.2,51.2c14.1,0,25.6-11.5,25.6-25.6c0-14.1-11.5-25.6-25.6-25.6c-14.1,0-25.6,11.5-25.6,25.6
		C182.6,39.7,194,51.2,208.2,51.2L208.2,51.2z M208.2,9.6c8.8,0,16,7.2,16,16c0,8.8-7.2,16-16,16s-16-7.2-16-16
		C192.2,16.8,199.3,9.6,208.2,9.6L208.2,9.6z M208.2,9.6"/>
	<path d="M25.6,92.3C11.5,92.3,0,103.8,0,117.9c0,14.1,11.5,25.6,25.6,25.6c14.1,0,25.6-11.5,25.6-25.6
		C51.2,103.8,39.7,92.3,25.6,92.3L25.6,92.3z M25.6,133.9c-8.8,0-16-7.2-16-16c0-8.8,7.2-16,16-16c8.8,0,16,7.2,16,16
		C41.6,126.8,34.4,133.9,25.6,133.9L25.6,133.9z M25.6,133.9"/>
	<path d="M137.7,113.1c-2.7,0-4.8,2.1-4.8,4.8c0,8.8-7.2,16-16,16c-8.8,0-16-7.2-16-16c0-8.8,7.2-16,16-16c2.6,0,4.8-2.2,4.8-4.8
		c0-2.7-2.2-4.8-4.8-4.8c-14.1,0-25.6,11.5-25.6,25.6c0,14.1,11.5,25.6,25.6,25.6c14.1,0,25.6-11.5,25.6-25.6
		C142.5,115.3,140.3,113.1,137.7,113.1L137.7,113.1z M137.7,113.1"/>
	<path d="M208.2,92.3c-14.1,0-25.6,11.5-25.6,25.6c0,14.1,11.5,25.6,25.6,25.6c14.1,0,25.6-11.5,25.6-25.6
		C233.8,103.8,222.3,92.3,208.2,92.3L208.2,92.3z M208.2,133.9c-8.8,0-16-7.2-16-16c0-8.8,7.2-16,16-16s16,7.2,16,16
		C224.2,126.8,217,133.9,208.2,133.9L208.2,133.9z M208.2,133.9"/>
	<path d="M25.6,184.7C11.5,184.7,0,196.2,0,210.3c0,14.1,11.5,25.6,25.6,25.6c14.1,0,25.6-11.5,25.6-25.6
		C51.2,196.2,39.7,184.7,25.6,184.7L25.6,184.7z M25.6,226.3c-8.8,0-16-7.2-16-16c0-8.8,7.2-16,16-16c8.8,0,16,7.2,16,16
		C41.6,219.1,34.4,226.3,25.6,226.3L25.6,226.3z M25.6,226.3"/>
	<path d="M116.9,184.7c-14.1,0-25.6,11.5-25.6,25.6c0,14.1,11.5,25.6,25.6,25.6c14.1,0,25.6-11.5,25.6-25.6
		C142.5,196.2,131,184.7,116.9,184.7L116.9,184.7z M116.9,226.3c-8.8,0-16-7.2-16-16c0-8.8,7.2-16,16-16c8.8,0,16,7.2,16,16
		C132.9,219.1,125.7,226.3,116.9,226.3L116.9,226.3z M116.9,226.3"/>
	<path d="M208.2,184.7c-14.1,0-25.6,11.5-25.6,25.6c0,14.1,11.5,25.6,25.6,25.6c14.1,0,25.6-11.5,25.6-25.6
		C233.8,196.2,222.3,184.7,208.2,184.7L208.2,184.7z M208.2,226.3c-8.8,0-16-7.2-16-16c0-8.8,7.2-16,16-16s16,7.2,16,16
		C224.2,219.1,217,226.3,208.2,226.3L208.2,226.3z M208.2,226.3"/>
</g>
</svg>
