<?xml version="1.0" encoding="iso-8859-1"?>
<!-- Generator: Adobe Illustrator 19.0.0, SVG Export Plug-In . SVG Version: 6.00 Build 0)  -->
<svg version="1.1" id="Capa_1" xmlns="http://www.w3.org/2000/svg" xmlns:xlink="http://www.w3.org/1999/xlink" x="0px" y="0px"
	 viewBox="0 0 480 480" style="enable-background:new 0 0 480 480;" xml:space="preserve">
<g>
	<g>
		<path d="M240,0C107.452,0,0,107.452,0,240s107.452,240,240,240s240-107.452,240-240C479.85,107.514,372.486,0.15,240,0z M240,464
			C116.288,464,16,363.712,16,240S116.288,16,240,16s224,100.288,224,224C463.859,363.653,363.653,463.859,240,464z"/>
	</g>
</g>
<g>
	<g>
		<path d="M240,32C125.125,32,32,125.125,32,240s93.125,208,208,208s208-93.125,208-208C447.872,125.178,354.822,32.128,240,32z
			 M240,432c-106.039,0-192-85.961-192-192S133.961,48,240,48s192,85.961,192,192C431.877,345.987,345.987,431.877,240,432z"/>
	</g>
</g>
<g>
	<g>
		<rect x="56" y="232" width="32" height="16"/>
	</g>
</g>
<g>
	<g>
		<rect x="392" y="232" width="32" height="16"/>
	</g>
</g>
<g>
	<g>
		<rect x="78.501" y="316.005" transform="matrix(0.8661 -0.4999 0.4999 0.8661 -149.3202 90.6366)" width="32" height="16"/>
	</g>
</g>
<g>
	<g>
		<rect x="369.491" y="147.988" transform="matrix(0.8661 -0.4999 0.4999 0.8661 -26.3534 213.606)" width="32" height="16"/>
	</g>
</g>
<g>
	<g>
		<rect x="86.503" y="140.002" transform="matrix(0.4999 -0.8661 0.8661 0.4999 -87.8498 159.8599)" width="16" height="32"/>
	</g>
</g>
<g>
	<g>
		<rect x="377.504" y="307.98" transform="matrix(0.4999 -0.8661 0.8661 0.4999 -87.8083 495.888)" width="16" height="32"/>
	</g>
</g>
<g>
	<g>
		<rect x="147.967" y="78.502" transform="matrix(0.8661 -0.4999 0.4999 0.8661 -26.355 90.6278)" width="16" height="32"/>
	</g>
</g>
<g>
	<g>
		<rect x="232" y="56" width="16" height="32"/>
	</g>
</g>
<g>
	<g>
		<rect x="307.997" y="86.507" transform="matrix(0.4999 -0.8661 0.8661 0.4999 80.1741 327.8656)" width="32" height="16"/>
	</g>
</g>
<g>
	<g>
		<rect x="65.861" y="183.477" transform="matrix(0.2588 -0.9659 0.9659 0.2588 -134.0715 216.2285)" width="16" height="24"/>
	</g>
</g>
<g>
	<g>
		<rect x="398.1" y="272.496" transform="matrix(0.2588 -0.9659 0.9659 0.2588 26.191 603.1256)" width="16" height="24"/>
	</g>
</g>
<g>
	<g>
		<rect x="110.381" y="106.376" transform="matrix(0.7071 -0.7071 0.7071 0.7071 -49.0314 118.3792)" width="16" height="24"/>
	</g>
</g>
<g>
	<g>
		<rect x="187.453" y="61.867" transform="matrix(0.9659 -0.2588 0.2588 0.9659 -12.4583 53.1039)" width="16" height="24"/>
	</g>
</g>
<g>
	<g>
		<rect x="272.509" y="65.904" transform="matrix(0.2588 -0.9659 0.9659 0.2588 139.4867 329.5905)" width="24" height="16"/>
	</g>
</g>
<g>
	<g>
		<rect x="349.624" y="110.397" transform="matrix(0.7071 -0.7071 0.7071 0.7071 22.1981 290.3847)" width="24" height="16"/>
	</g>
</g>
<g>
	<g>
		<rect x="394.192" y="187.475" transform="matrix(0.9659 -0.2588 0.2588 0.9659 -36.7521 111.7907)" width="24" height="16"/>
	</g>
</g>
<g>
	<g>
		<rect x="61.863" y="276.519" transform="matrix(0.9659 -0.2588 0.2588 0.9659 -71.1225 28.8121)" width="24" height="16"/>
	</g>
</g>
<g>
	<g>
		<path d="M273.943,108.367c-72.737-18.735-146.889,25.041-165.625,97.777c-8.876,34.46-3.893,71.027,13.882,101.855
			c2.324,3.757,7.255,4.919,11.012,2.594c3.598-2.226,4.841-6.869,2.836-10.594c-33.098-57.418-13.382-130.795,44.036-163.893
			c57.418-33.098,130.795-13.382,163.893,44.036c15.681,27.203,20.075,59.468,12.24,89.873c-1.105,4.281,1.471,8.647,5.752,9.752
			c4.281,1.105,8.647-1.471,9.752-5.752v-0.024C390.456,201.255,346.679,127.103,273.943,108.367z"/>
	</g>
</g>
<g>
	<g>
		<path d="M357.064,297.808l-88-72c-0.24-0.147-0.489-0.281-0.744-0.4c-8.031-15.689-27.259-21.897-42.947-13.866
			c-15.689,8.031-21.897,27.259-13.866,42.947c5.159,10.078,15.271,16.668,26.573,17.319l111.2,39.72
			c0.872,0.316,1.793,0.476,2.72,0.472c4.418-0.001,7.999-3.583,7.999-8.002C359.998,301.599,358.921,299.327,357.064,297.808z
			 M240,256c-8.837,0-16-7.163-16-16s7.163-16,16-16s16,7.163,16,16S248.837,256,240,256z M261.8,263.296
			c4.423-4.143,7.571-9.464,9.072-15.336l40.328,32.952L261.8,263.296z"/>
	</g>
</g>
<g>
	<g>
		<path d="M272,320h-64c-22.091,0-40,17.909-40,40c0,22.091,17.909,40,40,40h64c22.091,0,40-17.909,40-40
			C312,337.909,294.091,320,272,320z M272,384h-64c-13.255,0-24-10.745-24-24s10.745-24,24-24h64c13.255,0,24,10.745,24,24
			S285.255,384,272,384z"/>
	</g>
</g>
<g>
	<g>
		<path d="M224,352h-16c-4.418,0-8,3.582-8,8s3.582,8,8,8h16c4.418,0,8-3.582,8-8S228.418,352,224,352z"/>
	</g>
</g>
<g>
	<g>
		<path d="M272,352h-16c-4.418,0-8,3.582-8,8s3.582,8,8,8h16c4.418,0,8-3.582,8-8S276.418,352,272,352z"/>
	</g>
</g>
<g>
</g>
<g>
</g>
<g>
</g>
<g>
</g>
<g>
</g>
<g>
</g>
<g>
</g>
<g>
</g>
<g>
</g>
<g>
</g>
<g>
</g>
<g>
</g>
<g>
</g>
<g>
</g>
<g>
</g>
</svg>
