<?xml version="1.0"?>
<svg xmlns="http://www.w3.org/2000/svg" viewBox="0 0 64 64" width="512" height="512"><g id="Outline"><path d="M53,62a3,3,0,0,0,3-3V5a3,3,0,0,0-3-3H11A3,3,0,0,0,8,5V59a3,3,0,0,0,3,3Zm1-10H10V10H54ZM10,5a1,1,0,0,1,1-1H53a1,1,0,0,1,1,1V8H10Zm0,54V54H54v5a1,1,0,0,1-1,1H11A1,1,0,0,1,10,59Z"/><path d="M32.71,5.29a1.155,1.155,0,0,0-.33-.21.952.952,0,0,0-.76,0,.9.9,0,0,0-.54.54.943.943,0,0,0,0,.76,1.169,1.169,0,0,0,.21.33.99.99,0,0,0,1.09.21,1.155,1.155,0,0,0,.33-.21,1.169,1.169,0,0,0,.21-.33.942.942,0,0,0,0-.76A1.032,1.032,0,0,0,32.71,5.29Z"/><path d="M29,57a3,3,0,1,0,3-3A3,3,0,0,0,29,57Zm3-1a1,1,0,1,1-1,1A1,1,0,0,1,32,56Z"/><path d="M52,44H50V36H44v8H42V40H32v4H30V32H24V44H22V36H14v8H12v6H52Zm-6-6h2v6H46ZM34,42h6v2H34Zm-8-8h2V44H26ZM16,38h4v2H16Zm0,4h4v2H16Zm34,6H14V46H50Z"/><path d="M52,24H50V16H38v8H36V12H28V24H26V18H14v6H12v6H52ZM40,18h8v2H40Zm0,4h8v2H40ZM30,14h4V24H30ZM16,20h8v4H16Zm34,8H14V26H50Z"/></g></svg>
