<svg height="480pt" viewBox="0 0 480 480" width="480pt" xmlns="http://www.w3.org/2000/svg"><g fill="#231f20"><path d="m56 40c0 4.417969-3.582031 8-8 8s-8-3.582031-8-8 3.582031-8 8-8 8 3.582031 8 8zm0 0"/><path d="m88 40c0 4.417969-3.582031 8-8 8s-8-3.582031-8-8 3.582031-8 8-8 8 3.582031 8 8zm0 0"/><path d="m120 40c0 4.417969-3.582031 8-8 8s-8-3.582031-8-8 3.582031-8 8-8 8 3.582031 8 8zm0 0"/><path d="m168 32c-4.417969 0-8 3.582031-8 8s3.582031 8 8 8h200c4.417969 0 8-3.582031 8-8s-3.582031-8-8-8zm0 0"/><path d="m280 392h-264v-312h352c4.417969 0 8-3.582031 8-8s-3.582031-8-8-8h-352v-48h376v150.398438c0 4.417968 3.582031 8 8 8s8-3.582032 8-8v-158.398438c0-4.417969-3.582031-8-8-8h-392c-4.417969 0-8 3.582031-8 8v392c0 4.417969 3.582031 8 8 8h272c4.417969 0 8-3.582031 8-8s-3.582031-8-8-8zm0 0"/><path d="m476.960938 257.761719-80-64c-2.910157-2.300781-7.011719-2.300781-9.921876 0l-10.480468 8.398437c-2.953125 2.359375-3.855469 6.460938-2.160156 9.839844v.640625c2.128906 3.636719 6.710937 5 10.480468 3.121094 1.101563-.550781 2.058594-1.34375 2.800782-2.320313l4-3.203125 72 57.601563v196.160156h-143.679688v-196.160156l16-12.558594c2.332031-1.753906 3.527344-4.636719 3.113281-7.527344-.410156-2.886718-2.359375-5.324218-5.089843-6.355468-2.730469-1.03125-5.804688-.492188-8.023438 1.402343l-18.640625 14.960938c-2.03125 1.441406-3.273437 3.75-3.359375 6.238281v208c0 4.417969 3.582031 8 8 8h160c4.417969 0 8-3.582031 8-8v-208c-.011719-2.433594-1.128906-4.730469-3.039062-6.238281zm0 0"/><path d="m344 432c0 4.417969 3.582031 8 8 8h80c4.417969 0 8-3.582031 8-8s-3.582031-8-8-8h-80c-4.417969 0-8 3.582031-8 8zm0 0"/><path d="m416 408c4.417969 0 8-3.582031 8-8s-3.582031-8-8-8h-48c-4.417969 0-8 3.582031-8 8s3.582031 8 8 8zm0 0"/><path d="m322.800781 210.800781c10.019531 1.484375 18.742188 7.628907 23.519531 16.558594l20.238282 38c-14.886719 12.496094-18.636719 33.886719-8.890625 50.703125 9.75 16.8125 30.175781 24.1875 48.417969 17.476562 18.242187-6.710937 29.019531-25.566406 25.542968-44.691406-3.472656-19.121094-20.191406-32.980468-39.628906-32.847656-3.832031.039062-7.636719.660156-11.28125 1.839844l-20.238281-38c-7.152344-13.429688-20.25-22.671875-35.296875-24.910156-15.050782-2.238282-30.269532 2.789062-41.023438 13.550781l-6.398437 6.398437c-9.355469 9.363282-23.503907 12-35.601563 6.640625l-6.960937-3.121093-3.199219-35.117188c-.375-4.136719-3.847656-7.296875-8-7.28125h-24v-24c0-26.507812-21.492188-48-48-48s-48 21.492188-48 48v24h-24c-4.152344-.015625-7.625 3.144531-8 7.28125l-16 176c-.203125 2.242188.550781 4.46875 2.074219 6.128906 1.519531 1.65625 3.671875 2.597656 5.925781 2.589844h176c2.253906.007812 4.40625-.933594 5.925781-2.589844 1.523438-1.660156 2.277344-3.886718 2.074219-6.128906l-11.199219-122.722656c17.921875 7.457031 38.570313 3.382812 52.320313-10.320313l6.398437-6.398437c7.105469-7.234375 17.261719-10.601563 27.28125-9.039063zm69.199219 61.199219c11.34375-.097656 21.207031 7.757812 23.648438 18.835938 2.4375 11.078124-3.210938 22.351562-13.546876 27.027343-10.332031 4.679688-22.53125 1.480469-29.242187-7.667969-6.710937-9.144531-6.101563-21.738281 1.460937-30.195312l10.640626 19.839844c1.222656 2.726562 3.867187 4.542968 6.851562 4.710937s5.8125-1.34375 7.332031-3.917969c1.523438-2.570312 1.480469-5.777343-.105469-8.3125l-10.558593-20.320312c1.171875-.082031 2.347656-.082031 3.519531 0zm-272-120c0-17.671875 14.328125-32 32-32s32 14.328125 32 32v24h-64zm-47.199219 200 14.480469-160h16.71875v32c0 4.417969 3.582031 8 8 8s8-3.582031 8-8v-32h64v32c0 4.417969 3.582031 8 8 8s8-3.582031 8-8v-32h16.71875l14.480469 160zm0 0"/><path d="m184 280c-4.417969 0-8 3.582031-8 8 0 13.253906-10.746094 24-24 24s-24-10.746094-24-24 10.746094-24 24-24c4.417969 0 8-3.582031 8-8s-3.582031-8-8-8c-22.089844 0-40 17.910156-40 40s17.910156 40 40 40 40-17.910156 40-40c0-4.417969-3.582031-8-8-8zm0 0"/><path d="m352 112h-64c-4.417969 0-8 3.582031-8 8s3.582031 8 8 8h64c4.417969 0 8-3.582031 8-8s-3.582031-8-8-8zm0 0"/><path d="m352 144h-40c-4.417969 0-8 3.582031-8 8s3.582031 8 8 8h40c4.417969 0 8-3.582031 8-8s-3.582031-8-8-8zm0 0"/><path d="m64 104h-24c-4.417969 0-8 3.582031-8 8s3.582031 8 8 8h24c4.417969 0 8-3.582031 8-8s-3.582031-8-8-8zm0 0"/><path d="m64 136h-24c-4.417969 0-8 3.582031-8 8s3.582031 8 8 8h24c4.417969 0 8-3.582031 8-8s-3.582031-8-8-8zm0 0"/></g></svg>