<?xml version="1.0" encoding="iso-8859-1"?>
<!-- Generator: Adobe Illustrator 19.0.0, SVG Export Plug-In . SVG Version: 6.00 Build 0)  -->
<svg version="1.1" id="Layer_1" xmlns="http://www.w3.org/2000/svg" xmlns:xlink="http://www.w3.org/1999/xlink" x="0px" y="0px"
	 viewBox="0 0 512 512" style="enable-background:new 0 0 512 512;" xml:space="preserve">
<g transform="translate(1 1)">
	<g>
		<g>
			<path d="M255,84.333c-5.12,0-8.533,3.413-8.533,8.533v98.987l-19.627-19.627c-3.413-3.413-8.533-3.413-11.947,0
				s-3.413,8.533,0,11.947l32.673,32.673c1.395,2.509,4.034,4.02,7.434,4.02s6.038-1.511,7.434-4.02l32.673-32.673
				c3.413-3.413,3.413-8.533,0-11.947s-8.533-3.413-11.947,0l-19.627,19.627V92.867C263.533,87.747,260.12,84.333,255,84.333z"/>
			<path d="M212.333,246.467h-25.6V152.6h25.6c5.12,0,8.533-3.413,8.533-8.533c0-5.12-3.413-8.533-8.533-8.533H178.2
				c-5.12,0-8.533,3.413-8.533,8.533V255c0,5.12,3.413,8.533,8.533,8.533h34.133c5.12,0,8.533-3.413,8.533-8.533
				S217.453,246.467,212.333,246.467z"/>
			<path d="M331.8,195.267c5.12,0,8.533-3.413,8.533-8.533v-42.667c0-5.12-3.413-8.533-8.533-8.533h-34.133
				c-5.12,0-8.533,3.413-8.533,8.533c0,5.12,3.413,8.533,8.533,8.533h25.6v34.133C323.267,191.853,326.68,195.267,331.8,195.267z"/>
			<path d="M195.267,357.4H46.787c-14.507,0-30.72-10.24-30.72-25.6V45.933c0-15.36,15.36-29.867,30.72-29.867h417.28
				c15.36,0,29.867,14.507,29.867,29.867v243.2c0,5.12,3.413,8.533,8.533,8.533s8.533-3.413,8.533-8.533v-243.2
				C511,21.187,488.813-1,464.067-1H46.787C22.04-1-1,21.187-1,45.933V331.8c0,26.453,24.747,42.667,47.787,42.667h148.48
				c5.12,0,8.533-3.413,8.533-8.533S200.387,357.4,195.267,357.4z"/>
			<path d="M508.44,342.893l-94.72-98.133c-21.333-20.48-49.493-32.427-78.507-32.427c-29.013,0-58.027,11.093-78.507,32.427
				c-20.48,21.333-32.427,48.64-32.427,78.507c0,29.867,11.093,57.173,32.427,78.507L368.493,508.44
				c1.707,1.707,4.267,2.56,5.973,2.56c2.56,0,4.267-0.853,5.12-2.56c3.413-3.413,3.413-8.533,0-11.947L268.653,389.827
				c-17.92-17.92-27.307-40.96-27.307-66.56c0-25.6,9.387-48.64,27.307-66.56c17.92-17.92,40.96-27.307,66.56-27.307
				c25.6,0,48.64,9.387,66.56,27.307l94.72,98.133c3.413,3.413,8.533,3.413,11.947,0S511.853,346.307,508.44,342.893z"/>
			<path d="M388.973,268.653c-29.867-29.867-78.507-29.867-108.373,0c-29.867,29.867-29.867,78.507,0,108.373l35.84,35.84
				c5.973,5.12,12.8,8.533,20.48,8.533c0.853,0,1.707,0,1.707,0c50.347-3.413,91.307-44.373,94.72-94.72
				c0-8.533-2.56-16.213-8.533-22.187L388.973,268.653z M293.4,365.933c-23.893-23.893-23.893-61.44,0-85.333
				c23.04-23.04,61.44-23.04,84.48,0l34.404,35.223c-3.807,1.854-8.01,3.634-12.217,5.737c-13.653,6.827-29.013,13.653-40.96,25.6
				c-11.947,12.8-20.48,29.013-27.307,43.52c-1.214,3.237-2.623,6.468-4.13,9.523L293.4,365.933z M343.69,404.7
				c0.935-2.097,1.821-4.217,2.617-6.34c6.827-14.507,14.507-29.013,24.747-39.253c10.24-10.24,23.04-16.213,35.84-22.187
				c3.207-1.203,6.413-2.601,9.62-4.18C411.427,370.075,381.153,400.064,343.69,404.7z"/>
		</g>
	</g>
</g>
<g>
</g>
<g>
</g>
<g>
</g>
<g>
</g>
<g>
</g>
<g>
</g>
<g>
</g>
<g>
</g>
<g>
</g>
<g>
</g>
<g>
</g>
<g>
</g>
<g>
</g>
<g>
</g>
<g>
</g>
</svg>
