<?xml version="1.0"?>
<svg xmlns="http://www.w3.org/2000/svg" viewBox="0 0 64 64" width="512" height="512"><title>Layout-template-page-templates-web</title><g id="Expand"><path d="M7,58H20a4,4,0,0,0,4,4H54a4,4,0,0,0,4-4V27a4,4,0,0,0-4-4H44V16h5a1,1,0,0,0,1-1V10a4,4,0,0,0-4-4H10a4,4,0,0,0-4,4V57A1,1,0,0,0,7,58Zm47,2H24a2,2,0,0,1-2-2V33H56V58A2,2,0,0,1,54,60Zm2-33v4H22V27a2,2,0,0,1,2-2H54A2,2,0,0,1,56,27ZM48,10v4H44V10a2,2,0,0,1,4,0ZM8,10a2,2,0,0,1,2-2H42.556A3.959,3.959,0,0,0,42,10V23H24a4,4,0,0,0-4,4V56H8Z"/><rect x="24" y="27" width="2" height="2"/><rect x="28" y="27" width="2" height="2"/><rect x="32" y="27" width="2" height="2"/><path d="M26,50H41a1,1,0,0,0,1-1V37a1,1,0,0,0-1-1H26a1,1,0,0,0-1,1V49A1,1,0,0,0,26,50Zm1-2v-.586l4-4,3.293,3.293a1,1,0,0,0,1.414,0L38,44.414l2,2V48ZM40,38v5.586l-1.293-1.293a1,1,0,0,0-1.414,0L35,44.586l-3.293-3.293a1,1,0,0,0-1.414,0L27,44.586V38Z"/><rect x="34" y="40" width="2" height="2"/><rect x="45" y="36" width="2" height="2"/><rect x="49" y="36" width="4" height="2"/><rect x="25" y="52" width="2" height="2"/><rect x="29" y="52" width="24" height="2"/><rect x="25" y="56" width="28" height="2"/><rect x="45" y="40" width="8" height="2"/><rect x="45" y="44" width="8" height="2"/><rect x="45" y="48" width="8" height="2"/><rect x="11" y="11" width="2" height="2"/><rect x="15" y="11" width="8" height="2"/><rect x="11" y="15" width="12" height="2"/><rect x="11" y="19" width="12" height="2"/><rect x="27" y="11" width="2" height="2"/><rect x="31" y="11" width="8" height="2"/><rect x="27" y="15" width="12" height="2"/><rect x="27" y="19" width="12" height="2"/><path d="M18,26V24H12a1,1,0,0,0-1,1V36a1,1,0,0,0,1,1h6V35H13V26Z"/><path d="M11,41V52a1,1,0,0,0,1,1h6V51H13V42h5V40H12A1,1,0,0,0,11,41Z"/><rect x="60" y="32" width="2" height="23"/><rect x="2" y="16" width="2" height="23"/><rect x="2" y="41" width="2" height="2"/><rect x="24" y="2" width="20" height="2"/></g></svg>
