<svg height="496pt" viewBox="0 -46 496.50404 496" width="496pt" xmlns="http://www.w3.org/2000/svg"><path d="m303.574219 117.617188c-.457031-4.054688-3.867188-7.136719-7.949219-7.179688h-43.121094v-28.96875c0-44.78125-38.445312-81.214844-85.5-81.214844-47.054687 0-85.5 36.433594-85.5 81.214844v28.96875h-47.519531c-4.082031.042969-7.492187 3.125-7.949219 7.179688l-25.664062 223.140624c-1.847656 15.835938 3.261718 31.695313 14 43.480469 11.746094 12.972657 28.46875 20.324219 45.96875 20.199219h208.929687c17.5.132812 34.226563-7.210938 45.972657-20.179688 10.742187-11.8125 15.847656-27.691406 14-43.546874zm-206.070313-36.148438c0-35.960938 31.269532-65.214844 69.5-65.214844 38.230469 0 69.5 29.253906 69.5 65.214844v28.96875h-139zm205.800782 292.140625c-8.714844 9.566406-21.09375 14.960937-34.035157 14.828125h-208.929687c-12.9375.132812-25.3125-5.261719-34.023438-14.824219-7.683594-8.4375-11.347656-19.785156-10.050781-31.121093l24.851563-216.054688h40.386718v25.5c0 4.417969 3.582032 8 8 8 4.417969 0 8-3.582031 8-8v-25.5h139v25.5c0 4.417969 3.582032 8 8 8 4.417969 0 8-3.582031 8-8v-25.5h35.988282l24.851562 216.054688c1.300781 11.335937-2.359375 22.679687-10.039062 31.117187zm0 0"/><path d="m416.488281 105.148438c0-17.121094-14.492187-31.046876-32.210937-31.046876s-32.023438 13.925782-32.023438 31.046876c0 14.453124 10.25 26.632812 24.25 30.074218v74.066406c-14 3.441407-24.136718 15.621094-24.136718 30.074219s10.136718 26.628907 24.136718 30.074219v74.066406c-14 3.445313-24.289062 15.621094-24.289062 30.074219 0 17.121094 14.34375 31.050781 32.0625 31.050781 17.722656 0 32.25-13.929687 32.25-31.050781-.085938-14.375-10.023438-26.816406-24.023438-30.074219v-74.066406c14-3.441406 24.136719-15.621094 24.136719-30.074219s-10.136719-26.632812-24.136719-30.074219v-74.066406c13.992188-3.261718 23.917969-15.707031 23.984375-30.074218zm-48.421875 0c0-8.300782 7.238282-15.046876 16.136719-15.046876s16.136719 6.75 16.136719 15.046876c0 8.296874-7.238282 15.050781-16.136719 15.050781s-16.136719-6.753907-16.136719-15.050781zm32.273438 268.425781c0 8.300781-7.238282 15.050781-16.136719 15.050781s-16.136719-6.75-16.136719-15.050781c0-8.296875 7.238282-15.046875 16.136719-15.046875s16.136719 6.75 16.136719 15.046875zm0-134.210938c0 8.296875-7.238282 15.046875-16.136719 15.046875s-16.136719-6.75-16.136719-15.046875c0-8.300781 7.238282-15.050781 16.136719-15.050781s16.136719 6.75 16.136719 15.050781zm0 0"/><path d="m496.503906 89.4375c0-4.417969-3.582031-8-8-8h-51c-4.417968 0-8 3.582031-8 8v38c0 4.417969 3.582032 8 8 8h51c4.417969 0 8-3.582031 8-8zm-16 30h-35v-22h35zm0 0"/><path d="m496.503906 219.4375c0-4.417969-3.582031-8-8-8h-51c-4.417968 0-8 3.582031-8 8v39c0 4.417969 3.582032 8 8 8h51c4.417969 0 8-3.582031 8-8zm-16 31h-35v-23h35zm0 0"/><path d="m496.503906 349.4375c0-4.417969-3.582031-8-8-8h-51c-4.417968 0-8 3.582031-8 8v39c0 4.417969 3.582032 8 8 8h51c4.417969 0 8-3.582031 8-8zm-16 32h-35v-24h35zm0 0"/></svg>