<svg height="440pt" viewBox="0 -11 440.00325 440" width="440pt" xmlns="http://www.w3.org/2000/svg"><path d="m432 129h-49v-120.589844c0-4.417968-3.117188-8.410156-7.535156-8.410156h-97.378906c-4.511719.1875-8.078126 3.894531-8.085938 8.410156v37.589844h-31v-15.851562c.074219-4.421876-3.445312-8.066407-7.863281-8.148438h-82.601563c-4.417968 0-7.535156 3.730469-7.535156 8.148438v98.851562h-31.027344l-6.671875-42.167969c-3.375-21.191406-20.886719-36.832031-41.640625-36.832031h-53.660156c-4.417969 0-8 3.582031-8 8s3.582031 8 8 8h53.660156c12.84375 0 23.710938 9.726562 25.839844 23.101562l44.957031 282.28125c1.289063 9.519532 9.417969 16.617188 19.019531 16.617188h11.332032c3.710937 17 18.246094 29.308594 35.570312 29.308594 17.324219 0 31.859375-12.308594 35.574219-29.308594h91.253906c3.714844 17 18.246094 29.449219 35.574219 29.449219 20.125 0 36.5-16.851563 36.5-37.65625 0-20.800781-16.375-37.832031-36.5-37.832031-17.617188 0-32.355469 13.039062-35.761719 30.039062h-90.878906c-3.402344-17-18.144531-30.144531-35.761719-30.144531-17.613281 0-32.355468 13.144531-35.757812 30.144531h-10.921875c-1.710938.039062-3.179688-1.214844-3.410157-2.914062-.007812-.046876-.015624-.085938-.019531-.136719l-8.113281-50.949219h227.96875c17.710938.09375 33.109375-12.132812 37.03125-29.40625l34.644531-150.316406c.546875-2.292969-.023437-4.710938-1.535156-6.519532-1.550781-1.839843-3.863281-2.855468-6.265625-2.757812zm-71.21875 229.136719c11.296875 0 20.5 9.746093 20.5 21.726562s-9.203125 21.726563-20.5 21.726563c-11.300781 0-20.5-9.746094-20.5-21.726563s9.195312-21.726562 20.5-21.726562zm-162.402344 0c11.300782 0 20.5 9.746093 20.5 21.726562s-9.199218 21.726563-20.5 21.726563c-11.300781 0-20.5-9.746094-20.5-21.726563s9.195313-21.726562 20.5-21.726562zm87.621094-342.136719h81v113h-64v-74.507812c-.148438-4.59375-3.808594-8.296876-8.398438-8.492188h-8.601562zm1 113h-74v-67h74zm-130-91h66v8h-17.949219c-4.417969 0-8.050781 4.074219-8.050781 8.492188v74.507812h-40zm232.5625 247.246094c-2.296875 9.945312-11.234375 16.929687-21.4375 16.753906h-230.515625l-25.089844-157h309.425781zm0 0"/><path d="m246.175781 216.445312 9.824219-9.742187v57.082031c0 4.417969 3.582031 8 8 8s8-3.582031 8-8v-57.082031l9.96875 9.738281c3.15625 3.058594 8.1875 3.007813 11.28125-.117187 3.09375-3.121094 3.097656-8.15625.007812-11.28125l-23.5-23.140625c-3.113281-3.0625-8.109374-3.0625-11.222656 0l-23.507812 23.140625c-2.074219 1.984375-2.921875 4.929687-2.21875 7.710937.703125 2.785156 2.847656 4.976563 5.613281 5.738282 2.765625.761718 5.730469-.019532 7.757813-2.050782zm0 0"/><path d="m319.855469 216.445312 10.144531-9.742187v57.082031c0 4.417969 3.582031 8 8 8s8-3.582031 8-8v-57.082031l9.648438 9.738281c1.445312 1.472656 3.425781 2.300782 5.488281 2.300782 2.125.003906 4.160156-.859376 5.640625-2.386719 3.089844-3.15625 3.035156-8.222657-.121094-11.3125l-23.523438-23.140625c-3.117187-3.066406-8.117187-3.066406-11.234374 0l-23.511719 23.140625c-3.113281 3.132812-3.097657 8.199219.035156 11.3125 3.144531 3.148437 8.238281 3.1875 11.433594.089843zm0 0"/><path d="m161.574219 216.355469c3.140625 3.148437 8.230469 3.191406 11.421875.089843l10-9.742187v57.085937c0 4.417969 3.582031 8 8 8 4.417968 0 8-3.582031 8-8v-57.085937l9.789062 9.742187c1.496094 1.488282 3.527344 2.3125 5.636719 2.296876 2.109375-.015626 4.125-.875 5.597656-2.386719 3.09375-3.152344 3.050781-8.21875-.101562-11.316407l-23.519531-23.136718c-3.113282-3.066406-8.113282-3.066406-11.226563 0l-23.511719 23.140625c-3.148437 3.097656-3.1875 8.164062-.085937 11.3125zm0 0"/></svg>