<svg id="Ebene_1" xmlns="http://www.w3.org/2000/svg" viewBox="0 0 76.9 73.5" width="63"><style>.st0{fill:#009fe3}.st1{fill-rule:evenodd;clip-rule:evenodd;fill:#646363}</style><g id="g273" transform="translate(-375.6 -246.7)"><path id="path237" class="st0" d="M390.6 254.1h13.6c1.1 0 2 .7 2 1.4 0 .8-.9 1.5-2 1.5h-13.6c-1.1 0-2-.7-2-1.5 0-.7.9-1.4 2-1.4z"/><path id="path239" class="st0" d="M396.5 258.1h13.6c1.1 0 2 .7 2 1.5s-.9 1.4-2 1.4h-13.6c-1.1 0-2-.7-2-1.4.1-.8 1-1.5 2-1.5z"/><path id="path241" class="st0" d="M401.7 262.1h13.6c1.1 0 2 .7 2 1.4 0 .8-.9 1.5-2 1.5h-13.6c-1.1 0-2-.7-2-1.5.1-.8.9-1.4 2-1.4z"/><path id="path243" class="st0" d="M407.2 266.2h13.6c1.1 0 2 .7 2 1.5s-.9 1.5-2 1.5h-13.6c-1.1 0-2-.7-2-1.5s.9-1.5 2-1.5z"/><path id="path245" class="st0" d="M418.1 257.9h13.6c1.1 0 2 .7 2 1.5s-.9 1.4-2 1.4h-13.6c-1.1 0-2-.7-2-1.4.1-.8.9-1.5 2-1.5z"/><path id="path247" class="st0" d="M422.9 253.9h13.6c1.1 0 2 .7 2 1.4 0 .8-.9 1.4-2 1.4h-13.6c-1.1 0-2-.7-2-1.4s.9-1.4 2-1.4z"/><path id="path249" class="st0" d="M411.2 270.3h13.6c1.1 0 2 .7 2 1.5s-.9 1.5-2 1.5h-13.6c-1.1 0-2-.7-2-1.5.1-.9.9-1.5 2-1.5z"/><path id="path251" class="st0" d="M404.9 274.1h13.6c1.1 0 2 .7 2 1.5s-.9 1.5-2 1.5h-13.6c-1.1 0-2-.7-2-1.5s.9-1.5 2-1.5z"/><path id="path253" class="st0" d="M397.8 278h13.6c1.1 0 2 .7 2 1.5s-.9 1.5-2 1.5h-13.6c-1.1 0-2-.7-2-1.5 0-.9.9-1.5 2-1.5z"/><path id="path255" class="st0" d="M392.4 281.9H406c1.1 0 2 .7 2 1.5s-.9 1.5-2 1.5h-13.6c-1.1 0-2-.7-2-1.5 0-.9.9-1.5 2-1.5z"/><path id="path257" class="st0" d="M419.8 278.1h13.6c1.1 0 2 .7 2 1.5s-.9 1.5-2 1.5h-13.6c-1.1 0-2-.7-2-1.5.1-.8 1-1.5 2-1.5z"/><path id="path259" class="st0" d="M424.4 282.1H438c1.1 0 2 .7 2 1.5s-.9 1.5-2 1.5h-13.6c-1.1 0-2-.7-2-1.5 0-.9.9-1.5 2-1.5z"/><path id="path261" class="st1" d="M389.4 304.9c0-.3-.1-.4-.4-.4h-1l-3-4.3 3-4.2h1c.3 0 .4-.1.4-.4v-1.8c0-.3-.1-.4-.4-.4h-2.7c-.4 0-.4.1-.6.3l-1.6 2.3c-.4.7-.7 1.1-1.1 1.7-.4-.6-.7-1.1-1.1-1.7l-1.6-2.3c-.2-.2-.2-.3-.6-.3H377c-.3 0-.4.1-.4.4v1.8c0 .3.1.4.4.4h1l3 4.2-3 4.3h-1c-.3 0-.4.1-.4.4v1.8c0 .3.1.4.4.4h2.8c.4 0 .4-.1.6-.3l1.6-2.5c.3-.5.8-1.3 1.1-1.7.3.4.7 1.2 1.1 1.7l1.6 2.5c.2.3.2.3.6.3h2.8c.3 0 .4-.1.4-.4v-1.8z"/><path id="path263" class="st1" d="M396.3 296.8c.4-.4 1-1 2.2-1 1.7 0 2.2 1.6 2.2 4.4 0 3.3-.5 4.6-2.4 4.6-1.1 0-1.5-.2-2-.5v-7.5zm1.8 13.7c0-.3-.1-.4-.4-.4h-1.4v-3.3c.6.3 1.3.7 2.9.7 3.6 0 5.1-2.7 5.1-7.5 0-4.6-1.7-7.1-4.8-7.1-1.9 0-3 1-3.7 1.4-.2-.5-.2-1-.7-1h-3.9c-.3 0-.4.1-.4.4v1.8c0 .3.1.4.4.4h1.3c.3.3.3.9.3 2.4V310h-1.4c-.3 0-.4.1-.4.4v1.8c0 .3.1.4.4.4h6.3c.3 0 .4-.1.4-.4v-1.7z"/><path id="path265" class="st1" d="M407.4 302.2c0 2.5 0 5.3 3.4 5.3 1.3 0 2.8-.4 2.8-.8 0-.1 0-.2-.1-.2l-.5-2.3c0-.1-.1-.2-.2-.2-.2 0-.5.2-1.1.2-.8 0-.8-.8-.8-1.6v-15c0-.3-.1-.4-.4-.4H406c-.3 0-.4.1-.4.4v1.8c0 .3.1.4.4.4h1.4v12.4z"/><path id="path267" class="st1" d="M421.9 304c-.3.3-1 1-2 1s-1.8-.8-1.8-1.9c0-2.4 3.2-2.2 3.9-2.2v3.1zm3.3-6.6c0-2.9-1.3-4.5-4.8-4.5-2.1 0-4.8.7-4.8 1.3 0 .1.1.2.1.4l.5 1.7c0 .1.1.3.3.3.4 0 1.9-.8 3.4-.8 1.8 0 1.9.8 1.9 2v.8c-2.2 0-7.2 0-7.2 4.6 0 2.6 1.6 4.2 4.2 4.2 2 0 3-1.1 3.6-1.6.1.5.2 1.2.8 1.2h3.4c.3 0 .4-.1.4-.4v-1.8c0-.3-.1-.4-.4-.4h-1.2c-.1-.5-.3-1-.3-2.3l.1-4.7z"/><path id="path269" class="st1" d="M437.2 304.3c-.1-.1-.1-.1-.2-.1-.3 0-1 .6-2.4.6-2.1 0-2.8-1.4-2.8-4.5 0-3.2.8-4.6 2.8-4.6.2 0 .4 0 .7.1v2c0 .3.1.4.4.4h2c.3 0 .4-.1.4-.4v-3.7c0-.8-2-1.2-3.4-1.2-4.2 0-6.5 2.9-6.5 7.5s2.3 7 6.1 7c1.6 0 3.9-.5 3.9-1.1 0-.1-.1-.2-.1-.3l-.9-1.7z"/><path id="path271" class="st1" d="M443.4 298.6c.1-.8.2-3.1 2.4-3.1 1.9 0 2 1.9 2 3.1h-4.4zm7.4 2.6c.5 0 .7-.2.7-.7 0-3.3-.8-7.5-5.5-7.5-3.7 0-6 3-6 7.4 0 5.1 2.5 7.1 6.1 7.1 2.2 0 5-.9 5-1.6 0-.1-.1-.2-.1-.3l-.7-1.6c-.1-.1-.2-.2-.3-.2-.4 0-1.5.9-3.5.9-2.6 0-3-1.9-3-3.4l7.3-.1z"/></g></svg>