<svg id="Layer_1" xmlns="http://www.w3.org/2000/svg" viewBox="0 0 381.6 158" width="145"><style>.st0{fill:#e23a05}</style><path class="st0" d="M42.5 79.5c-3 4.3-7.9 6.8-13.1 6.8-9.3 0-16.3-7-16.3-16.4 0-4.7 1.7-8.9 4.8-11.9 3-2.9 7.1-4.5 11.5-4.5 5.2 0 10.1 2.5 13.1 6.8l.5.7 9.7-8.2-.5-.6c-5.7-6.7-14-10.6-22.8-10.6C13.3 41.6.3 54.3.3 69.9c0 15.6 13.1 28.2 29.1 28.2 8.8.1 17.1-3.8 22.8-10.5l.5-.6-9.7-8.2-.5.7z"/><path d="M99.4 39.2v57.5H88.7v-2.5c-3.4 2-7.7 3.2-12.1 3.2-11.5 0-21-8.7-21-21.4 0-13 9.4-21.4 21-21.4 4.2 0 8.4 1.1 12.1 3.1V39.2h10.7zm-10.7 45V67.6c-2.5-2.1-6.1-3.5-10.1-3.5-7.1 0-12.3 5.1-12.3 11.9 0 7 5.3 11.8 12.3 11.8 4 0 7.6-1.4 10.1-3.6zm19.8-25.6h10.6v38.1h-10.6V58.6zm21.6 26.9c5.1 2.2 9 3.4 14.2 3.4 4.9 0 6.8-1.8 6.8-4 0-2.4-2.4-3.4-8.8-4.8-8.9-2-15.4-4.9-15.4-12.9 0-7.5 6.2-12.6 15.8-12.6 6.5 0 11.7 1.5 16.2 3.4l-3.5 7.8c-4-1.5-8.8-2.7-12.9-2.7-4 0-6.1 1.4-6.1 3.7 0 2.3 2.5 3.4 9.1 4.7 9.6 2 15.2 5.3 15.2 12.9 0 7.9-6 13-16.6 13-7.2 0-11.8-1-17.9-4l3.9-7.9zm73.8 3.5c-3.7 5.1-9.6 8.3-16 8.3-12.5 0-22.6-9.5-22.6-21.3 0-11.9 10.1-21.4 22.6-21.4 6.6 0 12.4 3.2 16.2 8.2l-6.9 6.3c-2.1-3.1-5.6-5-9.3-5-6.7 0-12.2 5.3-12.2 11.9 0 6.5 5.5 11.8 12.2 11.8 3.8 0 7.3-1.9 9.3-5.1l6.7 6.3zm48.5-13.1c0 11.8-10.1 21.3-22.6 21.3-12.5 0-22.6-9.5-22.6-21.3 0-11.9 10.1-21.4 22.6-21.4 12.5 0 22.6 9.6 22.6 21.4zm-10.4 0c0-6.6-5.4-11.9-12.2-11.9-6.7 0-12.2 5.3-12.2 11.9 0 6.5 5.5 11.8 12.2 11.8 6.7.1 12.2-5.3 12.2-11.8zm56.3-20.3v41.1h-10.6v-2.8c-3.1 2.1-7 3.4-11.3 3.4-12.1 0-17.7-5.6-17.7-19.1V55.6h10.6v22.6c0 6.4 3.1 9.5 9 9.5 3.8 0 6.9-1.2 9.4-3.3V55.6h10.6zm48.1 18v23.1h-10.6V73.6c0-6.4-3.1-9.5-9-9.5-3.7 0-6.8 1.2-9.1 3.3v29.3h-10.6V55.3h10.6v2.6c3-2.1 6.9-3.4 11.1-3.4 12 0 17.6 5.7 17.6 19.1zm21.6-9.5v14.6c0 7.4 1.2 9.5 6.6 9.5 1.8 0 3.4-.2 4.9-.4v7.9c-.5.2-3.7 1.5-9.6 1.5-6.9 0-12.5-4.3-12.5-13V64.1h-5.9v-8.8h5.9V39.2H368v16.1h11.6v8.8H368z" fill="#293847"/><path class="st0" d="M108.1 44.6c0-3.4 2.7-6.3 6.1-6.3s6 2.8 6 6.3-2.7 6.2-6 6.2c-3.4 0-6.1-2.8-6.1-6.2z"/></svg>