<svg id="Layer_1" xmlns="http://www.w3.org/2000/svg" viewBox="0 0 188.2 91.9" width="123"><style>.st0{fill-rule:evenodd;clip-rule:evenodd;fill:#233881}</style><g id="Page-1"><g id="Icecatlogoeps"><path id="Fill-1" class="st0" d="M18.6 53H27V24.9h-8.4V53zm0-31.7H27v-6.2h-8.4v6.2z"/><path id="Fill-2" class="st0" d="M50.1 35.6c-.3-1.8-.8-3.2-1.6-4.2s-1.8-1.5-3-1.5c-1.7 0-3 .8-3.9 2.3-.9 1.5-1.3 3.8-1.3 6.8 0 2.9.5 5.2 1.3 6.8.9 1.6 2.2 2.4 3.8 2.4 1.3 0 2.4-.5 3.3-1.5.9-1 1.4-2.4 1.6-4.2l7.1.8c-.4 3.3-1.7 5.8-3.9 7.8C51.2 53 48.4 54 45 54c-4 0-7.2-1.4-9.7-4.1s-3.8-6.3-3.8-10.6c0-4.5 1.3-8.1 3.9-10.8s6-4.1 10.2-4.1c3.2 0 5.9.9 8 2.8 2.1 1.9 3.4 4.5 3.8 7.8l-7.3.6"/><path id="Fill-3" class="st0" d="M69.1 35.8h11.1c0-2-.5-3.5-1.5-4.6-1-1.1-2.3-1.6-4.1-1.6-1.7 0-3 .6-3.9 1.7-.9 1-1.5 2.5-1.6 4.5zm19.5 8.6c-.9 3-2.6 5.3-5 6.9s-5.3 2.4-8.8 2.4c-4.3 0-7.9-1.3-10.5-4s-4-6.3-4-10.7c0-4.3 1.4-7.9 4.2-10.7s6.4-4.2 10.7-4.2c4.2 0 7.6 1.3 10 4 2.4 2.7 3.6 6.4 3.6 11.1v1.1H69c0 2.4.5 4.3 1.6 5.6 1.1 1.3 2.6 2 4.5 2 1.4 0 2.6-.4 3.6-1.1s1.7-1.8 2-3.1l7.9.7z"/><path id="Fill-4" class="st0" d="M110.4 35.6c-.3-1.8-.8-3.2-1.6-4.2s-1.8-1.5-3-1.5c-1.7 0-3 .8-3.9 2.3-.9 1.5-1.3 3.8-1.3 6.8 0 2.9.4 5.2 1.3 6.8.9 1.6 2.2 2.4 3.8 2.4 1.3 0 2.4-.5 3.3-1.5.9-1 1.4-2.4 1.6-4.2l7.1.8c-.4 3.3-1.7 5.8-3.9 7.8-2.3 1.9-5.1 2.9-8.5 2.9-4 0-7.2-1.4-9.7-4.1s-3.8-6.3-3.8-10.6c0-4.5 1.3-8.1 3.9-10.8s6-4.1 10.2-4.1c3.2 0 5.9.9 8 2.8 2.1 1.9 3.4 4.5 3.8 7.8l-7.3.6"/><path id="Fill-5" class="st0" d="M139.4 39.2c-3.3 0-5.9.5-7.7 1.5-1.8.9-2.6 2.2-2.6 4 0 1.2.4 2 1.1 2.7.8.6 1.8 1 3.1 1 1.7 0 3.2-.6 4.3-1.9 1.1-1.2 1.7-2.8 1.7-4.7l.1-2.6zm.8 13.8c-.2-.6-.3-1.3-.4-2s-.1-1.6-.2-2.5c-1 1.7-2.2 3-3.8 3.9s-3.4 1.3-5.5 1.3c-3 0-5.4-.8-7.2-2.3-1.8-1.5-2.7-3.6-2.7-6.3 0-3.3 1.6-5.8 4.8-7.6 3.2-1.7 7.9-2.6 14.2-2.7v-1.2c0-1.4-.4-2.5-1.2-3.2-.8-.7-2-1.1-3.5-1.1-1.7 0-3.1.3-4 1-1 .7-1.6 1.7-1.8 3l-7.7-.8c.7-2.8 2.2-4.8 4.5-6.2 2.3-1.4 5.5-2.1 9.4-2.1 4.4 0 7.5.9 9.4 2.6 1.9 1.7 2.9 4.5 2.9 8.4v12.5c0 1.2.1 2.3.2 3.2.1.9.3 1.6.6 2.2l-8-.1z"/><g id="Group-9" transform="translate(0 4)"><path id="Fill-6" class="st0" d="M154.8 39.9V26.4h-4.5v-5.5h4.8l.4-7.8 7.5-.5v8.3h5.8v5.5H163V39c0 1.7.2 2.9.7 3.5.5.6 1.4.9 2.6.9.5 0 1 0 1.5-.1s1-.2 1.6-.3v6.1c-1 .2-1.9.3-2.8.5-.9.1-1.8.2-2.6.2-3.3 0-5.6-.8-7.1-2.3-1.4-1.6-2.1-4.1-2.1-7.6"/><path id="Fill-8" class="st0" d="M-.2 58.9s87.9-17.4 188.4 0c0 0-83.7-13.5-188.4 0"/></g><path id="Fill-10" class="st0" d="M45.2 71.5c-.3.2-.7.3-1 .3-.3.1-.6.1-.9.1-.7 0-1.1-.2-1.4-.5-.3-.4-.4-1-.4-2v-3.8h-.8v-.7l2.3-2.2h.5v2.1h1.6v.8h-1.6v4c0 .4.1.7.2.9.1.1.4.2.8.2h.6v.8"/><path id="Fill-11" class="st0" d="M46 71.8v-.7c.3 0 .6-.1.7-.2.1-.1.2-.3.2-.6v-7.4l-.8-.5v-.5l2.4-.8h.5v4.4c.5-.3.9-.5 1.2-.6.3-.1.7-.2 1-.2.7 0 1.2.2 1.5.6.3.4.5 1 .5 1.8v3.1c0 .3.1.5.2.6.1.1.3.2.6.2v.7h-3.5V71c.3 0 .5-.1.6-.2.1-.1.2-.3.2-.6V67c0-.4-.1-.7-.2-.8-.1-.2-.4-.2-.7-.2-.2 0-.3 0-.5.1-.2 0-.5.1-.7.2v3.9c0 .3 0 .5.2.7.1.1.3.2.6.2v.7h-4"/><path id="Fill-12" class="st0" d="M56.9 67.1h2.4v-.2c0-.4-.1-.7-.3-1-.2-.2-.5-.3-.9-.3-.3 0-.6.1-.8.4-.3.2-.4.6-.4 1.1zm4.4.7H57c0 .7.2 1.3.5 1.7s.8.7 1.4.7c.3 0 .5 0 .8-.2.3-.1.7-.3 1.1-.5l.5.5c-.6.6-1.1 1.1-1.6 1.4-.5.3-1 .4-1.5.4-1 0-1.7-.3-2.3-1-.6-.7-.9-1.6-.9-2.7 0-1 .3-1.9.9-2.6.6-.7 1.4-1 2.4-1 .9 0 1.5.3 2.1.8.6.8.8 1.6.9 2.5z"/><path id="Fill-13" class="st0" d="M68.2 67.9c0 1 .1 1.8.4 2.4.3.6.6.8 1 .8.5 0 .8-.2 1.1-.6s.3-1 .3-1.9c0-1-.1-1.8-.4-2.3s-.6-.8-1.1-.8c-.4 0-.8.2-1 .6-.2.4-.3 1-.3 1.8zm1.3 4c-1.1 0-1.9-.3-2.6-1-.7-.7-1-1.6-1-2.7 0-1 .3-1.8 1-2.5s1.6-1 2.6-1 1.9.3 2.6 1c.7.7 1 1.6 1 2.6s-.3 1.9-1 2.6c-.6.7-1.5 1-2.6 1z"/><path id="Fill-14" class="st0" d="M76.8 69.4c0 .6.1 1.1.3 1.3.2.2.5.4.9.4.5 0 .9-.2 1.2-.6.3-.4.4-1 .4-1.8 0-.7-.2-1.3-.5-1.8-.3-.4-.8-.7-1.3-.7-.3 0-.6.1-.7.2-.2.2-.2.4-.2.7v2.3zm-3 5.2v-.7c.3 0 .6-.1.7-.2.1-.1.2-.3.2-.6v-6.6l-.9-.5v-.5l2.4-.8h.5v.9c.3-.3.7-.5 1-.7.3-.1.7-.2 1.1-.2.8 0 1.4.3 1.9.9.5.6.8 1.4.8 2.3 0 1.1-.3 2.1-1 2.8S79 71.9 78 71.9c-.2 0-.4 0-.7-.1-.2-.1-.4-.1-.7-.3V73c0 .3.1.5.2.6.2.1.4.2.8.2v.7l-3.8.1z"/><path id="Fill-15" class="st0" d="M84.5 67.1h2.4v-.2c0-.4-.1-.7-.3-1-.2-.2-.5-.3-.9-.3-.3 0-.6.1-.8.4-.3.2-.4.6-.4 1.1zm4.3.7h-4.3c0 .7.2 1.3.6 1.7s.8.7 1.4.7c.3 0 .5 0 .8-.2.3-.1.7-.3 1.1-.5l.5.5c-.6.6-1.1 1.1-1.6 1.4-.5.3-1 .4-1.5.4-.9 0-1.7-.3-2.3-1-.6-.7-.9-1.6-.9-2.7 0-1 .3-1.9.9-2.6.6-.7 1.4-1 2.4-1 .9 0 1.6.3 2.1.8.5.8.8 1.6.8 2.5z"/><path id="Fill-16" class="st0" d="M89.8 71.8v-.7c.3 0 .6-.1.7-.2.1-.1.2-.3.2-.6v-3.8l-.9-.5v-.5l2.4-.8h.5v.8c.4-.3.8-.5 1.2-.6s.7-.2 1.1-.2c.7 0 1.2.2 1.5.6.3.4.5 1 .5 1.8v3.1c0 .3.1.5.2.6.1.1.3.2.6.2v.7h-3.6V71c.3 0 .5-.1.6-.2.1-.1.2-.3.2-.6V67c0-.4-.1-.7-.2-.8-.1-.2-.4-.2-.7-.2-.2 0-.4 0-.6.1-.2 0-.4.1-.7.2v3.9c0 .3.1.5.2.7.1.1.3.2.6.2v.7h-3.8"/><path id="Fill-17" class="st0" d="M108.9 70.4c-.5.5-1 .9-1.5 1.1-.5.3-1 .4-1.6.4-.9 0-1.7-.3-2.3-1s-.9-1.5-.9-2.5c0-1.1.3-2 1-2.7.7-.7 1.5-1.1 2.6-1.1.8 0 1.4.2 1.9.5s.7.8.7 1.3c0 .3-.1.5-.3.7-.2.2-.4.3-.7.3-.2 0-.4-.1-.5-.2-.2-.1-.3-.3-.3-.5 0 0-.1-.1-.1-.2-.3-.7-.6-1-1.1-1-.4 0-.7.2-.9.5-.2.3-.3.8-.3 1.3 0 .9.2 1.6.6 2.2.4.6 1 .8 1.6.8.3 0 .6-.1.8-.2s.6-.2.8-.4l.5.7"/><path id="Fill-18" class="st0" d="M113.7 70.3v-1.8c-.6.2-1.1.4-1.4.7s-.5.5-.5.8c0 .2.1.4.2.6.2.2.4.2.6.2.2 0 .3 0 .5-.1.2-.2.4-.3.6-.4zm.1.9c-.4.3-.7.4-1.1.6-.3.1-.7.2-1 .2-.6 0-1.1-.2-1.4-.5-.4-.3-.6-.7-.6-1.3 0-.6.3-1.1.9-1.5.6-.4 1.6-.8 2.9-1.1v-1.2c0-.4-.1-.7-.2-.8s-.4-.3-.7-.3c-.3 0-.5 0-.6.2-.2.1-.3.2-.3.4 0 .1 0 .3.1.4.1.2.1.3.1.3 0 .1-.2.2-.5.4s-.6.3-.9.3c-.1 0-.3-.1-.3-.3s-.2-.4-.2-.7c0-.5.2-.9.7-1.2.5-.3 1.1-.5 1.9-.5 1.1 0 1.9.2 2.2.5s.6.9.6 1.8v3c0 .3 0 .5.1.5.1.1.1.1.2.1h.2c.1 0 .2-.1.3-.1 0 .5-.1.8-.4 1.1-.3.3-.6.4-1.1.4-.3 0-.5-.1-.7-.2.1-.1-.1-.3-.2-.5z"/><path id="Fill-19" class="st0" d="M121.5 71.5c-.3.2-.7.3-1 .3-.3.1-.6.1-.9.1-.7 0-1.1-.2-1.4-.5-.3-.4-.4-1-.4-2v-3.8h-.8v-.7l2.3-2.2h.5v2.1h1.6v.8h-1.6v4c0 .4.1.7.2.9.1.1.4.2.8.2h.6l.1.8"/><path id="Fill-20" class="st0" d="M126.2 70.3v-1.8c-.6.2-1.1.4-1.4.7s-.5.5-.5.8c0 .2.1.4.2.6.2.2.4.2.6.2.2 0 .3 0 .5-.1.2-.2.4-.3.6-.4zm.2.9c-.4.3-.7.4-1.1.6-.3.1-.7.2-1 .2-.6 0-1.1-.2-1.4-.5-.4-.3-.6-.7-.6-1.3 0-.6.3-1.1.9-1.5.6-.4 1.6-.8 2.9-1.1v-1.2c0-.4-.1-.7-.2-.8s-.4-.3-.7-.3c-.3 0-.5 0-.6.2-.2.1-.3.2-.3.4 0 .1 0 .3.1.4.1.2.1.3.1.3 0 .1-.2.2-.5.4s-.6.3-.9.3c-.1 0-.3-.1-.3-.3s-.2-.4-.2-.7c0-.5.2-.9.7-1.2.5-.3 1.1-.5 1.9-.5 1.1 0 1.9.2 2.2.5s.6.9.6 1.8v3c0 .3 0 .5.1.5.1.1.1.1.2.1h.2c.1 0 .2-.1.3-.1 0 .5-.1.8-.4 1.1s-.4.5-.9.5c-.3 0-.5-.1-.7-.2-.1-.2-.3-.4-.4-.6z"/><path id="Fill-21" class="st0" d="M132.7 70.2c0 .3.1.5.2.6.1.1.4.2.7.2v.8h-3.9V71c.3 0 .6-.1.7-.2.1-.1.2-.3.2-.6v-7.4l-.8-.5v-.5l2.4-.8h.5v9.2"/><g id="Group-25" transform="translate(284 105)"><path id="Fill-22" class="st0" d="M-147.4-37.1c0 1 .1 1.8.4 2.4s.6.8 1 .8c.5 0 .8-.2 1.1-.6s.3-1 .3-1.9c0-1-.1-1.8-.4-2.3-.3-.5-.6-.8-1.1-.8-.4 0-.8.2-1 .6-.3.4-.3 1-.3 1.8zm1.3 4c-1.1 0-1.9-.3-2.6-1-.6-.7-1-1.6-1-2.7 0-1 .3-1.8 1-2.5s1.6-1 2.6-1 1.9.3 2.6 1 1 1.6 1 2.6-.3 1.9-1 2.6c-.7.7-1.5 1-2.6 1z"/><path id="Fill-24" class="st0" d="M-138.5-39.5c-.3 0-.6.1-.7.4-.2.3-.3.6-.3 1s.1.8.3 1 .4.4.7.4c.3 0 .6-.1.7-.4.2-.3.3-.6.3-1s-.1-.8-.3-1c-.1-.2-.4-.4-.7-.4zm-1.5 6.6c-.1.1-.2.2-.2.3-.1.1-.1.2-.1.3 0 .3.1.6.4.8s.7.3 1.3.3c.8 0 1.4-.1 1.7-.3.4-.2.6-.4.6-.8 0-.3-.1-.5-.5-.5-.3-.1-1.1-.2-2.3-.2h-.4c-.1 0-.3 0-.5.1zm-.7-.4c-.2-.2-.4-.5-.5-.7s-.2-.4-.2-.6c0-.3.1-.6.3-.8s.5-.5.9-.7c-.4-.3-.7-.6-.9-.9s-.3-.7-.3-1.1c0-.7.2-1.2.7-1.6.5-.4 1.1-.6 2-.6.3 0 .6 0 .9.1.4 0 .9.1 1.6.2h1.4v1.2h-1.2c.1.2.1.3.1.4v.4c0 .7-.3 1.2-.8 1.6s-1.2.6-2 .6h-.5c-.2 0-.3 0-.5-.1-.1.1-.1.1-.1.2v.2c0 .2.1.3.3.4.2.1.5.1 1 .1 1.4 0 2.4.2 2.9.4.5.3.8.8.8 1.5 0 .8-.3 1.4-1 1.9s-1.6.7-2.7.7-1.9-.1-2.5-.4-.8-.7-.8-1.2c0-.3.1-.5.3-.7.2-.1.4-.3.8-.5z"/></g></g></g></svg>