<svg id="svg4161" xmlns="http://www.w3.org/2000/svg" viewBox="0 0 295 164" width="108"><style>.st0{fill-rule:evenodd;clip-rule:evenodd;fill:#033a63}</style><g id="layer1" transform="translate(0 -848.65)"><path id="path4728" class="st0" d="M0 878.7h4.7v55.4H30l-2.2 4.7H.1c-.1-.1-.1-60.1-.1-60.1z"/><path id="path4730" class="st0" d="M63.3 878.7h-4.7l-26.2 60.1h4.7l6.8-15.6c.8-1.5 2.7-2.9 5.2-4.2 4-1.9 9.5-3.1 15.7-3.1 5.5 0 13.2 1.1 18.2 4.5l2.9-3.7c-1-.7-2.1-1.3-3.3-1.9-1.3-.7-2.8-1.2-4.4-1.7l-14.9-34.4zm-15.6 35.8L60.9 884 73 911.8c-2.6-.4-5.3-.7-8.2-.7-6.5 0-12.6 1.3-17.1 3.4zm28.9 5.5c1.1.3 2 .7 2.9 1.2.4.2.8.4 1.1.6.3.2.6.4 1 .6l1 .7 6.8 15.7h-4.7L76.6 920z"/><path id="path4732" class="st0" d="M162.9 878.7h-4.7l-26.2 60h4.7l6.8-15.6c.8-1.5 2.7-2.9 5.2-4.2 4-1.9 9.6-3.1 15.7-3.1 5.5 0 13.2 1.1 18.1 4.5l2.9-3.7c-1-.7-2.1-1.3-3.3-1.9-1.3-.7-2.8-1.2-4.4-1.7l-14.8-34.3zm-15.6 35.8l13.2-30.4 12.1 27.8c-2.6-.4-5.3-.7-8.2-.7-6.6-.1-12.6 1.2-17.1 3.3zm28.9 5.5c1.1.3 2 .7 2.9 1.2.4.2.8.4 1.1.6.3.2.6.4 1 .6l1 .7 6.8 15.7h-4.7l-8.1-18.8z"/><path id="path4734" class="st0" d="M268.8 878.7h-4.7l-26.1 60h4.7l6.8-15.6c.8-1.5 2.7-2.9 5.2-4.2 4-1.9 9.6-3.1 15.7-3.1 5.5 0 13.2 1.1 18.1 4.5l2.9-3.7c-1-.7-2.1-1.3-3.3-1.9-1.3-.7-2.8-1.2-4.4-1.7l-14.9-34.3zm-15.5 35.8l13.2-30.4 12.1 27.8c-2.6-.4-5.3-.7-8.2-.7-6.6-.1-12.6 1.2-17.1 3.3zm28.9 5.5c1.1.3 2 .7 2.9 1.2.4.2.8.4 1.1.6.3.2.6.4 1 .6l1 .7 6.8 15.7h-4.7l-8.1-18.8z"/><path id="polygon4736" class="st0" d="M95.4 883.3l-2.2-4.6h38.2v4.6l-32 50.8h30.1l-2.2 4.6H94.6l-1.2-2.6 32.2-52.8z"/><path id="path4738" class="st0" d="M194 908.7v-30h12.2c8.8 0 15.2.7 19.2 2.2 5.7 2 10.2 5.6 13.4 10.6 3.1 4.8 4.7 10.6 4.8 17.3-.1 6.7-1.7 12.4-4.8 17.3-3.2 5-7.7 8.6-13.4 10.6-4 1.4-10.4 2.2-19.2 2.2H194v-30.2zm4.6 25.6h7.2c8.6 0 14.5-.6 17.8-1.7 4.7-1.6 8.3-4.5 11-8.6 2.7-4.2 4.6-9.3 4.6-15.3s-1.9-11.1-4.6-15.3c-2.7-4.2-6.4-7-11-8.6-3.3-1.1-9.3-1.7-17.8-1.7h-7.2v51.2z"/></g></svg>