<svg id="Layer_1" xmlns="http://www.w3.org/2000/svg" viewBox="0 0 186.5 114.1" width="98"><style>.st0{fill-rule:evenodd;clip-rule:evenodd;fill:#f90}</style><path class="st0" d="M115.7 76C105 83.9 89.5 88.1 76.1 88.1c-18.7 0-35.5-6.9-48.3-18.4-1-.9-.1-2.1 1.1-1.4C42.7 76.3 59.7 81 77.2 81c11.8 0 24.9-2.5 36.9-7.6 1.8-.6 3.3 1.3 1.6 2.6z"/><path class="st0" d="M120.1 70.9c-1.4-1.7-9-.8-12.5-.4-1 .1-1.2-.8-.3-1.4 6.1-4.3 16.1-3 17.3-1.6s-.3 11.5-6.1 16.3c-.9.7-1.7.3-1.4-.7 1.5-3.2 4.4-10.4 3-12.2z"/><path d="M107.8 38.7v-4.2c0-.7.4-1 1-1h18.7c.6 0 1.1.5 1.1 1V38c0 .6-.5 1.4-1.4 2.7l-9.7 13.8c3.6-.1 7.4.5 10.7 2.3.7.4.9 1 1 1.6v4.5c0 .7-.6 1.4-1.4 1-5.8-3-13.4-3.4-19.8.1-.7.3-1.4-.3-1.4-1v-4.3c0-.6 0-1.8.7-2.8l11.2-16.1h-9.8c-.3 0-.9-.5-.9-1.1zM39.6 64.8h-5.7c-.5-.1-1-.4-1-1V34.6c0-.6.5-1 1.1-1h5.3c.6 0 1 .5 1 1v3.8h.1c1.4-3.7 4-5.4 7.5-5.4s5.8 1.7 7.4 5.4c1.4-3.7 4.5-5.4 7.9-5.4 2.4 0 5 1 6.6 3.2 1.8 2.5 1.4 6 1.4 9.2v18.5c0 .6-.5 1-1.1 1h-5.6c-.6-.1-1-.5-1-1V48.3c0-1.2.1-4.3-.1-5.5-.5-1.9-1.7-2.5-3.4-2.5-1.4 0-2.8.9-3.4 2.4-.6 1.5-.5 3.9-.5 5.6v15.5c0 .6-.5 1-1.1 1h-5.7c-.6-.1-1-.5-1-1V48.3c0-3.2.5-8.1-3.5-8.1-4.1 0-3.9 4.6-3.9 8.1v15.5c-.2.5-.7 1-1.3 1zm105.2-31.9c8.5 0 13 7.2 13 16.5 0 8.9-5 16-13 16-8.3 0-12.8-7.2-12.8-16.3 0-9.1 4.6-16.2 12.8-16.2zm0 6c-4.2 0-4.4 5.8-4.4 9.3 0 3.5-.1 11.2 4.4 11.2 4.4 0 4.6-6.1 4.6-9.9 0-2.5-.1-5.4-.8-7.8-.7-2-2-2.8-3.8-2.8zm24 25.9h-5.7c-.6-.1-1-.5-1-1V34.5c.1-.5.5-1 1.1-1h5.3c.5 0 .9.4 1 .8v4.4h.1c1.6-4 3.8-5.9 7.8-5.9 2.5 0 5 .9 6.6 3.4 1.5 2.3 1.5 6.3 1.5 9.1v18.4c-.1.5-.5.9-1.1.9h-5.7c-.5-.1-1-.5-1-.9V48c0-3.2.4-7.9-3.6-7.9-1.4 0-2.6.9-3.3 2.3-.8 1.8-.9 3.6-.9 5.6v15.8c0 .5-.5 1-1.1 1zm-75.9-14c0 2.2.1 4.1-1 6.1-.9 1.6-2.3 2.6-3.9 2.6-2.2 0-3.5-1.7-3.5-4.1 0-4.8 4.3-5.8 8.5-5.8v1.2zm5.8 13.9c-.4.3-.9.4-1.4.1-1.9-1.5-2.3-2.3-3.3-3.8-3.1 3.2-5.4 4.1-9.4 4.1-4.8 0-8.5-3-8.5-8.9 0-4.6 2.5-7.8 6.1-9.3 3.1-1.4 7.4-1.6 10.7-2v-.7c0-1.4.1-3-.7-4.1-.7-1-2-1.5-3.2-1.5-2.2 0-4.1 1.1-4.6 3.4-.1.5-.4 1-1 1l-5.4-.5c-.4-.1-1-.5-.8-1.2 1.3-6.7 7.3-8.7 12.7-8.7 2.8 0 6.4.7 8.6 2.8 2.8 2.6 2.5 6.1 2.5 9.8v8.9c0 2.6 1.1 3.8 2.1 5.3.4.5.4 1.2 0 1.5-1.2 1-3.3 2.8-4.4 3.8zM18.4 50.8c0 2.2.1 4.1-1 6.1-.9 1.6-2.3 2.6-3.9 2.6-2.2 0-3.5-1.7-3.5-4.1 0-4.8 4.3-5.8 8.5-5.8v1.2zM24 64.7c-.4.3-.9.4-1.4.1-1.9-1.5-2.3-2.3-3.3-3.8-3.1 3.2-5.4 4.1-9.4 4.1-4.8 0-8.5-3-8.5-8.9 0-4.6 2.5-7.8 6.1-9.3 3.1-1.4 7.4-1.6 10.7-2v-.7c0-1.4.1-3-.7-4.1-.7-1-2-1.5-3.2-1.5-2.2 0-4.1 1.1-4.6 3.4-.1.5-.4 1-1 1l-5.5-.6c-.5-.1-1-.5-.8-1.2 1.3-6.7 7.3-8.7 12.7-8.7 2.8 0 6.4.7 8.6 2.8 2.8 2.6 2.5 6.1 2.5 9.8V54c0 2.6 1.1 3.8 2.1 5.3.4.5.5 1.2 0 1.5-1 1.1-3.1 2.9-4.3 3.9z" fill-rule="evenodd" clip-rule="evenodd"/></svg>