<svg id="Layer_1" xmlns="http://www.w3.org/2000/svg" viewBox="0 0 124.6 60.2"><style>.st0{fill:#cc2131}.st0,.st1,.st2{fill-rule:evenodd;clip-rule:evenodd}.st1{fill:#2f9c5c}.st2{fill:#fff}</style><path class="st0" d="M28.2 23.7c.5-.2 1-.5 1.2-.7-.3-.2-.5-.3-.8-.6-.3-.3-1-1.6-3.5-1.6-2.8 0-3.9 1.9-3.9 3.4v.6c-3.6 1.7-6.8 3.6-10.4 8h9.1c-.5.2-1.3.5-1.9 1.1l.8 2.6c1.2-.1 2.4-.4 3.5-.8.8-.4 4.2-1.9 5.6-6.3.1-.4.7-2.7.7-3.1.1-.3.3-1.1.9-1.6-.2-.2-.7-.6-1.2-.8-.3-.1-.3-.1-.1-.2z"/><path class="st1" d="M25.3 22.3c-.8 0-1.4.6-1.4 1.4 0 .8.6 1.4 1.4 1.4.8 0 1.4-.6 1.4-1.4 0-.8-.6-1.4-1.4-1.4z"/><path class="st0" d="M22.3 15.9h-13L5 28.4h6.8c.2-.2.5-.4.9-.7l3-9.6 2 6.6 1.2-.6c.2-2.6 2.1-4.1 4.7-4.4l-1.3-3.8zm-19 17.5L0 42.9h7.9l2.3-7.5H4.9c.2-.6.6-1.5 1-2H3.3z"/><path class="st1" d="M20.1 36.3l2 6.6h2.1L22 35.8c-.5.2-1.2.4-1.9.5z"/><path class="st0" d="M27.6 31.3c-.7 1.4-2.1 3.4-4.9 4.8l2 6.8h6.9l-4-11.6z"/><path class="st1" d="M32.7 23.6c-.5-.2-1.4-.5-2.5-.5-.3 0-.6 0-.8-.1-.2.1-.8.5-1.2.7-.2.1-.2.1 0 .2.6.3 1.1.7 1.2.8.8-.6 1.5-.1 3.3-.9.2 0 .2-.1 0-.2zM2.5 30.8s.1 0 0 0c.1.1 0 .1 0 .1-1.2 0-2 .9-2.1 1.9h6.8c-.5.5-1.1 1.2-1.4 2h10.4l2.4 8h2.1l-1.9-6.4-.8-2.6c.6-.5 1.4-.8 1.9-1.1h-9.1c3.6-4.4 6.8-6.3 10.4-8v-.6c0-1.5 1.2-3.4 3.9-3.4.9 0 1.9.2 2.7.7-.4-.4-1.9-1.3-3.4-1.2-3.1 0-5 2-4.8 4.2-2 .9-5.4 2.7-7.6 4.5H.4c.1 1.1.9 1.9 2.1 1.9z"/><path class="st2" d="M25.2 23.9l1.4-.7c-.2-.4-.5-.7-.9-.8l-.6 1.3c-.1.2 0 .2.1.2z"/><path class="st0" d="M124.5 37.3c0 3 .1 5.6.1 5.6H118v-8.4c0-2.9-.9-3.9-2.4-3.9-2.1 0-3.1 1.6-3.1 4.8v7.5H106c.2-5 0-12.5-.2-17.2h5.8s.1.7.1 1.8v.7c.8-1.1 3.2-3 6.1-2.8 2.9.1 5 1.5 5.9 3.4.5 1.1.7 2.7.7 3.9v4.6zm-81 3.4c-1 1.1-3.3 2.7-5.8 2.5-3.6-.3-6.5-1.9-6.5-7.3V25.7h6.5v8.4c0 2.9.8 3.9 2.4 3.9 2.1 0 3.1-1.9 3.1-4.8v-7.5h6.4c-.2 5 0 12.5.2 17.2H44c-.6-.5-.5-2.2-.5-2.2zm54.8 0c0 1.5.1 2.2.1 2.2h5.6s-.2-2.9-.2-8.7c0-.1 0-3.6-.4-4.6-.5-1-1.4-3.3-5.5-4.2-4.1-.8-8.5.7-9.1 1.2v4.2s2.8-1.5 5-1.5c1.7 0 4 .1 4.1 2.5h-2.1c-4 0-9 .8-9.1 5.6-.1 3.8 3.3 5.6 6.2 5.5 0 .2 3.4.3 5.4-2.2z"/><path class="st2" d="M92.8 37.4c-.1-2.4 4.5-2.1 5.1-1.9 0 4.1-5 4.6-5.1 1.9z"/><path class="st0" d="M78.9 34.5c0-2.9-1-3.9-2.4-3.9-2.1 0-3.1 1.5-3.1 4.8v7.5H67V20.7h6.4v6.8c1.1-1 3-2.2 5.4-2.1 2.9.1 6.6 1.5 6.6 7.7V43h-6.5v-8.5zm-13.8-3.2c-2.3-1.9-7.9-1.7-7.9 2.8 0 5 6.1 4.8 8.4 3.1l.2 4.9c-3.3 1.7-15.1 2.3-15.1-7.9s11.6-9.7 14.9-7.7l-.5 4.8z"/></svg>