<svg id="Layer_1" xmlns="http://www.w3.org/2000/svg" viewBox="0 0 391.2 118"><path d="M222.3 35.8c-12.4 0-20.9 8.5-20.9 20.5v.7c0 12 8.5 20.3 20.9 20.3s20.9-8.5 20.9-20.5v-.7c0-12-8.5-20.3-20.9-20.3" fill="#005bbf"/><path d="M263.9 39.9c-4.4 0-7.6 2.2-9.6 4.6V41c0-.2-.2-.4-.4-.4h-8.7c-.2 0-.4.2-.4.4v39.3c0 .2.2.7.4.7h8.7c.2 0 .4-.2.4-.7V69.4c2.2 2.6 5.5 4.1 9.6 4.1 8.7 0 14.4-6.5 14.4-16.8v-.4c-.2-9.8-5.9-16.4-14.4-16.4zm4.4 17.2c0 4.1-1.3 8.9-7 8.9-4.6 0-7.2-3-7.2-8.9v-.4c0-5.7 2.6-8.9 7.2-8.9 4.4 0 7 3.3 7 8.9v.4zM53.2 39.9c-9.8 0-16.8 7-16.8 17v.4c0 10 6.8 16.6 17 16.6 8.9 0 14.6-4.1 15.7-11.1 0-.2 0-.2-.2-.4 0-.2-.2-.2-.4-.2h-8.3c-.2 0-.4.2-.4.4-.4 2.6-2.6 3.9-6.1 3.9-4.4 0-7-2.6-7.2-7.2h22.2c.2 0 .4-.2.4-.4v-2.4c0-12.2-8.3-16.6-15.9-16.6zM46 53c.9-3.7 3-5.9 6.5-5.9 3.9 0 5.9 2 6.3 5.9H46zm106.5-12.9c-4.4 0-7.4 1.7-9.6 5V41c0-.2-.2-.4-.4-.4h-8.7c-.2 0-.4.2-.4.4v31.6c0 .2.2.4.4.4h8.7c.2 0 .4-.2.4-.4V56.7c0-5.2 2.8-7.6 9.4-7.6h.2c.2 0 .2 0 .4-.2 0 0 .2-.2.2-.4v-8.1c0-.2 0-.2-.2-.4 0 .1-.2.1-.4.1zm18.1-.2c-8.9 0-14.2 4.1-14.8 11.3 0 .2 0 .2.2.4 0 0 .2.2.4.2h8.3c.2 0 .4-.2.4-.4.4-2.6 2-3.9 4.8-3.9 3.3 0 4.6 1.3 4.6 5.2v.7h-3.1c-7.6 0-17 2-17 10.7 0 6.3 4.1 10 11.1 10 3.9 0 6.8-1.1 8.9-3.5V73c0 .2.2.4.4.4h8.5c.2 0 .4-.2.4-.4V52.6c.6-8.5-4-12.7-13.1-12.7zm4.1 21.8c0 3-2.6 5-6.3 5-2.6 0-4.1-1.1-4.1-3.3 0-2.8 2.2-3.9 7.4-3.9h2.8v2.2h.2zm24.9-27.5h-8.7c-.2 0-.4.2-.4.4v37.9c0 .2.2.4.4.4h8.7c.2 0 .4-.2.4-.4V34.9c0-.4-.2-.7-.4-.7zm99.7 5.7c-10 0-17.2 7-17.2 16.8v.4c0 9.8 7 16.6 17.2 16.6 10 0 17.2-7 17.2-16.8v-.4c0-9.8-7.2-16.6-17.2-16.6zm7.2 17.2c0 5.7-2.6 9.2-7.2 9.2s-7.2-3.3-7.2-9.2v-.4c0-5.7 2.6-8.9 7.2-8.9s7.2 3.3 7.2 9.2v.1zm18.7-27.4c-2.8 0-5 2.2-5 4.8s2.2 4.8 5 4.8 5-2 5-4.8-2.2-4.8-5-4.8zm4.4 10.9h-8.7c-.2 0-.4.2-.4.4v31.6c0 .2.2.4.4.4h8.7c.2 0 .4-.2.4-.4V41c.2-.2-.2-.4-.4-.4zM32.5 60.2h-7.9c-.2 0-.4.2-.4.4-.4 3.5-2.6 5.7-6.3 5.7-5.9 0-7.2-5-7.2-9.2v-.4c0-5.5 2.6-8.9 7-8.9 3.5 0 5.2 1.5 5.9 5 0 .2.2.4.4.4h8.3c.2 0 .4-.2.4-.4v-.2C32 44.5 26.4 40 17.4 40 7.6 40 .6 47 .6 57v.4C.6 67.4 7.1 74 17.4 74c9.2 0 15-5 15.7-13.1 0-.2 0-.2-.2-.4-.2-.3-.4-.3-.4-.3zm60.2-20.3c-4.1 0-7.6 1.5-9.8 4.4V41c0-.2-.2-.4-.4-.4h-8.7c-.2 0-.4.2-.4.4v31.6c0 .2.2.4.4.4h8.7c.2 0 .4-.2.4-.4V54.3c0-3.9 2.2-6.3 6.1-6.3 3.5 0 5 1.7 5 5.9v18.8c0 .2.2.4.4.4h8.7c.2 0 .4-.2.4-.4V52.6c.3-8.1-3.8-12.7-10.8-12.7zm296.8 7.9c.2 0 .4-.2.4-.4V41c0-.2-.2-.4-.4-.4h-6.3v-5.7c0-.2-.2-.4-.4-.4h-8.7c-.2 0-.4.2-.4.4v5.7H371c-.2 0-.4.2-.4.4v6.1c0 .2.2.4.4.4h2.6V63c0 6.8 3.7 10.5 10.7 10.5 2 0 3.9-.2 5.5-.9.2 0 .4-.2.4-.4v-6.8c0-.2 0-.4-.2-.4s-.4-.2-.4 0c-.9.4-2 .7-3 .7-2 0-3-1.1-3-3.3V47.8h5.9zm-262.8-7.2h-6.3v-5.7c0-.2-.2-.4-.4-.4h-8.7c-.2 0-.4.2-.4.4v5.7h-2.8c-.2 0-.4.2-.4.4v6.1c0 .2.2.4.4.4h2.6V63c0 6.8 3.7 10.5 10.7 10.5 2 0 3.9-.2 5.4-.9.2 0 .4-.2.4-.4v-6.8c0-.2 0-.4-.2-.4s-.4-.2-.4 0c-.9.4-2 .7-3.1.7-2 0-3.1-1.1-3.1-3.3V47.8h6.3c.2 0 .4-.2.4-.4V41c.3-.2-.2-.4-.4-.4zm229-.7c-4.1 0-7.6 1.5-9.8 4.4V41c0-.2-.2-.4-.4-.4h-8.7c-.2 0-.4.2-.4.4v31.6c0 .2.2.4.4.4h8.7c.2 0 .4-.2.4-.4V54.3c0-3.9 2.2-6.3 6.1-6.3 3.5 0 5 1.7 5 5.9v18.8c0 .2.2.4.4.4h8.7c.2 0 .4-.2.4-.4V52.6c.4-8.1-3.8-12.7-10.8-12.7z" fill="#231f20"/></svg>