<svg id="Layer_1" xmlns="http://www.w3.org/2000/svg" viewBox="0 0 70.22 59.89"><style>.st0{fill:#0f3770}.st1{fill:#fffff4}</style><g id="surface1"><path class="st0" d="M60.1 30.13c0 15.91-12.9 28.8-28.8 28.8-15.91 0-28.8-12.89-28.8-28.8s12.89-28.8 28.8-28.8c15.9 0 28.8 12.89 28.8 28.8"/><path class="st1" d="M43.03 37.17c-.97.37-2.91.92-5.18.92-2.54 0-4.63-.65-6.27-2.22-1.44-1.39-2.34-3.64-2.34-6.25 0-5.01 3.46-8.67 9.09-8.67 1.94 0 3.49.42 4.21.77l-.55 1.77c-.9-.42-2.02-.72-3.71-.72-4.09 0-6.75 2.54-6.75 6.75 0 4.26 2.54 6.77 6.47 6.77 1.42 0 2.39-.2 2.89-.45v-5.01H37.5V29.1h5.53v8.07m4.26-1.89c.97.62 2.36 1.09 3.86 1.09 2.22 0 3.51-1.14 3.51-2.86 0-1.54-.9-2.47-3.16-3.31-2.74-1-4.43-2.44-4.43-4.78 0-2.61 2.17-4.56 5.43-4.56 1.69 0 2.96.4 3.68.82l-.6 1.77c-.52-.32-1.64-.8-3.16-.8-2.29 0-3.16 1.37-3.16 2.51 0 1.57 1.02 2.34 3.34 3.24 2.84 1.12 4.26 2.46 4.26 4.93 0 2.59-1.89 4.86-5.85 4.86-1.62 0-3.39-.5-4.28-1.1l.56-1.81"/><path class="st0" d="M65.06 23.77h-.05l-2.81 1.52-.42-1.67 3.54-1.89h1.87v16.19h-2.12V23.77"/><path class="st1" d="M8.48 29.99c0-12.79 10.36-23.15 23.15-23.15h.01c-.67-.06-1.35-.09-2.03-.09-12.85 0-23.26 10.42-23.26 23.26 0 12.85 10.41 23.26 23.26 23.26.86 0 1.71-.05 2.54-.14-.18.01-.35.01-.53.01-12.77 0-23.14-10.37-23.14-23.15"/><path class="st1" d="M14.16 30.23c0-11.41 9.25-20.66 20.67-20.66h.01c-.6-.05-1.2-.08-1.81-.08-11.47 0-20.77 9.3-20.77 20.77 0 11.47 9.3 20.77 20.77 20.77.77 0 1.52-.04 2.27-.12-.16 0-.31.01-.47.01-11.42-.03-20.67-9.28-20.67-20.69"/><path class="st1" d="M19.62 29.84c0-9.6 7.78-17.37 17.37-17.37H37c-.5-.04-1.01-.07-1.52-.07-9.64 0-17.46 7.82-17.46 17.46s7.81 17.46 17.46 17.46c.64 0 1.28-.04 1.91-.11-.13 0-.26.01-.4.01-9.59-.01-17.37-7.78-17.37-17.38"/><path class="st1" d="M24.39 29.85c0-7.88 6.38-14.26 14.26-14.26h.01c-.41-.04-.83-.06-1.25-.06-7.92 0-14.33 6.42-14.33 14.33s6.41 14.33 14.33 14.33c.53 0 1.05-.03 1.57-.08h-.33c-7.88-.01-14.26-6.39-14.26-14.26"/></g></svg>