<svg id="Layer_1" xmlns="http://www.w3.org/2000/svg" viewBox="0 0 60.08 60.08"><style>.st1{fill:#015294}</style><path class="st1" d="M30.41 1.04c.88-.01 1.76-.2 2.63-.02 3.86.34 7.67 1.4 11.11 3.21 4.45 2.28 8.27 5.74 11.05 9.89 2.83 4.22 4.51 9.19 4.89 14.26-.06 1.34-.1 2.69.03 4.03-.28 3.85-1.24 7.67-2.96 11.14-1.96 4.03-4.86 7.6-8.4 10.35-4.4 3.45-9.81 5.61-15.38 6.12-.85.06-1.7.22-2.55.15-.57-.04-1.14.14-1.69-.09 2.08-5.86 4.16-11.72 6.26-17.57 2.29-.04 4.57.02 6.86-.03 1.46-.05 2.9-.94 3.38-2.36 1.93-5.44 3.92-10.87 5.79-16.34.31-.83.48-1.75.23-2.61-.33-1.1-1.33-1.87-2.41-2.16-.94-.29-1.92-.18-2.89-.2-2.93-.01-5.87.02-8.8-.01-.05.1-.14.29-.19.39-4.75 13.34-9.49 26.69-14.26 40.03a29.63 29.63 0 0 1-13.1-7.34c-4.38-4.2-7.43-9.78-8.55-15.74-.35-1.79-.48-3.61-.58-5.43.08-3.79.7-7.59 2.13-11.11C6.49 10.7 14.54 3.7 23.9 1.7c-4.79 13.29-9.47 26.61-14.26 39.9.31.09.63.06.94.06 1.75-.01 3.49 0 5.24 0 .24 0 .21-.33.31-.48 2.1-5.94 4.23-11.87 6.34-17.81.13-.37.24-.74.41-1.09 1.09.02 2.19-.01 3.28.01-2.29 6.43-4.57 12.88-6.9 19.3.24.1.51.07.76.07 1.83-.02 3.67.01 5.5-.01 2.07-5.85 4.17-11.68 6.25-17.53.44-1.2.48-2.61-.22-3.71-.62-.98-1.79-1.44-2.9-1.49-1.53-.05-3.05 0-4.58-.02 2.09-5.95 4.26-11.89 6.34-17.86z"/><path class="st1" d="M42.57 22.36c.18-.21.51-.08.75-.12.85.02 1.69-.01 2.54.01-1.97 5.63-4.04 11.24-5.98 16.88-1.1.08-2.2.03-3.3.02 2.01-5.59 3.99-11.19 5.99-16.79z"/></svg>