<svg id="Layer_1" xmlns="http://www.w3.org/2000/svg" viewBox="0 0 434.3 133"><path d="M255.6 69.8c-.4 1-.6 2-1 3-4.8-16.7-19.2-23.6-28-15.1 0 0 7.9-6.3 17.6 2 2 2 7.1 8.1 7.1 19.8-1.6 2-3.2 4-5.4 5.7 4.4-17-4.6-30.1-16.5-27.2-.2 0 9.9-1.4 13.9 10.5 1 2.8 2.2 10.7-3.6 20.8-2.4 1-4.8 1.8-7.5 2.2 12.3-12.5 11.1-28.5-.6-32.1-.2 0 9.3 3.8 6.9 16.3-.6 2.8-3.4 10.1-13.7 15.9-1.2-.2-2.6-.4-4-.6-1.2-.4-2.2-.8-3.4-1.2 16.9-4.6 23.8-19 15.3-28 0 0 6.3 7.9-2 17.5-1.8 2-8.1 7.1-19.8 7.1-2-1.6-4-3.2-5.6-5.2 16.9 4.2 30.3-4.6 27.2-16.8 0 0 1.6 9.9-10.5 14.1-2.6 1-10.5 2.2-20.6-3.6-1-2.3-1.8-4.8-2.2-7.3 12.5 12.1 28.2 10.9 31.9-1 0 0-3.6 9.5-16.1 7.1-2.8-.6-10.3-3.4-16.1-13.5.2-1.4.4-2.8.8-4.2.2-1 .6-2 1-3 4.6 16.5 19 23.4 28 14.9 0 0-7.9 6.3-17.6-2-2.2-2-7.1-7.9-7.1-19.6 1.4-2 3.2-4 5-5.4-4 16.5 4.8 29.7 16.7 26.8.2 0-9.9 1.4-13.9-10.5-1-2.8-2.2-10.5 3.4-20.4 2.2-1.2 4.6-1.8 7.3-2.4-11.9 12.5-10.7 28 1 31.7.2 0-9.3-3.6-6.9-16.1.6-2.8 3.2-10.1 13.3-15.9 1.4.2 3 .4 4.6.8 1 .2 1.8.6 2.8.8-16.5 4.8-23.4 19.2-14.9 28 0 0-6.3-7.9 2.2-17.5 1.8-2 7.9-7.1 19.4-7.1 2 1.4 4 3.2 5.6 5.2-16.8-4-29.7 4.8-26.8 16.7 0 0-1.6-9.9 10.5-14.1 2.6-.8 10.3-2.2 20.4 3.6 1.2 2.3 2 4.7 2.4 7.3-12.5-11.9-28.2-10.7-31.9 1 0 .2 3.6-9.3 16.1-6.9 2.8.6 10.3 3.2 15.9 13.3 0 1.5-.2 3.1-.6 4.6zM87.9 78.5c3.6 0 4.4-.2 6.5-1.6h9.9c-3.8 6.3-11.1 10.5-19.2 9.1-5-1-9.5-5.4-10.7-10.3-1.6-7.5 2-14.7 7.9-19 4.4-3.4 11.7-4.2 16.7-1.4 3.2 1.6 4.8 3.6 6.1 6 1.6 3.4 1.8 7.9.8 11.7H82.5s-.8 4.7 5.4 5.5zm-3.8-12.9h13.7s-1.2-5.2-7.1-4.2c-4.8.7-6.6 4.2-6.6 4.2zm329.2-11.3h-9.9l-11.1 11.1 4.2-22.8H388l-8.3 43.2h8.5l2.6-13.3 9.3 13.1h9.7L398.4 69l14.9-14.7zm19.2 0h-4l2.2-11.7h-9.1l-2.2 11.7h-4.2l-1.4 7.5h4.2l-4.4 23.6h8.9l4.6-23.6h3.8l1.6-7.5zM44.3 68.2l25-30.3h9.1l-9.1 47.6h-9.1l6.3-31.3-25.8 31.3H32l7.3-31.7-26.8 31.7H1.4l40.5-47.6h8.7l-6.3 30.3zm252.2-.2l24.8-30.3h9.3l-9.3 47.6h-9.1l6.3-31.3-25.8 31.3H284l7.5-31.7-27 31.7h-11.1l40.5-47.6h8.7L296.5 68zm86.8-15c-3.2 0-6.5 2.2-7.9 4.2l.6-2.8v-.2h-8.7l-5.9 31.3h8.7l3-17 .2.2c0-1.8 2.2-5 4.4-6.7 1.4-.8 2.8-1 4.4-1l1.6-8.1-.4.1zm-225.2 1.3L152 85.6h-8.7l6.3-31.3h8.5zm-6.4-11.5l-1.2 5.6h8.7l1-5.6h-8.5zm-3.3-.2l-8.7 43h-8.9l.2-.6c-2.2.8-5 1.2-8.1 1.2-9.1 0-15.5-7.5-14.3-16.5 1-8.9 9.3-16.1 18.4-16.1 3.6 0 7.1 1.2 9.5 3.2l2.8-14.1h9.1v-.1zm-24 36.1c5.2 0 9.9-3.6 10.1-9.1 0-4-2.2-7.7-7.5-8.3-4.4-.6-9.7 3.6-10.5 8.1-.9 5.8 3.3 9.3 7.9 9.3zm70.2-24.4l-5.9 31.3H180V85c-2 .8-4.6 1.2-7.5 1.2-9.1 0-15.5-7.3-14.5-16.3 1.2-9.1 9.5-16.3 18.6-16.3 3.4 0 6.5 1 8.9 2.8l.4-2 8.7-.1zm-20.1 24.4c5.6-.4 8.7-3.8 9.1-8.9.4-4.6-2-8.1-6.5-8.7-5.4-.6-10.5 3.8-10.9 8.7-.8 6.5 4.6 9.1 8.3 8.9zm189.2-24L357.8 86h-8.7l.2-.6c-2.2.6-4.6 1-7.7 1-8.9 0-15.3-7.3-14.3-16.3 1.2-8.9 9.5-16.1 18.6-16.1 3.4 0 6.5 1 8.9 2.6l.4-1.8h8.5v-.1zm-20 24.2c5.6-.2 8.7-3.8 8.9-8.9.4-4.4-2-8.1-6.3-8.5-5.6-.6-10.5 3.6-11.1 8.5-.6 6.4 4.9 9.1 8.5 8.9z" fill-rule="evenodd" clip-rule="evenodd" fill="#c6232d"/></svg>