<svg id="Layer_1" xmlns="http://www.w3.org/2000/svg" viewBox="0 0 256.6 117"><style>.st0{fill-rule:evenodd;clip-rule:evenodd;fill:#d26e30;stroke:#d26e30;stroke-width:1.051;stroke-miterlimit:2.613}</style><path class="st0" d="M136.1 54.9h5.3c5.8 0 8.4 0 8.4 4.9 0 15.1.4 1.8 0 15.1h12.9V58c-.4-2.7.9-7.6-7.6-7.6 4.4 0 8.4-3.1 8.4-9.8 0-10.2-10.7-12-18.6-12h-21.8v46.2H136l.1-19.9zm0-8.5v-8.9h5.3c4.4 0 8.9-.4 8.9 4.4 0 4.9-4.4 4.4-8.9 4.4l-5.3.1zM12.6 74.9V46.4l6.7 28.4h12.4l6.7-31.1v31.1h13.3V28.6H30.4l-3.5 21.8-4.5-21.8H1.9v46.2h10.7v.1zm45.3-35.6h13.3v35.6H57.9V39.3zm131 36.5c14.2 0 22.6-8.9 22.6-24 0-14.7-8.4-23.6-22.6-23.6-14.2 0-22.6 8.9-22.6 24 0 14.7 8.4 23.6 22.6 23.6zm9.3-23.6c0 6.7-1.3 16.4-9.3 16.4-8.4 0-9.3-9.8-9.3-16.4 0-7.1.9-16.4 9.3-16.4 8 0 9.3 9.3 9.3 16.4z"/><path d="M105.9 58c0 9.8-8 9.3-8.4 9.3-5.8 0-9.3-6.2-9.3-15.1 0-7.5 1.8-16.9 9.3-16.9 4 0 7.6 3.1 7.6 7.6H118c-1.3-10.7-9.3-14.7-21.8-14.7S74 37.5 74 51.7c0 14.7 9.8 23.6 21.8 23.6 7.1 0 11.6-4 11.6-4v3.6h11.1v-28h-22v8.4h9.3V58h.1z" fill-rule="evenodd" clip-rule="evenodd" fill="#d26e30"/><path d="M105.9 58c0 9.8-8.4 9.3-8.4 9.3-5.8 0-9.3-6.2-9.3-15.1 0-7.5 1.8-16.9 9.3-16.9 4 0 7.6 3.1 7.6 7.6H118c-1.3-10.7-9.3-14.7-21.8-14.7S74 37.5 74 51.7c0 14.7 9.8 23.6 21.8 23.6 7.1 0 11.6-4 11.6-4v3.6h11.1v-28h-22v8.4h9.3V58h.1z" fill="none" stroke="#d26e30" stroke-width="1.051" stroke-miterlimit="2.613"/><path class="st0" d="M57.9 28.6h13.3v8H57.9v-8zm196.3 14.7c.9-11.1-10.2-15.1-19.5-15.1-9.8 0-20 3.1-20.4 14.2 0 4.9 2.7 9.3 7.1 11.6 10.2 4.4 20.4 3.5 20.4 8.9 0 4.9-4.4 5.3-7.1 5.3-4.9 0-8-3.6-8-8h-12.9c0 12.4 9.8 15.6 20.4 15.6 10.7 0 21.8-4.4 21.8-14.2 0-12-12.4-13.3-20.4-15.5-3.1-.9-7.6-1.3-7.6-4.9 0-1.8.9-4.4 5.8-4.4 2.2 0 4.4.4 5.8 1.3.9 1.3 2.2 3.5 2.2 5.3l12.4-.1z"/></svg>