<svg id="Layer_1" xmlns="http://www.w3.org/2000/svg" viewBox="0 0 545.3 152.2"><path d="M541.6 99.8v1.1h.4c.2 0 .4-.2.4-.2.2 0 .2-.2.2-.2 0-.2 0-.4-.2-.4 0 0-.2-.2-.4-.2l-.4-.1zm-.7-.2h1.1c.4 0 .9 0 1.1.2 0 0 .2.2.2.4s0 .4-.2.7c0 0-.2.2-.4.2l.7 1.3h-.7l-.7-1.3h-.4v1.3h-.7v-2.8zm1.1-.9c.2 0 .7.2.9.2.2.2.4.2.7.4.2.2.4.4.4.9.2.2.2.4.2.9 0 .2 0 .4-.2.7 0 .4-.2.7-.4.9-.2 0-.4.2-.7.4h-1.7l-.7-.7c-.2-.2-.4-.4-.4-.7-.2-.2-.2-.4-.2-.9 0-.2 0-.4.2-.7 0-.4.2-.7.4-.9.2-.2.4-.2.7-.4.1.1.6-.1.8-.1zm0-.2c.4 0 .7 0 1.1.2.2 0 .4.2.7.4.4.2.4.7.7.9.2.2.2.7.2.9 0 .4 0 .9-.2 1.1s-.2.7-.7.9c-.2.2-.4.4-.7.4-.4.2-.7.2-1.1.2-.2 0-.7 0-.9-.2-.4 0-.7-.2-.9-.4-.2-.2-.4-.7-.7-.9 0-.4-.2-.7-.2-1.1 0-.2.2-.7.2-.9.2-.4.4-.7.7-.9.2-.2.4-.4.9-.4.2-.2.5-.2.9-.2zM324.4 72.8h-6.3v23.5h6.3c3.3 0 6.1-1.1 8.1-3.3 2.2-2.3 3.5-5.3 3.5-8.5 0-3.3-1.3-6.1-3.5-8.3-2-2.1-4.8-3.4-8.1-3.4zm27.7-8.3h39v12H378v-3.7h-6v8.5h6.1v-2.2h9.4V90h-9.4v-2H372v8.3h6.1v-3.5h13.1v11.6h-39.9v-8.1h7.4V72.8h-7.4v-8.3h.8zm68 8.3h-3.7v11.1h3.7c1.5 0 2.8-.7 3.9-1.7 1.1-.9 1.5-2.4 1.5-3.9s-.4-2.8-1.5-3.9c-1-1-2.3-1.6-3.9-1.6zm-23.7-8.3h27.3c1.1 0 2.2.2 3.5.2 1.1.2 2.2.4 3.3.9 5.5 1.5 10 5.4 10.2 12.4v.2c0 4.6-2.2 7.8-5.5 10.3-3 2.2-7.2 3.3-11.1 3.3h-7.6v4.6h7.6v8.1h-28.6v-8.1h7.6V72.8h-7.6v-8.3h.9zm73.4 8.3h-.2c-3 0-5.9 1.3-8.1 3.5-2 2.2-3.3 5-3.3 8.3 0 3.3 1.3 6.3 3.3 8.5 2.2 2.2 5 3.3 8.1 3.3h.2c3 0 5.9-1.1 8.1-3.3 2.1-2.3 3.3-5.4 3.3-8.5 0-3.3-1.3-6.1-3.3-8.3-2.2-2.2-5-3.5-8.1-3.5zm-.8-9h2.4c6.5 0 12.6 1.5 17 4.6 4.6 3.1 7.6 7.6 8.1 13.5v1.3c0 1.7-.2 3.5-.6 5-.4 1.6-1 3.2-2 4.6-4.1 7.2-12.9 11.8-23.1 12.4-.6 0-1.1.2-1.5.2-7 .2-13.1-1.3-17.6-4.4-4.8-3.3-7.9-7.6-8.3-13.7v-.9c0-2 .2-3.7.4-5.2.4-1.6 1-3.2 2-4.6 4-7.3 12.9-11.9 23.2-12.8zm29.6.7h46.7v12h-11.8v-3.7h-5.2v23.5h7v8.1h-27.7v-8.1h7.6V72.8h-5.9v3.7h-11.5v-12h.8zm-200.5 0H331c5 0 10 1.7 13.7 5 3.7 3.5 6.3 8.3 6.3 14.8 0 6.8-3.3 11.6-7.9 15-4.6 3.3-10.5 5-15.5 5h-30.5v-8.1h7.9V72.8h-7.9v-8.3h1zm-41.7 14.2c0-1.5-.9-3.3-2-4.6-1.3-1.5-3.3-2.4-5.7-2.4h-1.1c-2.4 0-4.4.9-5.9 2-1.4 1.3-2.2 3.1-2.4 5h17.1zM31.9 48.8c.9-.2 1.5-.2 2.4-.2 8.3-.2 15.7 2 21.6 6.1 5.7 4.4 9.6 10.5 10 18.5.2.4.2.9.2 1.5.2 12.4-6.8 22-17.4 27-2.2.9-4.4 1.7-6.8 2.4-2.4.5-4.8.8-7.2 1.1h-.2c-.4 0-1.1.2-1.5.2-8.5.2-16.4-1.7-22-6.1C5.1 95.4 1.1 88.9.5 80.6v-1.1C-.2 66.9 7 57.1 17.9 52.3c2-1.1 4.4-1.7 6.5-2.4 2.5-.7 4.9-.9 7.5-1.1zm1.7 10.5c-1.1 0-2.2.2-3 .4-1.3.2-2.4.4-3.5.9s-2.2 1.1-3.3 1.7c-4.6 3.3-7.9 8.5-7.9 14.6 0 1.1 0 2 .2 3 .6 3.7 2.2 7 4.8 9.4 2.4 2.6 5.5 4.4 8.9 5 1.1 0 2.2.2 3.3.2.9 0 2 0 2.8-.2 1.3-.2 2.4-.7 3.5-1.1 1.3-.4 2.4-1.1 3.3-1.7 4.8-3.1 7.8-8.5 7.8-14.6 0-.9 0-2-.2-2.8-.4-3.7-2.2-7-4.6-9.6-2.6-2.4-5.7-4.1-9.2-4.8-.9-.2-1.8-.4-2.9-.4zm36.2 5.2h8.7v-5.7c0-3.5 1.5-6.8 4.1-9.4S89.1 45 93.7 45h13.7v8.3h-7c-2.2 0-4.1.2-5.4 1.1-1.3.7-2.2 2-2.2 3.9v6.1h11.6v8.3H92.9v23.5h10v8.1h-34v-8.1h9.6V72.8h-9.6v-8.3h.9zm39.9 0h8.5v-5.7c0-3.5 1.5-6.8 4.1-9.4 2.8-2.6 6.5-4.4 11.3-4.4h13.7v8.3h-7c-2.2 0-4.1.2-5.7 1.1-1.1.7-2 2-2 3.9v6.1h11.3v8.3h-11.3v23.5h10v8.1h-34v-8.1h9.4V72.8h-9.4v-8.3h1.1zm55.2-19.6c2.4 0 4.8.9 6.5 2 1.7 1.3 2.8 3.3 2.8 5.2s-1.1 3.9-2.8 5.2c-1.7 1.1-4.1 2-6.5 2-2.6 0-4.8-.9-6.5-2-1.7-1.3-2.8-3.3-2.8-5.2 0-2 1.1-3.9 2.8-5.2 1.7-1.2 3.8-2 6.5-2zm-15.5 19.6h23.1v31.8h8.1v8.1h-32.1v-8.1h9.4V72.8h-9.4v-8.3h.9zm70.6.9v12.4h-10.5v-5h-2.6c-1.5 0-3.1.2-4.4.7-.2 0-.4 0-.4.2-1.1.2-2 .9-2.8 1.3 0 .2-.2.4-.4.4l-1.1 1.1c-.2.2-.4.7-.6 1.1-1.3 1.7-2 3.8-2 5.9v.7c.2.4.2.9.2 1.3.2.4.2.9.4 1.3.7 2.3 2.1 4.2 3.9 5.7 2.4 1.7 5.7 2.4 9.2 2.4 3.5.2 7.2-.4 10-.9l1.1-.2v8.9l-.6.2c-2.6.7-4.8 1.1-7.2 1.5-2.4.2-4.8.4-7.4.4h-1.3c-1.7 0-3.3-.2-4.8-.4-1.6-.4-3.2-.8-4.8-1.3-7.4-2.6-12.9-8.3-12.9-19v-.2c0-1.5.2-3.3.6-4.8.4-1.5 1.1-3 2-4.4 4.1-6.8 12.2-10.9 20.7-11.1h4.8c3.5.2 7 .4 10 .9l.9.2v.7zm31.6 30.5h4.4c3.9-.2 7.9-.9 10.7-2.2l1.3-.7v9.6l-.6.2c-.6.2-1.5.4-2.2.7-.9.2-1.7.4-2.4.7-4.5.9-9.1 1.3-13.7 1.3-.4 0-1.1 0-1.5-.2-1.7 0-3.5-.2-5.2-.4-1.7-.4-3.5-.9-5-1.3-8.1-2.8-13.5-8.3-13.7-19v-.4c.2-2 .4-3.9.9-5.4.6-1.7 1.3-3.3 2.2-4.8 4.4-7.2 12.9-10.7 22-10.7h.2c1.7 0 3.5.2 5 .4s3.1.6 4.4 1.3c7.2 2.6 12 8.5 12 17.9v3.9h-31c0 .7.2 1.3.4 2 .2.9.4 1.5.9 2.2 1.8 3.3 5.9 4.7 10.9 4.9z" fill-rule="evenodd" clip-rule="evenodd" fill="#cc2a2d"/></svg>