<svg id="Layer_1" xmlns="http://www.w3.org/2000/svg" viewBox="0 0 146.9 59.9"><g id="Rakuten"><path d="M12.3 17.5c6.9 0 12.4 5.6 12.4 12.4s-5.6 12.4-12.4 12.4S-.1 36.7-.1 29.8s5.6-12.3 12.4-12.3z" fill="#bf0000"/><path d="M10.8 36.5v-4.2h1.7l3.1 4.2h3.2l-3.7-5c1.2-.9 2-2.2 2-3.7 0-2.5-2.1-4.6-4.6-4.6H8.1v13.3h2.7zm0-10.8h1.6c1.2 0 2.1.9 2.1 2.1s-.9 2.1-2.1 2.1h-1.6v-4.2z" fill="#fff"/><path d="M108.4 36c-.2.4-.8 1.2-1.7 1.2-.7 0-2-.4-2-2.1v-7.7h6.2v-4.3h-6.2v-4.4h-4.3v4.4h-3.1v4.3h3.1v7.7c0 3.9 3.2 6.3 6.1 6.3 3.1 0 5.1-2.1 5.9-4.3l-4-1.1zM56 23.2v.8c-1.2-.8-2.6-1.2-4.2-1.2-4.6 0-8.3 4.3-8.3 9.4 0 5.2 3.7 9.4 8.3 9.4 1.4 0 2.8-.4 4.2-1.2v.8h4.3v-18H56zm-4.1 14c-2.3 0-4.2-2.3-4.2-5.1s1.9-5.1 4.2-5.1c2.3 0 4.2 2.3 4.2 5.1s-1.9 5.1-4.2 5.1zm39.8-14v10.5c0 2-1.6 3.6-3.6 3.6s-3.6-1.6-3.6-3.6V23.2h-4.3v10.5c0 4.3 3.5 7.9 7.9 7.9 1.3 0 2.5-.3 3.6-.9v.4H96V23.2h-4.3zm47.4-.5c-1.3 0-2.5.3-3.6.9v-.5h-4.3v17.8h4.3V30.4c0-2 1.6-3.6 3.6-3.6s3.6 1.6 3.6 3.6v10.5h4.3V30.4c-.1-4.2-3.6-7.7-7.9-7.7zm-9.5 9.4c0-5.2-3.7-9.4-8.3-9.4-4.7 0-8.3 4.2-8.3 9.4 0 5.5 4.7 9.4 9 9.4 2.1 0 5-.7 7.3-3.9l-3.7-2.1c-3.2 3.8-7.5 1.2-8-2h11.9c.1-.6.1-1 .1-1.4zm-4.8-2.6h-7.1c.7-3.4 6.3-4.1 7.1 0z"/><path d="M71.1 31.5l8.3-8.3h-5.9l-6.4 6.4V17.3h-4.3V41h4.3v-7.5l7.5 7.5h6zM31.4 41v-6.9h3.1l5.2 6.9h5.4l-6.3-8.3c2-1.4 3.2-3.6 3.2-6.2 0-4.3-3.5-7.7-7.7-7.7h-7v22.3h4.2V41zm0-18h2.7c2 0 3.5 1.5 3.5 3.5S36.1 30 34.2 30h-2.7v-7z"/></g></svg>