<?xml version="1.0" encoding="utf-8"?>
<!-- Generator: Adobe Illustrator 23.0.1, SVG Export Plug-In . SVG Version: 6.00 Build 0)  -->
<svg version="1.1"
	 id="Ebene_1" xmlns:cc="http://creativecommons.org/ns#" xmlns:dc="http://purl.org/dc/elements/1.1/" xmlns:inkscape="http://www.inkscape.org/namespaces/inkscape" xmlns:rdf="http://www.w3.org/1999/02/22-rdf-syntax-ns#" xmlns:sodipodi="http://sodipodi.sourceforge.net/DTD/sodipodi-0.dtd" xmlns:svg="http://www.w3.org/2000/svg"
	 xmlns="http://www.w3.org/2000/svg" xmlns:xlink="http://www.w3.org/1999/xlink" x="0px" y="0px" viewBox="0 0 76.9 73.5" width="63"
	 style="enable-background:new 0 0 76.9 73.5;" xml:space="preserve">
<style type="text/css">
	.st0{fill:#009FE3;}
	.st1{fill-rule:evenodd;clip-rule:evenodd;fill:#646363;}
</style>
<sodipodi:namedview  bordercolor="#666666" borderopacity="1" gridtolerance="10" guidetolerance="10" id="namedview276" inkscape:current-layer="Ebene_1" inkscape:cx="139.79103" inkscape:cy="-156.53287" inkscape:pageopacity="0" inkscape:pageshadow="2" inkscape:window-height="1017" inkscape:window-maximized="1" inkscape:window-width="1920" inkscape:window-x="1272" inkscape:window-y="-8" inkscape:zoom="1.1212982" objecttolerance="10" pagecolor="#ffffff" showgrid="false">
	</sodipodi:namedview>
<g id="g273" transform="translate(-375.6,-246.7)">
	<path id="path237" inkscape:connector-curvature="0" class="st0" d="M390.6,254.1h13.6c1.1,0,2,0.7,2,1.4c0,0.8-0.9,1.5-2,1.5
		h-13.6c-1.1,0-2-0.7-2-1.5C388.6,254.8,389.5,254.1,390.6,254.1z"/>
	<path id="path239" inkscape:connector-curvature="0" class="st0" d="M396.5,258.1h13.6c1.1,0,2,0.7,2,1.5c0,0.8-0.9,1.4-2,1.4
		h-13.6c-1.1,0-2-0.7-2-1.4C394.6,258.8,395.5,258.1,396.5,258.1z"/>
	<path id="path241" inkscape:connector-curvature="0" class="st0" d="M401.7,262.1h13.6c1.1,0,2,0.7,2,1.4c0,0.8-0.9,1.5-2,1.5
		h-13.6c-1.1,0-2-0.7-2-1.5C399.8,262.7,400.6,262.1,401.7,262.1z"/>
	<path id="path243" inkscape:connector-curvature="0" class="st0" d="M407.2,266.2h13.6c1.1,0,2,0.7,2,1.5s-0.9,1.5-2,1.5h-13.6
		c-1.1,0-2-0.7-2-1.5S406.1,266.2,407.2,266.2z"/>
	<path id="path245" inkscape:connector-curvature="0" class="st0" d="M418.1,257.9h13.6c1.1,0,2,0.7,2,1.5c0,0.8-0.9,1.4-2,1.4
		h-13.6c-1.1,0-2-0.7-2-1.4C416.2,258.6,417,257.9,418.1,257.9L418.1,257.9z"/>
	<path id="path247" inkscape:connector-curvature="0" class="st0" d="M422.9,253.9h13.6c1.1,0,2,0.7,2,1.4c0,0.8-0.9,1.4-2,1.4
		h-13.6c-1.1,0-2-0.7-2-1.4S421.8,253.9,422.9,253.9z"/>
	<path id="path249" inkscape:connector-curvature="0" class="st0" d="M411.2,270.3h13.6c1.1,0,2,0.7,2,1.5s-0.9,1.5-2,1.5h-13.6
		c-1.1,0-2-0.7-2-1.5C409.3,270.9,410.1,270.3,411.2,270.3z"/>
	<path id="path251" inkscape:connector-curvature="0" class="st0" d="M404.9,274.1h13.6c1.1,0,2,0.7,2,1.5c0,0.8-0.9,1.5-2,1.5
		h-13.6c-1.1,0-2-0.7-2-1.5C402.9,274.8,403.8,274.1,404.9,274.1z"/>
	<path id="path253" inkscape:connector-curvature="0" class="st0" d="M397.8,278h13.6c1.1,0,2,0.7,2,1.5c0,0.8-0.9,1.5-2,1.5h-13.6
		c-1.1,0-2-0.7-2-1.5C395.8,278.6,396.7,278,397.8,278z"/>
	<path id="path255" inkscape:connector-curvature="0" class="st0" d="M392.4,281.9H406c1.1,0,2,0.7,2,1.5s-0.9,1.5-2,1.5h-13.6
		c-1.1,0-2-0.7-2-1.5C390.4,282.5,391.3,281.9,392.4,281.9z"/>
	<path id="path257" inkscape:connector-curvature="0" class="st0" d="M419.8,278.1h13.6c1.1,0,2,0.7,2,1.5s-0.9,1.5-2,1.5h-13.6
		c-1.1,0-2-0.7-2-1.5C417.9,278.8,418.8,278.1,419.8,278.1z"/>
	<path id="path259" inkscape:connector-curvature="0" class="st0" d="M424.4,282.1H438c1.1,0,2,0.7,2,1.5s-0.9,1.5-2,1.5h-13.6
		c-1.1,0-2-0.7-2-1.5C422.4,282.7,423.3,282.1,424.4,282.1z"/>
	<path id="path261" inkscape:connector-curvature="0" class="st1" d="M389.4,304.9c0-0.3-0.1-0.4-0.4-0.4h-1l-3-4.3l3-4.2h1
		c0.3,0,0.4-0.1,0.4-0.4v-1.8c0-0.3-0.1-0.4-0.4-0.4h-2.7c-0.4,0-0.4,0.1-0.6,0.3l-1.6,2.3c-0.4,0.7-0.7,1.1-1.1,1.7
		c-0.4-0.6-0.7-1.1-1.1-1.7l-1.6-2.3c-0.2-0.2-0.2-0.3-0.6-0.3h-2.7c-0.3,0-0.4,0.1-0.4,0.4v1.8c0,0.3,0.1,0.4,0.4,0.4h1l3,4.2
		l-3,4.3h-1c-0.3,0-0.4,0.1-0.4,0.4v1.8c0,0.3,0.1,0.4,0.4,0.4h2.8c0.4,0,0.4-0.1,0.6-0.3l1.6-2.5c0.3-0.5,0.8-1.3,1.1-1.7
		c0.3,0.4,0.7,1.2,1.1,1.7l1.6,2.5c0.2,0.3,0.2,0.3,0.6,0.3h2.8c0.3,0,0.4-0.1,0.4-0.4V304.9z"/>
	<path id="path263" inkscape:connector-curvature="0" class="st1" d="M396.3,296.8c0.4-0.4,1-1,2.2-1c1.7,0,2.2,1.6,2.2,4.4
		c0,3.3-0.5,4.6-2.4,4.6c-1.1,0-1.5-0.2-2-0.5L396.3,296.8L396.3,296.8L396.3,296.8z M398.1,310.5c0-0.3-0.1-0.4-0.4-0.4h-1.4v-3.3
		c0.6,0.3,1.3,0.7,2.9,0.7c3.6,0,5.1-2.7,5.1-7.5c0-4.6-1.7-7.1-4.8-7.1c-1.9,0-3,1-3.7,1.4c-0.2-0.5-0.2-1-0.7-1h-3.9
		c-0.3,0-0.4,0.1-0.4,0.4v1.8c0,0.3,0.1,0.4,0.4,0.4h1.3c0.3,0.3,0.3,0.9,0.3,2.4V310h-1.4c-0.3,0-0.4,0.1-0.4,0.4v1.8
		c0,0.3,0.1,0.4,0.4,0.4h6.3c0.3,0,0.4-0.1,0.4-0.4L398.1,310.5L398.1,310.5L398.1,310.5z"/>
	<path id="path265" inkscape:connector-curvature="0" class="st1" d="M407.4,302.2c0,2.5,0,5.3,3.4,5.3c1.3,0,2.8-0.4,2.8-0.8
		c0-0.1,0-0.2-0.1-0.2l-0.5-2.3c0-0.1-0.1-0.2-0.2-0.2c-0.2,0-0.5,0.2-1.1,0.2c-0.8,0-0.8-0.8-0.8-1.6v-15c0-0.3-0.1-0.4-0.4-0.4
		H406c-0.3,0-0.4,0.1-0.4,0.4v1.8c0,0.3,0.1,0.4,0.4,0.4h1.4L407.4,302.2L407.4,302.2z"/>
	<path id="path267" inkscape:connector-curvature="0" class="st1" d="M421.9,304c-0.3,0.3-1,1-2,1c-1,0-1.8-0.8-1.8-1.9
		c0-2.4,3.2-2.2,3.9-2.2V304z M425.2,297.4c0-2.9-1.3-4.5-4.8-4.5c-2.1,0-4.8,0.7-4.8,1.3c0,0.1,0.1,0.2,0.1,0.4l0.5,1.7
		c0,0.1,0.1,0.3,0.3,0.3c0.4,0,1.9-0.8,3.4-0.8c1.8,0,1.9,0.8,1.9,2v0.8c-2.2,0-7.2,0-7.2,4.6c0,2.6,1.6,4.2,4.2,4.2
		c2,0,3-1.1,3.6-1.6c0.1,0.5,0.2,1.2,0.8,1.2h3.4c0.3,0,0.4-0.1,0.4-0.4v-1.8c0-0.3-0.1-0.4-0.4-0.4h-1.2c-0.1-0.5-0.3-1-0.3-2.3
		L425.2,297.4L425.2,297.4z"/>
	<path id="path269" inkscape:connector-curvature="0" class="st1" d="M437.2,304.3c-0.1-0.1-0.1-0.1-0.2-0.1c-0.3,0-1,0.6-2.4,0.6
		c-2.1,0-2.8-1.4-2.8-4.5c0-3.2,0.8-4.6,2.8-4.6c0.2,0,0.4,0,0.7,0.1v2c0,0.3,0.1,0.4,0.4,0.4h2c0.3,0,0.4-0.1,0.4-0.4v-3.7
		c0-0.8-2-1.2-3.4-1.2c-4.2,0-6.5,2.9-6.5,7.5s2.3,7,6.1,7c1.6,0,3.9-0.5,3.9-1.1c0-0.1-0.1-0.2-0.1-0.3L437.2,304.3z"/>
	<path id="path271" inkscape:connector-curvature="0" class="st1" d="M443.4,298.6c0.1-0.8,0.2-3.1,2.4-3.1c1.9,0,2,1.9,2,3.1H443.4
		z M450.8,301.2c0.5,0,0.7-0.2,0.7-0.7c0-3.3-0.8-7.5-5.5-7.5c-3.7,0-6,3-6,7.4c0,5.1,2.5,7.1,6.1,7.1c2.2,0,5-0.9,5-1.6
		c0-0.1-0.1-0.2-0.1-0.3l-0.7-1.6c-0.1-0.1-0.2-0.2-0.3-0.2c-0.4,0-1.5,0.9-3.5,0.9c-2.6,0-3-1.9-3-3.4L450.8,301.2z"/>
</g>
</svg>
