<?xml version="1.0" encoding="utf-8"?>
<!-- Generator: Adobe Illustrator 23.0.1, SVG Export Plug-In . SVG Version: 6.00 Build 0)  -->
<svg version="1.1"
	 id="svg4161" xmlns:cc="http://creativecommons.org/ns#" xmlns:dc="http://purl.org/dc/elements/1.1/" xmlns:inkscape="http://www.inkscape.org/namespaces/inkscape" xmlns:rdf="http://www.w3.org/1999/02/22-rdf-syntax-ns#" xmlns:sodipodi="http://sodipodi.sourceforge.net/DTD/sodipodi-0.dtd" xmlns:svg="http://www.w3.org/2000/svg"
	 xmlns="http://www.w3.org/2000/svg" xmlns:xlink="http://www.w3.org/1999/xlink" x="0px" y="0px" viewBox="0 0 295 164" width="108"
	 style="enable-background:new 0 0 295 164;" xml:space="preserve">
<style type="text/css">
	.st0{fill-rule:evenodd;clip-rule:evenodd;fill:#033A63;}
</style>
<sodipodi:namedview  bordercolor="#666666" borderopacity="1.0" id="base" inkscape:current-layer="layer1" inkscape:cx="303.44572" inkscape:cy="184.92373" inkscape:document-units="px" inkscape:pageopacity="0.0" inkscape:pageshadow="2" inkscape:window-height="705" inkscape:window-maximized="1" inkscape:window-width="1366" inkscape:window-x="-8" inkscape:window-y="-8" inkscape:zoom="0.49497475" pagecolor="#ffffff" showgrid="false" units="px">
	</sodipodi:namedview>
<g id="layer1" transform="translate(0,-848.64918)" inkscape:groupmode="layer" inkscape:label="Layer 1">
	<path id="path4728" inkscape:connector-curvature="0" class="st0" d="M0,878.7h4.7v55.4h25.3l-2.2,4.7c-9.2,0-18.5,0-27.7,0
		C0,938.7,0,878.7,0,878.7z"/>
	<path id="path4730" inkscape:connector-curvature="0" class="st0" d="M63.3,878.7h-4.7l-26.2,60.1h4.7l6.8-15.6
		c0.8-1.5,2.7-2.9,5.2-4.2c4-1.9,9.5-3.1,15.7-3.1c5.5,0,13.2,1.1,18.2,4.5l2.9-3.7c-1-0.7-2.1-1.3-3.3-1.9
		c-1.3-0.7-2.8-1.2-4.4-1.7L63.3,878.7L63.3,878.7L63.3,878.7z M47.7,914.5L60.9,884L73,911.8c-2.6-0.4-5.3-0.7-8.2-0.7
		C58.3,911.1,52.2,912.4,47.7,914.5L47.7,914.5L47.7,914.5z M76.6,920c1.1,0.3,2,0.7,2.9,1.2c0.4,0.2,0.8,0.4,1.1,0.6
		c0.3,0.2,0.6,0.4,1,0.6l1,0.7l6.8,15.7h-4.7L76.6,920L76.6,920z"/>
	<path id="path4732" inkscape:connector-curvature="0" class="st0" d="M162.9,878.7h-4.7L132,938.7h4.7l6.8-15.6
		c0.8-1.5,2.7-2.9,5.2-4.2c4-1.9,9.6-3.1,15.7-3.1c5.5,0,13.2,1.1,18.1,4.5l2.9-3.7c-1-0.7-2.1-1.3-3.3-1.9
		c-1.3-0.7-2.8-1.2-4.4-1.7L162.9,878.7L162.9,878.7L162.9,878.7z M147.3,914.5l13.2-30.4l12.1,27.8c-2.6-0.4-5.3-0.7-8.2-0.7
		C157.8,911.1,151.8,912.4,147.3,914.5L147.3,914.5L147.3,914.5z M176.2,920c1.1,0.3,2,0.7,2.9,1.2c0.4,0.2,0.8,0.4,1.1,0.6
		c0.3,0.2,0.6,0.4,1,0.6l1,0.7l6.8,15.7h-4.7L176.2,920L176.2,920z"/>
	<path id="path4734" inkscape:connector-curvature="0" class="st0" d="M268.8,878.7h-4.7L238,938.7h4.7l6.8-15.6
		c0.8-1.5,2.7-2.9,5.2-4.2c4-1.9,9.6-3.1,15.7-3.1c5.5,0,13.2,1.1,18.1,4.5l2.9-3.7c-1-0.7-2.1-1.3-3.3-1.9
		c-1.3-0.7-2.8-1.2-4.4-1.7L268.8,878.7L268.8,878.7z M253.3,914.5l13.2-30.4l12.1,27.8c-2.6-0.4-5.3-0.7-8.2-0.7
		C263.8,911.1,257.8,912.4,253.3,914.5L253.3,914.5L253.3,914.5z M282.2,920c1.1,0.3,2,0.7,2.9,1.2c0.4,0.2,0.8,0.4,1.1,0.6
		c0.3,0.2,0.6,0.4,1,0.6l1,0.7l6.8,15.7h-4.7L282.2,920z"/>
	<polygon id="polygon4736" class="st0" points="95.4,883.3 93.2,878.7 131.4,878.7 131.4,883.3 99.4,934.1 129.5,934.1 127.3,938.7 
		94.6,938.7 93.4,936.1 125.6,883.3 	"/>
	<path id="path4738" inkscape:connector-curvature="0" class="st0" d="M194,908.7v-30h12.2c8.8,0,15.2,0.7,19.2,2.2
		c5.7,2,10.2,5.6,13.4,10.6c3.1,4.8,4.7,10.6,4.8,17.3c-0.1,6.7-1.7,12.4-4.8,17.3c-3.2,5-7.7,8.6-13.4,10.6
		c-4,1.4-10.4,2.2-19.2,2.2H194V908.7L194,908.7L194,908.7z M198.6,934.3h7.2c8.6,0,14.5-0.6,17.8-1.7c4.7-1.6,8.3-4.5,11-8.6
		c2.7-4.2,4.6-9.3,4.6-15.3c0-6-1.9-11.1-4.6-15.3c-2.7-4.2-6.4-7-11-8.6c-3.3-1.1-9.3-1.7-17.8-1.7h-7.2V934.3L198.6,934.3z"/>
</g>
</svg>
