<?xml version="1.0" encoding="utf-8"?>
<!-- Generator: Adobe Illustrator 23.0.1, SVG Export Plug-In . SVG Version: 6.00 Build 0)  -->
<svg version="1.1" id="Layer_1" xmlns="http://www.w3.org/2000/svg" xmlns:xlink="http://www.w3.org/1999/xlink" x="0px" y="0px"
	 viewBox="0 0 186.5 114.1" width="98" style="enable-background:new 0 0 186.5 114.1;" xml:space="preserve">
<style type="text/css">
	.st0{fill-rule:evenodd;clip-rule:evenodd;fill:#FF9900;}
	.st1{fill-rule:evenodd;clip-rule:evenodd;}
</style>
<g>
	<path class="st0" d="M115.7,76C105,83.9,89.5,88.1,76.1,88.1c-18.7,0-35.5-6.9-48.3-18.4c-1-0.9-0.1-2.1,1.1-1.4
		C42.7,76.3,59.7,81,77.2,81c11.8,0,24.9-2.5,36.9-7.6C115.9,72.8,117.4,74.7,115.7,76L115.7,76z"/>
	<path class="st0" d="M120.1,70.9c-1.4-1.7-9-0.8-12.5-0.4c-1,0.1-1.2-0.8-0.3-1.4c6.1-4.3,16.1-3,17.3-1.6s-0.3,11.5-6.1,16.3
		c-0.9,0.7-1.7,0.3-1.4-0.7C118.6,79.9,121.5,72.7,120.1,70.9z"/>
	<path class="st1" d="M107.8,38.7v-4.2c0-0.7,0.4-1,1-1h18.7c0.6,0,1.1,0.5,1.1,1v3.5c0,0.6-0.5,1.4-1.4,2.7l-9.7,13.8
		c3.6-0.1,7.4,0.5,10.7,2.3c0.7,0.4,0.9,1,1,1.6v4.5c0,0.7-0.6,1.4-1.4,1c-5.8-3-13.4-3.4-19.8,0.1c-0.7,0.3-1.4-0.3-1.4-1v-4.3
		c0-0.6,0-1.8,0.7-2.8l11.2-16.1h-9.8C108.4,39.8,107.8,39.3,107.8,38.7L107.8,38.7z M39.6,64.8h-5.7c-0.5-0.1-1-0.4-1-1V34.6
		c0-0.6,0.5-1,1.1-1h5.3c0.6,0,1,0.5,1,1v3.8h0.1c1.4-3.7,4-5.4,7.5-5.4c3.5,0,5.8,1.7,7.4,5.4c1.4-3.7,4.5-5.4,7.9-5.4
		c2.4,0,5,1,6.6,3.2c1.8,2.5,1.4,6,1.4,9.2v18.5c0,0.6-0.5,1-1.1,1h-5.6c-0.6-0.1-1-0.5-1-1V48.3c0-1.2,0.1-4.3-0.1-5.5
		c-0.5-1.9-1.7-2.5-3.4-2.5c-1.4,0-2.8,0.9-3.4,2.4c-0.6,1.5-0.5,3.9-0.5,5.6v15.5c0,0.6-0.5,1-1.1,1h-5.7c-0.6-0.1-1-0.5-1-1V48.3
		c0-3.2,0.5-8.1-3.5-8.1c-4.1,0-3.9,4.6-3.9,8.1v15.5C40.7,64.3,40.2,64.8,39.6,64.8L39.6,64.8z M144.8,32.9c8.5,0,13,7.2,13,16.5
		c0,8.9-5,16-13,16c-8.3,0-12.8-7.2-12.8-16.3C132,40,136.6,32.9,144.8,32.9L144.8,32.9z M144.8,38.9c-4.2,0-4.4,5.8-4.4,9.3
		c0,3.5-0.1,11.2,4.4,11.2c4.4,0,4.6-6.1,4.6-9.9c0-2.5-0.1-5.4-0.8-7.8C147.9,39.7,146.6,38.9,144.8,38.9L144.8,38.9z M168.8,64.8
		h-5.7c-0.6-0.1-1-0.5-1-1V34.5c0.1-0.5,0.5-1,1.1-1h5.3c0.5,0,0.9,0.4,1,0.8v4.4h0.1c1.6-4,3.8-5.9,7.8-5.9c2.5,0,5,0.9,6.6,3.4
		c1.5,2.3,1.5,6.3,1.5,9.1v18.4c-0.1,0.5-0.5,0.9-1.1,0.9h-5.7c-0.5-0.1-1-0.5-1-0.9V48c0-3.2,0.4-7.9-3.6-7.9
		c-1.4,0-2.6,0.9-3.3,2.3c-0.8,1.8-0.9,3.6-0.9,5.6v15.8C169.9,64.3,169.4,64.8,168.8,64.8L168.8,64.8z M92.9,50.8
		c0,2.2,0.1,4.1-1,6.1c-0.9,1.6-2.3,2.6-3.9,2.6c-2.2,0-3.5-1.7-3.5-4.1c0-4.8,4.3-5.8,8.5-5.8V50.8z M98.7,64.7
		c-0.4,0.3-0.9,0.4-1.4,0.1C95.4,63.3,95,62.5,94,61c-3.1,3.2-5.4,4.1-9.4,4.1c-4.8,0-8.5-3-8.5-8.9c0-4.6,2.5-7.8,6.1-9.3
		c3.1-1.4,7.4-1.6,10.7-2v-0.7c0-1.4,0.1-3-0.7-4.1c-0.7-1-2-1.5-3.2-1.5c-2.2,0-4.1,1.1-4.6,3.4c-0.1,0.5-0.4,1-1,1L78,42.5
		c-0.4-0.1-1-0.5-0.8-1.2c1.3-6.7,7.3-8.7,12.7-8.7c2.8,0,6.4,0.7,8.6,2.8c2.8,2.6,2.5,6.1,2.5,9.8v8.9c0,2.6,1.1,3.8,2.1,5.3
		c0.4,0.5,0.4,1.2,0,1.5C101.9,61.9,99.8,63.7,98.7,64.7L98.7,64.7z M18.4,50.8c0,2.2,0.1,4.1-1,6.1c-0.9,1.6-2.3,2.6-3.9,2.6
		c-2.2,0-3.5-1.7-3.5-4.1c0-4.8,4.3-5.8,8.5-5.8V50.8z M24,64.7c-0.4,0.3-0.9,0.4-1.4,0.1c-1.9-1.5-2.3-2.3-3.3-3.8
		c-3.1,3.2-5.4,4.1-9.4,4.1c-4.8,0-8.5-3-8.5-8.9c0-4.6,2.5-7.8,6.1-9.3c3.1-1.4,7.4-1.6,10.7-2v-0.7c0-1.4,0.1-3-0.7-4.1
		c-0.7-1-2-1.5-3.2-1.5c-2.2,0-4.1,1.1-4.6,3.4c-0.1,0.5-0.4,1-1,1l-5.5-0.6c-0.5-0.1-1-0.5-0.8-1.2c1.3-6.7,7.3-8.7,12.7-8.7
		c2.8,0,6.4,0.7,8.6,2.8c2.8,2.6,2.5,6.1,2.5,9.8v8.9c0,2.6,1.1,3.8,2.1,5.3c0.4,0.5,0.5,1.2,0,1.5C27.3,61.9,25.2,63.7,24,64.7
		L24,64.7z"/>
</g>
</svg>
