<?xml version="1.0" encoding="utf-8"?>
<!-- Generator: Adobe Illustrator 23.0.1, SVG Export Plug-In . SVG Version: 6.00 Build 0)  -->
<svg version="1.1" id="Layer_1" xmlns="http://www.w3.org/2000/svg" xmlns:xlink="http://www.w3.org/1999/xlink" x="0px" y="0px"
	 viewBox="0 0 381.6 158" width="145" style="enable-background:new 0 0 381.6 158;" xml:space="preserve">
<style type="text/css">
	.st0{fill:#E23A05;}
	.st1{fill:#293847;}
</style>
<path class="st0" d="M42.5,79.5c-3,4.3-7.9,6.8-13.1,6.8c-9.3,0-16.3-7-16.3-16.4c0-4.7,1.7-8.9,4.8-11.9c3-2.9,7.1-4.5,11.5-4.5
	c5.2,0,10.1,2.5,13.1,6.8l0.5,0.7l9.7-8.2l-0.5-0.6c-5.7-6.7-14-10.6-22.8-10.6c-16.1,0-29.1,12.7-29.1,28.3
	c0,15.6,13.1,28.2,29.1,28.2c8.8,0.1,17.1-3.8,22.8-10.5l0.5-0.6L43,78.8L42.5,79.5z"/>
<path class="st1" d="M99.4,39.2v57.5H88.7v-2.5c-3.4,2-7.7,3.2-12.1,3.2c-11.5,0-21-8.7-21-21.4c0-13,9.4-21.4,21-21.4
	c4.2,0,8.4,1.1,12.1,3.1V39.2H99.4z M88.7,84.2V67.6c-2.5-2.1-6.1-3.5-10.1-3.5c-7.1,0-12.3,5.1-12.3,11.9c0,7,5.3,11.8,12.3,11.8
	C82.6,87.8,86.2,86.4,88.7,84.2z M108.5,58.6h10.6v38.1h-10.6V58.6z M130.1,85.5c5.1,2.2,9,3.4,14.2,3.4c4.9,0,6.8-1.8,6.8-4
	c0-2.4-2.4-3.4-8.8-4.8c-8.9-2-15.4-4.9-15.4-12.9c0-7.5,6.2-12.6,15.8-12.6c6.5,0,11.7,1.5,16.2,3.4l-3.5,7.8
	c-4-1.5-8.8-2.7-12.9-2.7c-4,0-6.1,1.4-6.1,3.7c0,2.3,2.5,3.4,9.1,4.7c9.6,2,15.2,5.3,15.2,12.9c0,7.9-6,13-16.6,13
	c-7.2,0-11.8-1-17.9-4L130.1,85.5z M203.9,89c-3.7,5.1-9.6,8.3-16,8.3c-12.5,0-22.6-9.5-22.6-21.3c0-11.9,10.1-21.4,22.6-21.4
	c6.6,0,12.4,3.2,16.2,8.2l-6.9,6.3c-2.1-3.1-5.6-5-9.3-5c-6.7,0-12.2,5.3-12.2,11.9c0,6.5,5.5,11.8,12.2,11.8c3.8,0,7.3-1.9,9.3-5.1
	L203.9,89z M252.4,75.9c0,11.8-10.1,21.3-22.6,21.3c-12.5,0-22.6-9.5-22.6-21.3c0-11.9,10.1-21.4,22.6-21.4
	C242.3,54.5,252.4,64.1,252.4,75.9z M242,75.9c0-6.6-5.4-11.9-12.2-11.9c-6.7,0-12.2,5.3-12.2,11.9c0,6.5,5.5,11.8,12.2,11.8
	C236.5,87.8,242,82.4,242,75.9L242,75.9z M298.3,55.6v41.1h-10.6v-2.8c-3.1,2.1-7,3.4-11.3,3.4c-12.1,0-17.7-5.6-17.7-19.1V55.6
	h10.6v22.6c0,6.4,3.1,9.5,9,9.5c3.8,0,6.9-1.2,9.4-3.3V55.6L298.3,55.6L298.3,55.6L298.3,55.6z M346.4,73.6v23.1h-10.6V73.6
	c0-6.4-3.1-9.5-9-9.5c-3.7,0-6.8,1.2-9.1,3.3v29.3h-10.6V55.3h10.6v2.6c3-2.1,6.9-3.4,11.1-3.4C340.8,54.5,346.4,60.2,346.4,73.6z
	 M368,64.1v14.6c0,7.4,1.2,9.5,6.6,9.5c1.8,0,3.4-0.2,4.9-0.4v7.9c-0.5,0.2-3.7,1.5-9.6,1.5c-6.9,0-12.5-4.3-12.5-13V64.1h-5.9v-8.8
	h5.9V39.2H368v16.1h11.6v8.8H368z"/>
<path class="st0" d="M108.1,44.6c0-3.4,2.7-6.3,6.1-6.3s6,2.8,6,6.3s-2.7,6.2-6,6.2C110.8,50.8,108.1,48,108.1,44.6z"/>
</svg>
