<?xml version="1.0" encoding="utf-8"?>
<!-- Generator: Adobe Illustrator 23.0.1, SVG Export Plug-In . SVG Version: 6.00 Build 0)  -->
<svg version="1.1" id="Layer_1" xmlns="http://www.w3.org/2000/svg" xmlns:xlink="http://www.w3.org/1999/xlink" x="0px" y="0px"
	 viewBox="0 0 188.2 91.9" width="123" style="enable-background:new 0 0 188.2 91.9;" xml:space="preserve">
<style type="text/css">
	.st0{fill-rule:evenodd;clip-rule:evenodd;fill:#233881;}
</style>
<title>Slice 1</title>
<desc>Created with Sketch.</desc>
<g id="Page-1">
	<g id="Icecatlogoeps">
		<path id="Fill-1" class="st0" d="M18.6,53H27V24.9h-8.4V53z M18.6,21.3H27v-6.2h-8.4V21.3z"/>
		<path id="Fill-2" class="st0" d="M50.1,35.6c-0.3-1.8-0.8-3.2-1.6-4.2c-0.8-1-1.8-1.5-3-1.5c-1.7,0-3,0.8-3.9,2.3
			c-0.9,1.5-1.3,3.8-1.3,6.8c0,2.9,0.5,5.2,1.3,6.8c0.9,1.6,2.2,2.4,3.8,2.4c1.3,0,2.4-0.5,3.3-1.5c0.9-1,1.4-2.4,1.6-4.2l7.1,0.8
			c-0.4,3.3-1.7,5.8-3.9,7.8c-2.3,1.9-5.1,2.9-8.5,2.9c-4,0-7.2-1.4-9.7-4.1s-3.8-6.3-3.8-10.6c0-4.5,1.3-8.1,3.9-10.8
			s6-4.1,10.2-4.1c3.2,0,5.9,0.9,8,2.8c2.1,1.9,3.4,4.5,3.8,7.8L50.1,35.6"/>
		<path id="Fill-3" class="st0" d="M69.1,35.8l11.1,0c0-2-0.5-3.5-1.5-4.6c-1-1.1-2.3-1.6-4.1-1.6c-1.7,0-3,0.6-3.9,1.7
			C69.8,32.3,69.2,33.8,69.1,35.8z M88.6,44.4c-0.9,3-2.6,5.3-5,6.9s-5.3,2.4-8.8,2.4c-4.3,0-7.9-1.3-10.5-4s-4-6.3-4-10.7
			c0-4.3,1.4-7.9,4.2-10.7s6.4-4.2,10.7-4.2c4.2,0,7.6,1.3,10,4c2.4,2.7,3.6,6.4,3.6,11.1v1.1H69c0,2.4,0.5,4.3,1.6,5.6
			c1.1,1.3,2.6,2,4.5,2c1.4,0,2.6-0.4,3.6-1.1s1.7-1.8,2-3.1L88.6,44.4L88.6,44.4z"/>
		<path id="Fill-4" class="st0" d="M110.4,35.6c-0.3-1.8-0.8-3.2-1.6-4.2c-0.8-1-1.8-1.5-3-1.5c-1.7,0-3,0.8-3.9,2.3
			c-0.9,1.5-1.3,3.8-1.3,6.8c0,2.9,0.4,5.2,1.3,6.8c0.9,1.6,2.2,2.4,3.8,2.4c1.3,0,2.4-0.5,3.3-1.5c0.9-1,1.4-2.4,1.6-4.2l7.1,0.8
			c-0.4,3.3-1.7,5.8-3.9,7.8c-2.3,1.9-5.1,2.9-8.5,2.9c-4,0-7.2-1.4-9.7-4.1s-3.8-6.3-3.8-10.6c0-4.5,1.3-8.1,3.9-10.8
			s6-4.1,10.2-4.1c3.2,0,5.9,0.9,8,2.8c2.1,1.9,3.4,4.5,3.8,7.8L110.4,35.6"/>
		<path id="Fill-5" class="st0" d="M139.4,39.2c-3.3,0-5.9,0.5-7.7,1.5c-1.8,0.9-2.6,2.2-2.6,4c0,1.2,0.4,2,1.1,2.7
			c0.8,0.6,1.8,1,3.1,1c1.7,0,3.2-0.6,4.3-1.9c1.1-1.2,1.7-2.8,1.7-4.7L139.4,39.2L139.4,39.2z M140.2,53c-0.2-0.6-0.3-1.3-0.4-2
			s-0.1-1.6-0.2-2.5c-1,1.7-2.2,3-3.8,3.9s-3.4,1.3-5.5,1.3c-3,0-5.4-0.8-7.2-2.3c-1.8-1.5-2.7-3.6-2.7-6.3c0-3.3,1.6-5.8,4.8-7.6
			c3.2-1.7,7.9-2.6,14.2-2.7v-1.2c0-1.4-0.4-2.5-1.2-3.2c-0.8-0.7-2-1.1-3.5-1.1c-1.7,0-3.1,0.3-4,1c-1,0.7-1.6,1.7-1.8,3l-7.7-0.8
			c0.7-2.8,2.2-4.8,4.5-6.2c2.3-1.4,5.5-2.1,9.4-2.1c4.4,0,7.5,0.9,9.4,2.6c1.9,1.7,2.9,4.5,2.9,8.4v12.5c0,1.2,0.1,2.3,0.2,3.2
			c0.1,0.9,0.3,1.6,0.6,2.2L140.2,53L140.2,53z"/>
		<g id="Group-9" transform="translate(0.000000, 4.000000)">
			<g id="Clip-7">
			</g>
			<path id="Fill-6" class="st0" d="M154.8,39.9V26.4h-4.5v-5.5h4.8l0.4-7.8l7.5-0.5v8.3h5.8v5.5h-5.8V39c0,1.7,0.2,2.9,0.7,3.5
				c0.5,0.6,1.4,0.9,2.6,0.9c0.5,0,1,0,1.5-0.1c0.5-0.1,1-0.2,1.6-0.3l0,6.1c-1,0.2-1.9,0.3-2.8,0.5c-0.9,0.1-1.8,0.2-2.6,0.2
				c-3.3,0-5.6-0.8-7.1-2.3C155.5,45.9,154.8,43.4,154.8,39.9"/>
			<path id="Fill-8" class="st0" d="M-0.2,58.9c0,0,87.9-17.4,188.4,0C188.2,58.9,104.5,45.4-0.2,58.9"/>
		</g>
		<path id="Fill-10" class="st0" d="M45.2,71.5c-0.3,0.2-0.7,0.3-1,0.3c-0.3,0.1-0.6,0.1-0.9,0.1c-0.7,0-1.1-0.2-1.4-0.5
			c-0.3-0.4-0.4-1-0.4-2v-3.8h-0.8v-0.7l2.3-2.2h0.5v2.1h1.6v0.8h-1.6v4c0,0.4,0.1,0.7,0.2,0.9c0.1,0.1,0.4,0.2,0.8,0.2
			c0.1,0,0.2,0,0.3,0c0.1,0,0.2,0,0.3,0V71.5"/>
		<path id="Fill-11" class="st0" d="M46,71.8v-0.7c0.3,0,0.6-0.1,0.7-0.2c0.1-0.1,0.2-0.3,0.2-0.6v-7.4l-0.8-0.5v-0.5l2.4-0.8h0.5
			v4.4c0.5-0.3,0.9-0.5,1.2-0.6c0.3-0.1,0.7-0.2,1-0.2c0.7,0,1.2,0.2,1.5,0.6c0.3,0.4,0.5,1,0.5,1.8v3.1c0,0.3,0.1,0.5,0.2,0.6
			c0.1,0.1,0.3,0.2,0.6,0.2v0.7h-3.5V71c0.3,0,0.5-0.1,0.6-0.2c0.1-0.1,0.2-0.3,0.2-0.6V67c0-0.4-0.1-0.7-0.2-0.8
			c-0.1-0.2-0.4-0.2-0.7-0.2c-0.2,0-0.3,0-0.5,0.1c-0.2,0-0.5,0.1-0.7,0.2v3.9c0,0.3,0,0.5,0.2,0.7c0.1,0.1,0.3,0.2,0.6,0.2v0.7
			L46,71.8"/>
		<path id="Fill-12" class="st0" d="M56.9,67.1h2.4c0,0,0-0.1,0-0.1c0-0.1,0-0.1,0-0.1c0-0.4-0.1-0.7-0.3-1
			c-0.2-0.2-0.5-0.3-0.9-0.3c-0.3,0-0.6,0.1-0.8,0.4C57,66.2,56.9,66.6,56.9,67.1z M61.3,67.8h-4.3v0c0,0.7,0.2,1.3,0.5,1.7
			s0.8,0.7,1.4,0.7c0.3,0,0.5,0,0.8-0.2c0.3-0.1,0.7-0.3,1.1-0.5l0.5,0.5c-0.6,0.6-1.1,1.1-1.6,1.4c-0.5,0.3-1,0.4-1.5,0.4
			c-1,0-1.7-0.3-2.3-1c-0.6-0.7-0.9-1.6-0.9-2.7c0-1,0.3-1.9,0.9-2.6c0.6-0.7,1.4-1,2.4-1c0.9,0,1.5,0.3,2.1,0.8
			C61,66.1,61.2,66.9,61.3,67.8L61.3,67.8z"/>
		<path id="Fill-13" class="st0" d="M68.2,67.9c0,1,0.1,1.8,0.4,2.4c0.3,0.6,0.6,0.8,1,0.8c0.5,0,0.8-0.2,1.1-0.6s0.3-1,0.3-1.9
			c0-1-0.1-1.8-0.4-2.3s-0.6-0.8-1.1-0.8c-0.4,0-0.8,0.2-1,0.6C68.3,66.5,68.2,67.1,68.2,67.9z M69.5,71.9c-1.1,0-1.9-0.3-2.6-1
			c-0.7-0.7-1-1.6-1-2.7c0-1,0.3-1.8,1-2.5s1.6-1,2.6-1s1.9,0.3,2.6,1c0.7,0.7,1,1.6,1,2.6c0,1-0.3,1.9-1,2.6
			C71.5,71.6,70.6,71.9,69.5,71.9L69.5,71.9z"/>
		<path id="Fill-14" class="st0" d="M76.8,69.4c0,0.6,0.1,1.1,0.3,1.3c0.2,0.2,0.5,0.4,0.9,0.4c0.5,0,0.9-0.2,1.2-0.6
			c0.3-0.4,0.4-1,0.4-1.8c0-0.7-0.2-1.3-0.5-1.8c-0.3-0.4-0.8-0.7-1.3-0.7c-0.3,0-0.6,0.1-0.7,0.2c-0.2,0.2-0.2,0.4-0.2,0.7V69.4z
			 M73.8,74.6v-0.7c0.3,0,0.6-0.1,0.7-0.2c0.1-0.1,0.2-0.3,0.2-0.6v-6.6L73.8,66v-0.5l2.4-0.8h0.5v0.9c0.3-0.3,0.7-0.5,1-0.7
			c0.3-0.1,0.7-0.2,1.1-0.2c0.8,0,1.4,0.3,1.9,0.9c0.5,0.6,0.8,1.4,0.8,2.3c0,1.1-0.3,2.1-1,2.8S79,71.9,78,71.9
			c-0.2,0-0.4,0-0.7-0.1c-0.2-0.1-0.4-0.1-0.7-0.3V73c0,0.3,0.1,0.5,0.2,0.6c0.2,0.1,0.4,0.2,0.8,0.2v0.7L73.8,74.6L73.8,74.6z"/>
		<path id="Fill-15" class="st0" d="M84.5,67.1h2.4c0,0,0-0.1,0-0.1c0-0.1,0-0.1,0-0.1c0-0.4-0.1-0.7-0.3-1
			c-0.2-0.2-0.5-0.3-0.9-0.3c-0.3,0-0.6,0.1-0.8,0.4C84.6,66.2,84.5,66.6,84.5,67.1z M88.8,67.8h-4.3v0c0,0.7,0.2,1.3,0.6,1.7
			s0.8,0.7,1.4,0.7c0.3,0,0.5,0,0.8-0.2c0.3-0.1,0.7-0.3,1.1-0.5l0.5,0.5c-0.6,0.6-1.1,1.1-1.6,1.4c-0.5,0.3-1,0.4-1.5,0.4
			c-0.9,0-1.7-0.3-2.3-1c-0.6-0.7-0.9-1.6-0.9-2.7c0-1,0.3-1.9,0.9-2.6c0.6-0.7,1.4-1,2.4-1c0.9,0,1.6,0.3,2.1,0.8
			C88.5,66.1,88.8,66.9,88.8,67.8L88.8,67.8z"/>
		<path id="Fill-16" class="st0" d="M89.8,71.8v-0.7c0.3,0,0.6-0.1,0.7-0.2c0.1-0.1,0.2-0.3,0.2-0.6v-3.8L89.8,66v-0.5l2.4-0.8h0.5
			v0.8c0.4-0.3,0.8-0.5,1.2-0.6s0.7-0.2,1.1-0.2c0.7,0,1.2,0.2,1.5,0.6c0.3,0.4,0.5,1,0.5,1.8v3.1c0,0.3,0.1,0.5,0.2,0.6
			c0.1,0.1,0.3,0.2,0.6,0.2v0.7h-3.6V71c0.3,0,0.5-0.1,0.6-0.2c0.1-0.1,0.2-0.3,0.2-0.6V67c0-0.4-0.1-0.7-0.2-0.8
			c-0.1-0.2-0.4-0.2-0.7-0.2c-0.2,0-0.4,0-0.6,0.1c-0.2,0-0.4,0.1-0.7,0.2v3.9c0,0.3,0.1,0.5,0.2,0.7c0.1,0.1,0.3,0.2,0.6,0.2v0.7
			L89.8,71.8"/>
		<path id="Fill-17" class="st0" d="M108.9,70.4c-0.5,0.5-1,0.9-1.5,1.1c-0.5,0.3-1,0.4-1.6,0.4c-0.9,0-1.7-0.3-2.3-1
			s-0.9-1.5-0.9-2.5c0-1.1,0.3-2,1-2.7c0.7-0.7,1.5-1.1,2.6-1.1c0.8,0,1.4,0.2,1.9,0.5c0.5,0.3,0.7,0.8,0.7,1.3
			c0,0.3-0.1,0.5-0.3,0.7c-0.2,0.2-0.4,0.3-0.7,0.3c-0.2,0-0.4-0.1-0.5-0.2c-0.2-0.1-0.3-0.3-0.3-0.5c0,0-0.1-0.1-0.1-0.2
			c-0.3-0.7-0.6-1-1.1-1c-0.4,0-0.7,0.2-0.9,0.5c-0.2,0.3-0.3,0.8-0.3,1.3c0,0.9,0.2,1.6,0.6,2.2c0.4,0.6,1,0.8,1.6,0.8
			c0.3,0,0.6-0.1,0.8-0.2s0.6-0.2,0.8-0.4L108.9,70.4"/>
		<path id="Fill-18" class="st0" d="M113.7,70.3v-1.8c-0.6,0.2-1.1,0.4-1.4,0.7s-0.5,0.5-0.5,0.8c0,0.2,0.1,0.4,0.2,0.6
			c0.2,0.2,0.4,0.2,0.6,0.2c0.2,0,0.3,0,0.5-0.1C113.3,70.5,113.5,70.4,113.7,70.3z M113.8,71.2c-0.4,0.3-0.7,0.4-1.1,0.6
			c-0.3,0.1-0.7,0.2-1,0.2c-0.6,0-1.1-0.2-1.4-0.5c-0.4-0.3-0.6-0.7-0.6-1.3c0-0.6,0.3-1.1,0.9-1.5c0.6-0.4,1.6-0.8,2.9-1.1v-1.2
			c0-0.4-0.1-0.7-0.2-0.8s-0.4-0.3-0.7-0.3c-0.3,0-0.5,0-0.6,0.2c-0.2,0.1-0.3,0.2-0.3,0.4c0,0.1,0,0.3,0.1,0.4
			c0.1,0.2,0.1,0.3,0.1,0.3c0,0.1-0.2,0.2-0.5,0.4c-0.3,0.2-0.6,0.3-0.9,0.3c-0.1,0-0.3-0.1-0.3-0.3s-0.2-0.4-0.2-0.7
			c0-0.5,0.2-0.9,0.7-1.2c0.5-0.3,1.1-0.5,1.9-0.5c1.1,0,1.9,0.2,2.2,0.5s0.6,0.9,0.6,1.8v3c0,0.3,0,0.5,0.1,0.5
			c0.1,0.1,0.1,0.1,0.2,0.1c0.1,0,0.1,0,0.2,0c0.1,0,0.2-0.1,0.3-0.1c0,0.5-0.1,0.8-0.4,1.1c-0.3,0.3-0.6,0.4-1.1,0.4
			c-0.3,0-0.5-0.1-0.7-0.2C114.1,71.6,113.9,71.4,113.8,71.2L113.8,71.2z"/>
		<path id="Fill-19" class="st0" d="M121.5,71.5c-0.3,0.2-0.7,0.3-1,0.3c-0.3,0.1-0.6,0.1-0.9,0.1c-0.7,0-1.1-0.2-1.4-0.5
			c-0.3-0.4-0.4-1-0.4-2v-3.8h-0.8v-0.7l2.3-2.2h0.5v2.1h1.6v0.8h-1.6v4c0,0.4,0.1,0.7,0.2,0.9c0.1,0.1,0.4,0.2,0.8,0.2
			c0.1,0,0.2,0,0.3,0c0.1,0,0.2,0,0.3,0L121.5,71.5"/>
		<path id="Fill-20" class="st0" d="M126.2,70.3v-1.8c-0.6,0.2-1.1,0.4-1.4,0.7s-0.5,0.5-0.5,0.8c0,0.2,0.1,0.4,0.2,0.6
			c0.2,0.2,0.4,0.2,0.6,0.2c0.2,0,0.3,0,0.5-0.1C125.8,70.5,126,70.4,126.2,70.3z M126.4,71.2c-0.4,0.3-0.7,0.4-1.1,0.6
			c-0.3,0.1-0.7,0.2-1,0.2c-0.6,0-1.1-0.2-1.4-0.5c-0.4-0.3-0.6-0.7-0.6-1.3c0-0.6,0.3-1.1,0.9-1.5c0.6-0.4,1.6-0.8,2.9-1.1v-1.2
			c0-0.4-0.1-0.7-0.2-0.8s-0.4-0.3-0.7-0.3c-0.3,0-0.5,0-0.6,0.2c-0.2,0.1-0.3,0.2-0.3,0.4c0,0.1,0,0.3,0.1,0.4
			c0.1,0.2,0.1,0.3,0.1,0.3c0,0.1-0.2,0.2-0.5,0.4c-0.3,0.2-0.6,0.3-0.9,0.3c-0.1,0-0.3-0.1-0.3-0.3s-0.2-0.4-0.2-0.7
			c0-0.5,0.2-0.9,0.7-1.2c0.5-0.3,1.1-0.5,1.9-0.5c1.1,0,1.9,0.2,2.2,0.5s0.6,0.9,0.6,1.8v3c0,0.3,0,0.5,0.1,0.5
			c0.1,0.1,0.1,0.1,0.2,0.1c0.1,0,0.1,0,0.2,0c0.1,0,0.2-0.1,0.3-0.1c0,0.5-0.1,0.8-0.4,1.1S128,72,127.5,72c-0.3,0-0.5-0.1-0.7-0.2
			C126.7,71.6,126.5,71.4,126.4,71.2L126.4,71.2z"/>
		<path id="Fill-21" class="st0" d="M132.7,70.2c0,0.3,0.1,0.5,0.2,0.6c0.1,0.1,0.4,0.2,0.7,0.2v0.8h-3.9V71c0.3,0,0.6-0.1,0.7-0.2
			c0.1-0.1,0.2-0.3,0.2-0.6v-7.4l-0.8-0.5v-0.5l2.4-0.8h0.5V70.2"/>
		<g id="Group-25" transform="translate(284.000000, 105.000000)">
			<g id="Clip-23">
			</g>
			<path id="Fill-22" class="st0" d="M-147.4-37.1c0,1,0.1,1.8,0.4,2.4s0.6,0.8,1,0.8c0.5,0,0.8-0.2,1.1-0.6s0.3-1,0.3-1.9
				c0-1-0.1-1.8-0.4-2.3c-0.3-0.5-0.6-0.8-1.1-0.8c-0.4,0-0.8,0.2-1,0.6C-147.4-38.5-147.4-37.9-147.4-37.1z M-146.1-33.1
				c-1.1,0-1.9-0.3-2.6-1c-0.6-0.7-1-1.6-1-2.7c0-1,0.3-1.8,1-2.5s1.6-1,2.6-1s1.9,0.3,2.6,1s1,1.6,1,2.6c0,1-0.3,1.9-1,2.6
				C-144.2-33.4-145-33.1-146.1-33.1L-146.1-33.1z"/>
			<path id="Fill-24" class="st0" d="M-138.5-39.5c-0.3,0-0.6,0.1-0.7,0.4c-0.2,0.3-0.3,0.6-0.3,1s0.1,0.8,0.3,1s0.4,0.4,0.7,0.4
				c0.3,0,0.6-0.1,0.7-0.4c0.2-0.3,0.3-0.6,0.3-1s-0.1-0.8-0.3-1C-137.9-39.3-138.2-39.5-138.5-39.5z M-140-32.9
				c-0.1,0.1-0.2,0.2-0.2,0.3c-0.1,0.1-0.1,0.2-0.1,0.3c0,0.3,0.1,0.6,0.4,0.8s0.7,0.3,1.3,0.3c0.8,0,1.4-0.1,1.7-0.3
				c0.4-0.2,0.6-0.4,0.6-0.8c0-0.3-0.1-0.5-0.5-0.5c-0.3-0.1-1.1-0.2-2.3-0.2c-0.1,0-0.3,0-0.4,0C-139.6-33-139.8-33-140-32.9z
				 M-140.7-33.3c-0.2-0.2-0.4-0.5-0.5-0.7s-0.2-0.4-0.2-0.6c0-0.3,0.1-0.6,0.3-0.8s0.5-0.5,0.9-0.7c-0.4-0.3-0.7-0.6-0.9-0.9
				s-0.3-0.7-0.3-1.1c0-0.7,0.2-1.2,0.7-1.6c0.5-0.4,1.1-0.6,2-0.6c0.3,0,0.6,0,0.9,0.1c0.4,0,0.9,0.1,1.6,0.2h1.4v1.2h-1.2
				c0.1,0.2,0.1,0.3,0.1,0.4s0,0.3,0,0.4c0,0.7-0.3,1.2-0.8,1.6s-1.2,0.6-2,0.6c-0.2,0-0.3,0-0.5,0c-0.2,0-0.3,0-0.5-0.1
				c-0.1,0.1-0.1,0.1-0.1,0.2s0,0.1,0,0.2c0,0.2,0.1,0.3,0.3,0.4c0.2,0.1,0.5,0.1,1,0.1c1.4,0,2.4,0.2,2.9,0.4
				c0.5,0.3,0.8,0.8,0.8,1.5c0,0.8-0.3,1.4-1,1.9c-0.7,0.5-1.6,0.7-2.7,0.7c-1.1,0-1.9-0.1-2.5-0.4s-0.8-0.7-0.8-1.2
				c0-0.3,0.1-0.5,0.3-0.7C-141.3-32.9-141.1-33.1-140.7-33.3L-140.7-33.3z"/>
		</g>
	</g>
</g>
</svg>
