<?xml version="1.0" encoding="utf-8"?>
<!-- Generator: Adobe Illustrator 23.0.1, SVG Export Plug-In . SVG Version: 6.00 Build 0)  -->
<svg version="1.1" id="Layer_1" xmlns="http://www.w3.org/2000/svg" xmlns:xlink="http://www.w3.org/1999/xlink" x="0px" y="0px"
	 viewBox="0 0 64.7 57.6" style="enable-background:new 0 0 64.7 57.6;" xml:space="preserve">
<style type="text/css">
	.st0{fill:url(#SVGID_1_);}
	.st1{fill:#2C1B30;}
	.st2{fill:#FFFFF4;}
</style>
<g id="surface1">
	<g>
		
			<linearGradient id="SVGID_1_" gradientUnits="userSpaceOnUse" x1="5.204" y1="14.0195" x2="52.3927" y2="47.0613" gradientTransform="matrix(1 0 0 -1 0 59.34)">
			<stop  offset="0" style="stop-color:#413445"/>
			<stop  offset="1" style="stop-color:#2C1B30"/>
		</linearGradient>
		<path class="st0" d="M57.6,28.8c0,15.9-12.9,28.8-28.8,28.8C12.9,57.6,0,44.7,0,28.8S12.9,0,28.8,0C44.7,0,57.6,12.9,57.6,28.8"/>
		<path class="st1" d="M62.6,22.4L62.6,22.4L59.7,24l-0.4-1.7l3.5-1.9h1.9v16.2h-2.1L62.6,22.4"/>
	</g>
	<path class="st2" d="M40.5,35.8c-1,0.4-2.9,0.9-5.2,0.9c-2.5,0-4.6-0.7-6.3-2.2c-1.4-1.4-2.3-3.6-2.3-6.3c0-5,3.5-8.7,9.1-8.7
		c1.9,0,3.5,0.4,4.2,0.8l-0.5,1.8c-0.9-0.4-2-0.7-3.7-0.7c-4.1,0-6.8,2.5-6.8,6.8c0,4.3,2.5,6.8,6.5,6.8c1.4,0,2.4-0.2,2.9-0.5v-5
		H35v-1.7h5.5V35.8"/>
	<path class="st2" d="M44.8,33.9c1,0.6,2.4,1.1,3.9,1.1c2.2,0,3.5-1.1,3.5-2.9c0-1.5-0.9-2.5-3.2-3.3c-2.7-1-4.4-2.4-4.4-4.8
		c0-2.6,2.2-4.6,5.4-4.6c1.7,0,3,0.4,3.7,0.8l-0.6,1.8c-0.5-0.3-1.6-0.8-3.2-0.8c-2.3,0-3.2,1.4-3.2,2.5c0,1.6,1,2.3,3.3,3.2
		c2.8,1.1,4.3,2.5,4.3,4.9c0,2.6-1.9,4.9-5.8,4.9c-1.6,0-3.4-0.5-4.3-1.1L44.8,33.9"/>
	<path class="st2" d="M6,28.7C6,15.9,16.3,5.5,29.1,5.5h0c-0.7-0.1-1.4-0.1-2-0.1C14.3,5.4,3.8,15.8,3.8,28.7
		c0,12.9,10.4,23.3,23.3,23.3c0.9,0,1.7,0,2.5-0.1c-0.2,0-0.4,0-0.5,0C16.4,51.8,6,41.4,6,28.7"/>
	<path class="st2" d="M11.7,28.9c0-11.4,9.3-20.7,20.7-20.7h0c-0.6-0.1-1.2-0.1-1.8-0.1c-11.5,0-20.8,9.3-20.8,20.8
		s9.3,20.8,20.8,20.8c0.8,0,1.5,0,2.3-0.1c-0.2,0-0.3,0-0.5,0C20.9,49.6,11.7,40.3,11.7,28.9"/>
	<path class="st2" d="M17.1,28.5c0-9.6,7.8-17.4,17.4-17.4h0c-0.5,0-1-0.1-1.5-0.1c-9.6,0-17.5,7.8-17.5,17.5S23.3,46,33,46
		c0.6,0,1.3,0,1.9-0.1c-0.1,0-0.3,0-0.4,0C24.9,45.9,17.1,38.1,17.1,28.5"/>
	<path class="st2" d="M21.9,28.5c0-7.9,6.4-14.3,14.3-14.3h0c-0.4,0-0.8-0.1-1.3-0.1c-7.9,0-14.3,6.4-14.3,14.3S27,42.9,34.9,42.9
		c0.5,0,1,0,1.6-0.1c-0.1,0-0.2,0-0.3,0C28.3,42.8,21.9,36.4,21.9,28.5"/>
</g>
</svg>
