<?xml version="1.0" encoding="utf-8"?>
<!-- Generator: Adobe Illustrator 23.0.1, SVG Export Plug-In . SVG Version: 6.00 Build 0)  -->
<svg version="1.1" id="Layer_1" xmlns="http://www.w3.org/2000/svg" xmlns:xlink="http://www.w3.org/1999/xlink" x="0px" y="0px"
	 viewBox="0 0 59.2 59.3" style="enable-background:new 0 0 59.2 59.3;" xml:space="preserve">
<style type="text/css">
	.st0{display:none;fill:#FFFFFF;}
	.st1{fill:url(#SVGID_1_);}
	.st2{fill:url(#SVGID_2_);}
</style>
<path class="st0" d="M-2440.8-2440.9h2500v2500h-2500V-2440.9z"/>
<g>
	
		<linearGradient id="SVGID_1_" gradientUnits="userSpaceOnUse" x1="5.7026" y1="13.1094" x2="53.6268" y2="47.9283" gradientTransform="matrix(1 0 0 -1 0 60.1143)">
		<stop  offset="0" style="stop-color:#82CBA1"/>
		<stop  offset="1" style="stop-color:#3AB39E"/>
	</linearGradient>
	<path class="st1" d="M29.5,0.1c0.9,0,1.8-0.2,2.6,0c3.9,0.3,7.7,1.4,11.1,3.2c4.5,2.3,8.3,5.7,11,9.9c2.8,4.2,4.5,9.2,4.9,14.3
		c-0.1,1.3-0.1,2.7,0,4c-0.3,3.8-1.2,7.7-3,11.1c-2,4-4.9,7.6-8.4,10.4c-4.4,3.5-9.8,5.6-15.4,6.1c-0.8,0.1-1.7,0.2-2.5,0.2
		c-0.6,0-1.1,0.1-1.7-0.1c2.1-5.9,4.2-11.7,6.3-17.6c2.3,0,4.6,0,6.9,0c1.5,0,2.9-0.9,3.4-2.4c1.9-5.4,3.9-10.9,5.8-16.3
		c0.3-0.8,0.5-1.8,0.2-2.6c-0.3-1.1-1.3-1.9-2.4-2.2c-0.9-0.3-1.9-0.2-2.9-0.2c-2.9,0-5.9,0-8.8,0c0,0.1-0.1,0.3-0.2,0.4
		c-4.8,13.3-9.5,26.7-14.3,40c-4.9-1.3-9.5-3.8-13.1-7.3c-4.4-4.2-7.4-9.8-8.6-15.7c-0.4-1.8-0.5-3.6-0.6-5.4
		c0.1-3.8,0.7-7.6,2.1-11.1C5.6,9.8,13.7,2.8,23,0.8C18.2,14,13.5,27.4,8.8,40.7c0.3,0.1,0.6,0.1,0.9,0.1c1.8,0,3.5,0,5.2,0
		c0.2,0,0.2-0.3,0.3-0.5c2.1-5.9,4.2-11.9,6.3-17.8c0.1-0.4,0.2-0.7,0.4-1.1c1.1,0,2.2,0,3.3,0c-2.3,6.4-4.6,12.9-6.9,19.3
		c0.2,0.1,0.5,0.1,0.8,0.1c1.8,0,3.7,0,5.5,0c2.1-5.8,4.2-11.7,6.3-17.5c0.4-1.2,0.5-2.6-0.2-3.7c-0.6-1-1.8-1.4-2.9-1.5
		c-1.5,0-3,0-4.6,0C25.3,12,27.4,6.1,29.5,0.1z"/>
	
		<linearGradient id="SVGID_2_" gradientUnits="userSpaceOnUse" x1="33.3054" y1="25.2031" x2="47.4156" y2="35.4548" gradientTransform="matrix(1 0 0 -1 0 60.1143)">
		<stop  offset="0" style="stop-color:#82CBA1"/>
		<stop  offset="1" style="stop-color:#3AB39E"/>
	</linearGradient>
	<path class="st2" d="M41.7,21.4c0.2-0.2,0.5-0.1,0.8-0.1c0.8,0,1.7,0,2.5,0c-2,5.6-4,11.2-6,16.9c-1.1,0.1-2.2,0-3.3,0
		C37.7,32.6,39.7,27,41.7,21.4L41.7,21.4z"/>
</g>
</svg>
