<svg id="Layer_1" xmlns="http://www.w3.org/2000/svg" viewBox="0 0 64.7 57.6"><style>.st2{fill:#ffb1a3}</style><g id="surface1"><linearGradient id="SVGID_1_" gradientUnits="userSpaceOnUse" x1="5.204" y1="14.02" x2="52.393" y2="47.061" gradientTransform="matrix(1 0 0 -1 0 59.34)"><stop offset="0" stop-color="#413445"/><stop offset="1" stop-color="#2c1b30"/></linearGradient><path d="M57.6 28.8c0 15.9-12.9 28.8-28.8 28.8S0 44.7 0 28.8 12.9 0 28.8 0s28.8 12.9 28.8 28.8" fill="url(#SVGID_1_)"/><path d="M62.6 22.4L59.7 24l-.4-1.7 3.5-1.9h1.9v16.2h-2.1V22.4" fill="#2c1b30"/><path class="st2" d="M40.5 35.8c-1 .4-2.9.9-5.2.9-2.5 0-4.6-.7-6.3-2.2-1.4-1.4-2.3-3.6-2.3-6.3 0-5 3.5-8.7 9.1-8.7 1.9 0 3.5.4 4.2.8l-.5 1.8c-.9-.4-2-.7-3.7-.7-4.1 0-6.8 2.5-6.8 6.8s2.5 6.8 6.5 6.8c1.4 0 2.4-.2 2.9-.5v-5H35v-1.7h5.5v8m4.3-1.9c1 .6 2.4 1.1 3.9 1.1 2.2 0 3.5-1.1 3.5-2.9 0-1.5-.9-2.5-3.2-3.3-2.7-1-4.4-2.4-4.4-4.8 0-2.6 2.2-4.6 5.4-4.6 1.7 0 3 .4 3.7.8l-.6 1.8c-.5-.3-1.6-.8-3.2-.8-2.3 0-3.2 1.4-3.2 2.5 0 1.6 1 2.3 3.3 3.2 2.8 1.1 4.3 2.5 4.3 4.9 0 2.6-1.9 4.9-5.8 4.9-1.6 0-3.4-.5-4.3-1.1l.6-1.7"/><path class="st2" d="M6 28.7C6 15.9 16.3 5.5 29.1 5.5c-.7-.1-1.4-.1-2-.1-12.8 0-23.3 10.4-23.3 23.3S14.2 52 27.1 52c.9 0 1.7 0 2.5-.1h-.5C16.4 51.8 6 41.4 6 28.7"/><path class="st2" d="M11.7 28.9c0-11.4 9.3-20.7 20.7-20.7-.6-.1-1.2-.1-1.8-.1-11.5 0-20.8 9.3-20.8 20.8s9.3 20.8 20.8 20.8c.8 0 1.5 0 2.3-.1h-.5c-11.5 0-20.7-9.3-20.7-20.7"/><path class="st2" d="M17.1 28.5c0-9.6 7.8-17.4 17.4-17.4-.5 0-1-.1-1.5-.1-9.6 0-17.5 7.8-17.5 17.5S23.3 46 33 46c.6 0 1.3 0 1.9-.1h-.4c-9.6 0-17.4-7.8-17.4-17.4"/><path class="st2" d="M21.9 28.5c0-7.9 6.4-14.3 14.3-14.3-.4 0-.8-.1-1.3-.1-7.9 0-14.3 6.4-14.3 14.3S27 42.9 34.9 42.9c.5 0 1 0 1.6-.1h-.3c-7.9 0-14.3-6.4-14.3-14.3"/></g></svg>