<svg id="Layer_1" xmlns="http://www.w3.org/2000/svg" viewBox="0 0 59.2 59.3"><linearGradient id="SVGID_1_" gradientUnits="userSpaceOnUse" x1="5.703" y1="13.109" x2="53.627" y2="47.928" gradientTransform="matrix(1 0 0 -1 0 60.114)"><stop offset="0" stop-color="#82cba1"/><stop offset="1" stop-color="#3ab39e"/></linearGradient><path d="M29.5.1c.9 0 1.8-.2 2.6 0 3.9.3 7.7 1.4 11.1 3.2 4.5 2.3 8.3 5.7 11 9.9 2.8 4.2 4.5 9.2 4.9 14.3-.1 1.3-.1 2.7 0 4-.3 3.8-1.2 7.7-3 11.1-2 4-4.9 7.6-8.4 10.4-4.4 3.5-9.8 5.6-15.4 6.1-.8.1-1.7.2-2.5.2-.6 0-1.1.1-1.7-.1 2.1-5.9 4.2-11.7 6.3-17.6h6.9c1.5 0 2.9-.9 3.4-2.4 1.9-5.4 3.9-10.9 5.8-16.3.3-.8.5-1.8.2-2.6-.3-1.1-1.3-1.9-2.4-2.2-.9-.3-1.9-.2-2.9-.2h-8.8c0 .1-.1.3-.2.4-4.8 13.3-9.5 26.7-14.3 40C17.2 57 12.6 54.5 9 51 4.6 46.8 1.6 41.2.4 35.3c-.4-1.8-.5-3.6-.6-5.4.1-3.8.7-7.6 2.1-11.1 3.7-9 11.8-16 21.1-18C18.2 14 13.5 27.4 8.8 40.7c.3.1.6.1.9.1h5.2c.2 0 .2-.3.3-.5 2.1-5.9 4.2-11.9 6.3-17.8.1-.4.2-.7.4-1.1h3.3c-2.3 6.4-4.6 12.9-6.9 19.3.2.1.5.1.8.1h5.5c2.1-5.8 4.2-11.7 6.3-17.5.4-1.2.5-2.6-.2-3.7-.6-1-1.8-1.4-2.9-1.5h-4.6c2.1-6.1 4.2-12 6.3-18z" fill="url(#SVGID_1_)"/><linearGradient id="SVGID_2_" gradientUnits="userSpaceOnUse" x1="33.305" y1="25.203" x2="47.416" y2="35.455" gradientTransform="matrix(1 0 0 -1 0 60.114)"><stop offset="0" stop-color="#82cba1"/><stop offset="1" stop-color="#3ab39e"/></linearGradient><path d="M41.7 21.4c.2-.2.5-.1.8-.1H45c-2 5.6-4 11.2-6 16.9-1.1.1-2.2 0-3.3 0l6-16.8z" fill="url(#SVGID_2_)"/></svg>